<?xml version="1.0" encoding="UTF-8" standalone="no"?>
<!-- Created with Inkscape (http://www.inkscape.org/) -->

<svg
   xmlns:dc="http://purl.org/dc/elements/1.1/"
   xmlns:cc="http://creativecommons.org/ns#"
   xmlns:rdf="http://www.w3.org/1999/02/22-rdf-syntax-ns#"
   xmlns:svg="http://www.w3.org/2000/svg"
   xmlns="http://www.w3.org/2000/svg"
   version="1.1"
   width="166.53543"
   height="226.77165"
   id="svg5512">
  <defs
     id="defs5514">
    <filter
       color-interpolation-filters="sRGB"
       id="filter7166">
      <feGaussianBlur
         stdDeviation="0.087649774"
         id="feGaussianBlur7168" />
    </filter>
  </defs>
  <metadata
     id="metadata5517">
    <rdf:RDF>
      <cc:Work
         rdf:about="">
        <dc:format>image/svg+xml</dc:format>
        <dc:type
           rdf:resource="http://purl.org/dc/dcmitype/StillImage" />
        <dc:title></dc:title>
      </cc:Work>
    </rdf:RDF>
  </metadata>
  <text
     x="468.1424"
     y="-261.86139"
     id="text4136"
     xml:space="preserve"
     style="font-size:40px;font-style:normal;font-variant:normal;font-weight:600;font-stretch:normal;line-height:125%;letter-spacing:0px;word-spacing:0px;fill:#000000;fill-opacity:1;stroke:none;font-family:Galette;-inkscape-font-specification:Galette Semi-Bold"><tspan
       x="468.1424"
       y="-261.86139"
       id="tspan4138" /></text>
  <g
     transform="matrix(0.22241978,0,0,0.22241978,-62.216171,48.93662)"
     id="g3115-7-9-8-4-68"
     style="fill:#000000">
    <path
       d="m 594.04775,350.76742 c -0.4382,-1.0946 -2.7655,-50.7114 -6.1435,-70.4153 -3.3778,-19.7039 -6.6413,-37.081 -7.2522,-38.6157 -0.8947,-2.2479 -2.6171,-2.9368 -8.8572,-3.5426 -18.7273,-1.8178 -49.5083,-14.313 -66.1246,-26.8422 -4.3763,-3.3 -8.5813,-5.7603 -9.3445,-5.4674 -0.763,0.2928 -15.5952,10.4979 -32.9601,22.6782 -17.3649,12.1802 -31.8432,21.8749 -32.1742,21.5442 -0.3309,-0.331 9.5733,-15.0302 22.0093,-32.665 12.4359,-17.6348 22.6109,-32.387 22.6109,-32.783 0,-0.3959 -3.8164,-6.4928 -8.4808,-13.5488 -12.6889,-19.1951 -20.0938,-37.6719 -23.7333,-59.2193 -1.5612,-9.2433 -2.1589,-10.6126 -5.014,-11.4876 -1.7826,-0.546203 -19.36269,-3.782503 -39.06659,-7.191603 -33.9487,-5.873602 -71.0933,-5.868502 -69.773,-6.867902 0.3041,-0.2302 50.6661,-4.0454 71.0999,-7.5065 20.4337,-3.4614 38.19699,-6.5973 39.47419,-6.9689 1.5144,-0.4407 2.3219,-1.9987 2.3219,-4.48 0,-2.0926 0.8678,-7.8739 1.9285,-12.8476 4.6352,-21.7357 14.4892,-43.2714 27.6755,-60.4847995 2.1075,-2.7509 3.5057,-5.8510995 3.1073,-6.8891995 -0.3983,-1.038 -10.6797,-15.981701 -22.8475,-33.208001 -12.1677,-17.2264 -21.9023,-31.5313 -21.6325,-31.7889 0.2697,-0.2574 15.3493,9.9554 33.5101,22.6951 l 33.0196,23.1631 3.469,-3.1036 c 15.1848,-13.5855 44.8062,-26.6888 68.7683,-30.4201 l 10.898,-1.697 1.2334,-6.0174 c 0.6785,-3.3095 3.8323,-21.0939 7.0085,-39.520695 3.1762,-18.4267 6.9116,-58.9469 7.3292,-58.9469 0.4177,0 1.8894,36.6391 4.2424,50.3223 2.353,13.6833 5.4941,31.481195 6.9802,39.550895 l 2.7022,14.6722 10.4883,1.5287 c 11.382,1.6589 30.2508,7.5474 42.0088,13.1099 4.0669,1.9239 12.6234,6.9956 19.0145,11.2705 6.3911,4.2749 11.9791,7.7725 12.418,7.7725 0.4389,0 15.21,-10.1643 32.8251,-22.5874 17.615,-12.4231 32.2692,-22.3456 32.5646,-22.0501 0.2955,0.2954 -9.2322,14.4901 -21.1728,31.5438 -11.9404,17.0534 -22.1439,31.734701 -22.6742,32.624701 -0.5679,0.953 2.1238,6.1277995 6.5464,12.5854995 12.5409,18.3117995 21.2663,39.5450995 24.9332,60.6756995 1.0476,6.0376 2.4105,11.4165 3.0283,11.9531 0.6178,0.5367 5.0043,1.6303 9.7479,2.4307 4.7436,0.8004 21.7606,3.6681 37.8156,6.3726 16.0551,2.7045 64.6214,5.3082 65.1659,5.786 0.5445,0.4779 -50.5619,3.7354 -70.8103,7.239102 -20.2485,3.5037 -38.143,6.6718 -39.7659,7.040003 -2.1771,0.4942 -3.1592,1.9387 -3.7464,5.5104 -4.1969,25.5325 -14.991,52.882 -27.6936,70.1677 -3.3432,4.5496 -6.0786,8.573 -6.0786,8.941 0,0.3677 7.252,10.9755 16.1156,23.5726 8.8638,12.5971 19.4231,27.6179 23.4653,33.3794 4.0423,5.7615 6.7601,10.2397 6.0399,9.9514 -0.7206,-0.2882 -16.0954,-10.8927 -34.1665,-23.5651 l -32.8565,-23.0413 -4.8896,3.8501 c -18.0356,14.2017 -46.6328,26.313 -69.5758,29.4663 -4.1973,0.577 -7.9361,1.3538 -8.3086,1.7262 -0.3724,0.3724 -3.6601,17.6374 -7.3061,38.3667 -8.0235,45.6194 -8.1035,74.8096 -9.1169,72.2793 z m 0.2352,-134.6814 c 0.2853,19.2744 0.9437,77.4942 1.5535,85.8876 1.9493,-10.2407 6.5172,-53.1087 11.0826,-85.709 -4.1412,0.1155 -7.8295,0.2597 -12.6361,-0.1786 z m -14.9761,16.9394 c 0,-0.8523 -0.6355,-5.1984 -1.4119,-9.6579 l -1.412,-8.108 -12.1883,-3.0324 c -6.7038,-1.6678 -13.0317,-3.1434 -14.0624,-3.279 -1.9564,-0.2573 -8.6823,14.287 -7.4953,16.208 1.2159,1.9673 25.3068,8.3595 34.9113,9.2632 0.9123,0.086 1.6586,-0.5414 1.6586,-1.3939 z m 46.6258,-1.031 c 15.9792,-3.3205 23.1427,-5.9218 22.6409,-8.2208 -0.8202,-3.7578 -6.1033,-15.7355 -6.9405,-15.7355 -0.4814,0 -4.2298,1.1542 -8.3299,2.5648 -4.1001,1.4108 -10.0974,2.9611 -13.3272,3.4455 -5.6756,0.8511 -5.9009,1.0654 -6.7206,6.3915 -0.4664,3.0309 -1.1969,7.4513 -1.6235,9.8231 -0.4515,2.5102 -0.2204,4.3124 0.5528,4.3124 0.7308,0 6.9173,-1.1615 13.748,-2.581 z m -86.7634,-16.6913 c 1.642,-4.0296 2.9855,-8.1063 2.9855,-9.0593 0,-0.953 -3.0966,-3.1781 -6.8813,-4.9449 -3.7846,-1.7666 -9.2263,-4.9072 -12.0926,-6.9787 l -5.2114,-3.7666 -8.3188,5.6412 -8.3188,5.6411 3.4939,2.8521 c 7.2334,5.9046 27.7893,17.9171 30.6947,17.9374 0.3648,0 2.0068,-3.2926 3.6488,-7.3223 z m 122.7877,4.5106 c 3.0725,-1.5512 10.5771,-6.0582 16.6768,-10.0156 l 11.0905,-7.1953 -8.2123,-5.7153 -8.2124,-5.715 -10.7194,6.4426 c -5.8956,3.5434 -11.5197,6.4423 -12.4979,6.4423 -0.9781,0 -1.7803,0.4479 -1.7823,0.9952 0,1.4279 6.9345,17.5809 7.5535,17.5809 0.2845,0 3.0309,-1.2689 6.1035,-2.8198 z m -174.4814,-16.4197 24.0126,-17.2492 -3.9165,-3.9652 -3.9164,-3.9653 -21.5514,21.6903 c -11.8532,11.9295 -20.8964,21.476 -20.0962,21.2144 0.8004,-0.2615 12.2608,-8.2378 25.4679,-17.725 z m 227.0153,-6.3025 c -9.541,-13.3184 -17.9022,-24.7974 -18.5802,-25.5089 -0.7862,-0.8248 -2.4411,0.1128 -4.568,2.588 l -3.3353,3.8814 21.5976,21.6273 c 11.8786,11.8952 21.7407,21.6275 21.9155,21.6275 0.1749,0 -7.4884,-10.8969 -17.0296,-24.2153 z m 4.422,-27.148 c 5.504,-8.2416 12.9833,-21.8238 12.9833,-23.5771 0,-0.8102 -14.2843,-7.3252 -16.0606,-7.3252 -0.624,0 -2.4137,2.507 -3.9767,5.571 -1.5633,3.064 -4.9213,8.7023 -7.4625,12.5297 l -4.6204,6.9587 5.6177,8.0085 c 3.0896,4.4046 6.0417,7.7463 6.5601,7.4259 0.5185,-0.3205 3.6499,-4.6367 6.9591,-9.5915 z m -233.1645,1.3655 c 3.9776,-5.9905 4.701,-7.9657 3.5239,-9.6198 -1.7795,-2.5009 -11.9373,-20.2029 -12.4778,-21.7453 -0.2096,-0.5984 -4.1398,0.5422 -8.7336,2.5347 -7.569,3.2825 -8.2769,3.924 -7.5453,6.8384 1.5109,6.0204 16.7618,29.5301 19.1562,29.5301 0.5893,0 3.3239,-3.3921 6.0766,-7.5381 z m -18.3653,-35.1827 6.8305,-2.657 -3.0769,-9.4875 c -1.6923,-5.218 -3.4334,-11.6409 -3.8694,-14.2729 -0.7923,-4.7835 -0.7961,-4.7859 -10.2351,-6.3446 -5.1935,-0.8576 -9.6682,-1.334 -9.944,-1.0582 -0.8761,0.8761 3.3972,21.115 6.3005,29.8393 2.2424,6.7384 3.2279,8.2265 4.9798,7.5194 1.2012,-0.4847 5.2578,-2.077 9.0146,-3.5385 z m 271.5506,-9.0269 c 1.7715,-6.203 3.6256,-14.4535 4.1202,-18.3343 l 0.8993,-7.0558 -6.3342,0.9497 c -13.1477,1.9717 -12.4431,1.2622 -16.4306,16.5471 -1.9893,7.6253 -3.5284,13.9574 -3.4205,14.0713 1.192,1.2565 16.3505,6.5194 17.0318,5.9131 0.5023,-0.447 2.3626,-5.888 4.134,-12.0911 z m -271.729,-40.824205 c -63.38319,0.1181 -57.58869,1.7737 -53.09219,2.6289 52.96369,11.472005 53.75779,14.496605 53.09219,-2.6289 z m 303.1705,-3.6646 c -15.7271,-1.6859 -29.2819,-2.5969 -43.1356,-3.7904 -1.0147,6.7708 -0.079,7.6443 0.093,11.2673 14.0567,9e-4 52.7353,-4.0149 68.8282,-4.7154 z m -177.7099,-125.1636 1.9005,-63.705895 -9.8881,64.572795 c 15.9857,-0.1846 1.8722,0.029 7.9876,-0.8669 z m 150.5107,106.9581 c -0.8275,-6.3276 -6.7259,-29.5118 -8.0557,-31.6635 -0.3036,-0.491 -4.4539,0.6854 -9.223,2.6143 -7.3631,2.9781 -8.5558,3.9076 -7.9055,6.1609 0.4213,1.4594 2.0356,7.729 3.5873,13.9321 1.5518,6.203 2.9393,11.4512 3.0836,11.6627 0.1441,0.2112 4.3682,1.2001 9.3869,2.1972 5.0187,0.9972 9.3302,1.8692 9.581,1.9378 0.2511,0.069 0.046,-3.0101 -0.4546,-6.8415 z m -283.5512,4.2451 6.5006,-1.394 2.7877,-10.8795 c 1.5332,-5.9836 3.1856,-12.2246 3.672,-13.8689 0.7804,-2.6381 0,-3.379 -6.6069,-6.3026 -4.1204,-1.8221 -8.0067,-3.3131 -8.6364,-3.3131 -2.3467,0 -4.8707,8.4906 -10.1571,34.1668 -0.7223,3.5087 1.9223,3.847 12.4401,1.5913 z m 136.5415,-97.2886 c -74.0968,-1.3609 -113.2494,42.6399 -114.2825,112.728 -1.6106,67.838005 44.7612,115.626005 112.862,115.930005 67.813,2.6213 112.0987,-41.2328 116.5147,-102.175403 -2.9955,-87.256102 -48.6109,-121.098502 -115.0942,-126.482602 z m -119.0279,60.4155 c 0,-0.6133 2.986,-6.0834 6.6356,-12.1554 l 6.6355,-11.0403998 -4.0546,-6.3187 c -6.6613,-10.3805997 -6.8895,-10.3966997 -13.5891,-0.9505 -3.2611,4.598 -7.8029,12.0981998 -10.0927,16.6672998 l -4.1633,8.3072 6.9921,3.194 c 7.303,3.3359 11.6365,4.1913 11.6365,2.2965 z m 245.8872,-1.7555 c 3.7841,-1.5788 7.3766,-3.2991 7.983,-3.8228 1.4401,-1.2436 -2.954,-9.8713 -12.0045,-23.5708998 l -7.2834,-11.0247997 -5.9156,8.12970002 -5.9156,8.12989968 5.8935,9.5292998 c 3.2415,5.2411 6.3034,10.8727 6.8046,12.5147 1.125,3.6855 1.8605,3.6936 10.438,0.1154 z m -241.8471,-57.2833 c -11.8784,-11.7965 -21.08,-20.5056 -20.448,-19.3536 0.6319,1.152 8.7995,12.647 18.1501,25.5446 l 17.0011,23.4500002 3.4469,-4.0963997 3.4468,-4.0963 z m 226.4362,0.7768 c 10.3044,-10.7642 19.5354,-20.3928 20.5133,-21.397 1.3469,-1.3829 -45.1366,31.495201 -47.8741,33.861901 -0.8809,0.7615 5.4985,7.1062995 7.145,7.1062995 0.8141,0 9.9113,-8.8070995 20.2158,-19.5712005 z m -178.8779,1.085 c 5.989,-3.5995 11.5086,-6.7511 12.2658,-7.0035 0.8227,-0.2743 -0.065,-4.0607 -2.2068,-9.41 l -3.5834,-8.9512 -10.0956,5.4456 c -11.2572,6.072 -22.7679,14.1239 -22.7679,15.9264 0,1.1468 13.098,10.5371 14.6976,10.5371 0.4407,0 5.7013,-2.9449 11.6903,-6.5444 z m 153.098,1.1124 7.6571,-5.432 -5.6668,-4.2599 c -10.5088,-7.8998 -26.7329,-16.6858 -28.1435,-15.2407 -0.8497,0.8702 -7.4327,16.1634 -7.0631,16.4088 0.1918,0.1273 4.5283,2.4753 9.6368,5.2173 5.1085,2.7421 10.1622,5.8302 11.2309,6.8621 2.8379,2.740901 3.9069,2.433101 12.3486,-3.5556 z m -124.4211,-13.9207 c 3.6489,-1.1412 9.2786,-2.4795 12.5105,-2.974 6.4643,-0.9891 6.9217,-1.7548 8.6792,-14.5345 l 0.8932,-6.4935 -4.4071,0.5405 c -6.6634,0.8174 -25.3033,5.3709 -29.9032,7.3051 l -4.065,1.7091 3.311,8.2754 c 1.8208,4.5516 3.994,8.2691 4.8289,8.261 0.8349,-0.013 4.5037,-0.948 8.1525,-2.0891 z m 89.1229,-6.3811 c 3.8771,-9.207 4.242,-8.7739 -10.8167,-12.8407 -13.3903,-3.6163 -24.5683,-5.2015 -24.5683,-3.4843 0,0.7059 0.7032,5.0994 1.5624,9.7632 1.3765,7.47 1.969,8.5691 4.9758,9.2289 1.8773,0.412 7.593,1.8346 12.7013,3.1615 5.1085,1.3271 10.0901,2.3179 11.07,2.2026 0.9802,-0.1154 3.2641,-3.7295 5.0755,-8.0312 z"
       id="path4466-2-4-8-5-5-7-9-5-1"
       style="fill:#000000" />
    <g
       transform="translate(448.59396,-60.236733)"
       id="g3032-0-3-7-7-5"
       style="fill:#000000">
      <g
         transform="translate(-451.17391,-70.82263)"
         id="g4413-9-5-7-7-0"
         style="fill:#000000">
        <path
           d="m 534.12054,161.88159 0,10.40612 47.25268,0 -19.71898,19.71898 -8.90796,8.86746 12.59261,0 c 20.11218,0 36.40116,16.32948 36.40116,36.44165 0,20.11218 -16.28898,36.40117 -36.40116,36.40117 -20.11217,0 -36.44165,-16.28899 -36.44165,-36.40117 l -10.40612,0 c 0,25.8585 20.98928,46.8073 46.84777,46.8073 25.85849,0 46.80728,-20.9488 46.80728,-46.8073 0,-21.99252 -15.15229,-40.48031 -35.59135,-45.51157 l 29.96314,-29.92264 z"
           id="path4996-4-0-4-8-9-7-2-6-0-9-9-2-3-1-8-2-8"
           style="color:#000000;fill:#000000;fill-opacity:1;fill-rule:evenodd;stroke:none;stroke-width:19.99983215;marker:none;visibility:visible;display:inline;overflow:visible;enable-background:accumulate" />
        <g
           transform="matrix(-1,0,0,-1,1130.6373,475.18252)"
           id="g4409-68-5-8-6-3"
           style="fill:#000000">
          <path
             d="m 565.33889,208.68886 c -15.80241,0 -28.62694,12.82454 -28.62694,28.62694 0,12.13086 7.56029,22.4873 18.22083,26.6429 l 0,-11.74231 c -4.72379,-3.28183 -7.81471,-8.71082 -7.81471,-14.90059 0,-10.05608 8.16474,-18.22082 18.22082,-18.22082 10.05608,0 18.18034,8.16474 18.18034,18.22082 0,6.17974 -3.07517,11.61703 -7.77422,14.90059 l 0,11.74231 c 10.64945,-4.1556 18.18033,-14.51204 18.18033,-26.6429 0,-15.8024 -12.78404,-28.62694 -28.58645,-28.62694 z"
             id="path4996-4-0-4-2-1-9-8-5-8-9-47-1-5-3-6"
             style="color:#000000;fill:#000000;fill-opacity:1;fill-rule:evenodd;stroke:none;stroke-width:20;marker:none;visibility:visible;display:inline;overflow:visible;enable-background:accumulate" />
          <path
             d="m 565.33889,232.0925 c -2.87317,0 -5.2233,2.35013 -5.2233,5.2233 l 0,31.17786 10.40612,0 0,-31.17786 c 0,-2.87317 -2.30965,-5.2233 -5.18282,-5.2233 z"
             id="rect5023-1-6-7-7-5-2-9-1-8-8-8-6-9-2-50"
             style="color:#000000;fill:#000000;fill-opacity:1;fill-rule:evenodd;stroke:none;stroke-width:20;marker:none;visibility:visible;display:inline;overflow:visible;enable-background:accumulate" />
        </g>
        <path
           d="m 630.85289,149.49143 c -5.72232,0.0544 -10.36388,0.85328 -11.49937,1.53864 -2.27103,1.37086 -2.80747,4.65767 -2.10552,5.42576 0.70195,0.76784 11.43046,7.65845 16.11531,9.92023 12.61445,6.09045 -1.28767,29.39594 -12.14722,25.22572 -7.69621,-2.95537 -16.42692,-11.75721 -17.8969,-11.82329 -1.46996,-0.0648 -3.36351,0.9263 -3.84662,3.4822 -0.48303,2.55591 3.00841,14.89689 11.7828,24.49689 10.52926,11.52022 26.92634,-1.20851 26.92634,9.31286 l 0,48.87231 a 13.017768,13.017768 0 0 0 26.03553,0 l 0,-62.4367 0,-14.57666 c 0,-5.46709 6.70282,-27.38877 -15.46745,-36.56312 -5.37441,-2.22388 -12.17459,-2.92922 -17.8969,-2.87484 z"
           id="path5018-1-3-2-1-4-7-5-6-89-1-7-3-1"
           style="fill:#000000;fill-opacity:1;stroke:none" />
      </g>
      <path
         d="M 146.87871,20 C 76.80785,20 20,76.8078 20,146.8787 c 0,70.0708 56.80785,126.87868 126.87871,126.87868 70.07082,0 126.87872,-56.80788 126.87872,-126.87868 C 273.75743,76.8078 216.94953,20 146.87871,20 z m 0,17.3855 c 60.46032,0 109.45402,49.0329 109.45402,109.4932 0,60.4603 -48.9937,109.454 -109.45402,109.454 -60.47222,0.3888 -108.64533,-55.933 -109.49316,-109.454 0,-60.4603 49.03291,-109.4932 109.49322,-109.4932 z"
         id="path7438-70-0-9-0-2-8-0-2-7-3"
         style="color:#000000;fill:#000000;fill-opacity:1;fill-rule:evenodd;stroke:none;stroke-width:10.41600037;marker:none;visibility:visible;display:inline;overflow:visible;enable-background:accumulate" />
    </g>
  </g>
  <text
     x="69.780548"
     y="142.27344"
     id="text3150-0-3-2-6-83"
     xml:space="preserve"
     style="font-size:9.52536106px;font-style:normal;font-variant:normal;font-weight:600;font-stretch:normal;text-align:center;line-height:125%;letter-spacing:0px;word-spacing:0px;text-anchor:middle;fill:#000000;fill-opacity:1;stroke:none;font-family:Galette;-inkscape-font-specification:Galette Semi-Bold"><tspan
       x="69.780548"
       y="142.27344"
       id="tspan3154-2-2-1-9-9"
       style="font-size:9.52536106px;font-style:normal;font-variant:normal;font-weight:bold;font-stretch:normal;font-family:Cantarell;-inkscape-font-specification:Cantarell Bold">Hackerspace Magdeburg</tspan></text>
  <text
     x="5.8563099"
     y="181.38159"
     id="text4647-90"
     xml:space="preserve"
     style="font-size:10px;font-style:normal;font-variant:normal;font-weight:normal;font-stretch:normal;line-height:125%;letter-spacing:0px;word-spacing:0px;fill:#000000;fill-opacity:1;stroke:none;font-family:Cantarell;-inkscape-font-specification:Cantarell"><tspan
       x="5.8563099"
       y="181.38159"
       id="tspan4649-9"
       style="font-size:10px;font-weight:normal;-inkscape-font-specification:Cantarell">Entry</tspan></text>
  <text
     x="5.9605699"
     y="219.14557"
     id="text4651-71"
     xml:space="preserve"
     style="font-size:10px;font-style:normal;font-variant:normal;font-weight:normal;font-stretch:normal;line-height:125%;letter-spacing:0px;word-spacing:0px;fill:#000000;fill-opacity:1;stroke:none;font-family:Galette;-inkscape-font-specification:Cantarell"><tspan
       x="5.9605699"
       y="219.14557"
       id="tspan4653-3"
       style="font-size:10px;font-style:normal;font-variant:normal;font-weight:normal;font-stretch:normal;fill:#000000;font-family:Cantarell;-inkscape-font-specification:Cantarell">Exit</tspan></text>
  <text
     x="-116.11242"
     y="156.35278"
     transform="matrix(0,-1,1,0,0,0)"
     id="text4081-6"
     xml:space="preserve"
     style="font-size:21.16746902px;font-style:normal;font-variant:normal;font-weight:normal;font-stretch:normal;line-height:125%;letter-spacing:0px;word-spacing:0px;fill:#000000;fill-opacity:1;stroke:none;font-family:Cantarell;-inkscape-font-specification:Cantarell"><tspan
       x="-116.11242"
       y="156.35278"
       id="tspan4083-8"
       style="font-size:21.16746902px">Embassy</tspan></text>
  <g
     transform="matrix(1.0583735,0,0,1.0583735,-3.1165232,-3.6107734)"
     id="g3712">
    <rect
       width="151.41495"
       height="207.53595"
       ry="2.6832564"
       x="6.4074497"
       y="6.4327393"
       id="rect3221-7-8"
       style="fill:none;stroke:#000000;stroke-width:2.83464575;stroke-linecap:round;stroke-linejoin:round;stroke-miterlimit:4;stroke-opacity:1;stroke-dasharray:none" />
    <path
       d="m 132.28608,5.5581 0,135.7101"
       id="path4014-3-9"
       style="fill:none;stroke:#000000;stroke-width:1.77165353;stroke-linecap:butt;stroke-linejoin:miter;stroke-miterlimit:4;stroke-opacity:1;stroke-dasharray:none" />
    <path
       d="m 5.71618,130.487 126.36774,0"
       id="path4012-8-4-2"
       style="fill:none;stroke:#000000;stroke-width:1.77165353;stroke-linecap:butt;stroke-linejoin:miter;stroke-miterlimit:4;stroke-opacity:1;stroke-dasharray:none" />
    <path
       d="m 6.50062,177.3987 151.23855,0"
       id="path4051-1-0-6-8"
       style="fill:none;stroke:#000000;stroke-width:1px;stroke-linecap:butt;stroke-linejoin:miter;stroke-opacity:1" />
    <path
       d="m 6.263161,141.0856 151.933609,0"
       id="path4012-8-4-2-6"
       style="fill:none;stroke:#000000;stroke-width:1.77165353;stroke-linecap:butt;stroke-linejoin:miter;stroke-miterlimit:4;stroke-opacity:1;stroke-dasharray:none" />
  </g>
  <text
     x="-108.09734"
     y="93.630898"
     id="text3560"
     xml:space="preserve"
     style="font-size:40px;font-style:normal;font-variant:normal;font-weight:600;font-stretch:normal;line-height:125%;letter-spacing:0px;word-spacing:0px;fill:#000000;fill-opacity:1;stroke:none;font-family:Galette;-inkscape-font-specification:Galette Semi-Bold"><tspan
       x="-108.09734"
       y="93.630898"
       id="tspan3562" /></text>
  <path
     d="M 7.6342768,3.4964191 9.0076476,3.6041117 40.278482,36.636739 z m 6.2179422,0 L 47.488651,41.49869 14.976741,3.4964191 z m 5.754906,0 L 49.836917,41.564842 20.632424,3.4964191 z m 5.324941,0 L 51.29218,40.440317 25.957365,3.4964191 z m 4.961127,0 L 52.813586,39.481114 30.852344,3.4964191 z m 4.69653,0 L 54.401151,38.588165 35.548875,3.4964191 z m 4.398868,0 L 55.988713,37.794385 39.914665,3.4964191 z m 4.233489,0 L 57.708574,37.033629 44.148158,3.4964191 z m 4.035049,0 L 59.428425,36.372144 48.183209,3.4964191 z m 3.935829,0 L 61.247505,35.842954 52.119036,3.4964191 z m 3.803527,0 8.037027,31.9166249 -7.144021,-31.9166249 z m 3.737384,0 6.118719,31.5527549 -5.25879,-31.5527549 z m 3.671233,0 4.299646,31.2881589 -3.406645,-31.2881589 z m 3.638157,0 2.249045,25.0371989 -1.356038,-25.0371989 z m 3.605089,0 0.595387,15.2141189 0.330686,-15.2141189 z m 3.60508,0 -0.72763,27.6500019 1.587559,-27.6500019 z m 3.638158,0 -2.679004,31.3874379 3.538936,-31.3874379 z m 3.638157,0 -4.465009,31.6520289 5.358019,-31.6520289 z m 3.737386,0 -6.383312,32.0489189 7.276315,-32.0489189 z m 3.803529,0 -8.367766,32.5119579 9.26077,-32.5119579 z m 3.935827,0 L 81.455828,36.570589 92.899488,3.4964191 z m 4.068123,0 -12.898927,33.7356539 13.825,-33.7356539 z m 4.200422,0 L 84.796317,37.992829 101.2011,3.4964191 z m 4.46503,0 L 86.450021,38.852755 105.66613,3.4964191 z m 4.66345,0 L 88.037582,39.811858 110.36265,3.4964191 z m 4.92805,0 L 89.525925,40.804083 115.35685,3.4964191 z m 5.32494,0 L 90.981185,41.928603 120.74795,3.4964191 z m 5.75491,0 L 95.214679,39.745707 126.46977,3.4964191 z m 6.25101,0 -28.34457,30.6928289 29.4691,-30.6928289 z M 3.6984494,5.0839757 l 0,1.1245249 L 38.525552,38.025852 z M 136.22666,5.6131622 99.94428,40.870227 136.22666,6.7708135 z M 3.6984494,11.401197 l 0,1.058375 41.0450446,33.934097 z M 136.22666,11.831108 96.372273,46.195223 136.22666,12.922609 z m -132.5282106,5.258846 0,0.992223 L 43.65205,47.749654 z M 136.22666,17.519864 97.099906,48.278847 136.22666,18.51209 z m -132.5282106,4.795811 0,0.992223 38.9613716,25.830878 z M 136.22666,22.71256 98.125209,49.734105 136.22666,23.704788 z m -132.5282106,4.464958 0,0.95921 38.0022226,22.424288 z M 136.22666,27.574411 99.018208,51.222496 136.22666,28.533618 z m -132.5282106,4.134328 0,0.89295 37.1422936,19.44761 z M 136.22666,32.039477 99.845062,52.710785 136.22666,32.998574 z m -132.5282106,3.902755 0,0.926074 36.3815896,16.669382 z m 132.5282106,0.363761 -35.6209,17.959327 35.6209,-17.066271 z m -132.5282106,3.671285 0,0.926078 35.7201066,14.122621 z M 136.22666,40.30802 101.23418,55.819754 136.22666,41.200973 z m -132.5282106,3.505867 0,0.892949 35.0916956,11.873677 z M 136.22666,44.144622 101.82953,57.407316 136.22666,45.004551 z m -132.5282106,3.40659 0,0.859929 34.5625066,9.756936 z M 136.22666,47.815808 102.32562,59.028003 136.22666,48.708856 z m -132.5282106,3.274394 0,0.859927 34.0994696,7.805502 z m 132.5282106,0.297616 -33.47107,9.260768 33.47107,-8.36772 z m -132.5282106,3.175119 0,0.85993 33.7687266,5.953349 z m 132.5282106,0.29772 -33.14031,7.474759 33.14031,-6.61483 z m -132.5282106,3.108972 0,0.793779 33.4710586,4.233493 z m 132.5282106,0.297616 -32.90884,5.721882 32.90881,-4.894977 0,-0.826905 z m -132.5282106,3.009803 0,0.826801 33.2394896,2.513634 -33.2395415,-3.340435 z m 132.5282106,0.297611 -30.9244,3.869733 30.92434,-3.009804 0,-0.859929 z m -132.5282106,2.976675 0,0.859929 28.2122666,0.595336 z m 132.5282106,0.33074 -23.64803,1.918305 23.64803,-1.091393 z m -132.5282106,2.94366 0,0.826797 L 22.451504,67.858556 3.6984494,67.825766 z M 114.59615,69.0164 l 21.63051,0.03283 0,-0.859926 -21.63051,0.827115 z m -84.239921,0.79378 -26.6577796,1.289842 0,0.826906 z m 75.574491,0.926078 30.29594,1.52141 0,-0.826906 z m -69.025803,0.363764 -33.2064676,3.307415 0,0.826906 z m 66.379903,1.157646 32.94188,3.30742 0,-0.859929 z m -66.148384,0.52919 -33.4379866,4.928 0,0.826905 z m 65.916824,1.124522 33.1734,4.994147 0,-0.85993 z m -65.652231,0.496057 -33.7025796,6.680984 0,0.859927 z m 65.321491,1.091502 33.50414,6.780152 0,-0.826802 z m -64.990751,0.463039 -34.0333196,8.599282 0,0.826803 z m 64.560781,1.15754 33.93411,8.632411 0,-0.859924 z m -64.097742,0.46304 -34.4963586,10.517586 0,0.859929 z m 63.601642,1.157652 34.43021,10.616753 0,-0.892947 z m -63.138604,0.396887 -34.9593966,12.601207 0,0.893057 z m 62.576334,1.124524 34.99248,12.766629 0,-0.85993 z M 39.286256,80.69153 3.6984494,95.574908 l 0,0.893056 z m 61.286444,1.190671 35.65396,15.015674 0,-0.926077 z m -60.62496,0.33074 -36.2492906,17.363994 0,0.892935 z m 59.897322,1.124523 36.381598,17.595456 0,-0.92608 z m -59.136618,0.39689 -37.0099946,20.042936 0,0.92608 z m 58.309764,1.091502 37.208452,20.373674 0,-0.9592 z m -57.482909,0.36376 -37.8368496,23.085774 0,0.92607 z m 56.58991,1.091502 38.101451,23.449532 0,-0.9591 z m -55.663832,0.33074 -38.7629276,26.393182 0,1.02525 z m 54.671606,1.091396 39.093677,26.889346 0,-1.02535 z m -53.712455,0.297723 -39.7220786,30.163633 0,1.09139 z m 52.687155,1.058372 40.118977,30.758971 0,-1.02535 z m -51.628779,0.264593 -40.7804546,34.529428 0,1.02524 40.7805076,-35.554668 z m 53.74553,3.770458 38.002226,32.4457 0,-1.05838 z m -7.044806,0.859926 34.562512,40.416634 1.05839,0 z m -45.543132,1.918304 -33.206467,38.49833 1.091449,0 z m 3.770456,-1.719858 -31.122794,40.218188 1.058374,0 z m 70.514148,40.218188 1.05836,0 L 89.786581,95.192431 z M 40.873818,94.979572 3.6984494,129.93902 l 0,1.19067 z m 9.92225,0.231573 -27.087747,39.159815 1.058374,0 z m 37.506105,0.826803 26.260907,38.333012 1.0253,0 z m -36.01777,0.165421 -23.482658,38.167591 0.992223,0 z m 34.529441,0.760652 22.755036,37.406939 0.99222,0 z m 15.941746,3.208239 33.47107,31.68505 0,-1.12452 z m -48.94977,-3.042813 -20.241394,37.241513 0.992225,0 z m 31.387387,0.72763 19.646073,36.513883 0.95914,0 z m 11.840552,-0.231572 34.959411,36.745455 1.1576,0 z m -41.673457,0.330745 -17.29779,36.41471 0.959148,0 z m 28.212269,0.661483 16.768599,35.753227 0.99224,0 z m -26.55856,0.09928 -14.618783,35.653957 0.926075,0 z m -19.083795,2.381077 -31.8835007,33.27261 1.1575959,0 z m 43.955571,-1.819025 14.221896,35.091635 0.892998,0 z M 58.66772,99.37823 46.5295,134.3707 l 0.893003,0 z m 21.498209,0.496171 11.807479,34.496299 0.92608,0 z m -19.778353,0.06614 -9.856101,34.430159 0.859929,0 z m 18.058497,0.429909 c 0,0 -0.0053,0.0137 0,0.0328 l 9.558435,33.96722 0.893003,0 z m -16.338639,0.0661 -7.673205,33.9341 0.892998,0 z m 14.519564,0.36387 7.507836,33.57023 0.926074,0 z m -12.766636,0 -5.655682,33.57023 0.893007,0 z m 10.980627,0.29762 5.523388,33.27261 0.859929,0 z m -9.161544,0 -3.73738,33.27261 0.892999,0 z m 7.573983,0.13224 3.37357,33.14031 0.892998,0 z m -5.787979,1.15792 -1.819079,31.98277 0.859929,0 z m 4.134276,7.57403 c 0,0 0.817463,14.8856 1.322963,24.40874 l 0.893004,0 z m -2.348215,24.40874 0.926075,0 0,-17.89318 z"
     id="path8284-6-9-1"
     style="fill:#000000" />
</svg>
