<?xml version="1.0" encoding="UTF-8" standalone="no"?>
<!-- Created with Inkscape (http://www.inkscape.org/) -->

<svg
   xmlns:dc="http://purl.org/dc/elements/1.1/"
   xmlns:cc="http://creativecommons.org/ns#"
   xmlns:rdf="http://www.w3.org/1999/02/22-rdf-syntax-ns#"
   xmlns:svg="http://www.w3.org/2000/svg"
   xmlns="http://www.w3.org/2000/svg"
   version="1.2"
   width="155.9055"
   height="166.53543"
   id="svg5512">
  <defs
     id="defs5514" />
  <metadata
     id="metadata5517">
    <rdf:RDF>
      <cc:Work
         rdf:about="">
        <dc:format>image/svg+xml</dc:format>
        <dc:type
           rdf:resource="http://purl.org/dc/dcmitype/StillImage" />
        <dc:title></dc:title>
      </cc:Work>
    </rdf:RDF>
  </metadata>
  <flowRoot
     transform="translate(-410.22862,-323.76781)"
     id="flowRoot3030"
     xml:space="preserve"
     style="font-size:40px;font-style:normal;font-variant:normal;font-weight:600;font-stretch:normal;line-height:125%;letter-spacing:0px;word-spacing:0px;fill:#000000;fill-opacity:1;stroke:none;font-family:Galette;-inkscape-font-specification:Galette Semi-Bold"><flowRegion
       id="flowRegion3032"><rect
         width="419.58395"
         height="110.6595"
         x="393.7634"
         y="527.45337"
         id="rect3034" /></flowRegion><flowPara
       id="flowPara3036" /></flowRoot>  <path
     d="M 94.416325,58.945599 C 91.597289,57.758927 90.22175,56.819932 88.504581,54.910026 81.767178,47.416414 84.222962,35.581749 93.41271,31.257274 c 1.752613,-0.824738 2.795514,-1.068717 5.081103,-1.188678 3.197447,-0.167824 7.441807,0.536062 5.867327,0.973037 -0.73669,0.204459 -0.56052,0.3218 1.2812,0.853372 1.76748,0.510144 2.13534,0.743063 2.13534,1.352044 0,0.589513 -0.36243,0.849973 -1.82371,1.3106 -2.51408,0.792493 -2.74224,0.696656 -0.77623,-0.326046 l 1.67073,-0.869109 -1.49991,-0.865826 c -1.80332,-1.040975 -4.40396,-1.403036 -4.40396,-0.613118 0,0.283658 -0.25213,0.515743 -0.56028,0.515743 -0.476139,0 -0.530595,0.287591 -0.36262,1.915065 0.1087,1.053284 0.26923,1.986648 0.35672,2.074135 0.0875,0.08749 1.26474,-0.170209 2.6161,-0.572663 1.35137,-0.402455 2.53817,-0.650598 2.63734,-0.551429 0.48682,0.486815 -0.39908,1.187821 -2.64243,2.090921 l -2.47133,0.994882 0.22171,2.385584 c 0.12195,1.31207 0.29299,2.456853 0.38009,2.543954 0.0871,0.0871 1.15181,-0.263842 2.36601,-0.779886 2.13037,-0.90542 2.22688,-0.999946 2.75737,-2.700767 0.30235,-0.969381 0.75352,-2.14687 1.00261,-2.616644 0.24909,-0.469774 0.55973,-1.353803 0.69031,-1.964509 0.18508,-0.865565 0.41224,-1.110374 1.03033,-1.110374 0.66628,0 0.85667,0.265769 1.19214,1.66413 0.29998,1.250463 0.61923,1.764375 1.28431,2.067405 0.64741,0.294984 0.94836,0.300898 1.12071,0.02204 0.13354,-0.216072 0.58789,0.405448 1.04869,1.434547 0.69489,1.551856 0.81412,2.362064 0.82031,5.573985 0.007,3.618777 -0.0385,3.853947 -1.22547,6.339359 -1.53451,3.2131 -4.0194,5.743583 -7.10801,7.238407 -2.04159,0.98809 -2.59949,1.099226 -6.00874,1.196963 -3.325904,0.09535 -3.978579,0.01497 -5.674145,-0.698784 z m 6.619075,-1.550534 c 0.50966,-0.201569 0.31766,-0.520646 -1.237457,-2.056445 l -1.840725,-1.817861 -0.232792,1.311739 c -0.128039,0.721453 -0.308158,1.569219 -0.400268,1.88392 -0.115479,0.394538 0.0758,0.618755 0.616111,0.722194 1.223609,0.234249 2.435831,0.217193 3.095131,-0.04355 z m -4.964261,-4.700739 c -0.178986,-0.178982 -4.020537,1.168374 -4.454147,1.562215 -0.266709,0.24225 0.768123,1.050227 2.494534,1.947683 0.837974,0.435612 0.866119,0.408133 1.487618,-1.452199 0.348415,-1.042915 0.560811,-1.968879 0.471995,-2.057699 z m 10.965121,2.336324 1.13768,-0.841944 -0.94536,-0.986744 c -0.51994,-0.542714 -1.05069,-0.986747 -1.17943,-0.986747 -0.12873,0 -0.3305,0.576541 -0.44837,1.281201 -0.11788,0.704661 -0.31549,1.651169 -0.43914,2.103348 -0.25278,0.92433 -0.0673,0.868029 1.87462,-0.569114 z m -3.20149,-1.939056 0.40105,-2.556506 -2.31923,-2.301455 c -1.27557,-1.2658 -2.385209,-2.233036 -2.46586,-2.149406 -0.191305,0.198365 -1.307744,6.184679 -1.17221,6.285354 0.05702,0.04236 1.165914,0.871705 2.4642,1.843 1.29829,0.971294 2.43488,1.691634 2.52576,1.600754 0.0909,-0.09088 0.34571,-1.315665 0.56629,-2.721741 z m -8.840821,-1.090999 1.736554,-0.208682 0.941236,-2.8902 c 0.517677,-1.589613 0.889055,-2.942387 0.825282,-3.00616 -0.195665,-0.195666 -5.814223,-0.906845 -5.965921,-0.755148 -0.176481,0.176482 -1.151698,5.657855 -1.152336,6.476916 -6.84e-4,0.663109 0.683252,0.735601 3.615185,0.383274 z m -4.533476,-3.304694 c 0.504801,-1.747713 0.917822,-3.353609 0.917822,-3.568649 0,-0.220709 -0.706762,-0.446713 -1.622855,-0.518948 l -1.622855,-0.127963 1.793682,-0.06158 c 2.117266,-0.07269 2.083001,0.06005 1.224774,-4.744778 -0.501708,-2.808835 -0.642958,-3.161565 -1.195788,-2.986105 -0.387743,0.123064 -0.634465,0.02726 -0.646761,-0.251126 -0.01093,-0.247552 -0.828753,1.241095 -1.81738,3.3081 -1.708081,3.571229 -1.762328,3.767529 -1.090493,3.945924 0.517602,0.13744 0.679846,0.417552 0.605629,1.045604 -0.204777,1.732864 1.490779,7.137185 2.239226,7.137185 0.163444,0 0.710196,-1.429948 1.214999,-3.17766 z m 20.652907,1.484629 0.46271,-1.133963 -1.43955,0.230193 c -2.07789,0.332268 -2.25432,0.558467 -1.13441,1.454441 1.22032,0.976316 1.52008,0.898132 2.11125,-0.550671 z m -2.29167,-2.109941 c 1.21092,-0.400449 2.31536,-0.829303 2.4543,-0.953009 0.13894,-0.123706 -0.74122,-1.209926 -1.95591,-2.413818 l -2.20852,-2.188894 -3.10786,0.993211 c -1.70932,0.546264 -3.16038,1.078184 -3.22456,1.182044 -0.1196,0.193502 5.24314,4.108554 5.62779,4.108554 0.1172,0 1.20384,-0.327639 2.41476,-0.728088 z m 3.24249,-5.264249 c -0.27079,-1.805767 -0.47287,-1.968592 -1.84814,-1.489174 l -1.05664,0.368351 1.44446,1.677028 c 1.57202,1.825118 1.80416,1.736701 1.46032,-0.556205 z M 99.055775,41.7679 c 0.132384,-1.236192 0.188733,-2.295558 0.125216,-2.354152 -0.218299,-0.20137 -7.586866,-3.244324 -7.663861,-3.164899 -0.04236,0.0437 0.399311,1.809084 0.981496,3.923067 l 1.058525,3.843605 2.628961,0 2.628965,0 z m 10.720845,-1.885649 c 0.59177,-0.20629 1.07594,-0.457194 1.07594,-0.557565 0,-0.100371 -0.32003,-0.700308 -0.71117,-1.333195 -0.39115,-0.632886 -0.61635,-1.1507 -0.50046,-1.1507 0.11589,0 0.0313,-0.335196 -0.18794,-0.74488 -0.34647,-0.6474 -0.44865,-0.676608 -0.78074,-0.223175 -0.31227,0.426373 -0.36626,4.384593 -0.0598,4.384593 0.0485,0 0.5724,-0.168784 1.16417,-0.375078 z M 99.426726,32.5815 c -0.274881,-1.833037 0.133901,-1.85778 -4.973547,0.301052 -2.551299,1.078393 -3.415253,1.583265 -2.991431,1.748119 0.327762,0.127488 0.515668,0.361664 0.417572,0.520389 -0.182094,0.294632 0.150711,0.375526 4.623782,1.123932 l 2.562404,0.428724 0.299083,-1.271061 c 0.164496,-0.699085 0.192457,-1.982103 0.06214,-2.851155 z m 12.365384,1.945892 c -1.24151,-0.412949 -1.62271,-0.706341 -1.62221,-1.248535 3.4e-4,-0.56748 0.39068,-0.823594 1.95764,-1.285018 1.07636,-0.316952 1.99839,-0.534907 2.04896,-0.484339 0.0506,0.05057 -0.62509,0.486256 -1.50146,0.968196 l -1.5934,0.87625 1.67914,0.873383 c 1.88561,0.980767 1.46734,1.110333 -0.96867,0.300063 z m -3.98214,-3.580127 c -0.76289,-2.653154 -0.74269,-2.831938 0.1351,-1.195789 0.47887,0.892571 0.94164,1.622856 1.0284,1.622856 0.0867,0 0.53787,-0.730285 1.0025,-1.622856 0.99938,-1.919865 1.08928,-1.674329 0.30172,0.824107 -0.46125,1.463228 -0.72069,1.82371 -1.31254,1.82371 -0.57457,0 -0.82997,-0.321025 -1.15518,-1.452028 z"
     id="path3029-7-9-9"
     style="fill:#800000;fill-opacity:0" />
  <path
     d="m 74.497681,52.846075 c -4.639358,-0.909431 -9.135043,-4.486177 -11.400645,-9.070307 -1.412219,-2.857431 -1.438824,-2.99302 -1.438824,-7.332744 0,-4.180734 0.06672,-4.562324 1.225359,-7.008305 0.673943,-1.422756 2.09952,-3.511129 3.167943,-4.640832 1.883456,-1.991476 5.780772,-4.446222 7.059107,-4.446222 0.345539,0 0.72611,-0.255034 0.84573,-0.566745 0.167065,-0.435379 0.977967,-0.03613 3.498326,1.722375 1.804469,1.259019 3.407413,2.289122 3.562096,2.289122 0.154681,0 0.399687,-0.861188 0.54445,-1.913751 0.147317,-1.071123 0.462811,-1.913751 0.716533,-1.913751 0.249322,0 1.705864,0.600267 3.23676,1.333927 6.669126,3.196094 10.489905,10.503883 9.27318,17.736268 C 93.16959,48.653307 84.212247,54.750375 74.497681,52.846075 z M 81.973537,37.214721 C 80.844095,34.91341 79.839206,32.803499 79.74045,32.526032 79.6417,32.248565 79.440851,32.132373 79.294117,32.267824 c -0.240025,0.221579 4.235199,9.131104 4.586521,9.131104 0.08054,0 -0.777655,-1.882892 -1.907101,-4.184207 z m -6.335416,-0.533243 c 0.878857,-2.275316 1.498658,-4.236206 1.377337,-4.357531 -0.121325,-0.121324 -0.305213,0.01937 -0.408642,0.312631 -0.103426,0.29327 -0.796378,2.255598 -1.539895,4.360721 -0.743518,2.105128 -1.351897,3.899271 -1.351962,3.986984 -3.35e-4,0.502573 0.495972,-0.607905 1.923162,-4.302805 z m -2.020086,-4.383286 c 0.532987,-0.689896 0.883155,-1.340258 0.778161,-1.44525 -0.10499,-0.104992 -1.172371,1.148419 -2.371959,2.785358 -1.428246,1.948967 -1.69684,2.447812 -0.778164,1.44525 0.771601,-0.84205 1.838982,-2.095462 2.371962,-2.785358 z m 13.875818,2.06297 c 0,-0.320856 -5.422862,-4.507963 -5.603922,-4.326907 -0.106203,0.106205 1.06817,1.144622 2.609726,2.307597 2.946111,2.222596 2.994196,2.255022 2.994196,2.01931 z M 79.529097,30.77761 c 1.400415,-1.501472 2.074303,-2.888464 1.496911,-3.08093 -0.29963,-0.09987 -0.328028,-0.302518 -0.08366,-0.596968 0.203476,-0.245166 0.425961,-0.949415 0.494415,-1.564993 0.119722,-1.076572 0.001,-1.167563 -3.106498,-2.387358 -3.394579,-1.332342 -3.83122,-1.275814 -3.844059,0.497686 -0.0047,0.64307 0.58608,1.067594 2.873199,2.0648 1.583483,0.690409 2.811042,1.323309 2.72791,1.406442 -0.08313,0.08313 -1.219652,-0.145919 -2.525593,-0.509004 -2.590819,-0.720313 -3.062926,-0.524256 -3.075516,1.277173 -0.0048,0.680078 0.301731,0.902521 1.620829,1.176363 l 1.626689,0.337697 -1.274614,0.2961 -1.274608,0.296099 1.274608,0.90096 c 1.640952,1.159901 1.890411,1.150635 3.069988,-0.114067 z M 67.057668,19.742235 C 66.929886,19.40925 66.82534,19.09936 66.82534,19.053591 c 0,-0.151382 2.859638,0.194008 3.444755,0.416061 0.417818,0.158565 0.313614,0.297354 -0.382752,0.509796 -1.589486,0.484902 -2.584587,0.401482 -2.829675,-0.237213 z m 10.197617,-2.509809 -2.774943,-1.548741 -0.02426,1.088052 -0.02426,1.088052 -0.38489,-0.956876 c -0.211685,-0.526281 -0.278536,-1.473588 -0.148558,-2.105126 0.129979,-0.631538 0.377207,-1.92332 0.549383,-2.870627 l 0.313057,-1.722379 0.05114,1.522002 c 0.04533,1.349118 0.365252,1.838227 2.816499,4.30594 1.52095,1.531169 2.68355,2.775957 2.583562,2.766197 -0.09999,-0.0098 -1.430515,-0.714682 -2.956734,-1.566494 z m 8.89894,0.08982 c 1.052567,-0.60798 1.963265,-1.059426 2.023769,-1.003212 0.06051,0.05621 -0.09631,0.555057 -0.348497,1.108541 -0.386725,0.848775 -0.703595,1.005848 -2.023773,1.003215 l -1.565249,-0.003 1.91375,-1.105421 z m -5.064146,-2.002603 c -0.391392,-1.705351 -0.376281,-2.344422 0.08927,-3.775234 l 0.560415,-1.7223797 -0.228936,1.8215427 c -0.128902,1.025625 -0.06,2.029074 0.157687,2.296502 0.215768,0.26507 0.277491,1.128439 0.139672,1.953694 l -0.246961,1.478729 z M 69.00355,16.243836 c -1.166061,-0.175295 -1.54393,-0.740652 -1.347291,-2.015776 0.114584,-0.743033 0.262554,-0.676435 1.638951,0.737663 0.832142,0.854941 1.348856,1.528635 1.14825,1.497092 -0.200609,-0.03154 -0.848569,-0.130081 -1.43991,-0.218979 z M 70.109398,11.57583 C 68.753719,10.187488 68.67657,9.985212 68.930173,8.4841418 69.079418,7.600758 69.324886,7.0236891 69.475657,7.20176 c 0.469815,0.5548998 2.43317,5.510747 2.254126,5.689793 -0.09339,0.09339 -0.822565,-0.498681 -1.620385,-1.315723 z"
     id="path3029-7-6-3"
     style="fill:#808000;fill-opacity:0" />
  <path
     d="m 10.375,1.40625 c -3.4547952,0 -6.28125,2.8264548 -6.28125,6.28125 l 0,150.46875 c 0,3.4548 2.8264548,6.28125 6.28125,6.28125 l 134.09375,0 c 3.4548,0 6.28125,-2.82645 6.28125,-6.28125 l 0,-150.46875 c 0,-3.4547952 -2.82645,-6.28125 -6.28125,-6.28125 l -134.09375,0 z m 0,1.71875 134.09375,0 c 2.53796,0 4.5625,2.0245375 4.5625,4.5625 l 0,150.46875 c 0,2.53796 -2.02454,4.5625 -4.5625,4.5625 l -134.09375,0 c -2.5379625,0 -4.5625,-2.02454 -4.5625,-4.5625 l 0,-150.46875 c 0,-2.5379625 2.0245375,-4.5625 4.5625,-4.5625 z m 59.09375,4.15625 c -0.149019,0.00322 -0.370294,0.544762 -0.5,1.3125 -0.251895,1.490937 -0.159029,1.683533 1.1875,3.0625 0.792432,0.811526 1.50099,1.40526 1.59375,1.3125 0.177835,-0.177838 -1.752109,-5.105093 -2.21875,-5.65625 -0.01872,-0.022108 -0.04121,-0.03171 -0.0625,-0.03125 z m 12.21875,2.625 -0.53125,1.71875 c -0.462398,1.421154 -0.482494,2.056157 -0.09375,3.75 L 81.53125,17.40625 81.75,15.9375 C 81.88689,15.11782 81.839316,14.263277 81.625,14 81.40878,13.734374 81.340715,12.737456 81.46875,11.71875 L 81.6875,9.90625 z M 74.78125,10.3125 74.46875,12 c -0.171018,0.94091 -0.433399,2.247732 -0.5625,2.875 -0.129108,0.627275 -0.05401,1.539764 0.15625,2.0625 l 0.375,0.96875 L 74.46875,16.8125 74.5,15.75 l 2.75,1.53125 c 1.515914,0.846063 2.83819,1.5528 2.9375,1.5625 0.09931,0.0097 -1.051812,-1.229169 -2.5625,-2.75 -2.4347,-2.451054 -2.76748,-2.941237 -2.8125,-4.28125 l -0.03125,-1.5 z m -6.875,3.53125 c -0.1146,0.02241 -0.144819,0.160744 -0.1875,0.4375 -0.195309,1.266517 0.185564,1.857139 1.34375,2.03125 0.58735,0.0883 1.206994,0.15619 1.40625,0.1875 0.199249,0.03133 -0.298468,-0.619578 -1.125,-1.46875 -0.854437,-0.877845 -1.2465,-1.224853 -1.4375,-1.1875 z m 20.1875,2.53125 c -0.0601,-0.05584 -0.954543,0.396129 -2,1 l -1.90625,1.09375 1.5625,0 c 1.311264,0.0026 1.615885,-0.156959 2,-1 0.250483,-0.549751 0.40385,-1.03792 0.34375,-1.09375 z M 67,19.0625 c -0.0788,0.0046 -0.125,0.01246 -0.125,0.03125 0,0.04547 0.123086,0.356763 0.25,0.6875 0.243442,0.634385 1.233745,0.700376 2.8125,0.21875 0.691668,-0.211012 0.790003,-0.342509 0.375,-0.5 C 69.803979,19.307017 67.551602,19.030453 67,19.0625 z m 7.21875,0.5625 c -0.138896,-0.0037 -0.208234,0.04741 -0.25,0.15625 -0.0046,0.01192 0.0041,0.102501 0,0.125 -22.192596,1.892749 -39.625,20.442516 -39.625,43.125 0,5.72264 1.110271,11.186025 3.125,16.1875 l 0.8125,2.75 -2.0625,1.65625 c -1.211763,0.966231 -1.880645,2.016487 -1.5625,2.53125 0.382724,0.619257 -0.393997,0.875 -2.625,0.875 -2.817301,0 -4.197564,0.785521 -12.09375,6.65625 -4.908157,3.649173 -9.492649,7.51803 -10.15625,8.625 -2.4295376,4.05279 -0.8404407,10.15821 3.1875,12.34375 4.604755,2.49851 6.963195,1.7136 16.71875,-5.5625 9.644984,-7.19366 11.5,-9.14361 11.5,-12.125 0,-1.398635 0.235831,-1.670419 0.875,-1.03125 0.639166,0.639166 1.420105,0.433028 3.0625,-0.78125 1.047467,-0.774428 1.688432,-1.129242 2.25,-1.15625 7.816832,7.65194 18.509741,12.375 30.3125,12.375 23.93996,0 43.34375,-19.403796 43.34375,-43.34375 0,-22.399102 -16.98561,-40.813774 -38.78125,-43.09375 l 0,0.03125 c -0.248355,0.06 -0.545707,0.875294 -0.6875,1.90625 -0.144763,1.052563 -0.376569,1.90625 -0.53125,1.90625 -0.154683,0 -1.758031,-1.022231 -3.5625,-2.28125 -1.890269,-1.31888 -2.833311,-1.863957 -3.25,-1.875 z m 0.9375,2.59375 c 0.535087,-0.06928 1.49021,0.240079 3.1875,0.90625 3.107497,1.219794 3.213473,1.329677 3.09375,2.40625 -0.06845,0.615578 -0.296524,1.317334 -0.5,1.5625 -0.244368,0.29445 -0.20588,0.49388 0.09375,0.59375 0.577392,0.192466 -0.09959,1.592278 -1.5,3.09375 -1.179577,1.264703 -1.421547,1.253651 -3.0625,0.09375 L 75.1875,29.96875 76.46875,29.6875 77.75,29.40625 76.125,29.0625 C 74.805902,28.788658 74.4952,28.555078 74.5,27.875 c 0.01259,-1.801429 0.471681,-2.001563 3.0625,-1.28125 1.305941,0.363085 2.44812,0.58313 2.53125,0.5 0.08313,-0.08313 -1.135267,-0.715841 -2.71875,-1.40625 -2.287119,-0.997206 -2.8797,-1.41943 -2.875,-2.0625 0.0064,-0.88675 0.121163,-1.336973 0.65625,-1.40625 z m -1.0625,3.59375 c 0.04889,-0.004 0.02469,0.0032 0.0625,0 0.170153,-0.0145 0.284195,-0.02451 0.28125,0 -5.33e-4,0.01889 -1.4e-5,0.04284 0,0.0625 2.7e-4,0.381327 -0.006,0.687388 -0.03125,1.125 -0.03447,0.596829 -0.02953,1.577326 0.09375,2 0.13917,0.492554 0.215636,0.735693 0.46875,0.9375 1.13906,0.83385 2.62805,2.087042 3.34375,1.9375 0.560271,-0.02411 2.104915,-1.660161 2.5,-2.3125 0.571676,-1.018115 1.013065,-1.58547 0.3125,-2.21875 0.189953,-0.372057 0.364365,-0.906329 0.46875,-1.4375 0.136153,0.0014 0.338235,-0.0075 0.65625,0.03125 18.49973,2.254995 32.84375,17.984542 32.84375,37.09375 0,20.65649 -16.749753,37.40625 -37.40625,37.40625 -20.660563,0.13283 -37.116586,-19.120598 -37.40625,-37.40625 0,-19.441724 14.844772,-35.406157 33.8125,-37.21875 z m 36.6875,2.59375 c -0.0918,0.0037 -0.37527,0.410059 -0.8125,1.25 -0.46463,0.89257 -0.9133,1.625 -1,1.625 -0.0868,0 -0.55238,-0.73243 -1.03125,-1.625 -0.87779,-1.636148 -0.88789,-1.434402 -0.125,1.21875 0.32521,1.131004 0.58168,1.4375 1.15625,1.4375 0.59185,0 0.85125,-0.349272 1.3125,-1.8125 0.443,-1.405369 0.61796,-2.09847 0.5,-2.09375 z m -28.84375,1.625 c -0.106203,0.106205 1.052195,1.149525 2.59375,2.3125 2.946111,2.222595 3,2.266964 3,2.03125 0,-0.320856 -5.41269,-4.524806 -5.59375,-4.34375 z m -7.53125,0.8125 c -0.208169,0.05719 -1.219138,1.277869 -2.34375,2.8125 -1.428246,1.948968 -1.699927,2.440059 -0.78125,1.4375 0.771601,-0.842051 1.84202,-2.091354 2.375,-2.78125 0.532986,-0.689895 0.886244,-1.363758 0.78125,-1.46875 -0.0066,-0.0066 -0.01738,-0.0038 -0.03125,0 z m 39.78125,0.59375 c -0.0506,-0.05057 -0.98614,0.151798 -2.0625,0.46875 -1.56696,0.461424 -1.96841,0.71377 -1.96875,1.28125 -5e-4,0.542195 0.38349,0.837049 1.625,1.25 2.43601,0.81027 2.85436,0.69952 0.96875,-0.28125 l -1.65625,-0.875 1.59375,-0.875 c 0.87637,-0.48194 1.5506,-0.91818 1.5,-0.96875 z m -34.75,0.78125 c -0.041,0.0038 -0.05707,0.02864 -0.09375,0.0625 -0.240026,0.221578 4.211177,9.125 4.5625,9.125 0.08054,0 -0.776805,-1.886188 -1.90625,-4.1875 -1.129443,-2.301315 -2.119995,-4.410033 -2.21875,-4.6875 -0.07406,-0.208101 -0.220731,-0.323958 -0.34375,-0.3125 z m -2.5,0.0625 c -0.107751,0.0021 -0.234927,0.123803 -0.3125,0.34375 -0.103425,0.29327 -0.787733,2.269873 -1.53125,4.375 -0.743517,2.105127 -1.343685,3.912283 -1.34375,4 -3.35e-4,0.502572 0.47906,-0.617603 1.90625,-4.3125 0.878857,-2.275317 1.496321,-4.222426 1.375,-4.34375 -0.03034,-0.03033 -0.05783,-0.06321 -0.09375,-0.0625 z M 88.90625,39.75 c -1.955052,0.01859 -3.549556,0.265844 -3.9375,0.5 -0.707346,0.426974 -0.930512,1.414163 -0.78125,1.78125 0.571877,0.09981 1.196005,0.198773 2.0625,0.34375 L 88.71875,42.78125 89,41.5625 c 0.106217,-0.451404 0.143507,-1.145258 0.125,-1.8125 -0.07431,-4.7e-5 -0.145435,-6.83e-4 -0.21875,0 z m 0.65625,0 c 0.01377,0.215872 0.03073,0.442088 0.0625,0.75 0.104539,1.012908 0.259611,1.915866 0.34375,2 0.08414,0.08414 1.200434,-0.175473 2.5,-0.5625 1.299566,-0.387027 2.435881,-0.626617 2.53125,-0.53125 0.468158,0.468155 -0.373898,1.131518 -2.53125,2 l -2.375,0.96875 0.15625,1.40625 c 1.032597,0.737385 1.32583,1.942186 1.15625,3.1875 0.4124,-0.135937 0.978672,-0.376867 1.5625,-0.625 2.048706,-0.870711 2.146096,-0.958127 2.65625,-2.59375 0.290758,-0.932222 0.69796,-2.048234 0.9375,-2.5 0.177028,-0.333867 0.383348,-0.904116 0.53125,-1.40625 C 96.529092,41.446523 95.875535,41.101651 95.125,40.78125 92.989712,41.445322 92.785161,41.357469 94.40625,40.5 92.894535,39.98863 91.149666,39.782958 89.5625,39.75 z m 8.25,2.65625 c -0.186625,1.090231 -0.186501,3.78125 0.0625,3.78125 0.04666,0 0.555911,-0.145364 1.125,-0.34375 0.418881,-0.146022 0.775156,-0.319828 0.9375,-0.4375 -0.424419,-1.061573 -1.090739,-2.099548 -2.125,-3 z m -41.96875,1.5625 0,3.5625 16.15625,0 -6.75,6.71875 -3.03125,3.03125 4.28125,0 c 6.871402,0 12.4375,5.597351 12.4375,12.46875 0,6.871402 -5.566098,12.4375 -12.4375,12.4375 -6.871399,0 -12.4375,-5.566098 -12.4375,-12.4375 l -3.5625,0 c 0,8.834654 7.165349,16 16,16 8.834651,0 16,-7.165346 16,-16 0,-7.513828 -5.173168,-13.843551 -12.15625,-15.5625 l 10.25,-10.21875 -24.75,0 z M 100.21875,47 c -0.20827,0.02303 -0.450615,0.10349 -0.78125,0.21875 l -1.03125,0.375 1.40625,1.59375 c 0.32176,0.373564 0.56915,0.639605 0.78125,0.84375 0.0473,-0.933408 0.0184,-1.974645 -0.1875,-3.03125 -0.0585,-0.0048 -0.1182,-0.0077 -0.1875,0 z m -3.78125,1.375 -2.96875,0.96875 c -0.933357,0.298281 -1.769225,0.564696 -2.34375,0.78125 -0.09281,0.261468 -0.18685,0.52723 -0.3125,0.78125 1.207169,1.021186 4.63528,3.5 4.9375,3.5 0.112708,0 1.179244,-0.302402 2.34375,-0.6875 1.021138,-0.337687 1.9121,-0.680337 2.21875,-0.84375 0.009,-0.105708 0.017,-0.219357 0.0312,-0.34375 -0.2512,-0.407016 -0.924926,-1.213788 -1.78125,-2.0625 L 96.4375,48.375 z m -17.09375,1.71875 c -0.159764,0.01561 -0.343434,0.06611 -0.5,0.15625 l 0.9375,-0.03125 c -0.12358,-0.07751 -0.222021,-0.122339 -0.28125,-0.125 -0.0507,-0.0024 -0.102996,-0.0052 -0.15625,0 z M 78.75,50.3125 c -0.26732,0.187923 -0.505668,0.502744 -0.59375,0.96875 -0.110405,0.584204 0.417284,2.673411 1.65625,4.96875 0.194169,-0.529738 0.411726,-1.199104 0.625,-1.9375 0.355863,-1.232068 0.641941,-2.387681 0.78125,-3 -0.446582,-0.353803 -0.860935,-0.658497 -1.15625,-0.875 -0.106299,-0.01363 -0.198408,-0.05351 -0.3125,-0.0625 l -1,-0.0625 z m 3.375,1.71875 c -0.335798,1.633122 -0.812056,4.52352 -0.8125,5.09375 -6.83e-4,0.63769 0.649208,0.713821 3.46875,0.375 l 1.6875,-0.21875 0.875,-2.75 c 0.04516,-0.138664 0.113615,-0.272089 0.15625,-0.40625 -0.626381,0.21039 -1.290986,0.236271 -1.90625,0 -1.169474,-0.449083 -2.40879,-1.292739 -3.46875,-2.09375 z m 7.71875,0.34375 c -0.355812,0.43199 -0.764584,0.816763 -1.1875,1.125 -0.363188,1.769586 -0.805742,4.279133 -0.71875,4.34375 0.05017,0.03727 1.079079,0.795844 2.1875,1.625 0.131981,-0.06667 0.240108,-0.124024 0.375,-0.1875 1.052468,-0.495268 1.849094,-0.793437 2.8125,-0.96875 l 0.375,-2.21875 -2.25,-2.21875 c -0.60414,-0.599514 -1.16617,-1.1262 -1.59375,-1.5 z m 10.4375,2.34375 -0.9375,0.15625 c -1.998237,0.319532 -2.170725,0.54462 -1.09375,1.40625 1.173547,0.938889 1.462735,0.862018 2.03125,-0.53125 l 0,-1.03125 z m -4.875,2.96875 c -0.06521,0 -0.137713,0.159976 -0.21875,0.40625 0.131848,-0.0084 0.265424,0.0074 0.40625,0 0.119179,-0.0063 0.253269,-0.02739 0.375,-0.03125 -0.254067,-0.223199 -0.490633,-0.375 -0.5625,-0.375 z M 85.75,58.15625 c -0.45523,0.0017 -2.744803,0.774756 -3.75,1.25 0.06735,0.07673 0.11823,0.174211 0.1875,0.25 0.846437,0.9261 1.811924,1.373592 2.78125,1.59375 0.108919,-0.254047 0.235823,-0.583613 0.40625,-1.09375 0.335056,-1.002935 0.52291,-1.914587 0.4375,-2 -0.01076,-0.01076 -0.02587,-1.37e-4 -0.0625,0 z m 1.875,0.8125 -0.21875,1.25 c -0.07163,0.403609 -0.140306,0.828213 -0.21875,1.1875 0.525306,-0.438373 1.090733,-0.87663 1.6875,-1.25 l -1.25,-1.1875 z M 95.84375,59.25 c -0.21734,0.01315 -0.533302,0.120714 -0.96875,0.28125 -0.107208,0.553011 -0.224705,1.116451 -0.3125,1.4375 -0.24308,0.888898 -0.055,0.819554 1.8125,-0.5625 l 0.09375,-0.09375 c -0.09672,-0.723626 -0.118239,-1.093174 -0.625,-1.0625 z m -31.125,0.03125 0,10.65625 c 0,0.981629 0.799621,1.78125 1.78125,1.78125 0.981629,0 1.78125,-0.799621 1.78125,-1.78125 l 0,-10.65625 -3.5625,0 z m 35.5625,0.625 c -0.906455,1.095441 -1.954549,2.032754 -3.125,2.8125 0.104341,0.87572 0.236564,1.611564 0.3125,1.6875 0.08749,0.08749 1.273633,-0.160046 2.625,-0.5625 0.0703,-0.02094 0.11819,-0.04243 0.1875,-0.0625 l 0,-3.875 z M 93,60.28125 c -0.317837,0.134813 -0.71132,0.275334 -1.09375,0.4375 0.469238,0.298783 0.798416,0.482834 0.84375,0.4375 0.04486,-0.04486 0.147856,-0.379858 0.25,-0.875 z m -30.0625,0.5625 c -3.638425,1.419776 -6.21875,4.949196 -6.21875,9.09375 0,5.39895 4.382297,9.78125 9.78125,9.78125 5.398953,0 9.78125,-4.3823 9.78125,-9.78125 0,-4.144554 -2.576536,-7.673974 -6.21875,-9.09375 l 0,4 c 1.613901,1.12125 2.65625,2.978992 2.65625,5.09375 0,3.435698 -2.783052,6.21875 -6.21875,6.21875 -3.435698,0 -6.21875,-2.783052 -6.21875,-6.21875 0,-2.111332 1.050802,-3.971909 2.65625,-5.09375 l 0,-4 z M 96.53125,63.125 c -0.340615,0.201678 -0.70431,0.389145 -1.0625,0.5625 -0.593367,0.287177 -1.048091,0.501146 -1.5,0.65625 l 2.1875,0.375 0.3125,-1.28125 c 0.02187,-0.09293 0.04551,-0.201275 0.0625,-0.3125 z m 3.75,2.15625 c -0.0704,0.02904 -0.11426,0.06427 -0.1875,0.09375 l -2.46875,1 0.21875,2.375 c 0.121943,1.31207 0.287895,2.444149 0.375,2.53125 0.07984,0.07984 0.977592,-0.21017 2.0625,-0.65625 l 0,-5.34375 z m -8.875,0.0625 0,6.6875 1.875,0 2.625,0 0.25,-2.25 c 0.132384,-1.236192 0.188517,-2.285156 0.125,-2.34375 -0.130225,-0.120125 -2.72157,-1.217271 -4.875,-2.09375 z m 8.875,6.4375 c -1.326068,0.441516 -2.352774,0.819723 -2.40625,0.90625 -0.05661,0.09159 1.115578,1.05066 2.40625,2 l 0,-2.90625 z m -8.875,1.5 0,6.25 a 4.4475696,4.4475696 0 0 0 0.03125,0.5625 C 91.645492,80.070962 91.85735,80.028409 92.09375,80 l 1.75,-0.1875 0.9375,-2.90625 c 0.517677,-1.589613 0.876273,-2.936227 0.8125,-3 -0.125896,-0.125896 -2.472258,-0.439431 -4.1875,-0.625 z m 5.15625,0.8125 c -0.191306,0.198364 -1.323034,6.180575 -1.1875,6.28125 0.05702,0.04236 1.170462,0.872456 2.46875,1.84375 0.298578,0.223377 0.573027,0.434982 0.84375,0.625 a 4.4475696,4.4475696 0 0 0 1.59375,-3.3125 l 0,-2 L 99,76.25 c -1.275571,-1.2658 -2.356849,-2.23988 -2.4375,-2.15625 z m -3.46875,6.59375 c -0.199047,6.83e-4 -0.734915,0.167999 -1.375,0.375 A 4.4475696,4.4475696 0 0 0 92.75,82.625 c 0.317929,-0.97849 0.490662,-1.821834 0.40625,-1.90625 -0.01117,-0.01117 -0.02443,-0.03139 -0.0625,-0.03125 z m 1.96875,0.84375 -0.25,1.3125 c -0.05158,0.290607 -0.09693,0.586501 -0.15625,0.875 a 4.4475696,4.4475696 0 0 0 2.53125,-0.0625 c -0.111031,-0.111707 -0.151674,-0.184534 -0.28125,-0.3125 L 95.0625,81.53125 z M 31.25,90.75 c 3.664405,-0.271779 6.15625,1.595637 6.15625,4.65625 0,2.782999 -1.330215,4.160306 -10.5,10.90625 -4.304496,3.16669 -8.408158,5.75 -9.15625,5.75 -0.748098,0 -2.276139,-0.69814 -3.375,-1.5625 -2.674243,-2.10356 -2.633258,-5.13228 0.09375,-7.65625 C 18.313995,99.284829 30.02539,90.84082 31.25,90.75 z m 28.1875,19.40625 0,9.59375 1.09375,0 0,-7.40625 3.9375,7.40625 1.125,0 0,-9.59375 -1.09375,0 0,7.40625 -3.9375,-7.40625 -1.125,0 z m 14.09375,0 0,7.75 c 0,0.25511 0.05603,0.49098 0.15625,0.71875 0.100217,0.21866 0.242255,0.42975 0.40625,0.59375 0.173103,0.16399 0.365979,0.27478 0.59375,0.375 0.236878,0.0911 0.476674,0.15625 0.75,0.15625 l 0.8125,0 0,-0.96875 -0.8125,0 c -0.227772,0 -0.429758,-0.0769 -0.59375,-0.25 -0.154885,-0.1731 -0.218751,-0.38812 -0.21875,-0.625 l 0,-4.03125 1.625,0 0,-0.96875 -1.625,0 0,-2.75 -1.09375,0 z m 9.375,0 0,0.96875 3.375,0 c 0.318873,1e-5 0.562587,0.11598 0.78125,0.34375 0.218654,0.22777 0.343745,0.49364 0.34375,0.8125 0,0.15489 -0.02998,0.32298 -0.09375,0.46875 -0.05467,0.14578 -0.149786,0.26568 -0.25,0.375 -0.09111,0.10934 -0.207092,0.1862 -0.34375,0.25 -0.136665,0.0638 -0.260482,0.0938 -0.40625,0.0937 l -2.875,0 0,0.96875 2.84375,0 c 0.191322,0 0.367252,0.0521 0.53125,0.125 0.1731,0.0729 0.309945,0.17584 0.4375,0.3125 0.136657,0.12755 0.23961,0.2644 0.3125,0.4375 0.07288,0.164 0.124995,0.33993 0.125,0.53125 l 0,1.15625 c -5e-6,0.24599 -0.06515,0.46884 -0.15625,0.6875 -0.09111,0.20955 -0.211011,0.39851 -0.375,0.5625 -0.163998,0.164 -0.343846,0.31515 -0.5625,0.40625 -0.209552,0.0911 -0.441513,0.125 -0.6875,0.125 l -3,0 0,0.96875 3,0 c 0.382649,0 0.747537,-0.073 1.09375,-0.21875 0.355315,-0.14577 0.651144,-0.34776 0.90625,-0.59375 0.264207,-0.2551 0.470111,-0.56915 0.625,-0.90625 0.154875,-0.33709 0.249994,-0.67985 0.25,-1.0625 l 0,-0.96875 c -6e-6,-0.40998 -0.102958,-0.81395 -0.3125,-1.1875 -0.209553,-0.38264 -0.47149,-0.66544 -0.78125,-0.875 0.236874,-0.1731 0.407612,-0.4272 0.5625,-0.71875 0.154875,-0.30065 0.249994,-0.6095 0.25,-0.9375 -6e-6,-0.29153 -0.04693,-0.5574 -0.15625,-0.8125 -0.109335,-0.26421 -0.277429,-0.49617 -0.46875,-0.6875 -0.18222,-0.19132 -0.401154,-0.32816 -0.65625,-0.4375 -0.255106,-0.10929 -0.52096,-0.18749 -0.8125,-0.1875 l -3.5,0 z m 9.46875,0 c -0.346212,1e-5 -0.690237,0.0821 -1,0.21875 -0.300657,0.12756 -0.553482,0.30349 -0.78125,0.53125 -0.218659,0.21867 -0.394589,0.47149 -0.53125,0.78125 -0.127556,0.30066 -0.187501,0.62254 -0.1875,0.96875 l 0,0.25 c -10e-7,0.34622 0.05995,0.65899 0.1875,0.96875 0.136661,0.30978 0.312591,0.58473 0.53125,0.8125 0.227768,0.22777 0.480593,0.42585 0.78125,0.5625 0.309763,0.12753 0.653788,0.1875 1,0.1875 l 2.53125,0 0,1.5625 c -6e-6,0.24599 -0.0339,0.46884 -0.125,0.6875 -0.09111,0.20955 -0.211011,0.39851 -0.375,0.5625 -0.163999,0.164 -0.375097,0.31515 -0.59375,0.40625 -0.209552,0.0911 -0.410263,0.125 -0.65625,0.125 l -2.75,0 0,0.96875 2.75,0 c 0.382648,0 0.716287,-0.0821 1.0625,-0.21875 0.355315,-0.13666 0.682393,-0.31651 0.9375,-0.5625 0.264207,-0.24599 0.470111,-0.54701 0.625,-0.875 C 95.936125,117.75665 95.999993,117.39176 96,117 l 0,-4.34375 c -7e-6,-0.34621 -0.05084,-0.66809 -0.1875,-0.96875 -0.127557,-0.30976 -0.303487,-0.56258 -0.53125,-0.78125 -0.218664,-0.22776 -0.502739,-0.40369 -0.8125,-0.53125 -0.30066,-0.13669 -0.622545,-0.21874 -0.96875,-0.21875 l -1.125,0 z m 0,0.96875 1.125,0 c 0.191322,1e-5 0.389391,0.043 0.5625,0.125 0.1731,0.0729 0.309945,0.18496 0.4375,0.3125 0.127546,0.12756 0.23961,0.2644 0.3125,0.4375 0.07288,0.17311 0.09374,0.37118 0.09375,0.5625 l 0,1.90625 -2.53125,0 c -0.191329,0 -0.389399,-0.0208 -0.5625,-0.0937 -0.163997,-0.082 -0.300841,-0.18495 -0.4375,-0.3125 -0.127553,-0.13666 -0.23962,-0.29564 -0.3125,-0.46875 -0.07289,-0.1731 -0.09375,-0.37116 -0.09375,-0.5625 l 0,-0.46875 c -2e-6,-0.19132 0.02086,-0.38939 0.09375,-0.5625 0.07288,-0.1731 0.184947,-0.30994 0.3125,-0.4375 0.136659,-0.12754 0.273503,-0.2396 0.4375,-0.3125 0.173101,-0.082 0.371171,-0.12499 0.5625,-0.125 z M 69,112.90625 c -0.264215,1e-5 -0.513122,0.056 -0.75,0.15625 -0.227771,0.0911 -0.420647,0.2019 -0.59375,0.375 -0.173106,0.164 -0.306032,0.36599 -0.40625,0.59375 -0.100217,0.21867 -0.156251,0.46366 -0.15625,0.71875 l 0,2.34375 c -10e-7,0.36443 0.08209,0.71238 0.21875,1.03125 0.136661,0.31888 0.325619,0.59776 0.5625,0.84375 0.236879,0.23688 0.493622,0.42584 0.8125,0.5625 0.318875,0.1367 0.666816,0.21875 1.03125,0.21875 l 2.15625,0 0,-0.96875 -2.15625,0 c -0.209551,0 -0.402427,-0.043 -0.59375,-0.125 -0.182218,-0.082 -0.363341,-0.17583 -0.5,-0.3125 -0.136664,-0.14577 -0.2305,-0.31778 -0.3125,-0.5 -0.082,-0.19132 -0.125002,-0.3842 -0.125,-0.59375 l 0,-0.0937 2.46875,-0.59375 c 0.200433,-0.0456 0.41153,-0.10941 0.59375,-0.21875 0.18221,-0.11843 0.332083,-0.2735 0.46875,-0.4375 0.136656,-0.16399 0.23961,-0.33992 0.3125,-0.53125 0.082,-0.20043 0.124994,-0.40634 0.125,-0.625 -6e-6,-0.25509 -0.05604,-0.50008 -0.15625,-0.71875 -0.100224,-0.22776 -0.233151,-0.42975 -0.40625,-0.59375 -0.17311,-0.1731 -0.388125,-0.2839 -0.625,-0.375 -0.227774,-0.10023 -0.454542,-0.15624 -0.71875,-0.15625 l -1.25,0 z m 8.0625,0 0,0.96875 3.28125,0 -3.40625,5.875 5.125,0 0,-0.96875 -3.3125,0 3.40625,-5.875 -5.09375,0 z M 69,113.875 l 1.25,0 c 0.218654,1e-5 0.398502,0.0678 0.5625,0.25 0.163991,0.17311 0.249995,0.38813 0.25,0.625 -5e-6,0.23689 -0.05995,0.41673 -0.1875,0.5625 -0.118445,0.14578 -0.286539,0.23565 -0.46875,0.28125 l -2.21875,0.5625 0,-1.40625 c -2e-6,-0.23687 0.06387,-0.45189 0.21875,-0.625 0.163992,-0.18222 0.365978,-0.24999 0.59375,-0.25 z m -56.34375,13.375 0,9.5625 1.09375,0 0,-5.28125 3.96875,0 0,5.28125 1.09375,0 0,-9.5625 -1.09375,0 0,3.3125 -3.96875,0 0,-3.3125 -1.09375,0 z m 19.96875,0 0,9.5625 1.09375,0 0,-3.40625 0,-6.15625 -1.09375,0 z m 1.09375,6.15625 3.21875,3.40625 1.4375,0 -3.28125,-3.40625 L 38.375,130 l -1.4375,0 -3.21875,3.40625 z M 84.875,127.25 l 0,9.5625 1.09375,0 0,-7.5 2.40625,4.09375 2.40625,-4.09375 0,7.5 1.0625,0 0,-9.5625 -1.15625,0 -2.3125,4.0625 -2.3125,-4.0625 -1.1875,0 z m 25.46875,0 0,2.75 -2.125,0 c -0.26421,1e-5 -0.49098,0.0248 -0.71875,0.125 -0.21866,0.0911 -0.42065,0.23316 -0.59375,0.40625 -0.164,0.164 -0.30603,0.36599 -0.40625,0.59375 -0.0912,0.21866 -0.125,0.46365 -0.125,0.71875 l 0,2.34375 c 0,0.36443 0.0508,0.71237 0.1875,1.03125 0.13666,0.31888 0.32562,0.59776 0.5625,0.84375 0.24599,0.23688 0.55612,0.42584 0.875,0.5625 0.31888,0.13669 0.63557,0.1875 1,0.1875 l 2.4375,0 0,-9.5625 -1.09375,0 z m 9.03125,0 0,9.5625 2.40625,0 c 0.36443,0 0.71237,-0.0508 1.03125,-0.1875 0.31887,-0.13666 0.60686,-0.32562 0.84375,-0.5625 0.24598,-0.24599 0.42584,-0.52487 0.5625,-0.84375 0.1367,-0.31888 0.21874,-0.66682 0.21875,-1.03125 l 0,-2.34375 c -1e-5,-0.2551 -0.056,-0.50009 -0.15625,-0.71875 -0.0911,-0.22776 -0.23315,-0.42975 -0.40625,-0.59375 -0.164,-0.17309 -0.33474,-0.31515 -0.5625,-0.40625 -0.22778,-0.10023 -0.4949,-0.12499 -0.75,-0.125 l -2.09375,0 0,-2.75 -1.09375,0 z m -98.65625,2.75 0,0.9375 2.6875,0 c 0.209544,0 0.385474,0.073 0.53125,0.21875 0.145769,0.14578 0.218745,0.3217 0.21875,0.53125 l 0,0.875 -2.46875,0.59375 c -0.209549,0.0547 -0.411536,0.13157 -0.59375,0.25 -0.182217,0.10933 -0.33209,0.24226 -0.46875,0.40625 -0.136663,0.15488 -0.26175,0.33081 -0.34375,0.53125 -0.07289,0.19133 -0.09375,0.41545 -0.09375,0.625 -1e-6,0.2551 0.03389,0.49099 0.125,0.71875 0.09111,0.22777 0.211005,0.42065 0.375,0.59375 0.163992,0.164 0.365979,0.30603 0.59375,0.40625 0.227767,0.0912 0.485786,0.125 0.75,0.125 l 3.21875,0 0,-5 c -6e-6,-0.25509 -0.05604,-0.50008 -0.15625,-0.71875 -0.09111,-0.22776 -0.233151,-0.3985 -0.40625,-0.5625 -0.163999,-0.16399 -0.365985,-0.31515 -0.59375,-0.40625 -0.218662,-0.10023 -0.432402,-0.12499 -0.6875,-0.125 l -2.6875,0 z m 7.90625,0 c -0.264214,1e-5 -0.522233,0.0248 -0.75,0.125 -0.21866,0.0911 -0.420646,0.23316 -0.59375,0.40625 -0.163994,0.164 -0.306032,0.36599 -0.40625,0.59375 -0.09111,0.21866 -0.125001,0.46365 -0.125,0.71875 l 0,2.46875 c -1e-6,0.34621 0.05995,0.69024 0.1875,1 0.13666,0.30066 0.31259,0.55348 0.53125,0.78125 0.227767,0.21866 0.511843,0.39459 0.8125,0.53125 0.309764,0.12752 0.622538,0.1875 0.96875,0.1875 l 2.15625,0 0,-0.9375 -2.15625,0 c -0.191329,0 -0.358148,-0.0521 -0.53125,-0.125 -0.163996,-0.0729 -0.332091,-0.18495 -0.46875,-0.3125 -0.127553,-0.13666 -0.20837,-0.26439 -0.28125,-0.4375 -0.07289,-0.1731 -0.125002,-0.37117 -0.125,-0.5625 l 0,-2.71875 c -2e-6,-0.20954 0.07298,-0.38547 0.21875,-0.53125 0.154881,-0.15492 0.35295,-0.25 0.5625,-0.25 l 2.78125,0 0,-0.9375 -2.78125,0 z m 12.34375,0 c -0.264215,1e-5 -0.513122,0.0248 -0.75,0.125 -0.227771,0.0911 -0.420647,0.23316 -0.59375,0.40625 -0.173106,0.164 -0.306033,0.36599 -0.40625,0.59375 -0.100218,0.21866 -0.156251,0.46365 -0.15625,0.71875 l 0,2.34375 c -10e-7,0.36443 0.05084,0.71237 0.1875,1.03125 0.136661,0.31888 0.325619,0.59776 0.5625,0.84375 0.236879,0.23688 0.524871,0.42584 0.84375,0.5625 0.318874,0.13669 0.666816,0.1875 1.03125,0.1875 l 2.15625,0 0,-0.9375 -2.15625,0 c -0.209551,0 -0.402426,-0.043 -0.59375,-0.125 -0.182218,-0.082 -0.363341,-0.20709 -0.5,-0.34375 -0.136664,-0.14577 -0.23051,-0.31778 -0.3125,-0.5 -0.08199,-0.19133 -0.125002,-0.3842 -0.125,-0.59375 l 0,-0.0625 2.46875,-0.59375 c 0.200433,-0.0455 0.38028,-0.14067 0.5625,-0.25 0.18221,-0.11843 0.363333,-0.24225 0.5,-0.40625 0.136656,-0.16399 0.23961,-0.33992 0.3125,-0.53125 0.082,-0.20043 0.124994,-0.40634 0.125,-0.625 -6e-6,-0.2551 -0.05604,-0.50009 -0.15625,-0.71875 -0.100224,-0.22776 -0.233151,-0.42975 -0.40625,-0.59375 -0.17311,-0.17309 -0.388125,-0.31515 -0.625,-0.40625 -0.227774,-0.10023 -0.485792,-0.12499 -0.75,-0.125 l -1.21875,0 z m 4.53125,0 0,6.8125 1.09375,0 0,-4.375 c -2e-6,-0.20044 0.02086,-0.38028 0.09375,-0.5625 0.08199,-0.18221 0.207087,-0.33208 0.34375,-0.46875 0.136659,-0.13665 0.286532,-0.26175 0.46875,-0.34375 0.182212,-0.082 0.384199,-0.125 0.59375,-0.125 l 1.625,0 0,-0.9375 -1.625,0 c -0.592202,1e-5 -1.090018,0.18377 -1.5,0.59375 L 46.1875,130 45.5,130 z m 7.09375,0 c -0.264215,1e-5 -0.513122,0.0248 -0.75,0.125 -0.22777,0.0911 -0.420647,0.23316 -0.59375,0.40625 -0.173106,0.164 -0.306032,0.36599 -0.40625,0.59375 -0.100218,0.21866 -0.15625,0.46365 -0.15625,0.71875 0,0.46465 0.155066,0.83738 0.4375,1.15625 0.291543,0.30977 0.634292,0.51567 1.0625,0.625 l 1.78125,0.46875 c 0.209543,0.0547 0.381556,0.15761 0.5,0.3125 0.127546,0.14577 0.187496,0.32563 0.1875,0.5625 -4e-6,0.23689 -0.08601,0.44278 -0.25,0.625 -0.163998,0.17315 -0.343845,0.28125 -0.5625,0.28125 l -3.03125,0 0,0.9375 3.03125,0 c 0.264209,0 0.490977,-0.0339 0.71875,-0.125 0.236876,-0.10022 0.451891,-0.24225 0.625,-0.40625 0.1731,-0.1731 0.306026,-0.37509 0.40625,-0.59375 0.100217,-0.22777 0.156245,-0.46364 0.15625,-0.71875 -5e-6,-0.44642 -0.145961,-0.83737 -0.4375,-1.15625 -0.282439,-0.32799 -0.634299,-0.54692 -1.0625,-0.65625 l -1.84375,-0.46875 c -0.182218,-0.0455 -0.319062,-0.12636 -0.4375,-0.28125 -0.11844,-0.15488 -0.187502,-0.34384 -0.1875,-0.5625 -2e-6,-0.23688 0.08601,-0.45189 0.25,-0.625 0.163992,-0.18222 0.343839,-0.28125 0.5625,-0.28125 l 2.75,0 0,-0.9375 -2.75,0 z m 4.5,0 0,9.96875 1.09375,0 0,-3.15625 1.34375,0 c 0.364427,0 0.712369,-0.0508 1.03125,-0.1875 0.318872,-0.13666 0.575615,-0.32562 0.8125,-0.5625 0.245986,-0.24599 0.457083,-0.52487 0.59375,-0.84375 0.136652,-0.31888 0.187494,-0.66682 0.1875,-1.03125 l 0,-2.34375 c -6e-6,-0.2551 -0.05604,-0.50009 -0.15625,-0.71875 -0.09111,-0.22776 -0.201901,-0.42975 -0.375,-0.59375 -0.163999,-0.17309 -0.365985,-0.31515 -0.59375,-0.40625 -0.227773,-0.10023 -0.463652,-0.12499 -0.71875,-0.125 l -3.21875,0 z m 6.84375,0 0,0.9375 2.65625,0 c 0.209543,0 0.416724,0.073 0.5625,0.21875 0.145769,0.14578 0.218745,0.3217 0.21875,0.53125 l 0,0.875 -2.46875,0.59375 c -0.20955,0.0547 -0.411536,0.13157 -0.59375,0.25 -0.182216,0.10933 -0.33209,0.24226 -0.46875,0.40625 -0.136662,0.15488 -0.26175,0.33081 -0.34375,0.53125 -0.07289,0.19133 -0.09375,0.41545 -0.09375,0.625 0,0.2551 0.03389,0.49099 0.125,0.71875 0.09111,0.22777 0.211005,0.42065 0.375,0.59375 0.163992,0.164 0.36598,0.30603 0.59375,0.40625 0.227768,0.0912 0.485786,0.125 0.75,0.125 l 3.1875,0 0,-5 c -6e-6,-0.25509 -0.02479,-0.50008 -0.125,-0.71875 -0.09111,-0.22776 -0.233151,-0.3985 -0.40625,-0.5625 -0.163999,-0.16399 -0.365985,-0.31515 -0.59375,-0.40625 -0.218662,-0.10023 -0.463653,-0.12499 -0.71875,-0.125 l -2.65625,0 z m 7.875,0 c -0.264214,1e-5 -0.490983,0.0248 -0.71875,0.125 -0.21866,0.0911 -0.420647,0.23316 -0.59375,0.40625 -0.163995,0.164 -0.306032,0.36599 -0.40625,0.59375 -0.09111,0.21866 -0.125001,0.46365 -0.125,0.71875 l 0,2.46875 c -10e-7,0.34621 0.05995,0.69024 0.1875,1 0.13666,0.30066 0.31259,0.55348 0.53125,0.78125 0.227767,0.21866 0.480592,0.39459 0.78125,0.53125 0.309763,0.12752 0.653788,0.1875 1,0.1875 l 2.15625,0 0,-0.9375 -2.15625,0 c -0.19133,0 -0.389398,-0.0521 -0.5625,-0.125 -0.163996,-0.0729 -0.300841,-0.18495 -0.4375,-0.3125 -0.127553,-0.13666 -0.23962,-0.26439 -0.3125,-0.4375 -0.07289,-0.1731 -0.09375,-0.37117 -0.09375,-0.5625 l 0,-2.71875 c -2e-6,-0.20954 0.07298,-0.38547 0.21875,-0.53125 0.154881,-0.15492 0.3217,-0.25 0.53125,-0.25 l 2.8125,0 0,-0.9375 -2.8125,0 z m 5.53125,0 c -0.264215,1e-5 -0.513122,0.0248 -0.75,0.125 -0.227771,0.0911 -0.420647,0.23316 -0.59375,0.40625 -0.173106,0.164 -0.306032,0.36599 -0.40625,0.59375 -0.100217,0.21866 -0.156251,0.46365 -0.15625,0.71875 l 0,2.34375 c -10e-7,0.36443 0.08209,0.71237 0.21875,1.03125 0.136661,0.31888 0.294369,0.59776 0.53125,0.84375 0.236879,0.23688 0.524871,0.42584 0.84375,0.5625 0.318874,0.13669 0.666816,0.1875 1.03125,0.1875 l 2.15625,0 0,-0.9375 -2.15625,0 c -0.209551,0 -0.402427,-0.043 -0.59375,-0.125 -0.182218,-0.082 -0.363341,-0.20709 -0.5,-0.34375 -0.136664,-0.14577 -0.2305,-0.31778 -0.3125,-0.5 -0.082,-0.19133 -0.125002,-0.3842 -0.125,-0.59375 l 0,-0.0625 L 79,133.65625 c 0.200433,-0.0455 0.41153,-0.14067 0.59375,-0.25 0.18221,-0.11843 0.332083,-0.24225 0.46875,-0.40625 0.136656,-0.16399 0.23961,-0.33992 0.3125,-0.53125 0.082,-0.20043 0.124994,-0.40634 0.125,-0.625 -6e-6,-0.2551 -0.05604,-0.50009 -0.15625,-0.71875 -0.100224,-0.22776 -0.233151,-0.42975 -0.40625,-0.59375 -0.17311,-0.17309 -0.388125,-0.31515 -0.625,-0.40625 -0.227774,-0.10023 -0.454542,-0.12499 -0.71875,-0.125 l -1.25,0 z m 16.4375,0 0,0.9375 2.65625,0 c 0.209544,0 0.385474,0.073 0.53125,0.21875 0.145769,0.14578 0.218745,0.3217 0.21875,0.53125 l 0,0.875 -2.4375,0.59375 c -0.20955,0.0547 -0.411536,0.13157 -0.59375,0.25 -0.182217,0.10933 -0.33209,0.24226 -0.46875,0.40625 -0.136663,0.15488 -0.26175,0.33081 -0.34375,0.53125 -0.07289,0.19133 -0.09375,0.41545 -0.09375,0.625 -10e-7,0.2551 0.03389,0.49099 0.125,0.71875 0.09111,0.22777 0.211005,0.42065 0.375,0.59375 0.163992,0.164 0.36598,0.30603 0.59375,0.40625 0.227767,0.0912 0.485786,0.125 0.75,0.125 l 3.1875,0 0,-5 c -6e-6,-0.25509 -0.02479,-0.50008 -0.125,-0.71875 -0.09111,-0.22776 -0.233151,-0.3985 -0.40625,-0.5625 -0.163999,-0.16399 -0.365985,-0.31515 -0.59375,-0.40625 -0.218662,-0.10023 -0.463652,-0.12499 -0.71875,-0.125 l -2.65625,0 z m 7.875,0 c -0.25511,1e-5 -0.49098,0.0248 -0.71875,0.125 -0.21866,0.0911 -0.42064,0.23316 -0.59375,0.40625 -0.16399,0.164 -0.30604,0.36599 -0.40625,0.59375 -0.09111,0.21866 -0.125001,0.46365 -0.125,0.71875 l 0,2.46875 c -10e-7,0.34621 0.05995,0.69024 0.1875,1 0.13666,0.30066 0.31259,0.55348 0.53125,0.78125 0.22777,0.21866 0.48059,0.39459 0.78125,0.53125 0.30976,0.12752 0.65379,0.1875 1,0.1875 l 1.46875,0 0,0.65625 c -1e-5,0.20955 -0.043,0.41153 -0.125,0.59375 -0.082,0.19132 -0.19798,0.33209 -0.34375,0.46875 -0.13667,0.14577 -0.30868,0.26175 -0.5,0.34375 -0.18222,0.082 -0.3842,0.125 -0.59375,0.125 l -1.59375,0 0,0.96875 1.59375,0 c 0.36443,0 0.71237,-0.0821 1.03125,-0.21875 0.31888,-0.12756 0.60687,-0.29437 0.84375,-0.53125 0.24599,-0.22777 0.42583,-0.52487 0.5625,-0.84375 0.13669,-0.31888 0.21875,-0.63557 0.21875,-1 l 0,-7.375 -3.21875,0 z m 13.1875,0 c -0.26421,1e-5 -0.51312,0.0248 -0.75,0.125 -0.22777,0.0911 -0.42064,0.23316 -0.59375,0.40625 -0.1731,0.164 -0.30603,0.36599 -0.40625,0.59375 -0.10023,0.21866 -0.15625,0.46365 -0.15625,0.71875 l 0,2.34375 c 0,0.36443 0.0821,0.71237 0.21875,1.03125 0.13666,0.31888 0.32561,0.59776 0.5625,0.84375 0.23687,0.23688 0.49362,0.42584 0.8125,0.5625 0.31888,0.13669 0.66682,0.1875 1.03125,0.1875 l 2.15625,0 0,-0.9375 -2.15625,0 c -0.20955,0 -0.40242,-0.043 -0.59375,-0.125 -0.18222,-0.082 -0.36334,-0.20709 -0.5,-0.34375 -0.13667,-0.14577 -0.2305,-0.31778 -0.3125,-0.5 -0.082,-0.19133 -0.125,-0.3842 -0.125,-0.59375 l 0,-0.0625 2.46875,-0.59375 c 0.20043,-0.0455 0.41153,-0.14067 0.59375,-0.25 0.18221,-0.11843 0.33208,-0.24225 0.46875,-0.40625 0.13666,-0.16399 0.2396,-0.33992 0.3125,-0.53125 0.082,-0.20043 0.12499,-0.40634 0.125,-0.625 -1e-5,-0.2551 -0.056,-0.50009 -0.15625,-0.71875 -0.10022,-0.22776 -0.23316,-0.42975 -0.40625,-0.59375 -0.17311,-0.17309 -0.38813,-0.31515 -0.625,-0.40625 -0.22778,-0.10023 -0.45455,-0.12499 -0.71875,-0.125 l -1.25,0 z m 11.09375,0 0,4.96875 c -1e-5,0.25511 0.0339,0.49098 0.125,0.71875 0.10021,0.21866 0.24225,0.42065 0.40625,0.59375 0.1731,0.164 0.37509,0.30603 0.59375,0.40625 0.22777,0.0912 0.48579,0.125 0.75,0.125 l 0.5625,0 c 0.61953,0 1.12126,-0.18377 1.53125,-0.59375 l 0.40625,0.59375 0.6875,0 0,-6.8125 -1.09375,0 0,4.3125 c -1e-5,0.20955 -0.043,0.40242 -0.125,0.59375 -0.082,0.18222 -0.19798,0.35423 -0.34375,0.5 -0.13667,0.13666 -0.30868,0.26175 -0.5,0.34375 -0.18222,0.082 -0.35295,0.125 -0.5625,0.125 l -0.5625,0 c -0.20955,0 -0.40762,-0.073 -0.5625,-0.21875 -0.14576,-0.15488 -0.21875,-0.35295 -0.21875,-0.5625 l 0,-5.09375 -1.09375,0 z m 6.71875,0 0,6.8125 1.0625,0 0,-4.375 c 0,-0.20044 0.0521,-0.38028 0.125,-0.5625 0.082,-0.18221 0.17584,-0.33208 0.3125,-0.46875 0.13666,-0.13665 0.31779,-0.26175 0.5,-0.34375 0.18222,-0.082 0.3842,-0.125 0.59375,-0.125 l 1.625,0 0,-0.9375 -1.625,0 c -0.5922,1e-5 -1.12126,0.18377 -1.53125,0.59375 L 133.3125,130 l -0.65625,0 z m 6.75,0 c -0.25511,1e-5 -0.49098,0.0248 -0.71875,0.125 -0.21866,0.0911 -0.42065,0.23316 -0.59375,0.40625 -0.164,0.164 -0.27479,0.36599 -0.375,0.59375 -0.0912,0.21866 -0.15626,0.46365 -0.15625,0.71875 l 0,2.46875 c -1e-5,0.34621 0.0912,0.69024 0.21875,1 0.13666,0.30066 0.31259,0.55348 0.53125,0.78125 0.22777,0.21866 0.48059,0.39459 0.78125,0.53125 0.30976,0.12752 0.62254,0.1875 0.96875,0.1875 l 1.46875,0 0,0.65625 c -1e-5,0.20955 -0.043,0.41153 -0.125,0.59375 -0.082,0.19132 -0.19798,0.33209 -0.34375,0.46875 -0.13667,0.14577 -0.27743,0.26175 -0.46875,0.34375 C 140.41153,138.957 140.20955,139 140,139 l -1.59375,0 0,0.96875 1.59375,0 c 0.36443,0 0.71237,-0.0821 1.03125,-0.21875 0.31887,-0.12756 0.57562,-0.29437 0.8125,-0.53125 0.24599,-0.22777 0.45708,-0.52487 0.59375,-0.84375 0.13669,-0.31888 0.1875,-0.63557 0.1875,-1 l 0,-7.375 -3.21875,0 z m -98.4375,0.9375 1.21875,0 c 0.218654,0 0.429752,0.099 0.59375,0.28125 0.163991,0.17311 0.249995,0.38812 0.25,0.625 -5e-6,0.23688 -0.05995,0.41673 -0.1875,0.5625 -0.118445,0.14577 -0.286539,0.23565 -0.46875,0.28125 l -2.21875,0.5625 0,-1.40625 c -2e-6,-0.23688 0.06386,-0.45189 0.21875,-0.625 0.163991,-0.18222 0.365979,-0.28125 0.59375,-0.28125 z m 17.21875,0 2.125,0 c 0.209544,0 0.385474,0.0951 0.53125,0.25 0.154875,0.14578 0.218745,0.32171 0.21875,0.53125 l 0,2.59375 c -5e-6,0.20955 -0.04301,0.40242 -0.125,0.59375 -0.082,0.18222 -0.197983,0.35423 -0.34375,0.5 -0.136666,0.13666 -0.277428,0.26175 -0.46875,0.34375 -0.182219,0.082 -0.384206,0.125 -0.59375,0.125 l -1.34375,0 0,-4.9375 z m 19.15625,0 1.25,0 c 0.218654,0 0.398502,0.099 0.5625,0.28125 0.163991,0.17311 0.249995,0.38812 0.25,0.625 -5e-6,0.23688 -0.05995,0.41673 -0.1875,0.5625 -0.118445,0.14577 -0.286539,0.23565 -0.46875,0.28125 l -2.21875,0.5625 0,-1.40625 c -2e-6,-0.23688 0.06387,-0.45189 0.21875,-0.625 0.163992,-0.18222 0.365978,-0.28125 0.59375,-0.28125 z m 24.3125,0 2.125,0 0,4.9375 -1.46875,0 c -0.19133,0 -0.38939,-0.0521 -0.5625,-0.125 -0.1731,-0.0729 -0.30995,-0.18495 -0.4375,-0.3125 -0.12755,-0.13666 -0.2396,-0.26439 -0.3125,-0.4375 -0.0729,-0.1731 -0.0937,-0.37117 -0.0937,-0.5625 l 0,-2.71875 c 0,-0.20954 0.073,-0.38547 0.21875,-0.53125 0.14577,-0.15492 0.3217,-0.25 0.53125,-0.25 z m 6.5625,0 2.125,0 0,4.9375 -1.34375,0 c -0.20955,0 -0.40242,-0.043 -0.59375,-0.125 -0.18221,-0.082 -0.35423,-0.20709 -0.5,-0.34375 -0.13666,-0.14577 -0.2305,-0.31778 -0.3125,-0.5 -0.082,-0.19133 -0.125,-0.3842 -0.125,-0.59375 l 0,-2.59375 c 0,-0.20954 0.073,-0.38547 0.21875,-0.53125 0.15488,-0.15492 0.3217,-0.25 0.53125,-0.25 z m 6.625,0 1.25,0 c 0.21865,0 0.39851,0.099 0.5625,0.28125 0.164,0.17311 0.24999,0.38812 0.25,0.625 -1e-5,0.23688 -0.06,0.41673 -0.1875,0.5625 -0.11845,0.14577 -0.28654,0.23565 -0.46875,0.28125 l -2.21875,0.5625 0,-1.40625 c 0,-0.23688 0.0639,-0.45189 0.21875,-0.625 0.16399,-0.18222 0.36598,-0.28125 0.59375,-0.28125 z m 5.625,0 2.09375,0 c 0.20954,0 0.38547,0.0951 0.53125,0.25 0.15492,0.14578 0.25,0.32171 0.25,0.53125 l 0,2.59375 c 0,0.20955 -0.043,0.40242 -0.125,0.59375 -0.082,0.18222 -0.19799,0.35423 -0.34375,0.5 -0.13667,0.13666 -0.30867,0.26175 -0.5,0.34375 -0.18221,0.082 -0.38421,0.125 -0.59375,0.125 l -1.3125,0 0,-4.9375 z m 18.9375,0 2.125,0 0,4.9375 -1.46875,0 c -0.19133,0 -0.35815,-0.0521 -0.53125,-0.125 -0.17311,-0.0729 -0.30995,-0.18495 -0.4375,-0.3125 -0.12755,-0.13666 -0.2396,-0.26439 -0.3125,-0.4375 -0.0729,-0.1731 -0.125,-0.37117 -0.125,-0.5625 l 0,-2.71875 c 0,-0.20954 0.073,-0.38547 0.21875,-0.53125 0.14577,-0.15492 0.3217,-0.25 0.53125,-0.25 z m -115.25,2.59375 0,2.34375 -2.125,0 c -0.21866,0 -0.41673,-0.099 -0.5625,-0.28125 -0.136662,-0.18221 -0.187502,-0.38812 -0.1875,-0.625 -2e-6,-0.21866 0.06906,-0.40762 0.1875,-0.5625 0.127549,-0.164 0.255283,-0.2669 0.4375,-0.3125 l 2.25,-0.5625 z m 43.21875,0 0,2.34375 -2.125,0 c -0.21866,0 -0.416729,-0.099 -0.5625,-0.28125 -0.136662,-0.18221 -0.187501,-0.38812 -0.1875,-0.625 -10e-7,-0.21866 0.03781,-0.40762 0.15625,-0.5625 0.127549,-0.164 0.286533,-0.2669 0.46875,-0.3125 l 2.25,-0.5625 z m 29.8125,0 0,2.34375 -2.09375,0 c -0.21866,0 -0.416729,-0.099 -0.5625,-0.28125 -0.136662,-0.18221 -0.187502,-0.38812 -0.1875,-0.625 -2e-6,-0.21866 0.03781,-0.40762 0.15625,-0.5625 0.127549,-0.164 0.286533,-0.2669 0.46875,-0.3125 l 2.21875,-0.5625 z m 12.0625,10.875 0,0.46875 4.03125,0 c 1.02951,1e-5 1.63028,0.44698 1.8125,1.3125 l 0.0312,0.34375 0,0.9375 c 0,0.13667 -0.004,0.27479 -0.0312,0.375 -0.0273,0.10023 -0.0795,0.19015 -0.125,0.28125 -0.164,0.37355 -0.3608,0.63548 -0.625,0.78125 -0.26422,0.14576 -0.64213,0.21876 -1.125,0.21875 l -1.59375,0 c -0.77442,1e-5 -1.36216,0.17985 -1.78125,0.5625 -0.40999,0.37354 -0.625,0.89742 -0.625,1.5625 l 0,2.96875 6.375,0 0,-0.46875 -5.875,0 0,-2.53125 c 0,-0.15488 -0.005,-0.2878 0.0312,-0.40625 0.19133,-0.80174 0.81423,-1.18749 1.84375,-1.1875 l 1.65625,0 c 1.34839,1e-5 2.11205,-0.61899 2.3125,-1.8125 l 0.0625,-0.4375 0,-0.84375 c -1e-5,-0.6833 -0.245,-1.22412 -0.71875,-1.625 -0.21867,-0.19132 -0.45974,-0.33335 -0.6875,-0.40625 -0.22778,-0.0728 -0.51449,-0.0937 -0.90625,-0.0937 l -4.0625,0 z m 11.375,0 c -0.83819,1e-5 -1.46893,0.20592 -1.90625,0.625 -0.42821,0.41 -0.65625,1.00685 -0.65625,1.78125 l 0,5.0625 c -0.009,0.0183 0,0.0443 0,0.0625 l 0,0.15625 c 0,0.71064 0.24499,1.25146 0.71875,1.625 0.4282,0.3371 1.03289,0.5 1.84375,0.5 l 1.78125,0 c 0.83818,0 1.44679,-0.19288 1.875,-0.59375 0.43731,-0.40998 0.65624,-0.9847 0.65625,-1.75 l 0,-5.0625 c -1e-5,-0.78351 -0.21894,-1.40251 -0.65625,-1.8125 -0.42821,-0.40998 -1.03682,-0.59374 -1.875,-0.59375 l -1.78125,0 z m 6.6875,0 0,9.8125 0.46875,0 0,-9.8125 -0.46875,0 z m 2.8125,0 0,0.46875 4.03125,0 c 0.68331,1e-5 1.17329,0.11599 1.4375,0.34375 0.27332,0.21866 0.40624,0.60962 0.40625,1.15625 l 0,1.03125 c -1e-5,1.03863 -0.59686,1.56251 -1.78125,1.5625 l -1.9375,0 0,0.5 1.9375,0 c 1.18439,1e-5 1.78124,0.49782 1.78125,1.5 L 136,152 c -1e-5,0.54665 -0.17202,0.97148 -0.5,1.28125 -0.31889,0.30065 -0.76977,0.46875 -1.34375,0.46875 l -4.03125,0 0,0.46875 4.03125,0 c 0.87463,0 1.53143,-0.32188 1.96875,-0.96875 0.23687,-0.3462 0.37499,-0.77497 0.375,-1.3125 l 0,-1 c -1e-5,-0.43731 -0.0899,-0.79309 -0.28125,-1.09375 -0.18222,-0.30976 -0.45327,-0.5378 -0.78125,-0.65625 0.33709,-0.12754 0.59902,-0.33345 0.78125,-0.625 0.18222,-0.30065 0.28124,-0.65643 0.28125,-1.09375 l 0,-1.03125 c -1e-5,-0.71063 -0.19807,-1.2345 -0.5625,-1.5625 -0.36443,-0.32797 -0.96128,-0.46874 -1.78125,-0.46875 l -4.03125,0 z m -98.90625,0.25 0,7.75 c 0,0.2551 0.05603,0.49098 0.15625,0.71875 0.100217,0.21866 0.242254,0.39851 0.40625,0.5625 0.173103,0.16399 0.365979,0.30603 0.59375,0.40625 0.236878,0.0912 0.476674,0.125 0.75,0.125 l 0.84375,0 0,-0.9375 -0.84375,0 c -0.227772,0 -0.398508,-0.0769 -0.5625,-0.25 -0.154884,-0.1731 -0.250002,-0.38812 -0.25,-0.625 l 0,-4.0625 1.65625,0 0,-0.9375 -1.65625,0 0,-2.75 -1.09375,0 z m 23.21875,0 0,7.75 c -10e-7,0.2551 0.05603,0.49098 0.15625,0.71875 0.100217,0.21866 0.242255,0.39851 0.40625,0.5625 0.173103,0.16399 0.365979,0.30603 0.59375,0.40625 0.236878,0.0912 0.507925,0.125 0.78125,0.125 l 0.8125,0 0,-0.9375 -0.8125,0 c -0.227771,0 -0.429759,-0.0769 -0.59375,-0.25 -0.154885,-0.1731 -0.250002,-0.38812 -0.25,-0.625 l 0,-4.0625 1.65625,0 0,-0.9375 -1.65625,0 0,-2.75 -1.09375,0 z m 66.1875,0.21875 1.78125,0 c 0.69241,1e-5 1.20325,0.18113 1.53125,0.5 0.33709,0.30977 0.53124,0.79456 0.53125,1.46875 l 0,5 c -1e-5,0.66509 -0.17202,1.12773 -0.5,1.4375 -0.31888,0.30065 -0.85187,0.46875 -1.5625,0.46875 l -1.78125,0 c -0.71065,0 -1.23452,-0.15898 -1.5625,-0.46875 -0.32799,-0.30976 -0.5,-0.78153 -0.5,-1.4375 l 0,-5 c 0,-0.67419 0.17201,-1.15898 0.5,-1.46875 0.33709,-0.31887 0.86097,-0.49999 1.5625,-0.5 z m -38.65625,0.0937 c -0.646869,1e-5 -1.238526,0.12902 -1.8125,0.375 -0.564871,0.246 -1.071796,0.60305 -1.5,1.03125 -0.419097,0.4191 -0.75401,0.89478 -1,1.46875 -0.245991,0.57398 -0.375,1.19689 -0.375,1.84375 0,0.64687 0.129009,1.23852 0.375,1.8125 0.24599,0.56487 0.571793,1.07179 1,1.5 0.428204,0.41909 0.935129,0.75401 1.5,1 0.573974,0.24599 1.18777,0.375 1.84375,0.375 0.646859,0 1.247626,-0.12901 1.8125,-0.375 0.573971,-0.24599 1.071786,-0.58091 1.5,-1 0.428197,-0.42821 0.78525,-0.93513 1.03125,-1.5 0.245981,-0.56487 0.34374,-1.16563 0.34375,-1.8125 -1e-5,-0.63775 -0.10688,-1.21638 -0.34375,-1.78125 -0.236889,-0.57398 -0.584831,-1.10304 -1.03125,-1.53125 -0.464657,-0.44642 -0.979418,-0.78525 -1.5625,-1.03125 -0.583095,-0.24598 -1.179945,-0.37499 -1.78125,-0.375 z m 7.1875,0.0625 c -0.318879,1e-5 -0.589925,0.10296 -0.78125,0.3125 -0.182216,0.20956 -0.27215,0.48844 -0.28125,0.84375 l 0,0.25 0,6.46875 0,0.25 c -10e-7,0.34621 0.08992,0.62509 0.28125,0.84375 0.191325,0.21865 0.462371,0.34375 0.78125,0.34375 0.318874,0 0.567782,-0.1342 0.75,-0.34375 0.191319,-0.21866 0.281247,-0.48842 0.28125,-0.84375 l 0,-0.25 0,-2.34375 3.40625,0 0,2.34375 0,0.25 c -7e-6,0.34621 0.09903,0.62509 0.28125,0.84375 0.191319,0.21865 0.431116,0.34375 0.75,0.34375 0.318869,0 0.567777,-0.1342 0.75,-0.34375 0.182207,-0.21866 0.29427,-0.48842 0.3125,-0.84375 l 0,-0.25 0,-6.46875 0,-0.25 c -9e-6,-0.3462 -0.08993,-0.60295 -0.28125,-0.8125 -0.191335,-0.21865 -0.462381,-0.34374 -0.78125,-0.34375 -0.318884,1e-5 -0.558681,0.10296 -0.75,0.3125 -0.182223,0.20956 -0.281257,0.48844 -0.28125,0.84375 l 0,0.25 0,2.21875 -3.40625,0 0,-2.21875 0,-0.25 c -3e-6,-0.3462 -0.08993,-0.60295 -0.28125,-0.8125 -0.182218,-0.21865 -0.431126,-0.34374 -0.75,-0.34375 z m 10.625,0 c -0.236882,1e-5 -0.442787,0.0951 -0.625,0.25 -0.173106,0.15489 -0.27998,0.35169 -0.34375,0.625 l -1.625,6.78125 -0.03125,0.21875 c -0.01822,0.0547 -0.0534,0.1146 -0.0625,0.1875 l 0,0.1875 c -10e-7,0.29155 0.121173,0.51832 0.3125,0.71875 0.200436,0.19129 0.427204,0.3125 0.71875,0.3125 0.546644,0 0.907614,-0.32708 1.0625,-0.9375 l 0.0625,-0.21875 0.84375,-3.625 1.21875,3.90625 c 0.18221,0.5922 0.48195,0.875 0.9375,0.875 0.20043,0 0.37636,-0.0691 0.53125,-0.1875 0.16398,-0.12755 0.3021,-0.28134 0.375,-0.5 l 0.0625,-0.1875 1.21875,-3.90625 0.875,3.625 0.0625,0.25 c 0.0729,0.29154 0.19278,0.50136 0.375,0.65625 0.18221,0.15492 0.42328,0.25 0.6875,0.25 0.28243,0 0.5183,-0.12117 0.71875,-0.3125 0.20043,-0.20043 0.28124,-0.41417 0.28125,-0.6875 0,-0.13666 -0.004,-0.26959 -0.0312,-0.40625 l -0.0625,-0.21875 -1.65625,-6.75 c -0.0729,-0.29153 -0.19279,-0.50136 -0.375,-0.65625 -0.17311,-0.16399 -0.36991,-0.24999 -0.625,-0.25 -0.23689,1e-5 -0.46101,0.073 -0.625,0.21875 -0.15489,0.14578 -0.28782,0.36863 -0.40625,0.6875 l -1.40625,3.9375 -1.46875,-4.03125 c -0.20044,-0.52842 -0.54446,-0.81249 -1,-0.8125 z M 82,147.0625 c 0.355315,1e-5 0.681118,0.073 1,0.21875 0.318871,0.13667 0.606863,0.32563 0.84375,0.5625 0.236872,0.23689 0.425831,0.49363 0.5625,0.8125 0.136652,0.31888 0.218742,0.66682 0.21875,1.03125 -8e-6,0.36443 -0.0821,0.71238 -0.21875,1.03125 -0.136669,0.30977 -0.325628,0.57562 -0.5625,0.8125 -0.236887,0.23688 -0.524879,0.42584 -0.84375,0.5625 -0.309772,0.13669 -0.635575,0.21876 -1,0.21875 -0.364435,1e-5 -0.712378,-0.0821 -1.03125,-0.21875 -0.318881,-0.13666 -0.597762,-0.32562 -0.84375,-0.5625 -0.236883,-0.23688 -0.425841,-0.49362 -0.5625,-0.8125 -0.136662,-0.31887 -0.187503,-0.67593 -0.1875,-1.03125 -3e-6,-0.35532 0.05084,-0.68111 0.1875,-1 0.14577,-0.32798 0.356867,-0.60686 0.59375,-0.84375 0.236876,-0.23687 0.493619,-0.42583 0.8125,-0.5625 0.327983,-0.14576 0.675925,-0.21874 1.03125,-0.21875 z m -62.34375,0.34375 c -0.255104,1e-5 -0.490983,0.056 -0.71875,0.15625 -0.21866,0.0911 -0.420647,0.2019 -0.59375,0.375 -0.163995,0.164 -0.274783,0.36598 -0.375,0.59375 -0.09111,0.21866 -0.15625,0.46365 -0.15625,0.71875 l 0,2.875 c 0,0.29154 0.07817,0.54829 0.1875,0.8125 0.109328,0.2551 0.246173,0.49618 0.4375,0.6875 0.191325,0.19133 0.401147,0.32817 0.65625,0.4375 0.2551,0.10929 0.552202,0.15625 0.84375,0.15625 l 0.96875,0 c 0.291541,0 0.557395,-0.0469 0.8125,-0.15625 0.255097,-0.10933 0.496169,-0.24617 0.6875,-0.4375 0.191321,-0.19132 0.328165,-0.4324 0.4375,-0.6875 0.109324,-0.26421 0.187494,-0.52096 0.1875,-0.8125 l 0,-2.875 c -6e-6,-0.2551 -0.05604,-0.50009 -0.15625,-0.71875 -0.09111,-0.22777 -0.233151,-0.42975 -0.40625,-0.59375 -0.163999,-0.1731 -0.365986,-0.2839 -0.59375,-0.375 -0.218663,-0.10023 -0.463653,-0.15624 -0.71875,-0.15625 l -1.5,0 z m 4.875,0 0,4.96875 c -1e-6,0.2551 0.03389,0.52223 0.125,0.75 0.100217,0.21866 0.242255,0.3894 0.40625,0.5625 0.173103,0.16399 0.37509,0.30603 0.59375,0.40625 0.227767,0.0912 0.454535,0.125 0.71875,0.125 l 0.5625,0 c 0.619528,0 1.152511,-0.18376 1.5625,-0.59375 l 0.40625,0.59375 0.6875,0 0,-6.8125 -1.09375,0 0,4.3125 c -5e-6,0.20955 -0.04301,0.43367 -0.125,0.625 -0.082,0.18221 -0.197982,0.32298 -0.34375,0.46875 -0.136666,0.13666 -0.308678,0.26175 -0.5,0.34375 -0.182219,0.082 -0.384206,0.125 -0.59375,0.125 l -0.5625,0 c -0.20955,0 -0.37637,-0.073 -0.53125,-0.21875 -0.145779,-0.15488 -0.218752,-0.35296 -0.21875,-0.5625 l 0,-5.09375 -1.09375,0 z m 10.65625,0 0,9.96875 1.09375,0 0,-3.15625 1.3125,0 c 0.364427,0 0.71237,-0.0508 1.03125,-0.1875 0.318873,-0.13666 0.606865,-0.32562 0.84375,-0.5625 0.245985,-0.24599 0.425833,-0.52487 0.5625,-0.84375 0.136652,-0.31887 0.187494,-0.66681 0.1875,-1.03125 l 0,-2.34375 c -6e-6,-0.2551 -0.02479,-0.50009 -0.125,-0.71875 -0.09111,-0.22777 -0.233151,-0.42975 -0.40625,-0.59375 -0.163999,-0.1731 -0.365986,-0.2839 -0.59375,-0.375 -0.227774,-0.10023 -0.463653,-0.15624 -0.71875,-0.15625 l -3.1875,0 z m 8.25,0 c -0.255103,1e-5 -0.490982,0.056 -0.71875,0.15625 -0.21866,0.0911 -0.420647,0.2019 -0.59375,0.375 -0.163995,0.164 -0.274783,0.36598 -0.375,0.59375 -0.09111,0.21866 -0.156251,0.46365 -0.15625,0.71875 l 0,2.875 c -10e-7,0.29154 0.07817,0.54829 0.1875,0.8125 0.109328,0.2551 0.246173,0.49618 0.4375,0.6875 0.191324,0.19133 0.401147,0.32817 0.65625,0.4375 0.255099,0.10929 0.552203,0.15625 0.84375,0.15625 l 0.96875,0 c 0.291541,0 0.557394,-0.0469 0.8125,-0.15625 0.255097,-0.10933 0.496168,-0.24617 0.6875,-0.4375 0.19132,-0.19132 0.328165,-0.4324 0.4375,-0.6875 0.109323,-0.26421 0.187495,-0.52096 0.1875,-0.8125 l 0,-2.875 c -5e-6,-0.2551 -0.05604,-0.50009 -0.15625,-0.71875 -0.09111,-0.22777 -0.233151,-0.42975 -0.40625,-0.59375 -0.163999,-0.1731 -0.365986,-0.2839 -0.59375,-0.375 -0.218663,-0.10023 -0.432403,-0.15624 -0.6875,-0.15625 l -1.53125,0 z m 6.5,0 c -0.264214,1e-5 -0.513122,0.056 -0.75,0.15625 -0.227771,0.0911 -0.420647,0.2019 -0.59375,0.375 -0.173105,0.164 -0.306032,0.36598 -0.40625,0.59375 -0.100217,0.21866 -0.156251,0.46365 -0.15625,0.71875 -10e-7,0.46465 0.155065,0.83738 0.4375,1.15625 0.291543,0.30977 0.634293,0.54692 1.0625,0.65625 L 51.3125,151.5 c 0.209544,0.0547 0.381555,0.15762 0.5,0.3125 0.127546,0.14578 0.187495,0.32562 0.1875,0.5625 -5e-6,0.23688 -0.08601,0.47404 -0.25,0.65625 -0.163998,0.17306 -0.343846,0.25 -0.5625,0.25 l -3.03125,0 0,0.9375 3.03125,0 c 0.264208,0 0.490976,-0.0339 0.71875,-0.125 0.236875,-0.10022 0.45189,-0.24226 0.625,-0.40625 0.173099,-0.1731 0.306026,-0.34384 0.40625,-0.5625 0.100218,-0.22777 0.156244,-0.4949 0.15625,-0.75 -6e-6,-0.44643 -0.145961,-0.80612 -0.4375,-1.125 -0.282439,-0.32798 -0.634298,-0.54692 -1.0625,-0.65625 l -1.84375,-0.5 c -0.182218,-0.0455 -0.319062,-0.12637 -0.4375,-0.28125 -0.11844,-0.15488 -0.187502,-0.34384 -0.1875,-0.5625 -2e-6,-0.23688 0.086,-0.45189 0.25,-0.625 0.163991,-0.18222 0.343839,-0.28125 0.5625,-0.28125 l 2.75,0 0,-0.9375 -2.75,0 z m 13.1875,0 c -0.255104,1e-5 -0.490983,0.056 -0.71875,0.15625 -0.21866,0.0911 -0.420647,0.2019 -0.59375,0.375 -0.163995,0.164 -0.306033,0.36598 -0.40625,0.59375 -0.09111,0.21866 -0.125,0.46365 -0.125,0.71875 l 0,2.875 c 0,0.29154 0.04692,0.54829 0.15625,0.8125 0.109328,0.2551 0.277423,0.49618 0.46875,0.6875 0.191325,0.19133 0.401146,0.32817 0.65625,0.4375 0.255099,0.10929 0.520953,0.15625 0.8125,0.15625 l 1,0 c 0.29154,0 0.557394,-0.0469 0.8125,-0.15625 0.255096,-0.10933 0.464919,-0.24617 0.65625,-0.4375 0.191321,-0.19132 0.359415,-0.4324 0.46875,-0.6875 0.109324,-0.26421 0.156244,-0.52096 0.15625,-0.8125 l 0,-2.875 c -6e-6,-0.2551 -0.05604,-0.50009 -0.15625,-0.71875 -0.09111,-0.22777 -0.201901,-0.42975 -0.375,-0.59375 -0.163999,-0.1731 -0.365986,-0.2839 -0.59375,-0.375 -0.218663,-0.10023 -0.463652,-0.15624 -0.71875,-0.15625 l -1.5,0 z m 4.84375,0 0,6.8125 1.09375,0 0,-4.3125 c -2e-6,-0.20954 0.043,-0.41153 0.125,-0.59375 0.08199,-0.19132 0.207087,-0.36333 0.34375,-0.5 0.14577,-0.14576 0.317782,-0.26175 0.5,-0.34375 0.191323,-0.082 0.384199,-0.125 0.59375,-0.125 l 0.5625,0 c 0.209543,0 0.385474,0.0951 0.53125,0.25 0.154875,0.14578 0.218745,0.32171 0.21875,0.53125 l 0,5.09375 1.09375,0 0,-4.96875 c -6e-6,-0.2551 -0.05604,-0.50009 -0.15625,-0.71875 -0.09111,-0.22777 -0.201901,-0.42975 -0.375,-0.59375 -0.163999,-0.1731 -0.365986,-0.2839 -0.59375,-0.375 -0.227774,-0.10023 -0.463653,-0.15624 -0.71875,-0.15625 l -0.5625,0 c -0.619535,1e-5 -1.152518,0.18377 -1.5625,0.59375 l -0.40625,-0.59375 -0.6875,0 z m -48.3125,0.9375 1.5,0 c 0.209544,0 0.416723,0.0951 0.5625,0.25 0.145769,0.14578 0.218745,0.32171 0.21875,0.53125 l 0,3.125 c -5e-6,0.28243 -0.112068,0.51832 -0.3125,0.71875 -0.19133,0.20044 -0.43632,0.3125 -0.71875,0.3125 l -0.96875,0 c -0.282437,0 -0.518316,-0.11206 -0.71875,-0.3125 -0.19133,-0.20043 -0.312501,-0.43632 -0.3125,-0.71875 l 0,-3.125 c -1e-6,-0.20954 0.07298,-0.38547 0.21875,-0.53125 0.14577,-0.15492 0.3217,-0.25 0.53125,-0.25 z m 16.625,0 2.09375,0 c 0.209543,0 0.385474,0.0951 0.53125,0.25 0.154875,0.14578 0.218745,0.32171 0.21875,0.53125 l 0,2.59375 c -5e-6,0.20955 -0.01176,0.43367 -0.09375,0.625 -0.082,0.18221 -0.197982,0.32298 -0.34375,0.46875 -0.136666,0.13666 -0.308677,0.26175 -0.5,0.34375 -0.182219,0.082 -0.384206,0.125 -0.59375,0.125 l -1.3125,0 0,-4.9375 z m 7.15625,0 1.53125,0 c 0.209543,0 0.385473,0.0951 0.53125,0.25 0.145768,0.14578 0.218746,0.32171 0.21875,0.53125 l 0,3.125 c -4e-6,0.28243 -0.112068,0.51832 -0.3125,0.71875 -0.19133,0.20044 -0.43632,0.3125 -0.71875,0.3125 l -0.96875,0 c -0.282436,0 -0.518315,-0.11206 -0.71875,-0.3125 -0.191329,-0.20043 -0.312502,-0.43632 -0.3125,-0.71875 l 0,-3.125 c -2e-6,-0.20954 0.07297,-0.38547 0.21875,-0.53125 0.14577,-0.15492 0.3217,-0.25 0.53125,-0.25 z m 19.6875,0 1.5,0 c 0.209544,0 0.385474,0.0951 0.53125,0.25 0.145769,0.14578 0.218745,0.32171 0.21875,0.53125 l 0,3.125 c -5e-6,0.28243 -0.112067,0.51832 -0.3125,0.71875 -0.19133,0.20044 -0.405071,0.3125 -0.6875,0.3125 l -1,0 c -0.282437,0 -0.518316,-0.11206 -0.71875,-0.3125 -0.19133,-0.20043 -0.281251,-0.43632 -0.28125,-0.71875 l 0,-3.125 c -10e-7,-0.20954 0.07298,-0.38547 0.21875,-0.53125 0.14577,-0.15492 0.3217,-0.25 0.53125,-0.25 z"
     id="path3029-9"
     style="fill:#000000" />
  <g
     transform="matrix(0.34165378,0,0,0.34165378,-126.64095,-11.33702)"
     id="g4413-0-3">
    <g
       transform="matrix(-1,0,0,-1,1130.6373,475.18252)"
       id="g4409-1-0" />
  </g>
  <g
     id="text3018"
     style="font-size:13.66615105px;font-style:normal;font-variant:normal;font-weight:600;font-stretch:normal;text-align:center;line-height:125%;letter-spacing:0px;word-spacing:0px;text-anchor:middle;fill:#000000;fill-opacity:1;stroke:none;font-family:Galette;-inkscape-font-specification:Galette Semi-Bold" />
</svg>
