<?xml version="1.0" encoding="UTF-8" standalone="no"?>
<!-- Created with Inkscape (http://www.inkscape.org/) -->

<svg
   xmlns:dc="http://purl.org/dc/elements/1.1/"
   xmlns:cc="http://creativecommons.org/ns#"
   xmlns:rdf="http://www.w3.org/1999/02/22-rdf-syntax-ns#"
   xmlns:svg="http://www.w3.org/2000/svg"
   xmlns="http://www.w3.org/2000/svg"
   version="1.2"
   width="155.9055"
   height="166.53543"
   id="svg5512">
  <defs
     id="defs5514" />
  <metadata
     id="metadata5517">
    <rdf:RDF>
      <cc:Work
         rdf:about="">
        <dc:format>image/svg+xml</dc:format>
        <dc:type
           rdf:resource="http://purl.org/dc/dcmitype/StillImage" />
        <dc:title></dc:title>
      </cc:Work>
    </rdf:RDF>
  </metadata>
  <flowRoot
     transform="translate(-410.22862,-323.76781)"
     id="flowRoot3030"
     xml:space="preserve"
     style="font-size:40px;font-style:normal;font-variant:normal;font-weight:600;font-stretch:normal;line-height:125%;letter-spacing:0px;word-spacing:0px;fill:#000000;fill-opacity:1;stroke:none;font-family:Galette;-inkscape-font-specification:Galette Semi-Bold"><flowRegion
       id="flowRegion3032"><rect
         width="419.58395"
         height="110.6595"
         x="393.7634"
         y="527.45337"
         id="rect3034" /></flowRegion><flowPara
       id="flowPara3036" /></flowRoot>  <path
     d="M 94.416325,58.945599 C 91.597289,57.758927 90.22175,56.819932 88.504581,54.910026 81.767178,47.416414 84.222962,35.581749 93.41271,31.257274 c 1.752613,-0.824738 2.795514,-1.068717 5.081103,-1.188678 3.197447,-0.167824 7.441807,0.536062 5.867327,0.973037 -0.73669,0.204459 -0.56052,0.3218 1.2812,0.853372 1.76748,0.510144 2.13534,0.743063 2.13534,1.352044 0,0.589513 -0.36243,0.849973 -1.82371,1.3106 -2.51408,0.792493 -2.74224,0.696656 -0.77623,-0.326046 l 1.67073,-0.869109 -1.49991,-0.865826 c -1.80332,-1.040975 -4.40396,-1.403036 -4.40396,-0.613118 0,0.283658 -0.25213,0.515743 -0.56028,0.515743 -0.476139,0 -0.530595,0.287591 -0.36262,1.915065 0.1087,1.053284 0.26923,1.986648 0.35672,2.074135 0.0875,0.08749 1.26474,-0.170209 2.6161,-0.572663 1.35137,-0.402455 2.53817,-0.650598 2.63734,-0.551429 0.48682,0.486815 -0.39908,1.187821 -2.64243,2.090921 l -2.47133,0.994882 0.22171,2.385584 c 0.12195,1.31207 0.29299,2.456853 0.38009,2.543954 0.0871,0.0871 1.15181,-0.263842 2.36601,-0.779886 2.13037,-0.90542 2.22688,-0.999946 2.75737,-2.700767 0.30235,-0.969381 0.75352,-2.14687 1.00261,-2.616644 0.24909,-0.469774 0.55973,-1.353803 0.69031,-1.964509 0.18508,-0.865565 0.41224,-1.110374 1.03033,-1.110374 0.66628,0 0.85667,0.265769 1.19214,1.66413 0.29998,1.250463 0.61923,1.764375 1.28431,2.067405 0.64741,0.294984 0.94836,0.300898 1.12071,0.02204 0.13354,-0.216072 0.58789,0.405448 1.04869,1.434547 0.69489,1.551856 0.81412,2.362064 0.82031,5.573985 0.007,3.618777 -0.0385,3.853947 -1.22547,6.339359 -1.53451,3.2131 -4.0194,5.743583 -7.10801,7.238407 -2.04159,0.98809 -2.59949,1.099226 -6.00874,1.196963 -3.325904,0.09535 -3.978579,0.01497 -5.674145,-0.698784 z m 6.619075,-1.550534 c 0.50966,-0.201569 0.31766,-0.520646 -1.237457,-2.056445 l -1.840725,-1.817861 -0.232792,1.311739 c -0.128039,0.721453 -0.308158,1.569219 -0.400268,1.88392 -0.115479,0.394538 0.0758,0.618755 0.616111,0.722194 1.223609,0.234249 2.435831,0.217193 3.095131,-0.04355 z m -4.964261,-4.700739 c -0.178986,-0.178982 -4.020537,1.168374 -4.454147,1.562215 -0.266709,0.24225 0.768123,1.050227 2.494534,1.947683 0.837974,0.435612 0.866119,0.408133 1.487618,-1.452199 0.348415,-1.042915 0.560811,-1.968879 0.471995,-2.057699 z m 10.965121,2.336324 1.13768,-0.841944 -0.94536,-0.986744 c -0.51994,-0.542714 -1.05069,-0.986747 -1.17943,-0.986747 -0.12873,0 -0.3305,0.576541 -0.44837,1.281201 -0.11788,0.704661 -0.31549,1.651169 -0.43914,2.103348 -0.25278,0.92433 -0.0673,0.868029 1.87462,-0.569114 z m -3.20149,-1.939056 0.40105,-2.556506 -2.31923,-2.301455 c -1.27557,-1.2658 -2.385209,-2.233036 -2.46586,-2.149406 -0.191305,0.198365 -1.307744,6.184679 -1.17221,6.285354 0.05702,0.04236 1.165914,0.871705 2.4642,1.843 1.29829,0.971294 2.43488,1.691634 2.52576,1.600754 0.0909,-0.09088 0.34571,-1.315665 0.56629,-2.721741 z m -8.840821,-1.090999 1.736554,-0.208682 0.941236,-2.8902 c 0.517677,-1.589613 0.889055,-2.942387 0.825282,-3.00616 -0.195665,-0.195666 -5.814223,-0.906845 -5.965921,-0.755148 -0.176481,0.176482 -1.151698,5.657855 -1.152336,6.476916 -6.84e-4,0.663109 0.683252,0.735601 3.615185,0.383274 z m -4.533476,-3.304694 c 0.504801,-1.747713 0.917822,-3.353609 0.917822,-3.568649 0,-0.220709 -0.706762,-0.446713 -1.622855,-0.518948 l -1.622855,-0.127963 1.793682,-0.06158 c 2.117266,-0.07269 2.083001,0.06005 1.224774,-4.744778 -0.501708,-2.808835 -0.642958,-3.161565 -1.195788,-2.986105 -0.387743,0.123064 -0.634465,0.02726 -0.646761,-0.251126 -0.01093,-0.247552 -0.828753,1.241095 -1.81738,3.3081 -1.708081,3.571229 -1.762328,3.767529 -1.090493,3.945924 0.517602,0.13744 0.679846,0.417552 0.605629,1.045604 -0.204777,1.732864 1.490779,7.137185 2.239226,7.137185 0.163444,0 0.710196,-1.429948 1.214999,-3.17766 z m 20.652907,1.484629 0.46271,-1.133963 -1.43955,0.230193 c -2.07789,0.332268 -2.25432,0.558467 -1.13441,1.454441 1.22032,0.976316 1.52008,0.898132 2.11125,-0.550671 z m -2.29167,-2.109941 c 1.21092,-0.400449 2.31536,-0.829303 2.4543,-0.953009 0.13894,-0.123706 -0.74122,-1.209926 -1.95591,-2.413818 l -2.20852,-2.188894 -3.10786,0.993211 c -1.70932,0.546264 -3.16038,1.078184 -3.22456,1.182044 -0.1196,0.193502 5.24314,4.108554 5.62779,4.108554 0.1172,0 1.20384,-0.327639 2.41476,-0.728088 z m 3.24249,-5.264249 c -0.27079,-1.805767 -0.47287,-1.968592 -1.84814,-1.489174 l -1.05664,0.368351 1.44446,1.677028 c 1.57202,1.825118 1.80416,1.736701 1.46032,-0.556205 z M 99.055775,41.7679 c 0.132384,-1.236192 0.188733,-2.295558 0.125216,-2.354152 -0.218299,-0.20137 -7.586866,-3.244324 -7.663861,-3.164899 -0.04236,0.0437 0.399311,1.809084 0.981496,3.923067 l 1.058525,3.843605 2.628961,0 2.628965,0 z m 10.720845,-1.885649 c 0.59177,-0.20629 1.07594,-0.457194 1.07594,-0.557565 0,-0.100371 -0.32003,-0.700308 -0.71117,-1.333195 -0.39115,-0.632886 -0.61635,-1.1507 -0.50046,-1.1507 0.11589,0 0.0313,-0.335196 -0.18794,-0.74488 -0.34647,-0.6474 -0.44865,-0.676608 -0.78074,-0.223175 -0.31227,0.426373 -0.36626,4.384593 -0.0598,4.384593 0.0485,0 0.5724,-0.168784 1.16417,-0.375078 z M 99.426726,32.5815 c -0.274881,-1.833037 0.133901,-1.85778 -4.973547,0.301052 -2.551299,1.078393 -3.415253,1.583265 -2.991431,1.748119 0.327762,0.127488 0.515668,0.361664 0.417572,0.520389 -0.182094,0.294632 0.150711,0.375526 4.623782,1.123932 l 2.562404,0.428724 0.299083,-1.271061 c 0.164496,-0.699085 0.192457,-1.982103 0.06214,-2.851155 z m 12.365384,1.945892 c -1.24151,-0.412949 -1.62271,-0.706341 -1.62221,-1.248535 3.4e-4,-0.56748 0.39068,-0.823594 1.95764,-1.285018 1.07636,-0.316952 1.99839,-0.534907 2.04896,-0.484339 0.0506,0.05057 -0.62509,0.486256 -1.50146,0.968196 l -1.5934,0.87625 1.67914,0.873383 c 1.88561,0.980767 1.46734,1.110333 -0.96867,0.300063 z m -3.98214,-3.580127 c -0.76289,-2.653154 -0.74269,-2.831938 0.1351,-1.195789 0.47887,0.892571 0.94164,1.622856 1.0284,1.622856 0.0867,0 0.53787,-0.730285 1.0025,-1.622856 0.99938,-1.919865 1.08928,-1.674329 0.30172,0.824107 -0.46125,1.463228 -0.72069,1.82371 -1.31254,1.82371 -0.57457,0 -0.82997,-0.321025 -1.15518,-1.452028 z"
     id="path3029-7-9-9"
     style="fill:#800000;fill-opacity:0" />
  <path
     d="m 74.497681,52.846075 c -4.639358,-0.909431 -9.135043,-4.486177 -11.400645,-9.070307 -1.412219,-2.857431 -1.438824,-2.99302 -1.438824,-7.332744 0,-4.180734 0.06672,-4.562324 1.225359,-7.008305 0.673943,-1.422756 2.09952,-3.511129 3.167943,-4.640832 1.883456,-1.991476 5.780772,-4.446222 7.059107,-4.446222 0.345539,0 0.72611,-0.255034 0.84573,-0.566745 0.167065,-0.435379 0.977967,-0.03613 3.498326,1.722375 1.804469,1.259019 3.407413,2.289122 3.562096,2.289122 0.154681,0 0.399687,-0.861188 0.54445,-1.913751 0.147317,-1.071123 0.462811,-1.913751 0.716533,-1.913751 0.249322,0 1.705864,0.600267 3.23676,1.333927 6.669126,3.196094 10.489905,10.503883 9.27318,17.736268 C 93.16959,48.653307 84.212247,54.750375 74.497681,52.846075 z M 81.973537,37.214721 C 80.844095,34.91341 79.839206,32.803499 79.74045,32.526032 79.6417,32.248565 79.440851,32.132373 79.294117,32.267824 c -0.240025,0.221579 4.235199,9.131104 4.586521,9.131104 0.08054,0 -0.777655,-1.882892 -1.907101,-4.184207 z m -6.335416,-0.533243 c 0.878857,-2.275316 1.498658,-4.236206 1.377337,-4.357531 -0.121325,-0.121324 -0.305213,0.01937 -0.408642,0.312631 -0.103426,0.29327 -0.796378,2.255598 -1.539895,4.360721 -0.743518,2.105128 -1.351897,3.899271 -1.351962,3.986984 -3.35e-4,0.502573 0.495972,-0.607905 1.923162,-4.302805 z m -2.020086,-4.383286 c 0.532987,-0.689896 0.883155,-1.340258 0.778161,-1.44525 -0.10499,-0.104992 -1.172371,1.148419 -2.371959,2.785358 -1.428246,1.948967 -1.69684,2.447812 -0.778164,1.44525 0.771601,-0.84205 1.838982,-2.095462 2.371962,-2.785358 z m 13.875818,2.06297 c 0,-0.320856 -5.422862,-4.507963 -5.603922,-4.326907 -0.106203,0.106205 1.06817,1.144622 2.609726,2.307597 2.946111,2.222596 2.994196,2.255022 2.994196,2.01931 z M 79.529097,30.77761 c 1.400415,-1.501472 2.074303,-2.888464 1.496911,-3.08093 -0.29963,-0.09987 -0.328028,-0.302518 -0.08366,-0.596968 0.203476,-0.245166 0.425961,-0.949415 0.494415,-1.564993 0.119722,-1.076572 0.001,-1.167563 -3.106498,-2.387358 -3.394579,-1.332342 -3.83122,-1.275814 -3.844059,0.497686 -0.0047,0.64307 0.58608,1.067594 2.873199,2.0648 1.583483,0.690409 2.811042,1.323309 2.72791,1.406442 -0.08313,0.08313 -1.219652,-0.145919 -2.525593,-0.509004 -2.590819,-0.720313 -3.062926,-0.524256 -3.075516,1.277173 -0.0048,0.680078 0.301731,0.902521 1.620829,1.176363 l 1.626689,0.337697 -1.274614,0.2961 -1.274608,0.296099 1.274608,0.90096 c 1.640952,1.159901 1.890411,1.150635 3.069988,-0.114067 z M 67.057668,19.742235 C 66.929886,19.40925 66.82534,19.09936 66.82534,19.053591 c 0,-0.151382 2.859638,0.194008 3.444755,0.416061 0.417818,0.158565 0.313614,0.297354 -0.382752,0.509796 -1.589486,0.484902 -2.584587,0.401482 -2.829675,-0.237213 z m 10.197617,-2.509809 -2.774943,-1.548741 -0.02426,1.088052 -0.02426,1.088052 -0.38489,-0.956876 c -0.211685,-0.526281 -0.278536,-1.473588 -0.148558,-2.105126 0.129979,-0.631538 0.377207,-1.92332 0.549383,-2.870627 l 0.313057,-1.722379 0.05114,1.522002 c 0.04533,1.349118 0.365252,1.838227 2.816499,4.30594 1.52095,1.531169 2.68355,2.775957 2.583562,2.766197 -0.09999,-0.0098 -1.430515,-0.714682 -2.956734,-1.566494 z m 8.89894,0.08982 c 1.052567,-0.60798 1.963265,-1.059426 2.023769,-1.003212 0.06051,0.05621 -0.09631,0.555057 -0.348497,1.108541 -0.386725,0.848775 -0.703595,1.005848 -2.023773,1.003215 l -1.565249,-0.003 1.91375,-1.105421 z m -5.064146,-2.002603 c -0.391392,-1.705351 -0.376281,-2.344422 0.08927,-3.775234 l 0.560415,-1.7223797 -0.228936,1.8215427 c -0.128902,1.025625 -0.06,2.029074 0.157687,2.296502 0.215768,0.26507 0.277491,1.128439 0.139672,1.953694 l -0.246961,1.478729 z M 69.00355,16.243836 c -1.166061,-0.175295 -1.54393,-0.740652 -1.347291,-2.015776 0.114584,-0.743033 0.262554,-0.676435 1.638951,0.737663 0.832142,0.854941 1.348856,1.528635 1.14825,1.497092 -0.200609,-0.03154 -0.848569,-0.130081 -1.43991,-0.218979 z M 70.109398,11.57583 C 68.753719,10.187488 68.67657,9.985212 68.930173,8.4841418 69.079418,7.600758 69.324886,7.0236891 69.475657,7.20176 c 0.469815,0.5548998 2.43317,5.510747 2.254126,5.689793 -0.09339,0.09339 -0.822565,-0.498681 -1.620385,-1.315723 z"
     id="path3029-7-6-3"
     style="fill:#808000;fill-opacity:0" />
  <path
     d="m 12.956912,114.66748 c -4.0279407,-2.18554 -5.5925749,-8.29207 -3.1630373,-12.34486 0.6636013,-1.10697 5.2223113,-4.998348 10.1304683,-8.647521 7.896186,-5.870729 9.290615,-6.634845 12.107916,-6.634845 2.231003,0 3.020514,-0.264515 2.63779,-0.883772 -0.318145,-0.514763 0.322449,-1.576412 1.534212,-2.542643 l 2.080419,-1.658865 -1.199834,-4.040275 c 9.114288,4.128145 8.957049,9.419036 11.532636,16.561247 -1.073035,-0.781034 -1.67438,-0.66288 -3.501541,0.688002 -1.642395,1.214278 -2.425356,1.411631 -3.064522,0.772465 -0.639169,-0.639169 -0.858514,-0.378542 -0.858514,1.020093 0,2.98139 -1.87023,4.954404 -11.515214,12.148064 -9.755555,7.2761 -12.116024,8.06142 -16.720779,5.56291 z m 13.96434,-8.36197 c 9.169785,-6.745944 10.4803,-8.107786 10.4803,-10.890785 0,-3.060613 -2.475676,-4.944752 -6.140081,-4.672973 -1.22461,0.09082 -12.95231,8.533517 -16.797555,12.092438 -2.727008,2.52397 -2.761553,5.5538 -0.08731,7.65736 1.098861,0.86436 2.61001,1.57157 3.358108,1.57157 0.748092,0 4.882038,-2.59092 9.186534,-5.75761 z"
     id="path3029-9"
     style="fill:#000000" />
  <g
     transform="matrix(0.34165378,0,0,0.34165378,-126.64095,-11.33702)"
     id="g4413-0-3">
    <path
       d="m 534.12054,161.88159 0,10.40612 47.25268,0 -19.71898,19.71898 -8.90796,8.86746 12.59261,0 c 20.11218,0 36.40116,16.32948 36.40116,36.44165 0,20.11218 -16.28898,36.40117 -36.40116,36.40117 -20.11217,0 -36.44165,-16.28899 -36.44165,-36.40117 l -10.40612,0 c 0,25.8585 20.98928,46.8073 46.84777,46.8073 25.85849,0 46.80728,-20.9488 46.80728,-46.8073 0,-21.99252 -15.15229,-40.48031 -35.59135,-45.51157 l 29.96314,-29.92264 z"
       id="path4996-4-0-4-8-9-7-2-6-0-9-9-2-2-5"
       style="color:#000000;fill:#000000;fill-opacity:1;fill-rule:evenodd;stroke:none;stroke-width:19.99983215;marker:none;visibility:visible;display:inline;overflow:visible;enable-background:accumulate" />
    <g
       transform="matrix(-1,0,0,-1,1130.6373,475.18252)"
       id="g4409-1-0">
      <path
         d="m 565.33889,208.68886 c -15.80241,0 -28.62694,12.82454 -28.62694,28.62694 0,12.13086 7.56029,22.4873 18.22083,26.6429 l 0,-11.74231 c -4.72379,-3.28183 -7.81471,-8.71082 -7.81471,-14.90059 0,-10.05608 8.16474,-18.22082 18.22082,-18.22082 10.05608,0 18.18034,8.16474 18.18034,18.22082 0,6.17974 -3.07517,11.61703 -7.77422,14.90059 l 0,11.74231 c 10.64945,-4.1556 18.18033,-14.51204 18.18033,-26.6429 0,-15.8024 -12.78404,-28.62694 -28.58645,-28.62694 z"
         id="path4996-4-0-4-2-1-9-8-5-8-9-7-0"
         style="color:#000000;fill:#000000;fill-opacity:1;fill-rule:evenodd;stroke:none;stroke-width:20;marker:none;visibility:visible;display:inline;overflow:visible;enable-background:accumulate" />
      <path
         d="m 565.33889,232.0925 c -2.87317,0 -5.2233,2.35013 -5.2233,5.2233 l 0,31.17786 10.40612,0 0,-31.17786 c 0,-2.87317 -2.30965,-5.2233 -5.18282,-5.2233 z"
         id="rect5023-1-6-7-7-5-2-9-1-8-8-5-8"
         style="color:#000000;fill:#000000;fill-opacity:1;fill-rule:evenodd;stroke:none;stroke-width:20;marker:none;visibility:visible;display:inline;overflow:visible;enable-background:accumulate" />
    </g>
    <path
       d="m 188.8125,81.5625 c -5.72232,0.0544 -10.36451,0.84589 -11.5,1.53125 -2.07036,1.249728 -2.68688,4.081809 -2.25,5.15625 1.67385,0.292137 3.43257,0.575661 5.96875,1 l 7.21875,1.21875 0.84375,-3.5625 c 0.31089,-1.321231 0.42917,-3.390774 0.375,-5.34375 -0.21749,-1.37e-4 -0.44166,-0.002 -0.65625,0 z m 1.9375,0 c 0.0403,0.631843 0.0945,1.28626 0.1875,2.1875 0.30598,2.964722 0.75373,5.597496 1,5.84375 0.24626,0.246263 3.57125,-0.492195 7.375,-1.625 3.80375,-1.132805 7.12711,-1.841634 7.40625,-1.5625 1.37027,1.37026 -1.12306,3.364257 -7.4375,5.90625 l -6.9375,2.78125 0.40625,4.1875 c 3.02235,2.15828 3.93385,5.60504 3.4375,9.25 1.20707,-0.39788 2.79117,-1.02373 4.5,-1.75 5.99644,-2.54852 6.28806,-2.80638 7.78125,-7.59375 0.85103,-2.728557 2.11138,-6.052708 2.8125,-7.375 0.51815,-0.97721 1.09835,-2.592783 1.53125,-4.0625 -1.65272,-1.16266 -3.55323,-2.218456 -5.75,-3.15625 -6.24986,1.9437 -6.86983,1.697259 -2.125,-0.8125 -4.4247,-1.49675 -9.54196,-2.122283 -14.1875,-2.21875 z m 24.1875,7.8125 c -0.54624,3.19104 -0.54131,11.09375 0.1875,11.09375 0.13657,0 1.61556,-0.481836 3.28125,-1.0625 1.22604,-0.427399 2.27483,-0.905581 2.75,-1.25 -1.24225,-3.10716 -3.19153,-6.14568 -6.21875,-8.78125 z m 7.03125,13.4375 c -0.6096,0.0674 -1.376,0.31889 -2.34375,0.65625 l -2.96875,1.03125 4.0625,4.71875 c 0.94177,1.0934 1.69169,1.87123 2.3125,2.46875 0.13851,-2.73203 0.10268,-5.78238 -0.5,-8.875 -0.17125,-0.014 -0.35965,-0.0224 -0.5625,0 z m -11.0625,4 -8.75,2.8125 c -2.73188,0.87305 -5.1309,1.70991 -6.8125,2.34375 -0.27165,0.7653 -0.60098,1.53775 -0.96875,2.28125 3.53331,2.98895 13.64667,10.25 14.53125,10.25 0.32989,0 3.40406,-0.90409 6.8125,-2.03125 2.98881,-0.98839 5.63369,-1.99045 6.53125,-2.46875 0.026,-0.3094 0.0521,-0.66716 0.0937,-1.03125 -0.73526,-1.19131 -2.71234,-3.48462 -5.21875,-5.96875 l -6.21875,-6.1875 z m -50.09375,5.03125 c -0.46762,0.0457 -0.94799,0.20492 -1.40625,0.46875 l 2.6875,-0.0937 c -0.36171,-0.22686 -0.63914,-0.36721 -0.8125,-0.375 -0.14841,-0.007 -0.31288,-0.0152 -0.46875,0 z M 159.125,112.5 c -0.78243,0.55004 -1.46094,1.44853 -1.71875,2.8125 -0.32315,1.70993 1.18612,7.81293 4.8125,14.53125 0.56832,-1.55051 1.18826,-3.46376 1.8125,-5.625 1.04159,-3.60619 1.936,-6.95778 2.34375,-8.75 -1.30712,-1.03556 -2.54188,-1.99131 -3.40625,-2.625 -0.31113,-0.0399 -0.60356,-0.0987 -0.9375,-0.125 L 159.125,112.5 z m 9.90625,5.03125 c -0.98286,4.78005 -2.40495,13.23722 -2.40625,14.90625 -0.002,1.86648 1.90362,2.08546 10.15625,1.09375 l 4.90625,-0.59375 2.625,-8.125 c 0.13217,-0.40586 0.25021,-0.76357 0.375,-1.15625 -1.83338,0.6158 -3.73041,0.69155 -5.53125,0 -3.42298,-1.31444 -7.02256,-3.78049 -10.125,-6.125 z m 22.5625,1 c -1.04144,1.26441 -2.2309,2.37906 -3.46875,3.28125 -1.06303,5.17947 -2.34837,12.56087 -2.09375,12.75 0.14684,0.10908 3.09947,2.32311 6.34375,4.75 0.3863,-0.19515 0.76143,-0.40796 1.15625,-0.59375 3.08051,-1.44962 5.43017,-2.26812 8.25,-2.78125 l 1.03125,-6.53125 -6.53125,-6.46875 c -1.76828,-1.75474 -3.436,-3.31216 -4.6875,-4.40625 z m 30.5625,6.90625 -2.75,0.4375 c -5.84872,0.93525 -6.33974,1.57181 -3.1875,4.09375 3.4349,2.74807 4.27349,2.51551 5.9375,-1.5625 l 0,-2.96875 z m -14.25,8.6875 c -0.19085,0 -0.41906,0.46667 -0.65625,1.1875 0.38591,-0.0247 0.74406,-0.0409 1.15625,-0.0625 0.34883,-0.0183 0.7062,-0.0199 1.0625,-0.0312 -0.74364,-0.65329 -1.35215,-1.09375 -1.5625,-1.09375 z m -28.28125,1.3125 c -1.33243,0.005 -8.0891,2.32774 -11.03125,3.71875 0.19713,0.2246 0.391,0.43442 0.59375,0.65625 2.47747,2.71064 5.28784,4.07436 8.125,4.71875 0.3188,-0.74358 0.68867,-1.75686 1.1875,-3.25 0.98069,-2.93553 1.56249,-5.5625 1.3125,-5.8125 -0.0315,-0.0315 -0.0803,-0.0316 -0.1875,-0.0312 z m 5.5,2.375 -0.65625,3.6875 c -0.20965,1.18134 -0.42665,2.38589 -0.65625,3.4375 1.53754,-1.28309 3.15955,-2.50092 4.90625,-3.59375 L 185.125,137.8125 z m 24.03125,0.84375 c -0.63614,0.0385 -1.53797,0.31137 -2.8125,0.78125 -0.31379,1.61863 -0.68053,3.27906 -0.9375,4.21875 -0.71148,2.60175 -0.18481,2.45144 5.28125,-1.59375 l 0.3125,-0.25 c -0.28308,-2.11801 -0.36049,-3.24603 -1.84375,-3.15625 z m 13,1.9375 c -2.65314,3.20629 -5.73041,5.96773 -9.15625,8.25 0.3054,2.56318 0.68399,4.68399 0.90625,4.90625 0.25608,0.25608 3.70088,-0.50954 7.65625,-1.6875 0.20585,-0.0613 0.39089,-0.0975 0.59375,-0.15625 l 0,-11.3125 z m -21.375,1.09375 c -0.93029,0.39459 -2.00565,0.83785 -3.125,1.3125 1.37343,0.87452 2.30481,1.38269 2.4375,1.25 0.1313,-0.1313 0.38853,-1.11325 0.6875,-2.5625 z m 10.34375,8.34375 c -0.99696,0.5903 -2.0141,1.14885 -3.0625,1.65625 -1.73675,0.84055 -3.08354,1.45227 -4.40625,1.90625 l 6.40625,1.0625 0.875,-3.71875 c 0.064,-0.272 0.13777,-0.5807 0.1875,-0.90625 z m 11.03125,6.28125 c -0.20591,0.085 -0.37937,0.1637 -0.59375,0.25 l -7.21875,2.9375 0.625,6.96875 c 0.35692,3.84035 0.87005,7.18256 1.125,7.4375 0.2337,0.2337 2.88704,-0.63185 6.0625,-1.9375 l 0,-15.65625 z m -26.03125,0.15625 0,19.59375 5.53125,0 7.6875,0 0.71875,-6.5625 c 0.38748,-3.61826 0.52966,-6.73475 0.34375,-6.90625 -0.38116,-0.3516 -7.97829,-3.5596 -14.28125,-6.125 z m 26.03125,18.90625 c -3.88132,1.29229 -6.90598,2.40299 -7.0625,2.65625 -0.16569,0.26808 3.28478,3.00259 7.0625,5.78125 l 0,-8.4375 z m -26.03125,4.3125 0,18.3125 a 13.017768,13.017768 0 0 0 0.15625,1.65625 c 0.60878,-0.0667 1.18307,-0.1356 1.875,-0.21875 L 203.25,198.84375 206,190.375 c 1.51521,-4.6527 2.59291,-8.62584 2.40625,-8.8125 -0.36849,-0.36849 -7.26084,-1.33185 -12.28125,-1.875 z m 15.09375,2.4375 c -0.55994,0.5806 -3.8342,18.11158 -3.4375,18.40625 0.1669,0.12398 3.41874,2.53208 7.21875,5.375 0.87392,0.65381 1.70761,1.25633 2.5,1.8125 A 13.017768,13.017768 0 0 0 222.15625,198 l 0,-5.875 -3.75,-3.71875 c -3.73352,-3.70492 -6.95144,-6.52603 -7.1875,-6.28125 z m -10.125,19.3125 c -0.5826,0.002 -2.18901,0.42537 -4.0625,1.03125 a 13.017768,13.017768 0 0 0 3.03125,4.59375 c 0.93056,-2.86398 1.49707,-5.34667 1.25,-5.59375 -0.0327,-0.0327 -0.10731,-0.0316 -0.21875,-0.0312 z m 5.75,2.46875 -0.6875,3.8125 c -0.15096,0.85059 -0.32638,1.74933 -0.5,2.59375 a 13.017768,13.017768 0 0 0 7.46875,-0.1875 c -0.32498,-0.32696 -0.52699,-0.5317 -0.90625,-0.90625 l -5.375,-5.3125 z"
       transform="translate(442.05265,67.943934)"
       id="path5018-1-3-2-1-4-7-5-6-6-9"
       style="fill:#000000;fill-opacity:1;stroke:none" />
  </g>
  <path
     d="m 74.15202,19.873116 c -22.282141,1.803492 -39.813341,20.41927 -39.813341,43.16582 0,23.939954 19.407348,43.347324 43.347322,43.347324 23.939959,0 43.347319,-19.40737 43.347319,-43.347324 0,-22.399102 -16.99274,-40.821784 -38.788376,-43.10176 l 0,6.010971 c 18.499726,2.254995 32.841466,17.981581 32.841466,37.090789 0,20.65649 -16.743912,37.400414 -37.400409,37.400414 -20.660563,0.13283 -37.121425,-19.114762 -37.411089,-37.400414 0,-19.462748 14.879962,-35.434996 33.877108,-37.218909 l 0,-5.946911 z"
     id="path3785"
     style="color:#000000;fill:#000000;fill-opacity:1;fill-rule:evenodd;stroke:none;stroke-width:10.41600037;marker:none;visibility:visible;display:inline;overflow:visible;enable-background:accumulate" />
  <path
     d="m 67.114632,19.772158 c -0.126914,-0.330737 -0.230753,-0.638533 -0.230753,-0.683998 0,-0.150356 2.840328,0.192705 3.421495,0.413257 0.415003,0.157491 0.311503,0.295344 -0.380165,0.506356 -1.578755,0.481626 -2.567135,0.39877 -2.810577,-0.235615 z m 10.128784,-2.492866 -2.75621,-1.538285 -0.02412,1.080707 -0.02412,1.080707 -0.38229,-0.950413 c -0.21026,-0.522736 -0.276668,-1.463646 -0.14756,-2.090921 0.129101,-0.627268 0.374658,-1.910336 0.545676,-2.851246 l 0.310946,-1.710751 0.05079,1.511726 c 0.04502,1.340013 0.362785,1.825818 2.797485,4.276872 1.510688,1.520831 2.665436,2.757217 2.566128,2.747524 -0.09931,-0.0097 -1.420863,-0.709857 -2.936777,-1.55592 z m 8.838867,0.08921 c 1.045457,-0.603871 1.950002,-1.052275 2.010106,-0.996437 0.0601,0.05583 -0.09566,0.55131 -0.346143,1.101061 -0.384115,0.843041 -0.698846,0.999056 -2.01011,0.99644 l -1.554685,-0.0029 1.900832,-1.097959 z m -5.029964,-1.989081 c -0.388744,-1.693843 -0.373738,-2.328598 0.08866,-3.749752 l 0.556632,-1.7107518 -0.227387,1.8092448 c -0.128035,1.018706 -0.0596,2.01538 0.15662,2.281006 0.214316,0.263277 0.275619,1.120819 0.138729,1.940499 l -0.245294,1.468746 z m -12.004938,0.91795 c -1.158186,-0.174111 -1.533506,-0.735651 -1.338197,-2.002168 0.113816,-0.738015 0.260785,-0.671867 1.627885,0.732685 0.826532,0.849172 1.339751,1.518318 1.140502,1.486988 -0.199256,-0.03131 -0.84284,-0.129205 -1.43019,-0.217505 z m 1.098386,-4.63649 C 68.799238,10.281914 68.722608,10.081 68.974503,8.5900627 c 0.148236,-0.8774148 0.392044,-1.450592 0.541801,-1.2737257 0.466641,0.551157 2.416743,5.473547 2.238908,5.651385 -0.09276,0.09276 -0.817013,-0.495312 -1.609445,-1.306838 z"
     id="path3029-7-6-3-0-3-2-7"
     style="fill:#000000" />
  <path
     d="m 81.924643,30.034501 c -0.106203,0.106205 1.063555,1.153864 2.60511,2.316839 2.946111,2.222595 3.000147,2.253607 3.000147,2.017893 0,-0.320856 -5.424197,-4.515788 -5.605257,-4.334732 z m -7.52706,0.822104 c -0.208169,0.05719 -1.213581,1.251983 -2.338193,2.786614 -1.428246,1.948968 -1.698074,2.443911 -0.779397,1.441352 0.771601,-0.842051 1.837243,-2.096718 2.370223,-2.786614 0.532986,-0.689895 0.884391,-1.33636 0.779397,-1.441352 -0.0066,-0.0066 -0.01814,-0.0038 -0.03201,0 z m 5.05007,1.355938 c -0.041,0.0038 -0.08076,0.0302 -0.117443,0.06406 -0.240026,0.221578 4.228973,9.128562 4.580296,9.128562 0.08054,0 -0.771004,-1.883947 -1.900449,-4.185259 -1.129443,-2.301315 -2.132672,-4.409596 -2.231427,-4.687063 -0.07406,-0.208101 -0.207958,-0.331759 -0.330977,-0.320301 z m -2.498343,0.07474 c -0.107751,0.0021 -0.232051,0.132384 -0.309624,0.352331 -0.103425,0.29327 -0.793925,2.261636 -1.537442,4.366763 -0.743517,2.105127 -1.355873,3.894685 -1.355938,3.982402 -3.35e-4,0.502572 0.494612,-0.607806 1.921802,-4.302703 0.878857,-2.275317 1.498613,-4.234762 1.377292,-4.356086 -0.03034,-0.03033 -0.06017,-0.04342 -0.09609,-0.04271 z"
     id="rect3811-8"
     style="fill:#000000;fill-opacity:1;stroke:none" />
  <path
     d="m 73.904659,24.824891 c -0.02815,-0.672631 -0.05753,-4.739653 0.06209,-5.051365 0.167065,-0.435378 0.977967,-0.03613 3.498326,1.722376 1.804469,1.259019 3.407413,2.289122 3.562096,2.289122 0.154681,0 0.399687,-0.861188 0.54445,-1.913751 0.147317,-1.071123 0.462811,-1.913751 0.716533,-1.913751 0.249322,0 0.08829,2.808523 -0.03834,4.367218 0.129708,0.364346 0.01397,1.224521 0.0024,1.621586 -0.318015,-0.03872 -0.511797,-0.04769 -0.64795,-0.04907 -0.104385,0.531171 -0.275212,1.074728 -0.465165,1.446785 0.700565,0.63328 0.239869,1.204085 -0.331807,2.2222 -0.395085,0.652339 -1.937543,2.296471 -2.497814,2.320585 -0.7157,0.149542 -2.18944,-1.105226 -3.3285,-1.939076 -0.253114,-0.201807 -0.347899,-0.44918 -0.487069,-0.941734 -0.123285,-0.422674 -0.128291,-1.419425 -0.09382,-2.016254 0.02528,-0.437612 0.04337,-0.728175 0.0431,-1.109502 -1.4e-5,-0.01966 1.5e-4,-0.03896 6.83e-4,-0.05785 0.0036,-0.02996 -0.09074,-0.01627 -0.359652,0.0056 -0.248345,-0.370317 -0.199375,-0.728448 -0.179392,-1.00309 z m 5.634838,5.945325 c 1.400415,-1.501472 2.074303,-2.888463 1.496911,-3.080929 -0.29963,-0.09987 -0.328028,-0.302518 -0.08366,-0.596968 0.203476,-0.245166 0.425961,-0.949415 0.494414,-1.564993 0.119723,-1.076573 10e-4,-1.167564 -3.106497,-2.387358 -3.39458,-1.332342 -3.83122,-1.275814 -3.844059,0.497686 -0.0047,0.64307 0.58608,1.067594 2.873199,2.0648 1.583483,0.690409 2.811042,1.323309 2.72791,1.406442 -0.08313,0.08313 -1.219652,-0.145919 -2.525593,-0.509004 -2.590819,-0.720313 -3.062926,-0.524256 -3.075516,1.277173 -0.0048,0.680078 0.301731,0.902521 1.620829,1.176363 l 1.626689,0.337697 -1.274615,0.2961 -1.274607,0.296099 1.274607,0.90096 c 1.640953,1.159901 1.890412,1.150635 3.069989,-0.114068 z"
     id="path3029-7-6-3-1-5-0"
     style="fill:#000000" />
  <path
     d="m 111.79211,34.441978 c -1.24151,-0.412951 -1.62271,-0.706342 -1.62221,-1.248537 3.4e-4,-0.56748 0.39068,-0.823594 1.95764,-1.285018 1.07636,-0.316952 1.99839,-0.534906 2.04896,-0.484338 0.0506,0.05057 -0.62509,0.486255 -1.50146,0.968195 l -1.5934,0.87625 1.67914,0.873383 c 1.88561,0.98077 1.46734,1.110335 -0.96867,0.300065 z m -3.98214,-3.580129 c -0.76289,-2.653152 -0.74269,-2.831936 0.1351,-1.195788 0.47887,0.89257 0.94164,1.622855 1.0284,1.622855 0.0867,0 0.53787,-0.730285 1.0025,-1.622855 0.99938,-1.919864 1.08928,-1.674328 0.30172,0.824106 -0.46125,1.463228 -0.72069,1.823711 -1.31254,1.823711 -0.57457,0 -0.82997,-0.321025 -1.15518,-1.452029 z"
     id="path3029-7-9-9-8"
     style="fill:#000000" />
  <text
     x="77.650146"
     y="119.73624"
     id="text3018"
     xml:space="preserve"
     style="font-size:13.66615105px;font-style:normal;font-variant:normal;font-weight:600;font-stretch:normal;text-align:center;line-height:125%;letter-spacing:0px;word-spacing:0px;text-anchor:middle;fill:#000000;fill-opacity:1;stroke:none;font-family:Galette;-inkscape-font-specification:Galette Semi-Bold"><tspan
       x="77.650146"
       y="119.73624"
       id="tspan3020">Netz39</tspan><tspan
       x="77.650146"
       y="136.81892"
       id="tspan3022">Hackerspace Magdeburg</tspan><tspan
       x="77.650146"
       y="154.23352"
       id="tspan3024">outpost on <tspan
   id="tspan3028"
   style="text-align:center;text-anchor:middle;font-family:Frankfurter Medium;-inkscape-font-specification:Frankfurter Medium">OHM</tspan><tspan
   id="tspan3026"
   style="font-style:normal;font-variant:normal;font-weight:bold;font-stretch:normal;text-align:center;text-anchor:middle;font-family:DicotLight;-inkscape-font-specification:DicotLight Bold">2013</tspan></tspan></text>
  <rect
     width="144.92772"
     height="161.31087"
     ry="5.4086261"
     x="4.9556971"
     y="2.268816"
     id="rect3105"
     style="fill:none;stroke:#000000;stroke-width:1.70826888;stroke-miterlimit:4;stroke-opacity:1;stroke-dasharray:none" />
</svg>
