<?xml version="1.0" encoding="UTF-8" standalone="no"?>
<!-- Created with Inkscape (http://www.inkscape.org/) -->

<svg
   xmlns:dc="http://purl.org/dc/elements/1.1/"
   xmlns:cc="http://creativecommons.org/ns#"
   xmlns:rdf="http://www.w3.org/1999/02/22-rdf-syntax-ns#"
   xmlns:svg="http://www.w3.org/2000/svg"
   xmlns="http://www.w3.org/2000/svg"
   version="1.1"
   width="400"
   height="400"
   id="svg4374">
  <metadata
     id="metadata4380">
    <rdf:RDF>
      <cc:Work
         rdf:about="">
        <dc:format>image/svg+xml</dc:format>
        <dc:type
           rdf:resource="http://purl.org/dc/dcmitype/StillImage" />
        <dc:title></dc:title>
      </cc:Work>
    </rdf:RDF>
  </metadata>
  <defs
     id="defs4378" />
  <rect
     width="351.79382"
     height="351.79382"
     ry="15.830722"
     x="25.272345"
     y="21.715561"
     id="master-tile-1"
     style="fill:none;stroke:#000000;stroke-width:3.51793814;stroke-linejoin:round;stroke-miterlimit:4;stroke-opacity:1;stroke-dasharray:none" />
  <path
     d="m 195.29529,348.38822 c 0,-0.57157 1.53878,-3.33396 3.41952,-6.13863 3.65655,-5.45286 4.08899,-7.56089 2.27182,-11.07486 -3.5115,-6.7905 -10.09846,-4.78578 -21.63675,6.58508 -4.66039,4.59274 -7.79932,7.10826 -8.86996,7.10826 -0.91138,0 -5.5319,-1.21789 -10.26784,-2.70641 -10.58185,-3.32592 -16.95721,-4.86658 -20.19921,-4.88132 -3.82796,-0.0174 -3.02437,-1.64363 2.76773,-5.60121 5.6528,-3.86239 7.33608,-6.47385 6.48508,-10.06104 -0.94507,-3.98358 -3.15275,-5.62606 -7.5621,-5.62606 -4.48618,0 -6.13299,0.46244 -16.80233,4.71827 l -7.70263,3.07244 -3.31586,-2.30337 c -1.8237,-1.26685 -6.39343,-4.89857 -10.1549,-8.07048 -3.761493,-3.17191 -8.449342,-6.53844 -10.417435,-7.48118 -3.500698,-1.67688 -4.588239,-3.30229 -2.690787,-4.02157 0.522451,-0.19805 3.343555,-0.8565 6.269163,-1.46324 6.464799,-1.34076 8.738799,-3.44449 8.738799,-8.08455 0,-6.2335 -5.07658,-8.28194 -20.524984,-8.28194 -10.912692,0 -9.953238,0.72679 -17.210368,-13.0368 -2.859306,-5.42288 -6.507569,-11.58903 -8.1072,-13.70255 -1.599652,-2.11352 -2.625489,-4.11535 -2.279688,-4.44849 0.345821,-0.33315 3.269512,-0.0749 6.497077,0.57393 6.867154,1.38045 9.81476,0.64873 11.645106,-2.89079 3.294551,-6.37095 0.326374,-9.49994 -15.870668,-16.73054 -4.111791,-1.83556 -7.783948,-3.90618 -8.160391,-4.60138 -0.376412,-0.6952 -1.387711,-7.50036 -2.247309,-15.12259 -0.859598,-7.62225 -1.88928,-14.46845 -2.288181,-15.21379 -1.1123,-2.07838 -0.872871,-2.97489 0.79454,-2.97489 0.835883,0 1.519765,0.2876 1.519765,0.63914 0,1.28459 7.838012,4.88122 10.807173,4.95907 2.516728,0.066 3.394357,-0.34525 5.308385,-2.48742 1.929559,-2.15955 2.232169,-3.02106 1.908576,-5.43362 -0.516688,-3.85226 -4.208534,-9.0273 -11.409692,-15.99357 l -5.972939,-5.77811 0.867549,-3.34061 c 0.477152,-1.83737 2.046684,-7.27311 3.487867,-12.07945 1.441204,-4.80634 2.872709,-10.7623 3.181132,-13.23549 0.308422,-2.47318 0.976671,-4.63502 1.485017,-4.80414 0.508355,-0.16907 2.121821,1.56462 3.585494,3.85273 4.94905,7.7366 9.800453,9.49229 14.16615,5.12661 3.328696,-3.32872 2.857408,-7.32741 -2.44925,-20.7809 -1.610675,-4.08332 -2.923429,-8.01578 -2.917275,-8.73878 0.005,-0.72301 2.556435,-4.39213 5.667237,-8.15361 3.110803,-3.76149 7.612821,-9.66017 10.004482,-13.108206 2.391652,-3.448031 4.77255,-6.269132 5.290875,-6.269132 0.518345,0 1.164647,1.111357 1.436274,2.469668 1.754154,8.77259 4.519467,12.72823 8.898116,12.72823 6.08445,0 7.44956,-3.04123 8.314,-18.522179 0.37322,-6.684272 0.75817,-12.20509 0.85541,-12.268458 0.51271,-0.334059 14.39334,-8.073722 17.65444,-9.843847 5.85348,-3.17734 10.25571,-6.039553 10.25722,-6.669002 7.5e-4,-0.313464 0.5531,-0.569923 1.22745,-0.569923 0.97097,0 1.13045,0.513905 0.7665,2.469669 -1.38971,7.467361 -1.33933,10.811691 0.19945,13.25152 2.11091,3.346771 6.32803,4.520484 9.54879,2.657643 3.17623,-1.837052 6.6981,-7.310032 9.50894,-14.776848 1.29642,-3.443901 2.66748,-7.002566 3.04681,-7.908133 0.84968,-2.028533 4.93401,-2.938775 18.13777,-4.042263 5.15845,-0.431112 10.89927,-1.166649 12.75738,-1.634534 3.92666,-0.98875 4.82598,-0.489935 3.3329,1.848635 -3.19182,4.999277 -5.30608,9.512152 -5.31827,11.351879 -0.008,1.233263 0.88118,3.079327 2.18815,4.542117 1.78321,1.995758 2.77566,2.464371 5.21919,2.464371 3.89665,0 7.67064,-2.5896 15.88428,-10.899316 6.29779,-6.371431 6.30233,-6.374236 9.5452,-5.929542 1.78446,0.244643 7.17691,1.681358 11.98324,3.192558 4.80635,1.5112 11.21795,3.14524 14.24804,3.631201 5.63158,0.903178 6.83762,1.969243 3.79949,3.35851 -0.94037,0.430021 -3.48854,2.189629 -5.66267,3.910255 -4.64395,3.6753 -5.70666,6.764988 -3.67691,10.690098 2.57849,4.986265 8.48787,4.887163 21.35869,-0.358211 4.5637,-1.85988 9.00241,-3.381599 9.86382,-3.381599 0.8615,0 6.28297,3.771572 12.04776,8.381239 5.76487,4.609693 11.816,9.062031 13.44696,9.894101 1.63097,0.83207 2.96542,1.991654 2.96542,2.576874 0,1.037238 -0.95238,1.353897 -7.21901,2.400171 -6.02909,1.006645 -9.4987,3.973521 -9.4987,8.122384 0,6.24249 4.68575,8.29709 19.96284,8.7534 13.04949,0.3898 11.13638,-0.89946 18.32142,12.34694 2.39298,4.41167 5.70044,9.80438 7.34994,11.98377 2.69406,3.55942 3.78117,6.2114 2.54618,6.2114 -0.24908,0 -2.35089,-0.55174 -4.67062,-1.22612 -6.02947,-1.7528 -10.58399,-1.09315 -13.27918,1.9233 -4.77954,5.34924 -1.50918,10.11945 10.89144,15.88652 4.34021,2.01848 9.13858,4.21996 10.66308,4.89215 2.63889,1.16361 2.81245,1.47053 3.62121,6.40091 0.4671,2.84829 1.35702,9.28216 1.97755,14.29746 0.62044,5.01532 1.34387,10.40107 1.60756,11.96837 0.3848,2.28758 0.24375,2.8496 -0.71507,2.8496 -0.65693,0 -1.41014,-0.34907 -1.67382,-0.77572 -0.26369,-0.42665 -2.25012,-1.79125 -4.41431,-3.03245 -6.18137,-3.54522 -11.48019,-2.98345 -13.77843,1.46076 -2.19837,4.25122 0.4757,9.35587 9.92295,18.94229 3.92684,3.98469 7.13968,7.86803 7.13968,8.62965 0,0.76162 -1.53681,6.69112 -3.4152,13.17665 -1.87839,6.48553 -3.63345,13.64853 -3.90017,15.91777 -0.2826,2.40431 -0.8393,4.06062 -1.33414,3.96948 -0.46704,-0.086 -1.77003,-1.69804 -2.89559,-3.58225 -4.13254,-6.91823 -8.90734,-9.80895 -13.2123,-7.99885 -3.39745,1.42852 -4.32278,3.03891 -4.27704,7.44346 0.0426,4.09496 2.65534,12.41972 5.95185,18.9639 2.8366,5.63104 2.97294,5.29336 -7.29952,18.07279 -3.19156,3.97045 -6.9516,9.01425 -8.35558,11.20845 -1.40391,2.1942 -2.80045,3.98946 -3.10327,3.98946 -0.81285,0 -1.47313,-2.09349 -1.47313,-4.67063 0,-1.24665 -0.73322,-3.97102 -1.62929,-6.05415 -1.75141,-4.07111 -4.33041,-5.99293 -8.04251,-5.99293 -5.68925,0 -7.80115,5.11825 -7.81614,18.94279 -0.008,5.25431 -0.19503,10.24032 -0.42074,11.08002 -0.2668,0.99271 -4.16658,3.65066 -11.14918,7.59896 -5.90646,3.33972 -12.21717,7.18358 -14.02389,8.54189 -4.31027,3.24043 -5.07716,3.17533 -4.4763,-0.37994 0.2649,-1.56729 0.68107,-4.94016 0.92494,-7.49529 0.4146,-4.34474 0.30266,-4.80017 -1.72831,-7.03092 -2.9743,-3.26688 -6.00901,-3.7387 -9.38622,-1.45933 -3.2083,2.16535 -7.54889,9.39711 -9.82653,16.37171 -2.54116,7.78136 -3.00957,8.26476 -8.95391,9.24027 -2.83838,0.46582 -8.95981,1.1685 -13.60321,1.56153 -4.64341,0.39305 -9.94368,1.23738 -11.7784,1.87629 -4.11451,1.43283 -4.47566,1.4445 -4.47566,0.14455 z m -3.40376,-31.42976 C 251.28845,318.11814 310.93355,277.47496 314.3725,213.46283 318.37588,138.94438 269.86247,80.086335 199.18663,79.260315 129.06249,78.440742 84.976838,132.08836 83.171952,186.87984 80.305157,256.77007 122.44562,315.6026 191.89153,316.95846 z"
     id="path3035"
     style="fill:#000000" />
  <path
     d="m 197.05483,70.772077 c -70.07086,0 -126.878711,56.807833 -126.878711,126.878693 0,70.07085 56.807851,126.8787 126.878711,126.8787 70.07085,0 126.87869,-56.80785 126.87869,-126.8787 0,-70.07086 -56.80784,-126.878693 -126.87869,-126.878693 z m 0,17.38548 c 60.4603,0 109.45397,49.032903 109.45397,109.493213 0,60.4603 -48.99367,109.45398 -109.45397,109.45398 -27.56747,0 -52.76316,-10.1863 -72.01436,-27.00049 3.18515,-2.38773 6.40664,-4.2756 9.73273,-5.6905 0.82796,1.62154 1.73946,3.08707 2.62941,4.23844 3.67719,4.75747 10.38138,7.35714 17.11077,8.51616 6.72938,1.15899 13.50643,0.96228 17.93491,-2.0015 1.17135,-0.78395 2.11608,-1.82577 2.55092,-3.10034 0.43482,-1.2746 0.30787,-2.67408 -0.11768,-3.84601 -0.85134,-2.34385 -2.73482,-4.16112 -5.14108,-5.84749 -4.81253,-3.37273 -11.98404,-5.95202 -19.26923,-5.92598 -4.52282,0.0163 -8.72878,0.88768 -12.83308,2.11923 -0.10039,-0.39148 -0.32694,-0.74133 -0.39246,-1.1381 -0.41336,-2.50379 -0.18476,-5.04818 1.41283,-7.61352 l 1.64828,1.6483 18.91602,-18.91603 4.7094,4.74862 32.96569,-33.00494 22.44808,22.44808 c 4.29072,4.29063 5.69554,12.92326 8.59464,20.52506 0.92539,3.21238 2.55838,6.29003 4.94485,8.90861 0.23319,0.26275 0.49753,0.49753 0.74565,0.74565 8.77025,8.76995 22.97883,8.76995 31.74912,0 8.77019,-8.77022 8.77024,-22.97867 0,-31.74912 -4.0029,-4.00286 -9.12663,-6.16607 -14.36363,-6.51466 -5.39333,-1.39628 -11.01913,-2.97379 -15.8157,-7.77048 l -17.69944,-17.69944 1.4913,-1.49131 2.35471,2.3547 4.70939,-4.7094 -2.3547,-2.35468 7.33879,-7.33879 8.4769,-2.82563 1.45205,0.47092 0.94187,-0.94187 -3.7675,-3.80675 -7.10332,-7.06408 15.7372,-15.7372 2.3547,2.3547 4.74862,-4.74863 -2.39394,-2.35471 2.39394,-2.35468 -3.80674,-3.80675 8.39838,-8.39842 c 0,0 12.7956,-15.57688 12.32291,-16.52209 -0.94508,-0.47255 -16.56134,12.28365 -16.56134,12.28365 l -8.39841,8.39841 -3.76751,-3.76751 -22.84052,22.84052 -7.10332,-7.10332 -3.76751,-3.76752 -0.94188,0.94188 0.47093,1.41282 -2.82561,8.51614 -13.5395,13.50023 -9.02633,-9.02632 c -4.76399,-4.76424 -5.29015,-7.25529 -6.35766,-12.67609 -0.86738,-4.40482 4.90982,-17.40449 -3.96374,-26.37256 -2.04789,-2.06923 -4.88086,-3.92692 -8.7516,-5.4158 -3.51522,-1.35204 -7.69859,-1.87235 -11.65573,-1.92299 -6.59523,-0.0843 -12.54472,1.12919 -13.73572,1.92299 -1.9056,1.2706 -2.20502,4.15272 -1.56978,4.78787 0.63519,0.63494 10.15671,6.15829 14.28513,7.92748 11.11597,4.76423 -0.009,25.42768 -9.5365,22.25185 -6.75262,-2.25074 -14.62378,-9.53652 -15.89419,-9.53652 -1.27037,0 -2.86126,0.95576 -3.17883,3.17884 -0.31764,2.22333 3.20554,12.70275 11.14555,20.64281 9.52798,9.52775 20.10193,7.08579 23.82165,7.92746 3.71969,0.84218 6.00364,-0.31483 9.49724,3.17885 l 13.77497,13.73571 -1.56981,1.56978 -2.35468,-2.35468 -11.81271,11.81271 2.35469,2.35468 -19.5832,19.58321 4.70939,4.74862 -18.91603,18.8768 2.07997,2.07998 c -2.67946,3.85171 -3.23545,8.10264 -2.62941,11.77346 0.11415,0.69115 0.44754,1.2297 0.62793,1.88375 -4.03263,1.68861 -7.91573,3.95988 -11.69499,6.82862 -20.95246,-19.93644 -34.025301,-48.07 -34.025301,-79.27467 0,-60.46031 49.032911,-109.493213 109.493221,-109.493213 z m 52.47041,144.931343 12.67609,5.25882 5.29806,12.71534 -5.29806,12.67609 -12.67609,5.29805 -12.71534,-5.29805 -5.25882,-12.67609 5.25882,-12.71534 12.71534,-5.25882 z m -99.05408,38.02829 c 6.12442,-0.022 12.71382,2.33865 16.60059,5.0626 1.94338,1.36196 3.12269,2.84693 3.41429,3.64977 0.14581,0.40141 0.12748,0.56279 0.0786,0.70641 -0.0491,0.14361 -0.16953,0.38634 -0.7064,0.74565 -2.4045,1.60922 -8.528,2.32718 -14.52062,1.29508 -5.99259,-1.0321 -11.81172,-3.69089 -14.20665,-6.78936 -0.62099,-0.80344 -1.24708,-1.89139 -1.84451,-2.98262 3.55878,-1.01208 7.22016,-1.67334 11.18481,-1.68753 z"
     id="path7438-70-0-9"
     style="color:#000000;fill:#000000;fill-opacity:1;fill-rule:evenodd;stroke:none;stroke-width:10.41600037;marker:none;visibility:visible;display:inline;overflow:visible;enable-background:accumulate" />
</svg>
