<?xml version="1.0" encoding="UTF-8" standalone="no"?>
<!-- Created with Inkscape (http://www.inkscape.org/) -->

<svg
   xmlns:dc="http://purl.org/dc/elements/1.1/"
   xmlns:cc="http://creativecommons.org/ns#"
   xmlns:rdf="http://www.w3.org/1999/02/22-rdf-syntax-ns#"
   xmlns:svg="http://www.w3.org/2000/svg"
   xmlns="http://www.w3.org/2000/svg"
   version="1.1"
   width="166.53543"
   height="226.77165"
   id="svg5512">
  <defs
     id="defs5514">
    <filter
       color-interpolation-filters="sRGB"
       id="filter7166">
      <feGaussianBlur
         stdDeviation="0.087649774"
         id="feGaussianBlur7168" />
    </filter>
  </defs>
  <metadata
     id="metadata5517">
    <rdf:RDF>
      <cc:Work
         rdf:about="">
        <dc:format>image/svg+xml</dc:format>
        <dc:type
           rdf:resource="http://purl.org/dc/dcmitype/StillImage" />
        <dc:title></dc:title>
      </cc:Work>
    </rdf:RDF>
  </metadata>
  <text
     x="468.1424"
     y="-261.86139"
     id="text4136"
     xml:space="preserve"
     style="font-size:40px;font-style:normal;font-variant:normal;font-weight:600;font-stretch:normal;line-height:125%;letter-spacing:0px;word-spacing:0px;fill:#000000;fill-opacity:1;stroke:none;font-family:Galette;-inkscape-font-specification:Galette Semi-Bold"><tspan
       x="468.1424"
       y="-261.86139"
       id="tspan4138" /></text>
  <g
     transform="matrix(0.22241978,0,0,0.22241978,-62.216171,48.93662)"
     id="g3115-7-9-8-4-68"
     style="fill:#000000">
    <path
       d="m 6.5,1.6875 c -2.3783823,0 -4.3125,1.9966177 -4.3125,4.375 l 0,213.9375 c 0,2.37839 1.9341177,4.34375 4.3125,4.34375 l 154.5625,0 c 2.37839,0 4.375,-1.96536 4.375,-4.34375 l 0,-213.9375 c 0,-2.3783823 -1.99661,-4.375 -4.375,-4.375 L 6.5,1.6875 z m 0,3 2.28125,0 30,30.40625 C 35.958546,33.139074 33.671851,31.580286 33.625,31.625 c -0.04669,0.04458 1.426897,2.212986 3.28125,4.875 l -31.75,-30.03125 0,-0.40625 c 0,-0.7682129 0.5755371,-1.375 1.34375,-1.375 z m 3.53125,0 4.875,0 L 46.75,40.65625 16,4.6875 l 4.53125,0 L 49.375,40.96875 21.53125,4.6875 l 4.25,0 25.0625,35.15625 c -0.532733,0.373556 -1.027482,0.742916 -1.46875,1.125 -0.05903,0.05111 -0.130295,0.10507 -0.1875,0.15625 L 48.40625,41.8125 46.8125,40.71875 46.75,40.65625 41.0625,36.6875 c -0.821053,-0.575964 -1.382485,-0.954066 -2.125,-1.46875 L 10.03125,4.6875 z m 16.75,0 3.875,0 21.75,34.125 -20.84375,-34.125 3.6875,0 L 54.03125,37.90625 36.1875,4.6875 l 3.40625,0 L 55.6875,37.125 40.46875,4.6875 l 3.25,0 L 57.4375,36.375 44.625,4.6875 l 3.0625,0 11.5,31.03125 c -0.58877,0.202185 -1.169523,0.424891 -1.75,0.65625 -0.591034,0.235567 -1.177985,0.488798 -1.75,0.75 -0.56251,0.256862 -1.122217,0.50406 -1.65625,0.78125 -0.566355,0.293967 -1.102263,0.594545 -1.625,0.90625 -0.54361,0.324151 -1.047969,0.662487 -1.53125,1 L 26.78125,4.6875 z m 21.8125,0 2.96875,0 9.46875,30.46875 c -0.603712,0.171813 -1.2067,0.355 -1.8125,0.5625 L 48.59375,4.6875 z m 3.875,0 2.84375,0 7.53125,30 c -0.587921,0.130242 -1.180359,0.298317 -1.78125,0.46875 L 52.46875,4.6875 z m 3.6875,0 2.78125,0 5.78125,29.65625 -4.9375,-29.65625 2.78125,0 4.0625,29.34375 -3.1875,-29.34375 2.6875,0 2.03125,22.5 c -0.389195,2.212213 -0.874779,5.010389 -0.96875,5.46875 L 66.90625,34 66.625,34.03125 l -1.90625,0.3125 -0.25,0.03125 c -0.522321,0.08133 -1.051457,0.192985 -1.59375,0.3125 l -6.71875,-30 z m 10.84375,0 2.6875,0 0.34375,8.78125 C 69.704757,16.448485 69.217792,21.161111 68.75,23.875 c -0.249058,1.444917 -0.338587,1.819164 -0.5625,3.09375 L 67,4.6875 z m 3.53125,0 2.6875,0 -0.625,24.4375 C 72.228508,27.095676 71.739419,24.420143 71.3125,21.9375 70.82966,19.12968 70.525236,12.246987 70.40625,11.15625 l 0.125,-6.46875 z m 3.53125,0 2.75,0 L 74.28125,34.125 73.46875,34 72.875,30.75 c -0.05161,-0.280266 -0.182505,-1.00094 -0.25,-1.375 L 74.0625,4.6875 z m 3.5625,0 2.75,0 -4.21875,29.71875 C 76.041703,34.38703 75.921167,34.35959 75.8125,34.34375 L 74.3125,34.125 77.625,4.6875 z m 3.625,0 2.78125,0 -6,30.09375 6.84375,-30.09375 2.875,0 -7.875,30.625 8.75,-30.625 3,0 L 81.6875,35.90625 92.5,4.6875 l 3.09375,0 -12.15625,31.875 c -0.564821,-0.223284 -1.141541,-0.447216 -1.75,-0.65625 -0.608595,-0.209081 -1.199359,-0.41113 -1.8125,-0.59375 -0.627986,-0.187041 -1.252525,-0.353678 -1.84375,-0.5 -0.0026,-6.42e-4 0.0026,-0.03061 0,-0.03125 -0.663333,-0.164006 -1.283154,-0.279904 -1.84375,-0.375 L 81.25,4.6875 z m 15.25,0 3.25,0 L 85.125,37.25 C 84.634035,37.018495 84.048456,36.792233 83.46875,36.5625 L 96.5,4.6875 z m 4.125,0 3.5,0 L 86.8125,38.15625 105,4.6875 l 3.71875,0 -20.3125,34.46875 c -0.556517,-0.352251 -1.06122,-0.689567 -1.59375,-1 -0.0093,-0.0054 -0.02195,0.0054 -0.03125,0 -0.633861,-0.368906 -1.239399,-0.723836 -1.625,-0.90625 L 100.625,4.6875 z m 9.03125,0 3.90625,0 -23.59375,35.46875 24.5625,-35.46875 4.25,0 -27.25,36.46875 c -0.384642,-0.230948 -0.888196,-0.556884 -1.5625,-1 -0.210631,-0.138415 -0.370573,-0.22572 -0.59375,-0.375 -0.287908,-0.192577 -0.622376,-0.393922 -0.9375,-0.59375 l 21.21875,-34.5 z m 10.1875,0 4.5625,0 -28.46875,34.21875 29.5,-34.21875 5.125,0 -26.125,28.3125 -0.0937,0.09375 c -1.30012,0.882062 -3.01082,2.038237 -4.90625,3.375 -1.344173,0.947982 -2.407922,1.678794 -3.5,2.4375 l -0.0625,0.0625 C 93.820031,40.395893 92.188445,41.5 92.125,41.5 c -0.03116,0 -0.32936,-0.173627 -0.5625,-0.3125 l 28.28125,-36.5 z m 11.8125,0 4.3125,0 0,1.1875 -34.65625,33.65625 c 0.32755,-0.46858 0.31186,-0.445638 0.65625,-0.9375 2.65583,-3.79308 4.78448,-6.965547 4.71875,-7.03125 -0.0328,-0.03286 -0.8747,0.517333 -2.1875,1.40625 L 131.65625,4.6875 z m 6.1875,0 23.21875,0 c 0.76821,0 1.34375,0.6067871 1.34375,1.375 l 0,138.6875 -24.5625,0 0,-140.0625 z m -1.875,2.34375 0,5.03125 L 97.1875,45.5 l 38.78125,-32.34375 0,4.5625 -38.1875,30 c -0.612556,-0.985168 -0.941459,-1.711034 -0.84375,-1.875 0.0051,-0.0086 0.205754,-0.292686 0.21875,-0.3125 0.0015,-0.0023 0.02967,-0.02885 0.03125,-0.03125 0.258287,-0.392168 2.017177,-2.961834 4.03125,-5.84375 l 34.75,-32.625 z M 5.15625,7.5625 l 31.875,29.09375 c 0.495463,0.710478 0.850583,1.244566 1.40625,2.03125 1.698761,2.404984 2.977981,4.290673 3.90625,5.65625 l -37.1875,-31.6875 0,-5.09375 z m 0,6.125 L 42.4375,44.5 c 0.468437,0.691967 1.032379,1.515254 1.0625,1.59375 0.07259,0.189155 -0.137937,0.677597 -0.46875,1.1875 -0.073,0.112514 -0.134014,0.233146 -0.21875,0.34375 -0.266706,0.348158 -0.527118,0.699132 -0.78125,1.0625 l 0,0.03125 c -0.335458,0.480487 -0.656543,0.964549 -0.96875,1.46875 -0.302585,0.488663 -0.595601,0.992004 -0.875,1.5 L 5.15625,32.53125 5.15625,29 41.0625,50.1875 5.15625,28.09375 l 0,-3.8125 36.875,24.40625 -36.875,-25.375 0,-4.125 37.875,28.09375 -37.875,-29.0625 0,-4.53125 z m 130.8125,5 0,4.21875 -37.1875,26.34375 37.1875,-25.375 0,3.84375 -36.25,23.0625 36.25,-22.09375 0,3.5 -35.40625,20.125 35.40625,-19.1875 0,3.3125 -34.625,17.4375 34.625,-16.5625 0,3.125 -33.9375,15.03125 33.9375,-14.1875 0,2.96875 -33.34375,12.84375 c -0.18685,-0.544398 -0.37898,-1.087753 -0.59375,-1.625 -0.21121,-0.528343 -0.45015,-1.043171 -0.6875,-1.5625 -0.004,-0.0087 0.004,-0.02257 0,-0.03125 -0.24198,-0.528333 -0.51311,-1.045713 -0.78125,-1.5625 -0.26629,-0.513218 -0.55254,-1.031574 -0.84375,-1.53125 -0.295777,-0.507515 -0.616936,-1.008688 -0.9375,-1.5 -0.0048,-0.0073 0.0048,-0.02391 0,-0.03125 C 98.645466,49.042237 98.5151,48.82957 98.375,48.625 98.161143,48.312735 97.98647,48.028574 97.8125,47.75 l 38.15625,-29.0625 z m -65.9375,6.625 -0.4375,14.15625 c -1.360186,0.199266 1.774286,0.146441 -1.78125,0.1875 L 70.03125,25.3125 z M 5.15625,33.375 40.1875,51.71875 c -0.266142,0.484798 -0.537398,0.968978 -0.78125,1.46875 l -34.25,-16.53125 0,-3.28125 z m 141,1.125 0,1.59375 8.65625,3.1875 -8.65625,3.21875 0,1.71875 10.59375,-4.1875 5.09375,2.09375 0,-1.78125 L 146.15625,34.5 z m -79.46875,0.59375 -0.21875,1.4375 c -0.390903,2.842458 -0.499712,3.030005 -1.9375,3.25 -0.718838,0.109987 -1.969662,0.402425 -2.78125,0.65625 -0.811565,0.253803 -1.626802,0.465859 -1.8125,0.46875 -0.185698,0.0018 -0.657518,-0.831384 -1.0625,-1.84375 l -0.75,-1.84375 0.90625,-0.375 c 1.023109,-0.430204 5.174178,-1.443194 6.65625,-1.625 l 1,-0.125 z M 74.15625,35.25 c 0.838852,-0.02426 2.797549,0.302998 5.03125,0.90625 3.349353,0.904537 3.268594,0.827181 2.40625,2.875 -0.402891,0.956783 -0.906984,1.755583 -1.125,1.78125 C 80.250801,40.83814 79.136231,40.607673 78,40.3125 76.863813,40.017371 75.573799,39.716637 75.15625,39.625 74.487478,39.478247 74.368661,39.223976 74.0625,37.5625 73.871397,36.525179 73.71875,35.532006 73.71875,35.375 c 0,-0.09548 0.157883,-0.116912 0.4375,-0.125 z m -69,2.3125 34.25,15.65625 c -0.243179,0.499417 -0.498975,0.988192 -0.71875,1.5 l -33.53125,-14.125 0,-3.03125 z M 56.8125,37.65625 57.625,39.625 c 0.476379,1.18979 0.682985,2.03274 0.5,2.09375 -0.168416,0.05614 -1.417928,0.7619 -2.75,1.5625 -1.332072,0.8006 -2.49573,1.46875 -2.59375,1.46875 -0.355783,0 -3.25,-2.088679 -3.25,-2.34375 0,-0.400912 2.558676,-2.211967 5.0625,-3.5625 l 2.21875,-1.1875 z m 26.90625,0.3125 c 0.663526,-0.04371 3.96497,1.758995 6.15625,3.40625 l 1.25,0.9375 -1.6875,1.21875 c -1.877601,1.332006 -2.118795,1.390881 -2.75,0.78125 -0.2377,-0.229515 -1.363769,-0.890103 -2.5,-1.5 -1.136231,-0.609875 -2.08234,-1.159186 -2.125,-1.1875 -0.08221,-0.05458 1.37351,-3.43145 1.5625,-3.625 0.01961,-0.02009 0.04951,-0.02834 0.09375,-0.03125 z m 16,0.3125 c -0.217504,0.223354 -2.270598,2.355829 -4.5625,4.75 -2.291925,2.394149 -4.287678,4.375 -4.46875,4.375 -0.366214,0 -1.78968,-1.424377 -1.59375,-1.59375 0.608874,-0.526401 10.92458,-7.838834 10.625,-7.53125 z M 40.25,38.5625 c -0.140569,-0.256228 1.920509,1.688725 4.5625,4.3125 L 49.625,47.65625 48.84375,48.5625 48.0625,49.46875 44.28125,44.25 C 42.201492,41.381319 40.390547,38.818728 40.25,38.5625 z M 5.15625,41.5 38.6875,54.75 c -0.225222,0.525678 -0.425694,1.05773 -0.625,1.59375 -0.196426,0.528274 -0.392443,1.058044 -0.5625,1.59375 -0.171613,0.540609 -0.325205,1.079476 -0.46875,1.625 -0.131335,0.499122 -0.268139,0.998901 -0.375,1.5 -0.01098,0.05149 -0.02047,0.10408 -0.03125,0.15625 -0.117076,0.566576 -0.177813,1.150847 -0.25,1.65625 l -31.21875,-4.6875 0,-2.5 31.46875,5.53125 -31.46875,-6.375 0,-2.5625 31.875,7.28125 -31.875,-8.09375 0,-2.65625 L 37.5,57.9375 5.15625,48 l 0,-2.78125 32.90625,11.125 -32.90625,-12 0,-2.84375 z m 65.0625,2.34375 c 13.447571,0 24.34375,10.927433 24.34375,24.375 0,13.447567 -10.896179,24.34375 -24.34375,24.34375 C 56.768532,92.648977 46.063574,80.122879 45.875,68.21875 c 0,-13.447567 10.896181,-24.375 24.34375,-24.375 z m 65.75,1.25 0,2.8125 -32.8125,10.84375 c -0.15539,-0.540959 -0.31665,-1.088821 -0.5,-1.625 l 33.3125,-12.03125 z m 17.6875,0.78125 c -0.67735,0 -1.33573,0.211734 -1.84375,0.65625 -0.42334,0.381014 -0.77323,1.290449 -1.28125,2.6875 L 150.1875,50.125 c -0.16934,0.465683 -0.33166,0.758078 -0.4375,0.90625 -0.23284,0.359847 -0.4174,0.625 -1.03125,0.625 -0.21168,0 -0.44458,-0.110908 -0.65625,-0.34375 -0.50802,-0.550353 -0.59375,-1.189623 -0.59375,-2.375 0,-0.677358 0.16233,-1.515213 0.4375,-2.53125 l -1.40625,0 c -0.29634,1.037205 -0.46875,2.007135 -0.46875,2.875 0,0.804363 0.15224,1.541392 0.40625,2.21875 0.42335,1.016038 1.10295,1.90625 2.5,1.90625 1.60873,0 2.11698,-0.979954 2.625,-2.25 L 152,49.625 c 0.16934,-0.571521 0.45466,-1.03632 0.6875,-1.375 0.27518,-0.402181 0.62907,-0.59375 1.03125,-0.59375 1.01604,0 1.40625,1.128125 1.40625,2.25 0,1.248879 -0.24298,2.450707 -0.6875,3.59375 l 1.53125,0 c 0.40218,-0.931368 0.59375,-2.183609 0.59375,-3.75 0,-1.566391 -0.45472,-2.676475 -1.34375,-3.375 -0.44452,-0.359847 -1.01214,-0.5 -1.5625,-0.5 z m -57.5625,1.1875 1.625,2.46875 c 2.01301,3.047062 2.97656,4.942149 2.65625,5.21875 -0.13488,0.116481 -0.939591,0.523844 -1.78125,0.875 -1.907806,0.795862 -2.062278,0.788478 -2.3125,-0.03125 C 96.169773,55.228537 95.470974,53.978224 94.75,52.8125 l -1.3125,-2.125 1.34375,-1.8125 1.3125,-1.8125 z m -51.65625,0.625 c 0.384155,0.02687 0.790448,0.595575 1.53125,1.75 l 0.90625,1.40625 -1.5,2.46875 c -0.811743,1.350533 -1.46875,2.55109 -1.46875,2.6875 0,0.421441 -0.969418,0.24197 -2.59375,-0.5 L 39.75,54.78125 40.6875,52.9375 c 0.509297,-1.016258 1.524667,-2.696064 2.25,-3.71875 0.745062,-1.050511 1.115845,-1.558124 1.5,-1.53125 z m 91.53125,1.09375 0,2.65625 -32.375,9 32.375,-8.09375 0,2.59375 -32.03125,7.21875 32.03125,-6.375 0,2.53125 -31.6875,5.53125 31.6875,-4.71875 0,2.46875 -29.4375,3.6875 c -0.94471,-0.171536 -1.81212,-0.391078 -1.9375,-0.5 -0.0724,-0.06284 -0.18269,-0.413344 -0.3125,-0.9375 -0.11266,-0.454912 -0.23625,-1.044943 -0.34375,-1.65625 -0.002,-0.01106 0.002,-0.02017 0,-0.03125 -0.002,-0.01108 0.002,-0.02015 0,-0.03125 -0.0981,-0.565273 -0.21358,-1.122736 -0.34375,-1.6875 -4.9e-4,-0.0021 -0.0307,0.0021 -0.0312,0 -0.12808,-0.555199 -0.2481,-1.103794 -0.40625,-1.65625 l 32.8125,-10 z m -58.4375,4.25 c -1.272757,0.0121 -2.309945,0.191312 -2.5625,0.34375 -0.505122,0.304906 -0.624878,1.047912 -0.46875,1.21875 0.156128,0.170783 2.551747,1.684435 3.59375,2.1875 2.805703,1.354637 -0.303371,6.552539 -2.71875,5.625 -1.711789,-0.657333 -3.641797,-2.610303 -3.96875,-2.625 -0.326948,-0.01441 -0.767547,0.212767 -0.875,0.78125 -0.107435,0.568485 0.673402,3.30227 2.625,5.4375 2.341916,2.562325 6,-0.277661 6,2.0625 l 0,10.875 a 2.8954091,2.8954091 0 0 0 5.78125,0 l 0,-13.875 0,-3.25 c 0,-1.215989 1.493607,-6.084443 -3.4375,-8.125 -1.195375,-0.494635 -2.695995,-0.668345 -3.96875,-0.65625 z M 56,55.78125 l 0,2.3125 10.53125,0 L 62.125,62.5 l -1.96875,1.96875 2.78125,0 c 4.473347,0 8.125,3.620406 8.125,8.09375 0,4.473347 -3.651653,8.09375 -8.125,8.09375 -4.473344,0 -8.09375,-3.620403 -8.09375,-8.09375 l -2.3125,0 c 0,5.751442 4.65481,10.40625 10.40625,10.40625 5.75144,0 10.4375,-4.654808 10.4375,-10.40625 0,-4.891571 -3.391449,-9.005948 -7.9375,-10.125 l 6.6875,-6.65625 -16.125,0 z m 45.09375,0.4375 c 0.11261,-0.01588 0.17062,-0.0273 0.1875,0 0.29577,0.478581 1.62845,5.623867 1.8125,7.03125 0.11134,0.852179 0.1496,1.546597 0.0937,1.53125 -0.0558,-0.01526 -1.00874,-0.215703 -2.125,-0.4375 -1.116258,-0.221775 -2.061699,-0.421775 -2.09375,-0.46875 -0.03209,-0.04704 -0.342349,-1.21408 -0.6875,-2.59375 -0.345129,-1.379692 -0.718795,-2.800401 -0.8125,-3.125 -0.14464,-0.501178 0.143551,-0.681362 1.78125,-1.34375 0.79556,-0.321769 1.50592,-0.546121 1.84375,-0.59375 z M 39.5,56.25 c 0.140058,0 1.021042,0.344729 1.9375,0.75 1.469505,0.650266 1.642326,0.819484 1.46875,1.40625 -0.108185,0.365725 -0.471486,1.731629 -0.8125,3.0625 l -0.625,2.4375 L 40,64.21875 c -2.339367,0.501712 -2.910654,0.405404 -2.75,-0.375 C 38.4258,58.132855 38.978048,56.25 39.5,56.25 z m 114.15625,0.125 c -0.67735,0 -1.33573,0.211734 -1.84375,0.65625 -0.42334,0.381014 -0.77323,1.290448 -1.28125,2.6875 L 150.1875,60.625 c -0.16934,0.465684 -0.33166,0.758078 -0.4375,0.90625 -0.23284,0.359847 -0.4174,0.625 -1.03125,0.625 -0.21168,0 -0.44458,-0.110908 -0.65625,-0.34375 -0.50802,-0.550353 -0.59375,-1.189623 -0.59375,-2.375 0,-0.677358 0.16233,-1.515213 0.4375,-2.53125 l -1.40625,0 c -0.29634,1.037205 -0.46875,2.007135 -0.46875,2.875 0,0.804363 0.15224,1.541392 0.40625,2.21875 0.42335,1.016038 1.10295,1.90625 2.5,1.90625 1.60873,0 2.11698,-0.979953 2.625,-2.25 L 152,60.125 c 0.16934,-0.571521 0.45466,-1.03632 0.6875,-1.375 0.27518,-0.402181 0.62907,-0.59375 1.03125,-0.59375 1.01604,0 1.40625,1.128125 1.40625,2.25 0,1.248879 -0.24298,2.450708 -0.6875,3.59375 l 1.53125,0 c 0.40218,-0.931368 0.59375,-2.183609 0.59375,-3.75 0,-1.566391 -0.45472,-2.676475 -1.34375,-3.375 -0.44452,-0.359847 -1.01214,-0.5 -1.5625,-0.5 z m -148.5,2.5625 31.1875,3.96875 C 36.283419,63.334986 36.25,63.735705 36.25,63.9375 c 0,0.243752 -0.05686,0.433835 -0.125,0.59375 L 5.15625,61.4375 l 0,-2.5 z m 0,3.28125 30.9375,2.34375 c -0.08693,0.182208 -0.198163,0.292289 -0.375,0.34375 -0.181964,0.05294 -3.241606,0.585081 -5.625,1 L 5.15625,64.625 l 0,-2.40625 z m 130.8125,0.25 0,2.4375 -21.375,1.75 c -3.33355,-0.561577 -6.83184,-1.14703 -7.8125,-1.3125 -0.0571,-0.0096 -0.0997,-0.02126 -0.15625,-0.03125 l 29.34375,-2.84375 z M 5.15625,65.4375 29.8125,65.96875 c -1.252189,0.21739 -1.388036,0.248113 -2.875,0.5 -3.300617,0.559062 -8.898201,1.068436 -12.40625,1.375 l -9.375,-0.03125 0,-2.375 z m 130.8125,0.28125 0,2.46875 -14,0.5625 c 4.03714,-0.362691 7.78837,-0.657643 7.71875,-0.71875 -0.12111,-0.106272 -10.92903,-0.679716 -14.5,-1.28125 -0.11838,-0.01994 -0.1625,-0.01125 -0.28125,-0.03125 l 21.0625,-1 z m -74.1875,0.03125 0,6.9375 c 0,0.63905 0.5172,1.15625 1.15625,1.15625 0.63905,0 1.15625,-0.5172 1.15625,-1.15625 l 0,-6.9375 -2.3125,0 z m 37.75,0.71875 c 3.08134,0.265458 6.09573,0.468772 9.59375,0.84375 l 5.75,0.625 c -3.57938,0.155805 -12.18601,1.03145 -15.3125,1.03125 -0.03826,-0.805827 -0.256939,-0.99404 -0.03125,-2.5 z M 60.625,66.78125 c -2.368648,0.924288 -4.03125,3.208107 -4.03125,5.90625 0,3.514766 2.828981,6.375 6.34375,6.375 3.514769,0 6.375,-2.860234 6.375,-6.375 0,-2.698143 -1.691385,-4.981962 -4.0625,-5.90625 l 0,2.59375 c 1.050664,0.729944 1.75,1.935773 1.75,3.3125 0,2.236671 -1.825829,4.0625 -4.0625,4.0625 -2.236671,0 -4.03125,-1.825829 -4.03125,-4.0625 0,-1.374496 0.673588,-2.582171 1.71875,-3.3125 l 0,-2.59375 z M 149.71875,67 c -1.67223,0 -2.43655,0.379127 -3.15625,1.4375 -0.38101,0.571521 -0.5625,1.439623 -0.5625,2.625 0,1.185377 0.20166,2.336793 0.625,3.4375 l 1.375,0 c -0.27518,-0.867865 -0.53125,-2.350885 -0.53125,-3.21875 0,-1.270047 0.38314,-2.026238 1.1875,-2.34375 0.33868,-0.127005 0.85289,-0.1875 1.59375,-0.1875 l 0.0937,0 c 0.0423,1.566391 0.18349,2.827713 0.4375,3.84375 0.38101,1.354717 1.33785,2.5 3.03125,2.5 1.67223,0 2.78125,-1.471934 2.78125,-3.25 0,-1.143042 -0.38314,-2.203715 -1.1875,-3.15625 l 0.9375,-0.375 0,-1.3125 -6.625,0 z M 41.6875,68.125 c 0.148043,3.809051 -0.0011,3.145351 -11.78125,0.59375 C 28.906139,68.528537 27.589825,68.151268 41.6875,68.125 z M 12.375,68.28125 c 2.55366,0.154696 8.618103,0.395196 14.28125,1.375 0.541075,0.09361 0.916549,0.15861 1.4375,0.25 l -22.9375,1.125 0,-2.4375 7.21875,-0.3125 z m 139.25,0.46875 2.40625,0 c 0.59269,0.613856 0.97683,1.29947 1.125,2.125 0.0635,0.254009 0.0937,0.507075 0.0937,0.71875 0,0.254009 -0.0504,0.465743 -0.15625,0.65625 -0.27517,0.592688 -0.74906,1.125 -1.46875,1.125 -0.25401,0 -0.49599,-0.04941 -0.75,-0.21875 -0.55035,-0.338679 -0.89316,-0.904305 -1.0625,-1.6875 -0.0847,-0.423349 -0.14516,-1.321699 -0.1875,-2.71875 z m -32.71875,0.28125 17.0625,0.03125 0,2.375 -28.4375,-0.65625 c 1.53652,-0.277871 3.14447,-0.560598 6.40625,-1.125 1.25412,-0.217009 3.04646,-0.428652 4.96875,-0.625 z M 28.375,69.96875 c 3.489186,0.613765 6.446261,1.163162 6.875,1.28125 l -30.09375,3 0,-2.4375 23.21875,-1.84375 z m 78.96875,0.84375 28.625,1.4375 0,2.4375 -31.6875,-2.375 c 0.13339,-0.690279 0.35853,-0.9907 0.8125,-1.09375 0.0919,-0.02085 1.74004,-0.313719 2.25,-0.40625 z m -72,0.46875 c 0.517125,0.158483 0.699422,0.434333 0.9375,1.625 L 5.15625,77.5 l 0,-2.46875 30.1875,-3.75 z M 103.25,71.5625 103.0625,73.125 c -0.11001,0.863167 -0.54348,2.71408 -0.9375,4.09375 -0.39399,1.379692 -0.79453,2.588078 -0.90625,2.6875 -0.15153,0.134853 -3.516126,-1.03303 -3.78125,-1.3125 -0.024,-0.02533 0.30754,-1.460232 0.75,-3.15625 0.886899,-3.399664 0.731941,-3.217705 3.65625,-3.65625 L 103.25,71.5625 z m -66.03125,0.125 c 0.06134,-0.06134 1.063613,0.05925 2.21875,0.25 2.09942,0.346686 2.105027,0.342305 2.28125,1.40625 0.09698,0.585409 0.467349,1.995664 0.84375,3.15625 l 0.6875,2.125 -1.5,0.59375 C 40.914413,79.543817 39.985921,79.892193 39.71875,80 39.329093,80.157273 39.123754,79.842503 38.625,78.34375 37.979249,76.403293 37.023888,71.882362 37.21875,71.6875 z m 67.0625,0.65625 31.6875,3.1875 0,2.46875 -32.03125,-3.96875 32.03125,4.84375 0,2.53125 -32.40625,-5.75 32.40625,6.5625 0,2.625 -32.875,-7.53125 c 0.1634,-0.552584 0.32834,-1.099532 0.46875,-1.65625 0.13744,-0.544954 0.2614,-1.080662 0.375,-1.625 0.11066,-0.530243 0.22613,-1.068334 0.3125,-1.59375 0.006,-0.03797 0.0246,-0.05791 0.0312,-0.09375 z m -68,0.59375 c 0.05265,0.265629 0.09393,0.506052 0.15625,0.875 0.04273,0.252961 0.108807,0.500721 0.15625,0.75 l -31.4375,6.25 0,-2.53125 31.125,-5.34375 z m 0.3125,1.65625 c 0.10039,0.525067 0.221709,1.05203 0.34375,1.5625 l -31.78125,8.03125 0,-2.5625 31.4375,-7.03125 z m 0.34375,1.59375 c 0.134022,0.558359 0.27636,1.11241 0.4375,1.65625 0.156637,0.528644 0.316604,1.044742 0.5,1.5625 0.0012,0.0035 0.03,-0.0035 0.03125,0 0.190092,0.536049 0.404989,1.066305 0.625,1.59375 l -33.375,13.9375 0,-2.875 32.71875,-12.65625 -32.71875,11.8125 0,-2.75 32.21875,-10.625 -32.21875,9.8125 0,-2.6875 31.78125,-8.78125 z m 114.40625,1.03125 c -1.7569,0 -3.12005,0.463797 -4.09375,1.4375 -0.9102,0.931367 -1.34375,2.102949 -1.34375,3.5 0,0.825531 0.13007,1.664387 0.46875,2.46875 l -4.21875,0 0,1.75 14.1875,0 0,-1.25 -0.71875,-0.28125 c 0.59269,-0.9102 0.90625,-1.890213 0.90625,-2.90625 0,-3.111615 -2.13939,-4.71875 -5.1875,-4.71875 z m -48.25,0.125 32.875,8.34375 0,2.71875 -33.375,-9.4375 c 0.17938,-0.529209 0.34059,-1.087284 0.5,-1.625 z m -0.5,1.65625 33.375,10.28125 0,2.78125 -33.9375,-11.53125 33.9375,12.40625 0,2.9375 -34.625,-13.6875 34.625,14.625 0,3.0625 -35.3125,-16.15625 35.3125,17.09375 0,3.3125 -36.125,-18.875 36.125,19.8125 0,3.5625 -37.03125,-21.84375 37.03125,22.78125 0,3.84375 -38.03125,-25.125 38.03125,26.15625 0,4.15625 L 96.9375,89.6875 c 0.186649,-0.300525 0.527026,-0.755571 1,-1.40625 0.0055,-0.0076 -0.0056,-0.02362 0,-0.03125 0.05383,-0.07397 0.100719,-0.111931 0.15625,-0.1875 0.289399,-0.393815 0.564379,-0.843304 0.84375,-1.28125 0.308766,-0.484025 0.612616,-1.000622 0.90625,-1.53125 0.27193,-0.491403 0.5248,-1.006212 0.78125,-1.53125 l 0.0312,0 c 0.24312,-0.498229 0.46042,-1.008142 0.6875,-1.53125 0.2376,-0.547347 0.46977,-1.087486 0.6875,-1.65625 0.19443,-0.507892 0.38569,-1.010774 0.5625,-1.53125 z m 48.625,0 c 2.30725,0 3.875,1.089918 3.875,3.3125 0,1.058373 -0.22282,1.613974 -0.625,2.3125 l -6.71875,0 c -0.31751,-0.740861 -0.46875,-1.476887 -0.46875,-2.28125 0,-2.201415 1.65141,-3.34375 3.9375,-3.34375 z M 97,79.875 c 0.395084,0 3.5625,1.444795 3.5625,1.625 0,0.389969 -1.650802,3.416905 -2.875,5.25 -0.736032,1.102046 -1.447175,2.053714 -1.5625,2.125 -0.115302,0.07126 -0.750312,-0.67658 -1.4375,-1.65625 l -1.25,-1.78125 1.03125,-1.5625 C 95.033963,83.023711 95.777291,81.775244 96.125,81.09375 96.472642,80.412256 96.86121,79.875 97,79.875 z m -53.34375,0.15625 c 0.104473,-0.01199 0.175845,-0.002 0.1875,0.03125 0.120218,0.34306 2.354204,4.2875 2.75,4.84375 0.26181,0.367905 0.103447,0.792594 -0.78125,2.125 -0.612255,0.922152 -1.212678,1.6875 -1.34375,1.6875 -0.532562,0 -3.913946,-5.223444 -4.25,-6.5625 -0.162722,-0.64822 -0.02725,-0.801157 1.65625,-1.53125 0.766314,-0.332379 1.467832,-0.557775 1.78125,-0.59375 z m -5.125,1 c 0.213856,0.511395 0.444334,1.025027 0.6875,1.53125 l -34.0625,16.3125 0,-3.0625 33.375,-14.78125 z m 0.6875,1.5625 c 0.246708,0.512487 0.503307,1.021099 0.78125,1.53125 0.265956,0.488148 0.548141,0.980111 0.84375,1.46875 0.0045,0.0075 -0.0045,0.02379 0,0.03125 0.278455,0.459593 0.569417,0.91273 0.875,1.375 0.02374,0.03592 0.03896,0.05807 0.0625,0.09375 0.358516,0.543479 0.656461,0.996406 0.9375,1.4375 0.506729,0.795314 0.90625,1.413405 0.90625,1.46875 0,0.0011 -0.0305,0.0603 -0.03125,0.0625 -9.44e-4,0.0028 -0.06039,0.05809 -0.0625,0.0625 C 43.411965,90.373832 41.474068,93.234426 39,96.75 l -33.84375,31.8125 0,-4.96875 38.375,-33.46875 -38.375,32.46875 0,-4.5 37.5625,-29.5625 -37.5625,28.5 0,-4.03125 36.625,-25.90625 L 5.15625,112 l 0,-3.75 35.6875,-22.625 -35.6875,21.75 0,-3.5 L 40,84.125 5.15625,103 l 0,-3.28125 34.0625,-17.125 z m 53.1875,4.4375 c 0.06649,-0.0024 0.112533,0.01664 0.15625,0.0625 0.150801,0.158252 2.002893,2.725224 4.125,5.6875 2.122152,2.962276 3.8514,5.375 3.8125,5.375 -0.0389,0 -2.232964,-2.166772 -4.875,-4.8125 l -4.8125,-4.8125 0.75,-0.84375 c 0.354798,-0.4129 0.64428,-0.649185 0.84375,-0.65625 z m -42.59375,1.53125 0.875,0.90625 0.875,0.875 -5.34375,3.84375 c -2.93752,2.110141 -5.509475,3.879337 -5.6875,3.9375 C 40.35327,98.18318 42.363614,96.059607 45,93.40625 l 4.8125,-4.84375 z m 99.625,0.46875 c -2.03207,0 -3.5,1.091923 -3.5,3.1875 0,0.465684 0.0706,0.970814 0.21875,1.5 0.12701,0.465684 0.4799,1.1523 1.09375,2.0625 -0.76203,0.550353 -1.3125,1.418455 -1.3125,2.625 0,0.444516 0.0605,0.919399 0.1875,1.40625 0.127,0.42334 0.39923,0.98898 0.84375,1.6875 l -0.78125,0.34375 0,1.21875 10.15625,0 0,-1.75 -8.21875,0 c -0.50802,-0.88904 -0.78125,-1.68756 -0.78125,-2.34375 0,-1.439387 0.93361,-2.03125 2.5,-2.03125 l 6.5,0 0,-1.71875 -6.90625,0 c -0.48685,0 -0.89115,0.04033 -1.1875,0.125 -0.59269,-0.99487 -0.90625,-1.85289 -0.90625,-2.59375 0,-1.418219 0.95478,-2 2.5,-2 l 6.5,0 0,-1.71875 -6.90625,0 z m -52.5,0.6875 39.03125,29.90625 0,4.625 L 99.5625,94.21875 C 97.991729,91.970572 96.75,90.101075 96.75,90.03125 c 0,-0.01973 0.123437,-0.208054 0.1875,-0.3125 z M 53,91.3125 l 1.15625,0.84375 c 0.637522,0.460743 1.84573,1.169573 2.6875,1.5625 0.841792,0.392971 1.53125,0.881784 1.53125,1.09375 0,0.211966 -0.291037,1.103737 -0.65625,2 -0.365213,0.896285 -0.731361,1.625 -0.8125,1.625 C 56.260032,98.433 51.671351,95.78205 50.0625,94.46875 L 49.28125,93.84375 51.125,92.5625 53,91.3125 z m 34.53125,0.15625 1.84375,1.25 L 91.1875,94 88.71875,95.59375 c -1.356694,0.880204 -3.004115,1.873732 -3.6875,2.21875 -0.683407,0.344951 -1.311722,0.65625 -1.375,0.65625 -0.137678,0 -1.6875,-3.619907 -1.6875,-3.9375 4.45e-4,-0.12173 0.188701,-0.21875 0.40625,-0.21875 0.217571,0 1.469952,-0.649378 2.78125,-1.4375 l 2.375,-1.40625 z m 12.09375,2.84375 36.34375,31 0,5.1875 -30.375,-27.71875 c -0.0256,-0.0367 -0.0364,-0.0566 -0.0625,-0.0937 -0.89907,-1.28147 -3.24727,-4.604406 -5.21875,-7.40625 -0.2633,-0.374202 -0.439979,-0.614704 -0.6875,-0.96875 z m -7.65625,0.25 6.4375,4.53125 32.8125,34.46875 -5.125,0 -34.28125,-38.875 33.25,38.875 -4.75,0 -30.03125,-37.71875 29,37.71875 -4.25,0 -26.15625,-36.75 c 0.495944,-0.317981 0.955573,-0.636697 1.40625,-0.96875 0.197746,-0.145697 0.405933,-0.289608 0.59375,-0.4375 l 0.9375,-0.71875 0.15625,-0.125 z M 48.1875,94.71875 c 0.07371,-0.02829 0.290882,0.08218 0.59375,0.25 0.394573,0.218627 0.918069,0.553502 1.46875,0.96875 0.01078,0.0081 0.02042,0.02312 0.03125,0.03125 0.453432,0.340207 0.963773,0.695782 1.5,1.03125 l -22.46875,36.5625 -4,0 24.96875,-37.59375 -26,37.59375 -4.34375,0 28.84375,-38.59375 -29.875,38.59375 -4.6875,0 L 44.5,97.25 c 1.998325,-1.384182 3.578926,-2.489585 3.6875,-2.53125 z m 32.3125,0.5 c 0.18621,0 1.348821,2.664191 1.53125,3.5 0.11161,0.511343 -1.47716,1.073955 -5.03125,1.8125 -1.519283,0.31572 -2.899956,0.59375 -3.0625,0.59375 -0.171975,0 -0.225423,-0.41043 -0.125,-0.96875 0.09488,-0.527535 0.271263,-1.513368 0.375,-2.1875 0.182317,-1.18463 0.237634,-1.248199 1.5,-1.4375 0.718371,-0.10774 2.056807,-0.43621 2.96875,-0.75 0.911943,-0.313745 1.736677,-0.5625 1.84375,-0.5625 z m -20.34375,0.1875 c 0.229248,0.03016 1.633942,0.347798 3.125,0.71875 L 66,96.8125 66.3125,98.625 c 0.172687,0.991881 0.3125,1.96668 0.3125,2.15625 0,0.18961 -0.172086,0.30038 -0.375,0.28125 -2.136231,-0.201 -7.47956,-1.593684 -7.75,-2.03125 -0.264012,-0.427268 1.221108,-3.682229 1.65625,-3.625 z m 28.6875,1.40625 25.15625,36.75 -3.96875,0 L 87.3125,97.75 l 21.75,35.8125 -3.71875,0 -19.71875,-34.90625 18.78125,34.90625 -3.46875,0 -16.96875,-34.15625 c 0.561917,-0.245677 1.111995,-0.480523 1.65625,-0.75 0.565331,-0.279913 1.118774,-0.604384 1.65625,-0.90625 0.0079,-0.0044 0.0234,0.0044 0.03125,0 0.53351,-0.300193 1.034183,-0.619428 1.53125,-0.9375 z M 38.875,96.9375 c -0.10299,0.146248 -0.176729,0.226783 -0.28125,0.375 -2.766012,3.92233 -4.979849,7.17638 -4.90625,7.25 0.03802,0.038 0.940955,-0.54826 2.3125,-1.46875 l -29.1875,30.46875 -1.65625,0 0,-3.875 33.71875,-32.75 z M 69.96875,97 c 1.069083,0.09749 1.891415,0.05694 2.8125,0.03125 -1.015435,7.25095 -2.035187,16.78477 -2.46875,19.0625 C 70.176868,114.22689 70.032206,101.28701 69.96875,97 z M 51.8125,97.03125 c 0.489217,0.304991 1.021917,0.580892 1.5625,0.875 L 34,133.5625 l -3.75,0 21.5625,-36.53125 z m -7.4375,0.28125 -31.25,36.25 -5.15625,0 28.25,-30.59375 c 1.264245,-0.85077 2.837279,-1.93355 4.625,-3.1875 1.348037,-0.945557 2.429557,-1.705288 3.53125,-2.46875 z m 9.03125,0.625 c 0.511446,0.277408 1.050688,0.519306 1.59375,0.78125 l -16.5625,34.84375 -3.46875,0 18.4375,-35.625 z m 1.625,0.8125 c 0.539569,0.259556 1.09905,0.479913 1.65625,0.71875 L 42.75,133.5625 l -3.34375,0 15.625,-34.8125 z m 43.53125,0.4375 0.71875,0.5 c 4.01937,2.81859 7.43347,5.15465 7.59375,5.21875 0.14338,0.0574 -0.38021,-0.78923 -1.125,-1.875 l 30.21875,28.5625 0,1.96875 -3.625,0 -33.78125,-34.375 z m -14.625,0.25 16.03125,34.125 -3.3125,0 L 82.25,100.125 c 0.568628,-0.216823 1.128273,-0.443711 1.6875,-0.6875 z M 56.71875,99.5 c 0.555147,0.237323 1.096929,0.476129 1.65625,0.6875 l -11.5625,33.375 -3.1875,0 L 56.71875,99.5 z m 25.5,0.625 13.53125,33.4375 -3.15625,0 -12.125,-32.8125 11.21875,32.8125 -3.03125,0 -9.96875,-32.28125 9.09375,32.28125 -2.9375,0 -8,-31.875 c 0.605889,-0.12028 1.219007,-0.23987 1.84375,-0.40625 0.588998,-0.15686 1.184785,-0.33735 1.78125,-0.53125 0.582376,-0.18932 1.169,-0.40396 1.75,-0.625 z m -23.8125,0.0625 c 0.58036,0.21885 1.148375,0.43997 1.71875,0.625 l -9.375,32.75 -3.0625,0 10.71875,-33.375 z m 1.75,0.625 c 0.591988,0.1915 1.184991,0.35155 1.75,0.5 0.0024,6.3e-4 -0.0024,0.0306 0,0.0312 0.634129,0.16643 1.234198,0.27169 1.8125,0.375 l -5.375,31.84375 -2.875,0 6.4375,-32.21875 -7.28125,32.21875 -3,0 8.53125,-32.75 z m 16.65625,0.875 7.125,31.875 -2.875,0 -6.03125,-31.53125 c 0.133566,-0.0208 0.234623,-0.0432 0.375,-0.0625 0.456421,-0.0627 0.932289,-0.18773 1.40625,-0.28125 z M 63.75,101.7187 c 0.415818,0.0736 0.842403,0.15097 1.21875,0.1875 0.257092,0.025 0.431647,0.0654 0.625,0.0937 0.0095,0.001 0.02193,-10e-4 0.03125,0 0.828618,0.12433 1.152166,0.31592 1.3125,0.71875 0.04865,0.12223 0.232217,1.08092 0.40625,1.96875 l -1.65625,28.875 -2.78125,0 2.6875,-31.5625 -3.5625,31.5625 -2.8125,0 4.53125,-31.84375 z m 11.25,0.3125 5.25,31.53125 -2.8125,0 -3.96875,-30.71875 c 0.01977,-0.0763 0.0857,-0.49195 0.09375,-0.5 0.06938,-0.0694 0.697815,-0.1959 1.4375,-0.3125 z m -1.5625,0.9375 3.09375,30.59375 -2.78125,0 -1.96875,-21.65625 c 0.05897,-0.35075 0.09291,-0.67114 0.15625,-1.03125 0.712191,-4.04916 1.295973,-7.06877 1.5,-7.90625 z m -6.03125,1.96875 c 0.310189,1.6079 0.677187,3.7315 1.125,6.34375 0.559463,3.26335 0.995433,10.21766 1.21875,13.65625 0.0016,0.0248 -0.0016,0.0693 0,0.0937 l -0.46875,8.53125 -2.75,0 0.875,-28.625 z m 74.25,0.6875 0,8.59375 14.6875,0 0,-8.59375 -1.53125,0 0,6.8125 -5.25,0 0,-6.25 -1.5625,0 0,6.25 -4.78125,0 0,-6.8125 -1.5625,0 z m -69.9375,6.59375 c 0.123423,2.24984 0.73409,12.85139 1.1875,21.34375 l -2.71875,0 0,-8.875 c 0.197351,-2.42385 0.568714,-6.66388 1.53125,-12.46875 z m -66.5625,23.21875 130.8125,0 0,9.3125 -12.75,0 c 1.71671,-0.14904 2.15625,-1.35698 2.15625,-2.375 l 0,-4.6875 -0.84375,0 -0.0625,0.1875 c -0.62867,-0.28576 -1.02824,-0.28125 -1.21875,-0.28125 -0.91443,0 -2.40625,0.58691 -2.40625,2.40625 0,1.75266 1.27691,2.375 2.34375,2.375 0.39054,0 0.74816,-0.0949 1.0625,-0.21875 l 0,0.0312 c 0,0.73345 -0.20188,1.59375 -1.46875,1.59375 -0.42864,0 -0.83924,-0.1235 -1.125,-0.21875 l -0.1875,-0.0625 -0.34375,0.90625 0.1875,0.0625 c 0.43656,0.16899 0.82983,0.24585 1.1875,0.28125 l -31.1875,0 c 1.716717,-0.14904 2.15625,-1.35698 2.15625,-2.375 l 0,-4.6875 -0.875,0 -0.0625,0.1875 c -0.628673,-0.28576 -0.996993,-0.28125 -1.1875,-0.28125 -0.914434,0 -2.4375,0.58691 -2.4375,2.40625 0,1.75266 1.276911,2.375 2.34375,2.375 0.390539,0 0.748163,-0.0949 1.0625,-0.21875 l 0,0.0312 c 0,0.73345 -0.201878,1.59375 -1.46875,1.59375 -0.428641,0 -0.807989,-0.1235 -1.09375,-0.21875 l -0.1875,-0.0625 -0.34375,0.90625 0.15625,0.0625 c 0.442929,0.17146 0.848645,0.24694 1.21875,0.28125 l -38,0 0,-2.53125 c 0.276235,0.0952 0.597261,0.15625 0.96875,0.15625 1.400227,0 2.40625,-0.90392 2.40625,-2.4375 0,-1.79077 -1.281088,-2.34375 -2.28125,-2.34375 -0.390539,0 -0.867482,0.0934 -1.34375,0.3125 l -0.09375,-0.2186 -0.84375,0 0,7.0625 -46.25,0 0,-9.3125 z m 9.21875,0.21875 0,6.625 1.1875,0 0,-2.875 3.15625,0 0,2.875 1.1875,0 0,-6.625 -1.1875,0 0,2.65625 -3.15625,0 0,-2.65625 -1.1875,0 z m 17.28125,0 0,6.625 1.125,0 0,-2.28125 2.03125,2.28125 1.40625,0 -2.34375,-2.59375 2.28125,-2.09375 -1.375,0 -2,1.9375 0,-3.875 -1.125,0 z m 43.90625,0 0,6.625 1.15625,0 0,-4.9375 1.6875,3.03125 1,0 1.6875,-3.03125 0,4.9375 1.15625,0 0,-6.625 -1.3125,0 -2.03125,3.8125 -1.96875,-3.8125 -1.375,0 z m 30.15625,0 0,6.625 0.84375,0 0.0625,-0.15625 c 0.31434,0.13335 0.75201,0.25 1.21875,0.25 1.41928,0 2.40625,-0.93517 2.40625,-2.46875 0,-1.80029 -1.28109,-2.3125 -2.28125,-2.3125 -0.40959,0 -0.77941,0.0637 -1.09375,0.1875 l 0,-2.125 -1.15625,0 z m -7.78125,0.0312 0,2.0625 c -0.285761,-0.0952 -0.597261,-0.15625 -0.96875,-0.15625 -1.381176,0 -2.4375,0.85897 -2.4375,2.46875 0,1.74314 1.233461,2.3125 2.28125,2.3125 0.400065,0 0.896058,-0.0934 1.34375,-0.3125 l 0.09375,0.21875 0.8125,0 0,-6.59375 -1.125,0 z m -74.5625,1.90625 c -0.561996,0 -1.190678,0.11247 -1.78125,0.3125 l -0.15625,0.0312 0.21875,0.9375 0.1875,-0.0625 c 0.666775,-0.16193 1.098765,-0.21875 1.375,-0.21875 1.038263,0 1.125,0.52524 1.125,0.90625 l 0,0.0625 c -1.876494,0 -3.1875,0.0944 -3.1875,1.4375 0,0.70488 0.746831,1.375 1.9375,1.375 0.55247,0 1.044287,-0.17764 1.40625,-0.40625 l 0.125,0.3125 0.875,0 0,-3.03125 c 0,-0.88586 -0.400911,-1.65625 -2.125,-1.65625 z m 5.71875,0 c -1.257346,0 -2.5625,0.60178 -2.5625,2.46875 0,1.79077 1.297132,2.3125 2.46875,2.3125 0.428641,0 0.954381,-0.0812 1.46875,-0.28125 l 0.15625,-0.0625 -0.3125,-0.875 -0.1875,0.0625 c -0.257184,0.0952 -0.507689,0.125 -0.8125,0.125 -0.971586,0 -1.65625,-0.37751 -1.65625,-1.40625 0,-1.03826 0.790947,-1.3125 1.5625,-1.3125 0.352438,0 0.663939,0.0515 0.96875,0.15625 l 0.1875,0.0937 0.3125,-0.9375 L 30.5,137.875 c -0.428641,-0.19051 -0.891881,-0.28125 -1.40625,-0.28125 z m 10.125,0 c -1.381176,0 -2.4375,0.76906 -2.4375,2.53125 0,1.06684 0.540452,2.21875 2.53125,2.21875 0.609622,0 1.004682,-0.0324 1.5,-0.15625 l 0.15625,-0.0312 0,-0.96875 c 0,0 -0.774903,0.15625 -1.375,0.15625 -1.08589,0 -1.457721,-0.40291 -1.5625,-0.8125 l 3.28125,0 0,-0.59375 c 0,-0.97159 -0.588744,-2.34375 -2.09375,-2.34375 z m 5.4375,0 c -0.53342,0 -1.037435,0.11247 -1.4375,0.3125 l -0.125,-0.21875 -0.78125,0 0,4.59375 1.15625,0 0,-3.4375 c 0.323862,-0.14288 0.700537,-0.21875 1.0625,-0.21875 0.257184,0 0.468417,0.0393 0.6875,0.125 l 0.1875,0.0625 0.34375,-0.9375 -0.15625,-0.0937 c -0.304811,-0.14288 -0.613638,-0.1875 -0.9375,-0.1875 z m 4.125,0 c -1.857444,0 -2.375,0.8755 -2.375,1.4375 0,1.50501 2.743149,1.29395 2.78125,1.875 0,0.32386 -0.307323,0.46875 -1.03125,0.46875 -0.400065,0 -0.765378,-0.0839 -1.375,-0.3125 L 46.59375,141 46.25,141.9375 46.4375,142 c 0.695351,0.28576 1.27791,0.375 1.6875,0.375 1.866969,0 2.3125,-0.86865 2.3125,-1.46875 0.01905,-1.41928 -2.8125,-1.35111 -2.8125,-1.875 0,-0.1143 0.107291,-0.46875 1.03125,-0.46875 0.485793,0 0.788939,0.0705 1.09375,0.15625 l 0.1875,0.0625 0.3125,-0.9375 -0.1875,-0.0625 c -0.323862,-0.0952 -0.624001,-0.1875 -1.28125,-0.1875 z m 10.28125,0 c -0.561996,0 -1.190678,0.11247 -1.78125,0.3125 l -0.1875,0.0312 0.25,0.9375 0.1875,-0.0625 c 0.666775,-0.16193 1.098765,-0.21875 1.375,-0.21875 1.038263,0 1.125,0.52524 1.125,0.90625 l 0,0.0625 c -1.876494,0 -3.1875,0.0944 -3.1875,1.4375 0,0.70488 0.746831,1.375 1.9375,1.375 0.55247,0 1.044287,-0.17764 1.40625,-0.40625 l 0.125,0.3125 0.875,0 0,-3.03125 c 0,-0.88586 -0.400911,-1.65625 -2.125,-1.65625 z m 5.71875,0 c -1.257346,0 -2.5625,0.60178 -2.5625,2.46875 0,1.79077 1.297132,2.3125 2.46875,2.3125 0.428641,0 0.954381,-0.0812 1.46875,-0.28125 l 0.15625,-0.0625 -0.3125,-0.875 -0.1875,0.0625 c -0.257184,0.0952 -0.538939,0.125 -0.84375,0.125 -0.971586,0 -1.625,-0.37751 -1.625,-1.40625 0,-1.03826 0.790947,-1.3125 1.5625,-1.3125 0.352438,0 0.663939,0.0515 0.96875,0.15625 l 0.1875,0.0937 0.3125,-0.9375 -0.1875,-0.0625 c -0.428641,-0.19051 -0.891881,-0.28125 -1.40625,-0.28125 z m 4.8125,0 c -1.381176,0 -2.4375,0.76906 -2.4375,2.53125 0,1.06684 0.540452,2.21875 2.53125,2.21875 0.609622,0 1.004682,-0.0324 1.5,-0.15625 l 0.15625,-0.0312 0,-0.96875 c 0,0 -0.774903,0.15625 -1.375,0.15625 -1.08589,0 -1.488971,-0.40291 -1.59375,-0.8125 l 3.3125,0 0,-0.59375 c 0,-0.97159 -0.588744,-2.34375 -2.09375,-2.34375 z m 16.15625,0 c -0.561996,0 -1.221928,0.11247 -1.8125,0.3125 l -0.15625,0.0312 0.25,0.9375 0.1875,-0.0625 c 0.666775,-0.16193 1.098765,-0.21875 1.375,-0.21875 1.038263,0 1.125,0.52524 1.125,0.90625 l 0,0.0625 c -1.876494,0 -3.1875,0.0944 -3.1875,1.4375 0,0.70488 0.746831,1.375 1.9375,1.375 0.55247,0 1.044287,-0.17764 1.40625,-0.40625 l 0.125,0.3125 0.84375,0 0,-3.03125 c 0,-0.88586 -0.369661,-1.65625 -2.09375,-1.65625 z m 16.84375,0 c -1.38118,0 -2.4375,0.76906 -2.4375,2.53125 0,1.06684 0.54045,2.21875 2.53125,2.21875 0.60962,0 1.00468,-0.0324 1.5,-0.15625 l 0.15625,-0.0312 0,-0.96875 c 0,0 -0.7749,0.15625 -1.375,0.15625 -1.08589,0 -1.48897,-0.40291 -1.59375,-0.8125 l 3.3125,0 0,-0.59375 c 0,-0.97159 -0.58874,-2.34375 -2.09375,-2.34375 z m 16.625,0 c -0.53342,0 -1.00619,0.11247 -1.40625,0.3125 l -0.15625,-0.21875 -0.75,0 0,4.59375 1.15625,0 0,-3.4375 c 0.32386,-0.14288 0.70054,-0.21875 1.0625,-0.21875 0.25718,0 0.46842,0.0393 0.6875,0.125 l 0.1875,0.0625 0.34375,-0.9375 -0.15625,-0.0937 c -0.30481,-0.14288 -0.64489,-0.1875 -0.96875,-0.1875 z m -7.875,0.0937 0,2.71875 c 0,0.93348 0.18249,1.96875 1.6875,1.96875 0.37149,0 0.93917,-0.0824 1.625,-0.40625 l 0.15625,0.3125 0.84375,0 0,-4.59375 -1.125,0 0,3.34375 c -0.25718,0.10478 -0.69636,0.28125 -1.125,0.28125 -0.88586,0 -0.9375,-0.63269 -0.9375,-0.9375 l 0,-2.6875 -1.125,0 z m -72.1875,0.875 c 0.55247,0 1.03125,0.36565 1.03125,1.15625 l -2.15625,0 c 0,-0.57152 0.343921,-1.15625 1.125,-1.15625 z m 30.34375,0 c 0.55247,0 1.03125,0.36565 1.03125,1.15625 l -2.125,0 c 0,-0.57152 0.312671,-1.15625 1.09375,-1.15625 z m 27.5625,0 c 0.323862,0 0.655917,0.0583 0.875,0.125 l 0,2.5 c -0.219083,0.0857 -0.519888,0.15625 -0.84375,0.15625 -0.571521,0 -1.4375,-0.23463 -1.4375,-1.40625 0,-1.16209 0.844254,-1.375 1.40625,-1.375 z m 5.4375,0 c 0.55247,0 1.03125,0.36565 1.03125,1.15625 l -2.125,0 c 0,-0.57152 0.31267,-1.15625 1.09375,-1.15625 z m -49.0625,0.0312 c 0.561996,0 1.40625,0.21826 1.40625,1.4375 0,1.09542 -0.834729,1.34375 -1.40625,1.34375 -0.323862,0 -0.624667,-0.0583 -0.84375,-0.125 l 0,-2.46875 c 0.304811,-0.1143 0.586566,-0.1875 0.84375,-0.1875 z m 37.9375,0 c 0.180982,0 0.508859,0.0134 0.9375,0.15625 l 0,2.4375 c -0.228608,0.0857 -0.510363,0.15625 -0.84375,0.15625 -0.933484,0 -1.375,-0.63737 -1.375,-1.4375 0,-0.80965 0.509697,-1.3125 1.28125,-1.3125 z m 16.3125,0 c 0.57152,0 1.4375,0.21826 1.4375,1.4375 0,1.10494 -0.83473,1.34375 -1.40625,1.34375 -0.32386,0 -0.63419,-0.0583 -0.84375,-0.125 l 0,-2.5 c 0.29529,-0.1143 0.56484,-0.15625 0.8125,-0.15625 z m 15.625,0 c 0.18098,0 0.50886,0.0134 0.9375,0.15625 l 0,2.4375 c -0.22861,0.0857 -0.51036,0.15625 -0.84375,0.15625 -0.93348,0 -1.375,-0.63737 -1.375,-1.4375 0,-0.80965 0.5097,-1.3125 1.28125,-1.3125 z m -99.875,1.8125 c 0.232487,-0.009 0.51007,0 0.8125,0 l 0.09375,0 0,0.6875 c -0.428641,0.29529 -0.895221,0.28125 -1,0.28125 -0.571521,0 -0.96875,-0.16394 -0.96875,-0.46875 0,-0.36434 0.365039,-0.47323 1.0625,-0.5 z m 35.65625,0 c 0.229557,-0.009 0.51007,0 0.8125,0 l 0.125,0 0,0.6875 c -0.428641,0.29529 -0.895221,0.28125 -1,0.28125 -0.571521,0 -0.96875,-0.16394 -0.96875,-0.46875 0,-0.36434 0.342578,-0.47323 1.03125,-0.5 z m 26.6875,0 c 0.229557,-0.009 0.51007,0 0.8125,0 l 0.125,0 0,0.6875 c -0.428641,0.29529 -0.926471,0.28125 -1.03125,0.28125 -0.571521,0 -0.9375,-0.16394 -0.9375,-0.46875 0,-0.36434 0.342578,-0.47323 1.03125,-0.5 z m -80.625,6.25 157.25,0 0,36.96875 -135.84375,0 2.625,-7.0625 -0.75,0 -1.5,4.09375 -1.53125,-4.09375 -0.78125,0 1.96875,5 -0.84375,2.0625 -20.59375,0 0,-36.96875 z M 6.75,174.4375 l 0,6.9375 4.0625,0 0,-0.71875 -3.21875,0 0,-2.5 2.9375,0 0,-0.71875 -2.9375,0 0,-2.28125 3.21875,0 0,-0.71875 -4.0625,0 z m 11.75,0.875 -0.8125,0.0312 0,1.21875 -0.8125,0 0,0.65625 0.8125,0 0,2.65625 c 0,1.02 0.333751,1.59375 1.34375,1.59375 0.339999,0 0.6925,-0.0675 1.0625,-0.1875 l 0,-0.59375 c -0.26,0.07 -0.522501,0.0937 -0.8125,0.0937 -0.62,0 -0.78125,-0.31875 -0.78125,-0.96875 l 0,-2.59375 1.59375,0 0,-0.65625 -1.59375,0 0,-1.25 z m -4.03125,1.15625 c -0.509999,0 -1.10875,0.14875 -1.71875,0.46875 l -0.15625,-0.34375 -0.5625,0 0,4.78125 0.8125,0 0,-3.875 c 0.49,-0.23 0.963751,-0.34375 1.34375,-0.34375 0.38,0 0.62125,0.07 0.78125,0.25 0.16,0.18 0.25,0.49625 0.25,0.90625 l 0,3.0625 0.8125,0 0,-3.25 c 0,-0.52 -0.13625,-0.92875 -0.40625,-1.21875 -0.27,-0.29 -0.64625,-0.4375 -1.15625,-0.4375 z m 9,0 c -0.469999,0 -0.91375,0.17 -1.34375,0.5 l -0.15625,-0.40625 -0.59375,0 0,4.8125 0.8125,0 0,-3.8125 c 0.35,-0.23 0.703751,-0.375 1.09375,-0.375 0.24,0 0.5,0.0875 0.75,0.1875 l 0.09375,0 0,-0.8125 c -0.21,-0.06 -0.42625,-0.0937 -0.65625,-0.0937 z m -18.3125,8.21875 157.25,0 0,35.3125 c 0,0.76821 -0.57554,1.375 -1.34375,1.375 l -154.5625,0 c -0.7682129,0 -1.34375,-0.60679 -1.34375,-1.375 l 0,-35.3125 z m 1.71875,27.53125 0,6.9375 4.03125,0 0,-0.75 -3.21875,0 0,-2.46875 2.96875,0 0,-0.71875 -2.96875,0 0,-2.28125 3.21875,0 0,-0.71875 -4.03125,0 z m 10.375,0.25 0,0.8125 0.8125,0 0,-0.8125 -0.8125,0 z m 3.28125,0.59375 -0.8125,0.0625 0,1.1875 -0.8125,0 0,0.6875 0.8125,0 0,2.65625 c 0,1.02 0.333751,1.59375 1.34375,1.59375 0.34,0 0.692501,-0.0675 1.0625,-0.1875 l 0,-0.625 c -0.259999,0.07 -0.5225,0.125 -0.8125,0.125 -0.619999,0 -0.78125,-0.31875 -0.78125,-0.96875 l 0,-2.59375 1.59375,0 0,-0.6875 -1.59375,0 0,-1.25 z m -8.6875,1.25 1.75,2.46875 -1.6875,2.375 0.84375,0 1.25,-1.8125 1.28125,1.8125 0.9375,0 -1.6875,-2.375 1.78125,-2.46875 -0.875,0 -1.3125,1.9375 -1.34375,-1.9375 -0.9375,0 z m 5.40625,0 0,4.84375 0.8125,0 0,-4.84375 -0.8125,0 z"
       transform="matrix(4.496003,0,0,4.496003,279.72409,-220.01919)"
       id="path4466-2-4-8-5-5-7-9-5-1"
       style="fill:#000000" />
    <g
       transform="translate(448.59396,-60.236733)"
       id="g3032-0-3-7-7-5"
       style="fill:#000000">
      <g
         transform="translate(-451.17391,-70.82263)"
         id="g4413-9-5-7-7-0"
         style="fill:#000000">
        <g
           transform="matrix(-1,0,0,-1,1130.6373,475.18252)"
           id="g4409-68-5-8-6-3"
           style="fill:#000000" />
      </g>
    </g>
  </g>
  <g
     id="text4647-90"
     style="font-size:10px;font-style:normal;font-variant:normal;font-weight:normal;font-stretch:normal;line-height:125%;letter-spacing:0px;word-spacing:0px;fill:#000000;fill-opacity:1;stroke:none;font-family:Cantarell;-inkscape-font-specification:Cantarell" />
  <g
     id="text4651-71"
     style="font-size:10px;font-style:normal;font-variant:normal;font-weight:normal;font-stretch:normal;line-height:125%;letter-spacing:0px;word-spacing:0px;fill:#000000;fill-opacity:1;stroke:none;font-family:Galette;-inkscape-font-specification:Cantarell" />
  <g
     transform="matrix(0,-1,1,0,0,0)"
     id="text4081-6"
     style="font-size:21.16746902px;font-style:normal;font-variant:normal;font-weight:normal;font-stretch:normal;line-height:125%;letter-spacing:0px;word-spacing:0px;fill:#000000;fill-opacity:1;stroke:none;font-family:Cantarell;-inkscape-font-specification:Cantarell" />
  <g
     transform="matrix(1.0583735,0,0,1.0583735,-3.1165232,-3.6107734)"
     id="g3712" />
  <text
     x="-108.09734"
     y="93.630898"
     id="text3560"
     xml:space="preserve"
     style="font-size:40px;font-style:normal;font-variant:normal;font-weight:600;font-stretch:normal;line-height:125%;letter-spacing:0px;word-spacing:0px;fill:#000000;fill-opacity:1;stroke:none;font-family:Galette;-inkscape-font-specification:Galette Semi-Bold"><tspan
       x="-108.09734"
       y="93.630898"
       id="tspan3562" /></text>
</svg>
