<?xml version="1.0" encoding="UTF-8" standalone="no"?>
<!-- Created with Inkscape (http://www.inkscape.org/) -->

<svg
   xmlns:dc="http://purl.org/dc/elements/1.1/"
   xmlns:cc="http://creativecommons.org/ns#"
   xmlns:rdf="http://www.w3.org/1999/02/22-rdf-syntax-ns#"
   xmlns:svg="http://www.w3.org/2000/svg"
   xmlns="http://www.w3.org/2000/svg"
   version="1.1"
   width="951.77753"
   height="1013.5003"
   id="svg4235">
  <defs
     id="defs4237" />
  <metadata
     id="metadata4240">
    <rdf:RDF>
      <cc:Work
         rdf:about="">
        <dc:format>image/svg+xml</dc:format>
        <dc:type
           rdf:resource="http://purl.org/dc/dcmitype/StillImage" />
        <dc:title></dc:title>
      </cc:Work>
    </rdf:RDF>
  </metadata>
  <path
     d="m 464.1388,926.1967 c -0.8402,-3.82555 -5.7702,-44.51556 -10.9555,-90.42223 -5.1853,-45.90667 -10.0751,-86.43666 -10.8663,-90.06666 -1.131,-5.18928 -4.5836,-7.06823 -16.1527,-8.79055 -8.0929,-1.2048 -16.3068,-3.50032 -18.2532,-5.10115 -2.4908,-2.04855 -8.2873,5.8977 -19.5718,26.83033 -8.818,16.35749 -16.7342,29.03948 -17.5915,28.18222 -0.8573,-0.85727 2.0378,-13.34969 6.4335,-27.76089 4.3956,-14.41124 7.9921,-27.83929 7.9921,-29.84017 0,-4.60699 -7.7402,-12.47042 -12.2751,-12.47042 -3.4433,0 -7.5691,-2.88192 -18.9783,-13.25661 -5.9163,-5.3798 -7.1193,-4.72829 -44.8104,24.26602 -21.302,16.38686 -39.3901,29.13497 -40.1959,28.32921 -0.8058,-0.80577 34.6958,-29.11435 78.8924,-62.908 85.671,-65.50573 89.3112,-69.53414 72.6804,-80.43108 l -7.9661,-5.21954 -73.7817,73.73368 c -40.58,40.55355 -73.1575,74.7437 -72.3946,75.97811 1.7265,2.79347 -23.0253,22.71366 -25.343,20.39597 -0.9266,-0.9266 14.2186,-22.30875 33.6561,-47.51587 19.4374,-25.20712 37.7433,-49.55707 40.6797,-54.11098 5.1474,-7.98282 5.1096,-8.40256 -1.0542,-11.70135 -3.5163,-1.88186 -6.3932,-5.45925 -6.3932,-7.9498 0,-2.49055 -1.3911,-4.52828 -3.0914,-4.52828 -1.7002,0 -3.0913,-2.18603 -3.0913,-4.85786 0,-5.71103 -7.2683,-13.69029 -12.4705,-13.69029 -2.0008,0 -15.4289,3.59648 -29.8401,7.99218 -14.4112,4.39566 -26.863,7.33137 -27.6706,6.52379 -0.8076,-0.80762 10.7822,-8.29007 25.7552,-16.62768 26.7921,-14.91902 27.2067,-15.32862 26.1638,-25.84477 -0.5828,-5.87702 -2.3457,-12.24806 -3.9175,-14.15787 -1.5718,-1.90981 -2.0118,-5.67712 -0.9778,-8.3718 2.4574,-6.40384 3.3393,-6.24269 -96.0598,-17.55326 -45.90669,-5.22368 -86.524993,-10.6484 -90.422293,-10.97565 -55.9721,-6.81144 -55.8226,-3.14428 -2.7085,-10.63433 9.2566,-1.18559 185.251493,-21.84669 187.598193,-23.29703 1.3843,-0.85557 2.5637,-3.96263 2.6208,-6.90458 0.2139,-11.01924 4.1855,-25.44284 7.0056,-25.44284 6.862,0 -2.4405,-6.75465 -28.4216,-20.63735 -15.2659,-8.15711 -27.7562,-15.75539 -27.7562,-16.885 0,-1.12964 13.3019,1.93977 29.5597,6.82093 24.2785,7.28927 30.6299,8.20638 35.5506,5.13338 3.295,-2.05776 5.991,-6.23267 5.991,-9.27753 0,-3.04487 2.0787,-6.33379 4.6193,-7.30872 2.5406,-0.97492 3.9084,-2.92275 3.0396,-4.32849 -0.8688,-1.40576 1.3783,-4.62773 4.9935,-7.15995 l 6.5732,-4.60405 -8.84,-12.22478 c -4.862,-6.72361 -23.0988,-30.97037 -40.5264,-53.88166 -17.4275,-22.9113 -1.0114,-0.36341 -31.6864,-43.72844 65.2548,54.76087 106.4886,89.60678 157.1228,135.00634 -5.8735,-32.72419 -21.5865,-105.40276 -26.745,-144.70328 28.9329,52.67503 43.3053,78.41252 62.2825,114.18791 6.5441,-47.2563 14.2565,-109.10708 20.8573,-163.62414 10.8982,-90.45887 11.0323,-94.89847 5.4513,-101.15277 C 429.9208,116.22707 440.8314,84.67507 469.686,50 c 26.7791,34.36317 39.1698,66.66417 9.9868,110.07737 -4.9533,5.4734 -5.1487,8.8566 -2.1005,36.36718 7.5136,67.8098 19.2367,159.77499 20.6608,162.0792 0.8352,1.35148 3.4941,1.69913 5.9086,0.77259 2.4145,-0.92651 6.171,-0.58384 8.3479,0.76152 2.1768,1.34536 6.069,2.68024 8.6493,2.96641 2.5802,0.28626 6.778,1.39228 9.3284,2.45803 3.4341,1.43504 8.4936,-5.27775 19.5042,-25.87767 8.1769,-15.29847 15.9843,-27.81538 17.3496,-27.81538 1.3653,0 -1.4815,13.33281 -6.3262,29.62844 -7.5969,25.55246 -8.2066,30.23052 -4.4322,34.00494 2.4071,2.40709 6.6062,4.3765 9.3314,4.3765 2.7252,0 5.7556,2.08667 6.7343,4.63704 0.9787,2.55037 3.7609,4.63704 6.1827,4.63704 2.4218,0 5.204,2.08666 6.1827,4.63703 2.4518,6.38913 7.2028,5.80669 15.3924,-1.88705 3.8196,-3.58827 13.2141,-10.8916 20.8768,-16.22964 7.6628,-5.33803 27.3174,-19.93845 43.677,-32.44535 16.3596,-12.50692 30.4822,-22.0024 31.3835,-21.10108 1.4403,1.44032 -43.182,62.14771 -67.3947,91.68845 -9.0102,10.99293 -11.3132,18.61665 -5.6238,18.61665 1.7537,0 4.0857,2.43445 5.1823,5.40988 1.0967,2.97543 5.5179,10.27876 9.8249,16.22963 4.307,5.95086 8.0156,11.18002 8.2413,11.62032 0.2257,0.44034 14.1717,-3.29069 30.9911,-8.29118 16.8193,-5.00045 31.023,-8.6494 31.5637,-8.10875 1.2234,1.22343 -13.4959,10.16448 -38.8431,23.59467 -14.4467,7.65457 -18.888,11.50248 -17.3764,15.05485 1.1168,2.62462 2.3535,6.85873 2.7481,9.4091 0.3947,2.55038 1.7296,7.00487 2.9665,9.89887 1.2368,2.89404 1.4073,6.62346 0.3787,8.28763 -1.0285,1.6642 -0.6737,3.76512 0.7883,4.66872 2.2999,1.42141 179.7477,22.79322 188.8335,23.51516 71.408,10.06012 71.5652,3.19905 -3.5909,10.60107 -7.3397,0.68501 -53.9449,7.10462 -133.7013,16.03883 -25.5037,2.85691 -47.9656,6.42947 -49.9154,7.93904 -1.9498,1.50957 -2.8309,5.47576 -1.958,8.81374 0.9386,3.58926 0.042,6.06905 -2.1955,6.06905 -2.2233,0 -2.9872,2.0731 -1.8529,5.02887 1.0614,2.76587 0.2355,7.0704 -1.8354,9.56559 -3.067,3.69547 -2.3603,5.61644 3.8108,10.3592 4.1668,3.20234 8.5169,5.85336 9.6669,5.89117 4.5596,0.14993 43.9734,24.68969 39.6425,24.68215 -2.5504,-0.003 -17.053,-3.90943 -32.228,-8.67775 -25.1677,-7.90822 -28.0398,-8.24212 -32.7003,-3.80145 -2.8101,2.67755 -4.5087,6.59545 -3.7747,8.70641 0.734,2.11097 -0.8964,4.69426 -3.6232,5.74062 -2.7268,1.04637 -4.9578,3.66997 -4.9578,5.83024 0,2.16031 -2.0866,5.65957 -4.637,7.77619 -2.5504,2.11662 -4.637,4.92809 -4.637,6.24773 0,1.31964 14.2589,20.99598 31.6864,43.72522 46.4228,60.5453 49.2242,64.40731 46.7192,64.40731 -1.2563,0 -26.4178,-18.32156 -55.9145,-40.71452 -53.1359,-40.33929 -53.6739,-40.65223 -58.366,-33.95322 -2.6047,3.71871 -5.886,6.05046 -7.2918,5.18164 -1.4057,-0.8688 -3.3535,0.49904 -4.3284,3.03964 -0.975,2.5406 -4.0023,4.61929 -6.7275,4.61929 -2.7252,0 -7.058,2.10311 -9.6284,4.67358 -4.1705,4.17049 -3.6828,7.99709 4.5315,35.55062 5.0628,16.98237 8.2288,30.87704 7.0355,30.87704 -1.1933,0 -8.2137,-11.47667 -15.6009,-25.50371 -16.5178,-31.36467 -18.5366,-34.05718 -22.9475,-30.60512 -4.7314,3.70286 -20.8231,7.77931 -27.4121,6.94415 -2.9754,-0.37712 -5.4203,0.44509 -5.4331,1.82714 -0.012,1.38206 -3.4944,31.72618 -7.7369,67.43137 -4.2425,35.70519 -9.2974,78.48186 -11.233,95.05927 -2.4961,21.37742 -2.2813,20.49341 -3,27.59837 -4.8308,44.3841 -2.6614,44.751 -10.3304,-4.41319 z m 11.9069,-91.98621 c 15.0283,-121.10748 23.7802,-198.7926 22.9294,-203.52955 -0.831,-4.6269 -2.8154,-5.01394 -14.1054,-2.75116 l -13.1382,2.63322 0.068,51.59833 c 0.037,28.37907 -0.3751,83.19497 -0.9168,121.81308 -0.5417,38.61812 -0.6801,69.90986 -0.3073,69.53726 0.3726,-0.37263 2.8343,-18.05814 5.4703,-39.30118 z M 654.933,725.25842 C 621.2085,681.44562 593.7107,645.57349 570.8093,615.5152 549.4543,587.48656 541.433,583.79697 532.2666,597.78666 l -5.0945,7.7752 75.008,75.69147 c 41.2544,41.63034 75.4885,75.69151 76.0756,75.69151 0.5872,0 -9.908,-14.25889 -23.3227,-31.68642 z M 542.5596,707.72027 c -6.6705,-22.82015 -12.8389,-42.20186 -13.7075,-43.07044 -0.8686,-0.86858 -3.1234,-0.0349 -5.0107,1.85222 -2.5143,2.51436 0.9679,14.20655 13.0294,43.74859 9.0534,22.17444 16.766,40.01198 17.1389,39.63901 0.373,-0.37301 -4.7796,-19.34922 -11.4501,-42.16938 z m -128.6139,-3.80438 c 15.4295,-28.45397 16.9893,-33.52908 10.3051,-33.52908 -3.3414,0 -22.9284,41.59691 -34.9357,74.19259 -2.8102,7.6288 9.1575,-12.12906 24.6306,-40.66351 z m 23.7808,6.65857 c 0,-7.21315 -1.3739,-9.27407 -6.1827,-9.27407 -3.4005,0 -7.226,-0.0921 -8.5012,-0.20496 -1.2752,-0.11283 -4.2175,2.65511 -6.5386,6.15072 -3.797,5.71871 -3.4872,6.64905 3.0914,9.28307 13.7627,5.5105 18.1311,4.07581 18.1311,-5.95476 z m 78.6284,6.25923 c 8.9428,-3.40006 9.6499,-5.81633 3.9736,-13.57916 -5.9527,-8.14078 -20.7748,-1.87009 -20.7748,8.7891 0,8.5022 4.0218,9.64881 16.8012,4.79006 z M 394.4475,701.55323 c 0,-1.5612 0.7807,-4.87291 1.7348,-7.35938 1.1209,-2.9209 -2.2564,-6.98755 -9.5428,-11.49082 -11.2113,-6.92894 -11.3134,-6.9342 -17.3531,-0.89446 -6.0398,6.03974 -6.0064,6.12296 5.6786,14.14352 12.2169,8.38562 19.4825,10.47448 19.4825,5.60114 z m 169.3949,-5.99955 13.2813,-8.81161 -7.6965,-5.0429 c -7.147,-4.68288 -8.3696,-4.65979 -17.1259,0.3236 -8.8613,5.04315 -12.5527,15.16305 -7.4077,20.30806 3.1979,3.19792 4.7512,2.6424 18.9488,-6.77715 z m -128.641,-8.34008 c -1.2437,-10.65317 -1.4254,-10.79305 -5.8377,-4.49366 -5.0237,7.17222 -3.4085,15.48909 3.008,15.48909 2.8931,0 3.7325,-3.26169 2.8297,-10.99543 z m 74.8428,9.14834 c 4.3109,-1.65424 4.329,-2.78364 0.1734,-10.81975 -6.0446,-11.68886 -7.5726,-11.31613 -7.5726,1.84709 0,11.6154 0.1231,11.76472 7.3992,8.97266 z m -107.191,-24.23291 c 4.2189,-13.74634 -0.6393,-16.01685 -13.0673,-6.10713 -8.9392,7.12787 -9.0015,7.37462 -3.0062,11.90621 9.2677,7.00511 12.502,5.83825 16.0735,-5.79908 z m 148.7519,5.68047 7.0568,-4.94277 -9.9216,-7.31997 c -13.8765,-10.23768 -18.3028,-6.86306 -12.1668,9.27584 3.522,9.26368 5.5071,9.65814 15.0316,2.9869 z M 430.213,640.46413 c -1.508,-3.92977 -2.4012,-3.88324 -6.6297,0.34533 -2.6879,2.68782 -7.5608,6.31791 -10.8287,8.06684 -8.732,4.67324 -7.3319,7.92655 5.6509,13.13051 l 11.5926,4.64672 0.9788,-10.8239 c 0.5384,-5.95312 0.1948,-12.86762 -0.7639,-15.3655 z m 91.3803,20.44448 12.5192,-6.38681 -11.8695,-8.88561 -11.8696,-8.88559 -1.9527,8.31687 c -2.5836,11.00341 -3.0963,22.22798 -1.0155,22.22798 0.9179,0 7.3025,-2.87407 14.1881,-6.38684 z M 335.8629,632.11508 c -4.4911,-7.06712 -8.015,-9.35702 -13.187,-8.56921 -3.8819,0.59131 -7.5748,1.5718 -8.2064,2.17888 -0.6317,0.60705 2.7022,7.67439 7.4085,15.70518 l 8.557,14.60144 5.7784,-7.13599 c 5.6534,-6.98168 5.6459,-7.34448 -0.3505,-16.7803 z m 284.3838,4.01181 5.861,-11.48832 -8.3276,-2.0901 c -4.9548,-1.24356 -8.7709,-0.76029 -9.4221,1.19326 -0.6019,1.80582 -3.6037,6.38221 -6.6707,10.16968 -5.0483,6.23446 -5.1345,7.56038 -0.9109,14.00654 5.6537,8.62854 10.5728,5.64958 19.4703,-11.79106 z M 353.692,626.97316 c 8.9649,-11.35137 6.7432,-15.77504 -6.0764,-12.09843 -12.61,3.61649 -12.7669,3.8654 -8.4321,13.37924 4.5888,10.07115 5.6146,9.98061 14.5085,-1.28081 z m 246.0885,0.60328 c 4.5085,-8.71859 4.4465,-8.83822 -6.2895,-12.13321 -8.8687,-2.72188 -11.1616,-2.49714 -12.5936,1.23432 -1.3905,3.62381 9.5468,19.70432 13.4022,19.70432 0.5101,0 2.9765,-3.96245 5.4809,-8.80543 z m -281.0713,-7.4439 c 18.7028,-5.27407 34.4803,-9.9312 35.0612,-10.34918 0.5809,-0.41802 -0.1147,-2.84563 -1.5457,-5.3947 -2.1933,-3.90698 -8.3974,-2.23348 -39.5102,10.65752 -20.2996,8.41072 -37.6884,16.17809 -38.642,17.26081 -0.9535,1.08275 1.0486,0.94398 4.4491,-0.30821 3.4005,-1.25231 21.4849,-6.59207 40.1876,-11.86611 z m 314.3675,-10.46023 c -20.926,-11.18422 -37.3907,-20.99152 -36.5882,-21.79401 0.8025,-0.80252 4.269,0.0448 7.7034,1.88273 8.9742,4.80286 12.8334,4.13525 12.8334,-2.22015 0,-8.1661 -20.5368,-5.36598 -25.2512,3.44291 -1.9017,3.5533 -2.2148,6.95719 -0.6958,7.56418 1.519,0.60699 18.7596,7.81684 38.3124,16.02192 19.5529,8.20505 36.9418,15.03507 38.642,15.1778 1.7003,0.14282 -14.0299,-8.89118 -34.956,-20.07538 z m -137.3301,3.37682 c 36.5457,-15.26977 52.778,-60.32164 34.5184,-95.8036 -25.6163,-49.77736 -97.7233,-48.76785 -123.4848,1.72881 -7.2558,14.22272 -8.2159,41.57493 -1.9814,56.45249 14.5873,34.81028 56.3403,52.08222 90.9478,37.6223 z m 90.2355,-23.11934 c 0.1005,-3.65671 -2.6578,-4.45289 -12.2552,-3.53763 -6.8116,0.64959 -13.1438,2.40913 -14.0714,3.91011 -0.9277,1.50097 2.1894,7.58678 6.9268,13.52401 l 8.6135,10.79496 5.3284,-9.98636 c 2.9306,-5.4925 5.3867,-12.10977 5.4579,-14.70509 z m -212.4013,11.06653 c 4.6757,-5.85997 8.5013,-11.2901 8.5013,-12.06699 0,-0.77686 -6.9564,-1.89451 -15.4587,-2.48369 -8.5023,-0.58915 -15.4579,-0.0751 -15.4568,1.14244 0,3.70042 10.2992,24.06292 12.167,24.06283 0.9603,-6e-5 5.5716,-4.79461 10.2472,-10.65459 z m -61.0803,0.82997 c 4.873,-2.22027 7.3433,-5.3359 6.3282,-7.98124 -0.9158,-2.38655 -1.6651,-6.15424 -1.6651,-8.37257 0,-2.21833 -4.1734,-4.64585 -9.2741,-5.39448 -9.9838,-1.4653 -10.5419,-0.26957 -7.342,15.72979 2.2217,11.1087 1.5374,10.76414 11.953,6.0185 z m 325.4596,-8.72344 c 3.1186,-12.28651 3.0819,-12.36543 -5.7478,-12.36543 -7.0396,0 -9.3147,1.70615 -10.9469,8.20938 -1.5178,6.04737 -0.5636,9.30393 3.6233,12.36543 8.3909,6.13554 9.6274,5.35899 13.0714,-8.20938 z m -306.155,-9.81024 c -11.7898,-2.46372 -12.734,-1.88103 -10.1492,6.26315 1.8858,5.94156 2.3338,5.9824 11.0387,1.00581 l 9.0731,-5.18712 z m 61.5358,-7.96507 c -0.8377,-2.97543 -2.4331,-9.93099 -3.5453,-15.45679 l -2.0221,-10.04691 -121.0902,0.46317 c -66.5995,0.25473 -117.36729,1.0328 -112.8171,1.729 21.6515,3.31279 224.641,28.14181 232.2884,28.4128 6.8846,0.24391 8.3904,-0.82496 7.1863,-5.10127 z m 313.3338,-28.46844 75.7383,-0.75748 -83.4667,-10.42331 c -45.9067,-5.73281 -86.9445,-10.37327 -91.1951,-10.31216 -4.2506,0.0612 -20.6647,-1.85283 -36.4758,-4.25327 -26.1938,-3.9767 -28.5732,-3.92513 -26.7864,0.58068 1.0786,2.7198 2.7083,9.39235 3.6216,14.82791 1.9252,11.458 4.3622,11.97889 53.4579,11.42591 16.1524,-0.18208 63.4501,-0.67166 105.1062,-1.08828 z M 317.4225,510.50089 c 2.6109,-6.86717 2.205,-9.13484 -2.2131,-12.36543 -10.4365,-7.63139 -16.4157,-2.08101 -16.5518,15.36492 -0.073,9.37673 14.9739,6.97156 18.7649,-2.99949 z m 321.025,-0.0919 c -0.1193,-4.67568 -1.2198,-11.04632 -2.4452,-14.157 -2.1459,-5.4475 -2.4966,-5.43826 -9.5228,0.25133 -9.8941,8.01171 -6.9929,22.40696 4.5158,22.40696 6.3585,0 7.6324,-1.45318 7.4522,-8.50123 z m -296.5531,2.99627 c 0,-3.12336 -17.6504,-9.81915 -19.9147,-7.55479 -5.1909,5.19095 -0.8321,9.96839 9.095,9.96839 5.9508,0 10.8197,-1.08611 10.8197,-2.4136 z m 275.1309,-3.76911 c 0,-7.1952 -2.4791,-7.62243 -10.2108,-1.7596 -4.1709,3.16277 -4.5599,4.63268 -1.5456,5.84035 8.0867,3.24002 11.7564,1.96625 11.7564,-4.08075 z m -243.2129,0.4071 8.7327,-1.95278 -8.7327,-11.47995 c -4.8031,-6.31394 -9.6251,-11.53061 -10.7157,-11.59259 -1.7379,-0.0986 -11.9282,22.30662 -11.9282,26.22647 0,1.90798 11.4578,1.30019 22.6439,-1.20115 z m 208.5769,-11.17514 -6.7334,-13.85939 -8.5576,9.99519 c -4.7066,5.49737 -8.6141,10.94613 -8.6832,12.10839 -0.1224,2.05987 9.8424,4.21766 23.7922,5.15203 l 6.9154,0.46318 z m -234.8583,5.63657 c -0.8317,-4.26948 -35.6998,-21.08306 -74.4193,-35.88532 -10.7065,-4.09302 -5.1094,0.74066 9.2741,8.00921 8.0761,4.08121 25.1173,13.1409 37.8691,20.13266 26.0293,14.27166 28.6951,15.02842 27.2761,7.74345 z m 63.5243,-9.71189 c -6.2909,-7.6585 -6.8511,-8.16383 -77.5398,-79.45497 -42.1405,-42.49962 -53.4874,-54.81113 -73.1548,-72.63502 40.3372,49.7607 63.0549,82.96007 133.6237,168.95815 6.0937,-8.6038 8.684,-9.51366 17.0709,-16.86816 z m 185.6233,0.6015 c 7.751,-2.97432 6.0166,-10.66024 -2.0656,-9.15367 -3.8256,0.71312 -7.9553,1.39996 -9.1771,1.5263 -3.0237,0.31266 0.6949,9.50379 3.8451,9.50379 1.3793,0 4.7082,-0.84437 7.3976,-1.87642 z m 79.0825,-155.26745 c 0,-0.6001 -6.6078,4.37894 -14.6839,11.06455 -8.0762,6.68562 -32.0729,25.09077 -53.326,40.90028 -21.2531,15.80955 -43.7478,33.0746 -49.9884,38.36676 -6.2405,5.29218 -19.7311,15.88216 -29.979,23.53327 -20.0879,14.99763 -21.7119,20.76249 -8.9535,31.78151 6.274,5.41853 7.5559,4.32701 81.6524,-69.52514 41.4032,-41.26654 75.2784,-75.52111 75.2784,-76.12123 z m -34.8414,136.7939 c 15.6924,-6.44669 28.1526,-12.10011 27.6896,-12.56319 -0.4631,-0.46306 -9.1289,1.73703 -19.2574,4.88911 -10.1285,3.15207 -24.3277,7.32281 -31.5538,9.26829 -8.3688,2.2532 -13.1382,5.29741 -13.1382,8.3859 0,2.66676 1.7389,4.14943 3.8642,3.29489 2.1253,-0.85458 16.7033,-6.82832 32.3956,-13.275 z m -282.3892,5.48604 c 0.8493,-1.37414 -1.774,-6.5908 -5.8294,-11.59259 l -7.3736,-9.0941 -5.5245,7.7284 c -6.6569,9.31247 -6.4597,10.25546 2.6818,12.83013 10.3568,2.91694 14.3026,2.94844 16.0457,0.12829 z m 236.3903,-0.89399 c 5.3525,-1.86588 8.8639,-4.79661 7.8033,-6.51275 -1.2755,-2.06385 -2.5826,-2.0777 -3.8605,-0.0411 -1.1687,1.86257 -3.7244,1.14971 -6.4679,-1.80409 -4.02,-4.32805 -3.9321,-4.65172 0.7729,-2.84627 2.9197,1.1204 5.3086,0.80558 5.3086,-0.69961 0,-5.91364 -7.9524,-4.92737 -13.1069,1.62553 -10.1166,12.86117 -7.1176,16.0887 9.5505,10.27818 z m -262.3005,-9.68482 c 0,-1.89108 2.3023,-5.9823 5.1162,-9.09162 4.7689,-5.26953 4.737,-6.07223 -0.4692,-11.8251 -6.4507,-7.12786 -11.3991,-4.58074 -18.7619,9.65734 -5.77,11.15805 -5.6776,11.70018 2.5224,14.79926 7.6768,2.90137 11.5925,1.70566 11.5925,-3.53988 z m 291.3172,-2.08728 c -0.4489,-2.00413 -4.4062,-9.33071 -8.7939,-16.28132 l -7.9777,-12.63744 -5.5394,8.44432 c -5.3823,8.20487 -5.3521,8.72823 1.0655,18.45544 5.5166,8.36157 7.8783,9.65286 14.3333,7.83699 4.2506,-1.19576 7.3611,-3.81387 6.9122,-5.81799 z m -162.9482,-0.2922 7.4034,0 -0.2705,-122.88149 c -0.1489,-67.58482 -0.7979,-120.09927 -1.4424,-116.69878 -1.627,8.58554 -28.9533,236.5712 -28.9533,241.56056 0,3.06941 1.9191,3.31978 7.9297,1.03456 4.3613,-1.65818 11.2612,-3.01485 15.3331,-3.01485 z m 66.3507,-21.3479 7.6925,-6.06698 -7.6925,-2.88225 c -20.1363,-7.54471 -20.7238,-7.49673 -20.0818,1.63974 1.4139,20.11937 1.2679,19.7744 6.9794,16.48866 2.9755,-1.71168 8.8715,-5.84233 13.1024,-9.17917 z m 20.5377,-16.00053 c 5.7265,-3.53917 10.4118,-6.98121 10.4118,-7.64901 0,-0.66779 -4.1983,-3.38519 -9.3296,-6.03869 -10.0625,-5.2035 -9.9484,-5.3006 -13.6563,11.62131 -2.2345,10.1979 -0.9299,10.41228 12.5741,2.06639 z m -131.0233,17.03085 c -8.0422,-30.81502 -16.8273,-49.35489 -37.3528,-107.69819 7.8357,37.24082 17.4814,77.85093 25.5846,115.0436 3.5004,-3.64137 5.9055,-6.27664 11.7682,-7.34541 z m 104.3329,-29.13312 c 5.6085,-10.47964 27.8103,-65.9779 26.7987,-66.98945 -0.5253,-0.52522 -6.6689,9.95927 -13.6526,23.29892 -6.9836,13.33967 -15.5741,28.97245 -19.09,34.73954 -3.5159,5.76711 -6.3977,11.52897 -6.4041,12.80416 -0.025,4.90017 9.2046,2.02029 12.348,-3.85317 z m -9.7644,-7.88488 c 4.7127,-10.34325 4.6322,-10.6743 -2.5951,-10.6743 -4.8088,0 -6.1828,2.06091 -6.1828,9.27407 0,11.3456 3.9588,11.97707 8.7779,1.40023 z m 59.5097,2.9023 c 4.5207,-5.44713 1.1521,-9.22128 -16.5629,-18.55734 -8.9152,-4.69846 -8.686,-4.84805 -12.369,8.0721 -1.4521,5.09418 11.7549,15.40396 19.7745,15.43642 2.7672,0.0124 6.888,-2.21685 9.1574,-4.95118 z m -49.7394,-19.50648 c 0,-1.56119 0.7785,-4.86734 1.73,-7.34698 1.1416,-2.97472 -0.8641,-5.1596 -5.8955,-6.42239 -4.194,-1.05264 -9.9668,-2.81233 -12.8284,-3.91041 -4.2571,-1.6336 -5.0137,-0.37168 -4.1625,6.94238 0.5721,4.91638 2.4363,9.96092 4.1427,11.21007 4.4375,3.24837 17.0137,2.89899 17.0137,-0.47267 z"
     id="path4123"
     style="fill:#000000" />
  <path
     d="m 466.29251,389.12523 c -87.94177,0 -159.23783,71.2961 -159.23783,159.23781 0,87.94172 71.29606,159.23783 159.23783,159.23783 87.94165,0 159.23783,-71.29611 159.23783,-159.23783 0,-87.94171 -71.29618,-159.23781 -159.23783,-159.23781 z m 0,21.81948 c 75.88009,0 137.36901,61.53825 137.36901,137.41833 0,75.88009 -61.48892,137.36912 -137.36901,137.36912 -75.89515,0.48806 -136.35431,-70.1981 -137.41833,-137.36912 0,-75.88008 61.53824,-137.41833 137.41833,-137.41833 z"
     id="path7438-70-0-9-0-5-7"
     style="color:#000000;fill:#000000;fill-opacity:1;fill-rule:evenodd;stroke:none;stroke-width:10.41600037;marker:none;visibility:visible;display:inline;overflow:visible;enable-background:accumulate" />
  <path
     d="m 609.80256,548.36309 c 0,79.25851 -64.25177,143.51024 -143.5103,143.51024 -79.2584,0 -143.51017,-64.25173 -143.51017,-143.51024 0,-79.25848 64.25177,-143.51019 143.51017,-143.51019 79.25853,0 143.5103,64.25171 143.5103,143.51019 z"
     id="path3735-6-8-4-5-6-5-7-9-9"
     style="color:#000000;fill:#ffffff;fill-opacity:1;fill-rule:evenodd;stroke:none;stroke-width:1;marker:none;visibility:visible;display:inline;overflow:visible;enable-background:accumulate" />
  <g
     transform="matrix(1.3104271,0,0,1.3104271,-316.13827,262.24202)"
     id="g4413">
    <path
       d="m 534.12054,161.88159 0,10.40612 47.25268,0 -19.71898,19.71898 -8.90796,8.86746 12.59261,0 c 20.11218,0 36.40116,16.32948 36.40116,36.44165 0,20.11218 -16.28898,36.40117 -36.40116,36.40117 -20.11217,0 -36.44165,-16.28899 -36.44165,-36.40117 l -10.40612,0 c 0,25.8585 20.98928,46.8073 46.84777,46.8073 25.85849,0 46.80728,-20.9488 46.80728,-46.8073 0,-21.99252 -15.15229,-40.48031 -35.59135,-45.51157 l 29.96314,-29.92264 z"
       id="path4996-4-0-4-8-9-7-2-6-0-9-9-2"
       style="color:#000000;fill:#000000;fill-opacity:1;fill-rule:evenodd;stroke:none;stroke-width:19.99983215;marker:none;visibility:visible;display:inline;overflow:visible;enable-background:accumulate" />
    <g
       transform="matrix(-1,0,0,-1,1130.6373,475.18252)"
       id="g4409">
      <path
         d="m 565.33889,208.68886 c -15.80241,0 -28.62694,12.82454 -28.62694,28.62694 0,12.13086 7.56029,22.4873 18.22083,26.6429 l 0,-11.74231 c -4.72379,-3.28183 -7.81471,-8.71082 -7.81471,-14.90059 0,-10.05608 8.16474,-18.22082 18.22082,-18.22082 10.05608,0 18.18034,8.16474 18.18034,18.22082 0,6.17974 -3.07517,11.61703 -7.77422,14.90059 l 0,11.74231 c 10.64945,-4.1556 18.18033,-14.51204 18.18033,-26.6429 0,-15.8024 -12.78404,-28.62694 -28.58645,-28.62694 z"
         id="path4996-4-0-4-2-1-9-8-5-8-9"
         style="color:#000000;fill:#000000;fill-opacity:1;fill-rule:evenodd;stroke:none;stroke-width:20;marker:none;visibility:visible;display:inline;overflow:visible;enable-background:accumulate" />
      <path
         d="m 565.33889,232.0925 c -2.87317,0 -5.2233,2.35013 -5.2233,5.2233 l 0,31.17786 10.40612,0 0,-31.17786 c 0,-2.87317 -2.30965,-5.2233 -5.18282,-5.2233 z"
         id="rect5023-1-6-7-7-5-2-9-1-8-8"
         style="color:#000000;fill:#000000;fill-opacity:1;fill-rule:evenodd;stroke:none;stroke-width:20;marker:none;visibility:visible;display:inline;overflow:visible;enable-background:accumulate" />
    </g>
    <path
       d="m 630.85289,149.49143 c -5.72232,0.0544 -10.36388,0.85328 -11.49937,1.53864 -2.27103,1.37086 -2.80747,4.65767 -2.10552,5.42576 0.70195,0.76784 11.43046,7.65845 16.11531,9.92023 12.61445,6.09045 -1.28767,29.39594 -12.14722,25.22572 -7.69621,-2.95537 -16.42692,-11.75721 -17.8969,-11.82329 -1.46996,-0.0648 -3.36351,0.9263 -3.84662,3.4822 -0.48303,2.55591 3.00841,14.89689 11.7828,24.49689 10.52926,11.52022 26.92634,-1.20851 26.92634,9.31286 l 0,48.87231 a 13.017768,13.017768 0 0 0 26.03553,0 l 0,-62.4367 0,-14.57666 c 0,-5.46709 6.70282,-27.38877 -15.46745,-36.56312 -5.37441,-2.22388 -12.17459,-2.92922 -17.8969,-2.87484 z"
       id="path5018-1-3-2-1-4-7-5-6"
       style="fill:#000000;fill-opacity:1;stroke:none" />
  </g>
</svg>
