<?xml version="1.0" encoding="UTF-8" standalone="no"?>
<!-- Created with Inkscape (http://www.inkscape.org/) -->

<svg
   xmlns:dc="http://purl.org/dc/elements/1.1/"
   xmlns:cc="http://creativecommons.org/ns#"
   xmlns:rdf="http://www.w3.org/1999/02/22-rdf-syntax-ns#"
   xmlns:svg="http://www.w3.org/2000/svg"
   xmlns="http://www.w3.org/2000/svg"
   version="1.1"
   width="787.81787"
   height="774.40118"
   id="svg5512">
  <defs
     id="defs5514" />
  <metadata
     id="metadata5517">
    <rdf:RDF>
      <cc:Work
         rdf:about="">
        <dc:format>image/svg+xml</dc:format>
        <dc:type
           rdf:resource="http://purl.org/dc/dcmitype/StillImage" />
        <dc:title></dc:title>
      </cc:Work>
    </rdf:RDF>
  </metadata>
  <g
     transform="translate(-12.81801,218.64196)"
     id="layer1">
    <path
       d="m 549.27766,459.2913 c 3.18515,-2.3877 6.40664,-4.2755 9.73273,-5.6904 0.82796,1.6215 1.73946,3.0871 2.62941,4.2384 3.67719,4.7574 10.38138,7.3571 17.11077,8.5162 6.72938,1.159 13.50643,0.9622 17.93491,-2.0016 1.17135,-0.7838 2.11608,-1.8258 2.55092,-3.1003 0.43482,-1.2746 0.30787,-2.6741 -0.11768,-3.846 -0.85134,-2.3439 -2.73482,-4.1612 -5.14108,-5.8475 -4.81253,-3.3728 -11.98404,-5.952 -19.26923,-5.926 -4.52282,0.016 -8.72878,0.8877 -12.83308,2.1192 -0.10039,-0.3914 -0.32694,-0.7412 -0.39246,-1.138 -0.41336,-2.5038 -0.18476,-5.0482 1.41283,-7.6135 l 1.64828,1.6483 18.91602,-18.916 4.7094,4.7486 32.96569,-33.0049 22.44808,22.448 c 4.29072,4.2907 5.69554,12.9233 8.59464,20.5251 0.92539,3.2124 2.55838,6.29 4.94485,8.9086 0.23319,0.2628 0.49753,0.4975 0.74565,0.7457 8.77025,8.7699 22.97882,8.7699 31.74912,0 8.7702,-8.7703 8.7702,-22.9787 0,-31.7492 -4.0029,-4.0028 -9.1266,-6.166 -14.3636,-6.5146 -5.3934,-1.3963 -11.01916,-2.9738 -15.81573,-7.7705 l -17.69944,-17.6994 1.4913,-1.4914 2.35471,2.3547 4.70939,-4.7094 -2.3547,-2.3546 7.33879,-7.3388 8.4769,-2.8257 1.45205,0.471 0.94187,-0.9419 -3.7675,-3.8068 -7.10332,-7.064 15.73718,-15.7372 2.3547,2.3547 4.7486,-4.7487 -2.3939,-2.3547 2.3939,-2.3548 -3.8067,-3.8067 8.3984,-8.3984 c 0,0 12.7956,-15.5769 12.3229,-16.5221 -0.9451,-0.4726 -16.5614,12.2836 -16.5614,12.2836 l -8.3984,8.3984 -3.76747,-3.7674 -22.84052,22.8405 -7.10332,-7.1033 -3.76751,-3.7675 -0.94188,0.9419 0.47093,1.4128 -2.82561,8.5161 -13.5395,13.5003 -9.02633,-9.0263 c -4.76399,-4.7643 -5.29015,-7.2553 -6.35766,-12.6761 -0.86738,-4.4049 4.90982,-17.4045 -3.96374,-26.3726 -2.04789,-2.0692 -4.88086,-3.9269 -8.7516,-5.4158 -3.51522,-1.352 -7.69859,-1.8723 -11.65573,-1.923 -6.59523,-0.084 -12.54472,1.1292 -13.73572,1.923 -1.9056,1.2706 -2.20502,4.1527 -1.56978,4.7879 0.63519,0.6349 10.15671,6.1583 14.28513,7.9275 11.11597,4.7642 -0.009,25.4276 -9.5365,22.2518 -6.75262,-2.2507 -14.62378,-9.5365 -15.89419,-9.5365 -1.27037,0 -2.86126,0.9557 -3.17883,3.1788 -0.31764,2.2234 3.20554,12.7028 11.14555,20.6428 9.52798,9.5278 20.10193,7.0858 23.82165,7.9275 3.71969,0.8422 6.00364,-0.3148 9.49724,3.1789 l 13.77497,13.7357 -1.56981,1.5697 -2.35468,-2.3546 -11.81271,11.8127 2.35469,2.3547 -19.5832,19.5832 4.70939,4.7486 -18.91603,18.8768 2.07997,2.08 c -2.67946,3.8517 -3.23545,8.1026 -2.62941,11.7734 0.11415,0.6912 0.44754,1.2297 0.62793,1.8838 -4.03263,1.6886 -7.91573,3.9598 -11.69499,6.8286 0.0785,2.3486 1.05927,3.5123 3.4535,3.1788 z m 124.48477,-47.0153 12.6761,5.2589 5.2981,12.7153 -5.2981,12.6761 -12.6761,5.298 -12.71534,-5.298 -5.25882,-12.6761 5.25882,-12.7153 z m -99.05408,38.0282 c 6.12442,-0.022 12.71382,2.3387 16.60059,5.0626 1.94338,1.362 3.12269,2.847 3.41429,3.6498 0.14581,0.4014 0.12748,0.5628 0.0786,0.7064 -0.0491,0.1436 -0.16953,0.3864 -0.7064,0.7457 -2.4045,1.6092 -8.528,2.3272 -14.52062,1.2951 -5.99259,-1.0322 -11.81172,-3.6909 -14.20665,-6.7894 -0.62099,-0.8035 -1.24708,-1.8914 -1.84451,-2.9826 3.55878,-1.0121 7.22016,-1.6733 11.18481,-1.6876 z"
       id="path7438-70-0-9-2"
       style="color:#000000;fill:#000000;fill-opacity:1;fill-rule:evenodd;stroke:none;stroke-width:10.41600037;marker:none;visibility:visible;display:inline;overflow:visible;enable-background:accumulate" />
    <path
       d="m 623.75715,252.0018 c -70.07086,0 -126.87871,56.8078 -126.87871,126.8787 0,70.0708 56.80785,126.8787 126.87871,126.8787 70.07088,0 126.87871,-56.8079 126.87871,-126.8787 0,-70.0709 -56.80783,-126.8787 -126.87871,-126.8787 z m 0,17.3855 c 60.46028,0 109.45401,49.0329 109.45401,109.4932 0,60.4603 -48.99373,109.454 -109.45401,109.454 -60.47222,0.3888 -108.64533,-55.933 -109.49316,-109.454 0,-60.4603 49.03291,-109.4932 109.49322,-109.4932 z"
       id="path7438-70-0-9-0"
       style="color:#000000;fill:#000000;fill-opacity:1;fill-rule:evenodd;stroke:none;stroke-width:10.41600037;marker:none;visibility:visible;display:inline;overflow:visible;enable-background:accumulate" />
    <g
       transform="translate(23.743076,-258.45679)"
       id="g4413">
      <path
         d="m 534.12054,161.88159 0,10.40612 47.25268,0 -19.71898,19.71898 -8.90796,8.86746 12.59261,0 c 20.11218,0 36.40116,16.32948 36.40116,36.44165 0,20.11218 -16.28898,36.40117 -36.40116,36.40117 -20.11217,0 -36.44165,-16.28899 -36.44165,-36.40117 l -10.40612,0 c 0,25.8585 20.98928,46.8073 46.84777,46.8073 25.85849,0 46.80728,-20.9488 46.80728,-46.8073 0,-21.99252 -15.15229,-40.48031 -35.59135,-45.51157 l 29.96314,-29.92264 z"
         id="path4996-4-0-4-8-9-7-2-6-0-9-9-2"
         style="color:#000000;fill:#000000;fill-opacity:1;fill-rule:evenodd;stroke:none;stroke-width:19.99983215;marker:none;visibility:visible;display:inline;overflow:visible;enable-background:accumulate" />
      <g
         transform="matrix(-1,0,0,-1,1130.6373,475.18252)"
         id="g4409">
        <path
           d="m 565.33889,208.68886 c -15.80241,0 -28.62694,12.82454 -28.62694,28.62694 0,12.13086 7.56029,22.4873 18.22083,26.6429 l 0,-11.74231 c -4.72379,-3.28183 -7.81471,-8.71082 -7.81471,-14.90059 0,-10.05608 8.16474,-18.22082 18.22082,-18.22082 10.05608,0 18.18034,8.16474 18.18034,18.22082 0,6.17974 -3.07517,11.61703 -7.77422,14.90059 l 0,11.74231 c 10.64945,-4.1556 18.18033,-14.51204 18.18033,-26.6429 0,-15.8024 -12.78404,-28.62694 -28.58645,-28.62694 z"
           id="path4996-4-0-4-2-1-9-8-5-8-9"
           style="color:#000000;fill:#000000;fill-opacity:1;fill-rule:evenodd;stroke:none;stroke-width:20;marker:none;visibility:visible;display:inline;overflow:visible;enable-background:accumulate" />
        <path
           d="m 565.33889,232.0925 c -2.87317,0 -5.2233,2.35013 -5.2233,5.2233 l 0,31.17786 10.40612,0 0,-31.17786 c 0,-2.87317 -2.30965,-5.2233 -5.18282,-5.2233 z"
           id="rect5023-1-6-7-7-5-2-9-1-8-8"
           style="color:#000000;fill:#000000;fill-opacity:1;fill-rule:evenodd;stroke:none;stroke-width:20;marker:none;visibility:visible;display:inline;overflow:visible;enable-background:accumulate" />
      </g>
      <path
         d="m 630.85289,149.49143 c -5.72232,0.0544 -10.36388,0.85328 -11.49937,1.53864 -2.27103,1.37086 -2.80747,4.65767 -2.10552,5.42576 0.70195,0.76784 11.43046,7.65845 16.11531,9.92023 12.61445,6.09045 -1.28767,29.39594 -12.14722,25.22572 -7.69621,-2.95537 -16.42692,-11.75721 -17.8969,-11.82329 -1.46996,-0.0648 -3.36351,0.9263 -3.84662,3.4822 -0.48303,2.55591 3.00841,14.89689 11.7828,24.49689 10.52926,11.52022 26.92634,-1.20851 26.92634,9.31286 l 0,48.87231 a 13.017768,13.017768 0 0 0 26.03553,0 l 0,-62.4367 0,-14.57666 c 0,-5.46709 6.70282,-27.38877 -15.46745,-36.56312 -5.37441,-2.22388 -12.17459,-2.92922 -17.8969,-2.87484 z"
         id="path5018-1-3-2-1-4-7-5-6"
         style="fill:#000000;fill-opacity:1;stroke:none" />
    </g>
    <path
       d="m 615.7957,-165.63416 c -70.07086,0 -126.87871,56.8078 -126.87871,126.878699 0,70.0708 56.80785,126.87868 126.87871,126.87868 70.07082,0 126.87872,-56.80788 126.87872,-126.87868 0,-70.070899 -56.8079,-126.878699 -126.87872,-126.878699 z m 0,17.3855 c 60.46032,0 109.45402,49.032899 109.45402,109.493199 0,60.4603 -48.9937,109.454 -109.45402,109.454 -60.47222,0.3888 -108.64533,-55.933 -109.49316,-109.454 0,-60.4603 49.03291,-109.493199 109.49322,-109.493199 z"
       id="path7438-70-0-9-0-2"
       style="color:#000000;fill:#000000;fill-opacity:1;fill-rule:evenodd;stroke:none;stroke-width:10.41600037;marker:none;visibility:visible;display:inline;overflow:visible;enable-background:accumulate" />
    <g
       transform="translate(-366.79889,-390.19376)"
       id="g3132">
      <path
         d="m 557.24834,221.5518 c -70.49415,0 -127.63144,57.1823 -127.63144,127.6764 0,70.4942 57.13729,127.63145 127.63144,127.63145 l 14.39114,0 49.42457,0 49.42458,0 c 7.97269,0 14.39114,-6.41844 14.39114,-14.39114 l 0,-98.84911 0,-14.3912 c 0,-70.4941 -57.13729,-127.6764 -127.63143,-127.6764 z"
         id="rect4527-2-1-5-4-5-7-8"
         style="color:#000000;fill:#1f1f1f;fill-opacity:1;fill-rule:evenodd;stroke:none;stroke-width:1;marker:none;visibility:visible;display:inline;overflow:visible;enable-background:accumulate" />
      <path
         d="m 668.3394,349.2098 c 0,61.3539 -49.73715,111.0911 -111.09106,111.0911 -61.35392,0 -111.09108,-49.7372 -111.09108,-111.0911 0,-61.3539 49.73716,-111.0911 111.09108,-111.0911 61.35391,0 111.09106,49.7372 111.09106,111.0911 z"
         id="path3735-6-8-4-5-6-5-7-9"
         style="color:#000000;fill:#ffffff;fill-opacity:1;fill-rule:evenodd;stroke:none;stroke-width:1;marker:none;visibility:visible;display:inline;overflow:visible;enable-background:accumulate" />
      <path
         d="m 647.74379,465.323 4.40369,0 1.19159,-9.6881 5.33623,0 -1.13978,9.6881 4.40369,0 1.19159,-9.6881 4.92177,0 0,-4.87 -4.35188,0 0.6735,-5.6989 4.71454,0 0,-4.8699 -4.09284,0 1.03616,-8.5484 -4.35188,0 -1.08797,8.5484 -5.38804,0 1.03616,-8.5484 -4.35188,0 -1.08797,8.5484 -4.71454,0 0,4.8699 4.09284,0 -0.72531,5.6989 -4.40369,0 0,4.87 3.8338,0 -1.13978,9.6881 m 6.16517,-14.5581 0.6735,-5.6989 5.38805,0 -0.72532,5.6989 -5.33623,0"
         id="path4222"
         style="font-size:36px;font-style:normal;font-variant:normal;font-weight:bold;font-stretch:normal;line-height:125%;letter-spacing:0px;word-spacing:0px;fill:#ffffff;fill-opacity:1;stroke:none;font-family:Source Sans Pro;-inkscape-font-specification:Source Sans Pro Bold" />
      <path
         d="m 487.40633,288.2008 0,11.5579 52.48269,0 -21.90152,21.9015 -9.89391,9.8489 13.98639,0 c 22.33824,0 40.43012,18.1369 40.43012,40.4751 0,22.3382 -18.09188,40.4301 -40.43012,40.4301 -22.33823,0 -40.47508,-18.0919 -40.47508,-40.4301 l -11.55789,0 c 0,28.7206 23.31241,51.988 52.03297,51.988 28.72056,0 51.988,-23.2674 51.988,-51.988 0,-24.4267 -16.82937,-44.9608 -39.53066,-50.5489 l 33.27951,-33.2345 z"
         id="path4996-4-0-4-8-9-7-2-6-0-9-9-2-7"
         style="color:#000000;fill:#1f1f1f;fill-opacity:1;fill-rule:evenodd;stroke:none;stroke-width:19.99983215;marker:none;visibility:visible;display:inline;overflow:visible;enable-background:accumulate" />
      <g
         transform="matrix(-1,0,0,-1,677.20974,613.06473)"
         id="g4401">
        <path
           d="m 155.17472,208.45183 c -17.55145,0 -31.79542,14.244 -31.79542,31.7954 0,13.4735 8.39707,24.9762 20.23754,29.5918 l 0,-13.042 c -5.24662,-3.6451 -8.67966,-9.6749 -8.67966,-16.5498 0,-11.1691 9.06844,-20.2375 20.23754,-20.2375 11.16911,0 20.19257,9.0684 20.19257,20.2375 0,6.8637 -3.41553,12.9028 -8.63468,16.5498 l 0,13.042 c 11.82815,-4.6156 20.19257,-16.1183 20.19257,-29.5918 0,-17.5514 -14.19901,-31.7954 -31.75046,-31.7954 z"
           id="path4996-4-0-4-2-1-9-8-5-8-9-7"
           style="color:#000000;fill:#1f1f1f;fill-opacity:1;fill-rule:evenodd;stroke:none;stroke-width:20;marker:none;visibility:visible;display:inline;overflow:visible;enable-background:accumulate" />
        <path
           d="m 155.17472,234.44583 c -3.19117,0 -5.80142,2.6102 -5.80142,5.8014 l 0,34.6287 11.55788,0 0,-34.6287 c 0,-3.1912 -2.56528,-5.8014 -5.75646,-5.8014 z"
           id="rect5023-1-6-7-7-5-2-9-1-8-8-2"
           style="color:#000000;fill:#1f1f1f;fill-opacity:1;fill-rule:evenodd;stroke:none;stroke-width:20;marker:none;visibility:visible;display:inline;overflow:visible;enable-background:accumulate" />
      </g>
      <path
         d="m 594.84519,274.4392 c -6.35567,0.061 -11.51097,0.9478 -12.77213,1.709 -2.5224,1.5226 -3.11821,5.1732 -2.33857,6.0263 0.77964,0.8528 12.69561,8.5061 17.89899,11.0182 14.01064,6.7646 -1.43019,32.6495 -13.4917,28.0178 -8.54805,-3.2825 -18.24509,-13.0586 -19.87776,-13.132 -1.63266,-0.072 -3.7358,1.0289 -4.27237,3.8677 -0.5365,2.8388 3.34138,16.5457 13.08694,27.2082 11.69466,12.7953 29.90659,-1.3422 29.90659,10.3436 l 0,54.2816 a 14.4586,14.4586 0 0 0 28.9172,0 l 0,-69.3473 0,-16.19 c 0,-6.0722 7.4447,-30.4202 -17.17942,-40.61 -5.96926,-2.47 -13.52209,-3.2534 -19.87777,-3.1931 z"
         id="path5018-1-3-2-1-4-7-5-6-9"
         style="fill:#1f1f1f;fill-opacity:1;stroke:none" />
    </g>
    <g
       transform="translate(-333.85866,-654.89109)"
       id="g3126">
      <path
         d="m 567.28104,902.30915 c -70.49415,0 -127.63144,57.1823 -127.63144,127.67635 0,70.4942 57.13729,127.6314 127.63144,127.6314 l 14.39114,0 49.42457,0 49.42458,0 c 7.97269,0 14.39114,-6.4184 14.39114,-14.3911 l 0,-98.8491 0,-14.3912 c 0,-70.49405 -57.13729,-127.67635 -127.63143,-127.67635 z"
         id="rect4527-2-1-5-4-5-7-8-8"
         style="color:#000000;fill:#1f1f1f;fill-opacity:1;fill-rule:evenodd;stroke:none;stroke-width:1;marker:none;visibility:visible;display:inline;overflow:visible;enable-background:accumulate" />
      <path
         d="m 678.3721,1029.9671 c 0,61.3539 -49.73715,111.0911 -111.09106,111.0911 -61.35392,0 -111.09108,-49.7372 -111.09108,-111.0911 0,-61.35385 49.73716,-111.09105 111.09108,-111.09105 61.35391,0 111.09106,49.7372 111.09106,111.09105 z"
         id="path3735-6-8-4-5-6-5-7-9-6"
         style="color:#000000;fill:#ffffff;fill-opacity:1;fill-rule:evenodd;stroke:none;stroke-width:1;marker:none;visibility:visible;display:inline;overflow:visible;enable-background:accumulate" />
      <path
         d="m 657.77649,1146.0803 4.40369,0 1.19159,-9.6881 5.33623,0 -1.13978,9.6881 4.40369,0 1.19159,-9.6881 4.92177,0 0,-4.87 -4.35188,0 0.6735,-5.6989 4.71454,0 0,-4.8699 -4.09284,0 1.03616,-8.5484 -4.35188,0 -1.08797,8.5484 -5.38804,0 1.03616,-8.5484 -4.35188,0 -1.08797,8.5484 -4.71454,0 0,4.8699 4.09284,0 -0.72531,5.6989 -4.40369,0 0,4.87 3.8338,0 -1.13978,9.6881 m 6.16517,-14.5581 0.6735,-5.6989 5.38805,0 -0.72532,5.6989 -5.33623,0"
         id="path4222-1"
         style="font-size:36px;font-style:normal;font-variant:normal;font-weight:bold;font-stretch:normal;line-height:125%;letter-spacing:0px;word-spacing:0px;fill:#ffffff;fill-opacity:1;stroke:none;font-family:Source Sans Pro;-inkscape-font-specification:Source Sans Pro Bold" />
      <path
         d="m 492.0112,1111.8569 c 3.18515,-2.3877 6.40664,-4.2756 9.73273,-5.6905 0.82796,1.6215 1.73946,3.0871 2.62941,4.2384 3.67719,4.7575 10.38138,7.3572 17.11077,8.5162 6.72938,1.159 13.50643,0.9623 17.93491,-2.0015 1.17135,-0.7839 2.11608,-1.8258 2.55092,-3.1003 0.43482,-1.2746 0.30787,-2.6741 -0.11768,-3.846 -0.85134,-2.3439 -2.73482,-4.1612 -5.14108,-5.8475 -4.81253,-3.3728 -11.98404,-5.952 -19.26923,-5.926 -4.52282,0.016 -8.72878,0.8877 -12.83308,2.1192 -0.10039,-0.3915 -0.32694,-0.7413 -0.39246,-1.1381 -0.41336,-2.5038 -0.18476,-5.0482 1.41283,-7.6135 l 1.64828,1.6483 18.91602,-18.916 4.7094,4.7486 32.96569,-33.0049 22.44808,22.448 c 4.29072,4.2907 5.69554,12.9233 8.59464,20.5251 0.92539,3.2124 2.55838,6.29 4.94485,8.9086 0.23319,0.2628 0.49753,0.4975 0.74565,0.7457 8.77025,8.7699 22.97882,8.7699 31.74912,0 8.7702,-8.7703 8.7702,-22.9787 0,-31.7492 -4.0029,-4.0028 -9.1266,-6.166 -14.3636,-6.5146 -5.3934,-1.3963 -11.01916,-2.9738 -15.81573,-7.7705 l -17.69944,-17.6994 1.4913,-1.4914 2.35471,2.3547 4.70939,-4.7094 -2.3547,-2.3546 7.33879,-7.3388 8.4769,-2.8257 1.45205,0.471 0.94187,-0.9419 -3.7675,-3.8068 -7.10332,-7.064 15.73718,-15.73716 2.3547,2.3547 4.7486,-4.74863 -2.3939,-2.35471 2.3939,-2.35468 -3.8067,-3.80675 8.3984,-8.39842 c 0,0 12.7956,-15.57688 12.3229,-16.52209 -0.9451,-0.47255 -16.5614,12.28365 -16.5614,12.28365 l -8.3984,8.39841 -3.76747,-3.76751 -22.84052,22.84052 -7.10332,-7.10332 -3.76751,-3.76752 -0.94188,0.94188 0.47093,1.41282 -2.82561,8.51614 -13.5395,13.50017 -9.02633,-9.02626 c -4.76399,-4.76424 -5.29015,-7.25529 -6.35766,-12.67609 -0.86738,-4.40482 4.90982,-17.40449 -3.96374,-26.37256 -2.04789,-2.06923 -4.88086,-3.92692 -8.7516,-5.4158 -3.51522,-1.35204 -7.69859,-1.87235 -11.65573,-1.92299 -6.59523,-0.0843 -12.54472,1.12919 -13.73572,1.92299 -1.9056,1.2706 -2.20502,4.15272 -1.56978,4.78787 0.63519,0.63494 10.15671,6.15829 14.28513,7.92748 11.11597,4.76423 -0.009,25.42768 -9.5365,22.25185 -6.75262,-2.25074 -14.62378,-9.53652 -15.89419,-9.53652 -1.27037,0 -2.86126,0.95576 -3.17883,3.17884 -0.31764,2.22333 3.20554,12.70275 11.14555,20.64279 9.52798,9.5277 20.10193,7.0858 23.82165,7.9274 3.71969,0.8422 6.00364,-0.3148 9.49724,3.1789 l 13.77497,13.7357 -1.56981,1.5697 -2.35468,-2.3546 -11.81271,11.8127 2.35469,2.3547 -19.5832,19.5832 4.70939,4.7486 -18.91603,18.8768 2.07997,2.08 c -2.67946,3.8517 -3.23545,8.1026 -2.62941,11.7734 0.11415,0.6912 0.44754,1.2297 0.62793,1.8838 -4.03263,1.6886 -7.91573,3.9598 -11.69499,6.8286 0.0785,2.3486 1.05927,3.5123 3.4535,3.1788 z m 124.48477,-47.0153 12.6761,5.2588 5.2981,12.7153 -5.2981,12.6761 -12.6761,5.2981 -12.71534,-5.2981 -5.25882,-12.6761 5.25882,-12.7153 z m -99.05408,38.0282 c 6.12442,-0.022 12.71382,2.3387 16.60059,5.0626 1.94338,1.362 3.12269,2.847 3.41429,3.6498 0.14581,0.4014 0.12748,0.5628 0.0786,0.7064 -0.0491,0.1436 -0.16953,0.3864 -0.7064,0.7457 -2.4045,1.6092 -8.528,2.3272 -14.52062,1.2951 -5.99259,-1.0322 -11.81172,-3.6909 -14.20665,-6.7894 -0.62099,-0.8035 -1.24708,-1.8914 -1.84451,-2.9826 3.55878,-1.0121 7.22016,-1.6734 11.18481,-1.6876 z"
         id="path7438-70-0-9-2-5"
         style="color:#000000;fill:#1f1f1f;fill-opacity:1;fill-rule:evenodd;stroke:none;stroke-width:10.41600037;marker:none;visibility:visible;display:inline;overflow:visible;enable-background:accumulate" />
    </g>
  </g>
</svg>
