<?xml version="1.0" encoding="UTF-8" standalone="no"?>
<!-- Created with Inkscape (http://www.inkscape.org/) -->

<svg
   xmlns:dc="http://purl.org/dc/elements/1.1/"
   xmlns:cc="http://creativecommons.org/ns#"
   xmlns:rdf="http://www.w3.org/1999/02/22-rdf-syntax-ns#"
   xmlns:svg="http://www.w3.org/2000/svg"
   xmlns="http://www.w3.org/2000/svg"
   version="1.1"
   width="1616.333"
   height="1060.0593"
   id="svg2">
  <defs
     id="defs4" />
  <metadata
     id="metadata7">
    <rdf:RDF>
      <cc:Work
         rdf:about="">
        <dc:format>image/svg+xml</dc:format>
        <dc:type
           rdf:resource="http://purl.org/dc/dcmitype/StillImage" />
        <dc:title></dc:title>
      </cc:Work>
    </rdf:RDF>
  </metadata>
  <g
     transform="translate(128.14538,174.51021)"
     id="layer1">
    <path
       d="m 738.12418,780.40191 c -29.2886,-1.9119 -57.4787,-8.763 -84.4835,-20.5322 -7.9556,-3.4672 -22.6583,-10.7321 -24.314,-12.014 -0.2734,-0.2117 80.7457,-144.3289 84.4106,-150.15 l 1.386,-2.2015 6.2587,2.9286 c 20.0605,9.3869 45.4388,9.3954 65.4706,0.022 l 6.212,-2.9067 1.9207,3.1796 c 5.7366,9.4961 84.2238,148.9397 83.9641,149.1739 -1.2715,1.1463 -24.0266,12.0443 -31.1036,14.8963 -33.793,13.6185 -73.408,19.9745 -109.7216,17.6041 z m 4.3644,-202.4145 c -18.1492,-4.4023 -33.4443,-20.1642 -37.2428,-38.3794 -3.4258,-16.4276 1.8801,-33.9089 13.8497,-45.6304 19.7038,-19.2954 50.3866,-19.2954 70.0904,0 19.8297,19.4187 19.849,50.7128 0.044,70.5183 -12.5646,12.5646 -29.9153,17.5728 -46.7408,13.4915 z m -165.0148,-48.5126 c -40.7919,-0.3122 -74.3972,-0.7979 -74.6785,-1.0794 -0.954,-0.9545 1.3649,-28.9031 3.3791,-40.7274 6.7819,-39.8122 23.3103,-78.0641 47.7495,-110.5074 9.2047,-12.2194 26.6881,-30.4985 39.21429,-40.999 9.95361,-8.3439 32.36551,-23.7544 34.54671,-23.7544 0.6983,0 11.0176,16.9028 22.9318,37.5618 11.9142,20.6589 31.2316,53.3964 42.9275,72.75 11.696,19.3535 21.793,36.177 22.4379,37.3854 1.0687,2.0028 0.7514,2.4825 -3.5845,5.4206 -19.694,13.3448 -32.242,34.0682 -34.0859,56.2938 l -0.671,8.0884 -13,0.068 c -7.15,0.037 -46.3751,-0.1878 -87.1669,-0.5 z m 253.3141,0.2463 c -0.356,-0.356 -0.6472,-2.9752 -0.6472,-5.8206 0,-6.2287 -2.8686,-17.8976 -6.3102,-25.6682 -5.4379,-12.2783 -15.4143,-24.168 -26.7221,-31.847 -3.2822,-2.2289 -5.9677,-4.2384 -5.9677,-4.4654 0,-0.2271 10.0471,-16.9728 22.3268,-37.2127 12.2797,-20.24 32.1216,-53.7875 44.0931,-74.55 11.9715,-20.7625 22.3376,-37.75 23.0359,-37.75 2.2565,0 24.7554,15.5635 35.0442,24.2417 27.8281,23.4717 48.9283,50.7649 65.0948,84.2004 14.70129,30.4054 22.80272,62.5377 24.76002,98.2046 l 0.5019,9.1467 -16.17833,0.5752 c -24.86309,0.884 -158.29939,1.6771 -159.03119,0.9453 z"
       id="path4035-3"
       style="fill:#000000" />
    <path
       d="m 62.857153,-54.51654 c -70.0709001,0 -126.87871,56.80785 -126.87871,126.87875 0,70.0708 56.8078099,126.8787 126.87871,126.8787 70.070797,0 126.878687,-56.8079 126.878687,-126.8787 0,-70.0709 -56.80789,-126.87875 -126.878687,-126.87875 z m 0,17.3855 c 60.460297,0 109.453887,49.0329 109.453887,109.49325 0,60.4603 -48.99359,109.4539 -109.453887,109.4539 -60.4723001,0.3889 -108.64541,-55.9329 -109.49321,-109.4539 0,-60.46035 49.0329099,-109.49325 109.49321,-109.49325 z"
       id="path7438-70-0-9-0-5"
       style="color:#000000;fill:#000000;fill-opacity:1;fill-rule:evenodd;stroke:none;stroke-width:10.41600037;marker:none;visibility:visible;display:inline;overflow:visible;enable-background:accumulate" />
    <path
       d="m 406.76823,209.02787 c -1.3102,-5.3896 -2.4513,-9.8843 -2.5357,-9.9881 -0.084,-0.1039 -3.2173,-0.8778 -6.9619,-1.7197 -3.7447,-0.842 -9.2512,-2.3216 -12.2368,-3.2881 l -5.4285,-1.7571 -7.1083,7.4195 -7.1084,7.4196 -13.8561,-7.934 c -7.6208,-4.3638 -14.0675,-8.1133 -14.326,-8.3324 -0.2584,-0.2191 0.7952,-4.7484 2.3414,-10.0653 l 2.8113,-9.667 -9.1395,-9.1395 -9.1394,-9.1394 -9.6422,2.8153 c -5.3033,1.5485 -9.7099,2.7474 -9.7926,2.6643 -0.083,-0.083 -3.8375,-6.5267 -8.344,-14.3193 l -8.1937,-14.1683 7.4578,-7.1449 7.4577,-7.145 -1.1098,-2.9516 c -0.9558,-2.5417 -4.2948,-15.3098 -5.2516,-20.0817 -0.296,-1.4766 -0.9447,-1.7286 -10.2928,-3.9991 l -9.9769,-2.4232 0,-16.6026 0,-16.6026 9.9754,-2.3925 c 9.3729,-2.24795 9.9944,-2.48796 10.2898,-3.97424 1.0965,-5.51679 3.7665,-15.86212 4.9449,-19.15969 l 1.3901,-3.89002 -7.4304,-7.16377 -7.4304,-7.16379 7.8147,-13.52211 c 4.298,-7.43716 8.0413,-13.86976 8.3183,-14.29465 0.3847,-0.59007 2.7924,-0.11557 10.193,2.00877 l 9.6894,2.78132 9.1061,-9.10606 9.1061,-9.10608 -2.8113,-9.66703 c -1.5462,-5.31686 -2.5998,-9.84625 -2.3414,-10.06531 0.2585,-0.21906 6.7052,-3.96863 14.326,-8.33236 l 13.8561,-7.93407 7.1461,7.45902 7.1462,7.45903 3.2104,-1.21988 c 2.5846,-0.98204 13.5065,-3.79832 20.1356,-5.19207 1.0771,-0.22646 1.6309,-1.75702 3.7058,-10.24271 l 2.4393,-9.97646 16.5601,0 16.56,0 2.4232,9.97686 c 2.2712,9.35091 2.5221,9.9965 3.9991,10.28978 5.5017,1.09246 15.858,3.76573 19.1608,4.94601 l 3.8972,1.39267 7.1338,-7.44613 7.1338,-7.44612 13.545,7.82782 c 7.4497,4.3053 13.8959,8.05651 14.3248,8.33605 0.5997,0.39071 0.1295,2.74522 -2.0336,10.18324 l -2.8136,9.67501 9.1375,9.08634 9.1376,9.08634 9.6672,-2.77495 c 5.317,-1.52623 9.8444,-2.56655 10.0609,-2.31181 0.2165,0.25472 3.9661,6.69549 8.3322,14.31282 l 7.9385,13.84968 -7.4527,7.14014 -7.4528,7.14015 1.4008,3.89719 c 1.193,3.31912 3.9068,13.83686 4.9455,19.16683 0.2898,1.48715 0.9052,1.72497 10.2837,3.97424 l 9.9753,2.3925 0,16.6026 0,16.6026 -9.9768,2.4232 c -9.3566,2.2725 -9.996,2.5212 -10.2837,3.9991 -0.9799,5.0338 -3.6637,15.4143 -4.8998,18.9517 l -1.4374,4.1136 7.4447,7.1324 7.4446,7.1323 -8.2418,14.3316 c -6.2221,10.8195 -8.4849,14.2581 -9.2336,14.0317 -0.5454,-0.165 -4.9303,-1.4406 -9.7443,-2.8347 l -8.7525,-2.5348 -9.1432,9.1431 -9.1431,9.1432 2.8102,9.6633 c 2.1605,7.4292 2.6299,9.7809 2.0302,10.1716 -0.4289,0.2795 -6.8649,4.0248 -14.302,8.3229 l -13.5221,7.8147 -7.1385,-7.4042 -7.1384,-7.4041 -5.4212,1.7549 c -2.9816,0.9651 -8.485,2.4437 -12.2296,3.2857 -3.7446,0.8419 -6.8775,1.6158 -6.9619,1.7197 -0.084,0.1038 -1.2255,4.5985 -2.5357,9.9881 l -2.3823,9.7992 -16.5638,0 -16.5638,0 z m 139.8126,-140.3643 c -0.4936,-67.36189 -53.8728,-113.11085 -122.6343,-114.37911 -64.0998,0.68412 -112.9604,47.84885 -112.7761,116.36701 0.1724,64.0538 48.1346,116.8828 112.0066,118.3653 69.5847,-0.9761 119.3125,-52.0435 123.4038,-120.3532 z"
       id="path5283"
       style="fill:#000000" />
    <path
       d="m 820.59635,225.35479 c 0,-0.5715 1.5388,-3.3339 3.4196,-6.1386 3.6565,-5.4529 4.089,-7.5609 2.2718,-11.0749 -3.5115,-6.79047 -10.0985,-4.78575 -21.6368,6.5851 -4.6604,4.5928 -7.7993,7.1083 -8.8699,7.1083 -0.9114,0 -5.5319,-1.2179 -10.2679,-2.7064 -10.5818,-3.326 -16.95719,-4.8666 -20.19919,-4.8814 -3.8279,-0.017 -3.0243,-1.6436 2.7678,-5.6012 5.65279,-3.86236 7.33599,-6.47382 6.48499,-10.06101 -0.945,-3.98358 -3.15269,-5.62606 -7.56209,-5.62606 -4.4861,0 -6.133,0.46244 -16.8023,4.71827 l -7.7026,3.07244 -3.3159,-2.30337 c -1.8237,-1.26685 -6.3934,-4.89857 -10.1549,-8.07048 -3.7615,-3.17191 -8.4493,-6.53844 -10.4174,-7.48118 -3.5007,-1.67688 -4.5883,-3.30229 -2.6908,-4.02157 0.5224,-0.19805 3.3435,-0.8565 6.2692,-1.46324 6.4648,-1.34079 8.7388,-3.44449 8.7388,-8.08459 0,-6.2335 -5.0766,-8.2819 -20.525,-8.2819 -10.9127,0 -9.9533,0.7268 -17.2104,-13.0368 -2.8593,-5.4229 -6.5076,-11.589 -8.1072,-13.7026 -1.5997,-2.1135 -2.6255,-4.1153 -2.2797,-4.4484 0.3458,-0.3332 3.2695,-0.075 6.4971,0.5739 6.8671,1.3804 9.8147,0.6487 11.6451,-2.8908 3.2945,-6.371 0.3264,-9.4999 -15.8707,-16.7305 -4.1118,-1.8356 -7.7839,-3.9062 -8.1604,-4.6014 -0.3764,-0.6952 -1.3877,-7.500404 -2.2473,-15.122604 -0.8596,-7.6223 -1.8893,-14.4685 -2.2882,-15.2138 -1.1123,-2.0784 -0.8728,-2.9749 0.7946,-2.9749 0.8359,0 1.5198,0.2876 1.5198,0.6391 0,1.2846 7.838,4.8813 10.8071,4.9591 2.5168,0.066 3.3944,-0.3452 5.3084,-2.4874 1.9296,-2.1596 2.2322,-3.0211 1.9086,-5.4336 -0.5167,-3.8523 -4.2085,-9.0273 -11.4097,-15.9936 l -5.9729,-5.7781 0.8675,-3.3406 c 0.4772,-1.8374 2.0467,-7.2731 3.4879,-12.0795 1.4412,-4.8063 2.8727,-10.7623 3.1811,-13.2355 0.3084,-2.4731 0.9767,-4.6349 1.485,-4.8041 0.5084,-0.169 2.1218,1.5646 3.5855,3.8527 4.9491,7.7366 9.8005,9.4923 14.1662,5.1266 3.3287,-3.3287 2.8574,-7.3274 -2.4493,-20.7808003 -1.6107,-4.08329999 -2.9234,-8.0158 -2.9173,-8.7388 0.01,-0.723 2.5565,-4.3921 5.6673,-8.1535997 3.1108,-3.7615 7.6128,-9.6602 10.0045,-13.1082 2.3916,-3.4481 4.7725,-6.2692 5.2908,-6.2692 0.5184,0 1.1647,1.1114 1.4363,2.4697 1.7542,8.7726 4.5195,12.7282 8.8981,12.7282 6.0845,0 7.4496,-3.0412 8.314,-18.5221 0.3732,-6.6843 0.7582,-12.2051 0.8554,-12.2685 0.5127,-0.3341 14.3934,-8.0737 17.6545,-9.8438 5.8535,-3.1774 10.2557,-6.0396 10.2572,-6.669 7e-4,-0.3135 0.5531,-0.57 1.2274,-0.57 0.971,0 1.1305,0.5139 0.7665,2.4697 -1.3897,7.4674 -1.3393,10.8117 0.1995,13.2515 2.1109,3.3468 6.32799,4.5205 9.54879,2.6577 3.1762,-1.8371 6.6981,-7.3101 9.5089,-14.7769 1.2964,-3.4439 2.6675,-7.0025 3.0468,-7.9081 0.8497,-2.0285 4.934,-2.9388 18.1378,-4.0423 5.1585,-0.4311 10.8993,-1.1666 12.7574,-1.6345 3.9266,-0.9888 4.826,-0.4899 3.3329,1.8486 -3.1918,4.9993 -5.3061,9.5122 -5.3183,11.3519 -0.01,1.2333 0.8812,3.0793 2.1882,4.5421 1.7832,1.9958 2.7756,2.4644 5.2192,2.4644 3.8966,0 7.6706,-2.5896 15.8842,-10.8993 6.2978,-6.3715 6.3024,-6.3743 9.5452,-5.9296 1.7845,0.2447 7.1769,1.6814 11.9833,3.1926 4.8063,1.5112 11.2179,3.1452 14.248,3.6312 5.6316,0.9032 6.8376,1.9692 3.7995,3.3585 -0.9404,0.43 -3.4885,2.1896 -5.6627,3.9103 -4.6439,3.6753 -5.7066,6.7649 -3.6769,10.6901 2.5785,4.9862 8.4879,4.8871 21.3587,-0.3583 4.5637,-1.8598 9.0024,-3.3816 9.8638,-3.3816 0.8615,0 6.283,3.7716 12.0478,8.3813 5.7649,4.6097 11.816,9.062 13.447,9.8941 1.6309,0.8321 2.9654,1.9916 2.9654,2.5769 0,1.0372 -0.9524,1.3539 -7.219,2.4001 -6.0291,1.0067 -9.4987,3.9736 -9.4987,8.1224 0,6.2425 4.6857,8.2971 19.9628,8.7534 13.0495,0.3898 11.1364,-0.8994 18.3214,12.3469997 2.393,4.4116 5.7005,9.8043003 7.35,11.9837003 2.694,3.5594 3.7811,6.2114 2.5461,6.2114 -0.249,0 -2.3508,-0.5517 -4.6706,-1.2261 -6.0294,-1.7528 -10.584,-1.0932 -13.2792,1.9233 -4.7795,5.3492 -1.5091,10.1194 10.8915,15.8865 4.3402,2.0185 9.1386,4.22 10.6631,4.8921 2.6389,1.1637 2.8124,1.4706 3.6212,6.401 0.4671,2.8482 1.357,9.2821 1.9775,14.2974 0.6205,5.0153 1.3439,10.4011 1.6076,11.9684 0.3848,2.2876 0.2437,2.8496 -0.7151,2.8496 -0.6569,0 -1.4101,-0.3491 -1.6738,-0.7757 -0.2637,-0.4267 -2.2501,-1.7913 -4.4143,-3.0325 -6.1814,-3.5452 -11.4802,-2.9834 -13.7784,1.4608 -2.1984,4.2512 0.4757,9.3558 9.9229,18.9423 3.9268,3.9847 7.1397,7.868004 7.1397,8.629604 0,0.7616 -1.5368,6.6911 -3.4152,13.1767 -1.8784,6.4855 -3.6335,13.6485 -3.9002,15.9177 -0.2826,2.4043 -0.8393,4.0607 -1.3341,3.9695 -0.4671,-0.086 -1.7701,-1.698 -2.8956,-3.5822 -4.1326,-6.9183 -8.9074,-9.809 -13.2123,-7.9989 -3.3975,1.4285 -4.3228,3.0389 -4.2771,7.4435 0.043,4.0949 2.6554,12.4197 5.9519,18.9639 2.8366,5.631 2.9729,5.2933 -7.2995,18.0728 -3.1916,3.9704 -6.9516,9.01422 -8.3556,11.20842 -1.4039,2.1942 -2.8005,3.98946 -3.1033,3.98946 -0.8128,0 -1.4731,-2.09349 -1.4731,-4.67063 0,-1.24665 -0.7332,-3.97105 -1.6293,-6.05415 -1.7514,-4.0711 -4.3304,-5.9929 -8.0425,-5.9929 -5.6893,0 -7.8012,5.1182 -7.8161,18.94276 -0.01,5.25431 -0.1951,10.24032 -0.4208,11.08002 -0.2668,0.99271 -4.1666,3.65066 -11.1492,7.59896 -5.9064,3.33975 -12.2171,7.18355 -14.0239,8.54185 -4.3102,3.2405 -5.0771,3.1754 -4.4763,-0.3799 0.2649,-1.5673 0.6811,-4.9402 0.925,-7.49529 0.4146,-4.34474 0.3026,-4.80017 -1.7283,-7.03092 -2.9743,-3.26688 -6.009,-3.7387 -9.3862,-1.45933 -3.2083,2.16535 -7.5489,9.39711 -9.8266,16.37174 -2.5411,7.7813 -3.0095,8.2647 -8.9539,9.2402 -2.8384,0.4659 -8.9598,1.1685 -13.6032,1.5616 -4.6434,0.393 -9.9437,1.2374 -11.7784,1.8763 -4.1145,1.4328 -4.4757,1.4445 -4.4757,0.1445 z m -3.4037,-31.42974 c 59.3969,1.15968 119.042,-39.48355 122.481,-103.495654 4.0033,-74.5184 -44.5101,-133.3764 -115.1859,-134.2025 -70.12419,-0.8195 -114.20979,52.8280997 -116.01469,107.6195 -2.8668,69.890304 39.2737,128.722794 108.71959,130.078654 z"
       id="path3035-0"
       style="fill:#000000" />
    <path
       d="m 1235.8711,269.23459 c -4.0285,-30.2577 -6.1346,-57.5746 -10.6886,-84.1866 -5.4129,-0.5792 -1.5695,-0.1988 -6.2725,-0.6553 -14.1138,-1.3701 -37.3122,-10.7871 -49.8352,-20.2299 -3.2982,-2.487 -6.4673,-4.3412 -7.0425,-4.1205 -0.5751,0.2207 -11.7534,7.9119 -24.8406,17.0916 -13.0872,9.1796 -23.9989,16.4862 -24.2483,16.2368 -0.2494,-0.2494 7.2149,-11.3275 16.5874,-24.6181 9.3724,-13.2905 17.0408,-24.4088 17.0408,-24.7071 0,-0.2984 -2.8762,-4.8934 -6.3915,-10.2112 -9.5631,-14.4665 -15.1439,-28.3917 -17.8868,-44.631204 -1.1767,-6.9661 -1.6271,-7.9981 -3.7788,-8.6575 -1.3436,-0.4117 -14.5929,-2.8508 -29.4429,-5.4201 -25.5857,-4.4267 -53.9431,-4.5341 -52.948,-5.2873 0.2292,-0.1734 38.548,-2.9376 53.948,-5.5462 15.4,-2.6085 28.7875,-4.9719 29.75,-5.252 1.1414,-0.3321 1.75,-1.5063 1.75,-3.3764 0,-1.577 0.654,-5.9342 1.4534,-9.6826 3.4934,-16.3813 10.9199,-32.6119 20.8579,-45.58490029 1.5883,-2.07330001 2.6421,-4.40970001 2.3418,-5.19200001 -0.3002,-0.7824 -8.0488,-12.0447997 -17.2191,-25.0275997 -9.1703,-12.9827 -16.5069,-23.7637 -16.3036,-23.9578 0.2033,-0.1941 11.5681,7.5029 25.2551,17.1043 l 24.8855,17.4571 2.6145,-2.3391 c 11.4441,-10.2389 33.7685,-20.1143 51.8277,-22.9264 l 8.2133,-1.279 0.9296,-4.535 c 0.5113,-2.4942 2.8882,-15.8975 5.282,-29.785 2.3938,-13.8875 5.209,-44.425796 5.5237,-44.425796 0.3148,0 1.424,27.613296 3.1973,37.925796 1.7734,10.3125 4.1407,23.726 5.2607,29.8078 l 2.0365,11.0578 7.9046,1.1521 c 8.5782,1.2503 22.7988,5.6881 31.6602,9.8802 3.0651,1.4501 9.5138,5.2725 14.3305,8.4943 4.8166,3.2218 9.0281,5.8578 9.3589,5.8578 0.3307,0 11.4632,-7.6604 24.7389,-17.0232 13.2757,-9.3627 24.3198,-16.8409 24.5425,-16.6182 0.2227,0.2227 -6.9579,10.9206 -15.957,23.7732 -8.999,12.8525 -16.6889,23.9170997 -17.0886,24.5878997 -0.428,0.7182 1.6006,4.61810001 4.9337,9.4851 9.4516,13.8008003 16.0275,29.8034003 18.7911,45.7287003 0.7896,4.5503 1.8167,8.6042 2.2823,9.0086 0.4656,0.4043 3.7716,1.2287 7.3466,1.8319 3.575,0.6032 16.4,2.7644 28.5,4.8027 12.1,2.0383 48.7024,4.0006 49.1128,4.3607 0.4103,0.3601 -38.1064,2.8152 -53.3667,5.4558 -15.2604,2.6406 -28.7468,5.0282 -29.9699,5.3058 -1.6408,0.3724 -2.381,1.4611 -2.8235,4.1528 -3.163,19.242804 -11.2981,39.855004 -20.8714,52.882504 -2.5197,3.4288 -4.5813,6.4611 -4.5813,6.7383 10.874,16.9916 23.0724,33.2683 34.3824,50.4223 -18.0035,-12.1823 -31.488,-21.7841 -50.5123,-35.1252 l -3.6851,2.9017 c -13.5926,10.7032 -35.1452,19.831 -52.4363,22.2075 -3.1633,0.4348 -5.7189,0.6608 -6.2618,1.3009 -2.4279,14.2441 -7.5014,44.3609 -12.1874,83.3892 z m -0.013,-101.5036 c 0.215,14.5262 0.7113,58.404 1.1708,64.7298 1.4692,-7.718 4.9118,-40.0258 8.3525,-64.5952 -3.121,0.087 -5.9007,0.1957 -9.5233,-0.1346 z m -11.2868,12.7665 c 0,-0.6424 -0.4789,-3.9179 -1.0641,-7.2787 l -1.0642,-6.1107 -9.1858,-2.2854 c -5.0523,-1.257 -9.8214,-2.3691 -10.5982,-2.4713 -1.4745,-0.194 -6.5435,10.7676 -5.6488,12.2153 0.9163,1.4827 19.0726,6.3002 26.3111,6.9813 0.6875,0.065 1.25,-0.408 1.25,-1.0505 z m 35.1399,-0.777 c 12.0428,-2.5027 17.4416,-4.463 17.0634,-6.1957 -0.6182,-2.8322 -4.5998,-11.8592 -5.2308,-11.8592 -0.3627,0 -3.1877,0.8699 -6.2778,1.933 -3.0901,1.0632 -7.61,2.2317 -10.0442,2.5967 -4.2774,0.6415 -4.4472,0.803 -5.065,4.817 -0.3515,2.2843 -0.9021,5.6158 -1.2236,7.4033 -0.3402,1.8918 -0.1661,3.25 0.4167,3.25 0.5507,0 5.2133,-0.8753 10.3613,-1.9451 z m -65.3899,-12.5795 c 1.2375,-3.037 2.25,-6.1095 2.25,-6.8277 0,-0.7182 -2.3337,-2.3952 -5.1861,-3.7267 -2.8523,-1.3316 -6.9535,-3.6984 -9.1137,-5.2596 l -3.9276,-2.8387 -6.2695,4.2515 -6.2695,4.2515 2.6332,2.1495 c 5.4515,4.45 20.9436,13.5033 23.1332,13.5185 0.275,0 1.5125,-2.4813 2.75,-5.5183 z m 92.5398,3.3992 c 2.3156,-1.1689 7.9715,-4.5656 12.5686,-7.5482 l 8.3584,-5.4229 -6.1892,-4.3072 -6.1893,-4.3073 -8.0787,4.8555 c -4.4434,2.6705 -8.682,4.8555 -9.4192,4.8555 -0.7372,0 -1.3417,0.3375 -1.3433,0.75 0,1.0761 5.2263,13.25 5.6928,13.25 0.2144,0 2.2843,-0.9564 4.5999,-2.1254 z m -131.4992,-12.3746 18.0973,-13 c -1.9678,-1.9923 -3.9356,-3.9846 -5.9033,-5.9769 l -16.2423,16.347 c -8.9333,8.9908 -15.7488,16.1856 -15.1457,15.9884 0.6032,-0.1972 9.2404,-6.2085 19.194,-13.3585 z m 157.0887,-23.9749 c -2.8831,0.2547 -3.9654,2.5587 -5.9564,4.8757 11.1912,10.5712 21.3625,22.2946 32.794,32.5992 -9.7436,-12.7124 -15.6288,-24.5426 -26.8376,-37.4749 z m 17.3357,-1.2354 c 4.1482,-6.2114 9.785,-16.4476 9.785,-17.7691 0,-0.6105 -10.7655,-5.5206 -12.1041,-5.5206 -0.4704,0 -1.8191,1.8894 -2.9972,4.1986 -1.1781,2.3092 -3.7089,6.5586 -5.6241,9.4431 l -3.4822,5.2445 4.2338,6.0356 c 2.3285,3.3196 4.5534,5.8381 4.9441,5.5966 0.3907,-0.2415 2.7508,-3.4944 5.2447,-7.2287 z m -175.726,1.0291 c 2.9976,-4.5147 3.5429,-6.0034 2.6558,-7.25 -1.3412,-1.8849 -8.9967,-15.226 -9.404,-16.3885 -0.158,-0.4509 -3.12,0.4087 -6.5822,1.9102 -5.7044,2.474 -6.2379,2.9575 -5.6866,5.154 1.1388,4.5373 12.6327,22.2555 14.4373,22.2555 0.4441,0 2.505,-2.5565 4.5797,-5.6812 z m -13.8412,-26.5156 5.1478,-2.0025 -2.3189,-7.150404 c -1.2754,-3.9326 -2.5876,-8.7732 -2.9162,-10.7568 -0.5971,-3.6051 -0.5999,-3.6069 -7.7138,-4.7817 -3.9141,-0.6464 -7.2865,-1.0053 -7.4943,-0.7976 -0.6603,0.6604 2.5603,15.9136 4.7484,22.488704 1.69,5.0784 2.4327,6.1999 3.7531,5.6671 0.9053,-0.3654 3.9626,-1.5654 6.7939,-2.6668 z m 204.6561,-6.8032 c 1.3351,-4.675004 2.7324,-10.893004 3.1052,-13.817804 l 0.6778,-5.3178 -4.7738,0.7159 c -9.9089,1.4859 -9.3779,0.9512 -12.3831,12.4708 -1.4992,5.746904 -2.6592,10.519104 -2.5779,10.604804 0.8984,0.9472 12.3227,4.9136 12.8362,4.4566 0.3785,-0.3369 1.7806,-4.4375 3.1156,-9.1125 z M 1139.1351,69.898086 c -47.7692,0.089 -58.5616,1.4154 -55.1728,2.06 27.4737,2.545 31.3623,4.5674 55.1974,6.7808 0.1821,-2.994 0.01,-6.457 -0.025,-8.8408 z m 196.9268,-5.6185 c -0.7648,5.1028 -0.06,5.7611 0.069,8.4916 10.5939,7e-4 39.7444,-3.0258 51.8729,-3.5537 -17.2912,-2.0731 -36.4828,-3.6159 -51.9419,-4.9379 z m -101.423,-91.4738 1.4324,-48.0124 -7.4523,48.6658 c 12.0478,-0.1392 1.411,0.022 6.0199,-0.6534 z m 113.4335,80.6098 c -0.6236,-4.7689 -5.069,-22.2418 -6.0713,-23.8636 -0.2287,-0.37 -3.3566,0.5167 -6.951,1.9704 -5.5492,2.2444 -6.448,2.9449 -5.9579,4.6432 0.3175,1.1 1.5341,5.825 2.7036,10.5 1.1695,4.675 2.2152,8.6303 2.3239,8.7896 0.1086,0.1593 3.2922,0.9045 7.0746,1.6561 3.7823,0.7515 7.0317,1.4087 7.2208,1.4603 0.1892,0.052 0.035,-2.2685 -0.3427,-5.156 z m -213.7004,3.1993 4.8992,-1.0507 2.101,-8.1993 c 1.1555,-4.5096 2.4009,-9.2132 2.7675,-10.4524 0.5881,-1.9882 0,-2.5466 -4.9795,-4.75 -3.1052,-1.3733 -6.0342,-2.4969 -6.5088,-2.4969 -1.7686,0 -3.6709,6.399 -7.655,25.75 -0.5444,2.6443 1.4488,2.8993 9.3756,1.1993 z m 102.9055,-73.3222 c -55.8436,-1.0257 -85.3513,32.1358 -86.1299,84.9582 -1.2138,51.126604 33.7346,87.142404 85.0593,87.371504 51.1078,1.9756 84.4841,-31.0754 87.8122,-77.005304 -2.2576,-65.7611 -36.636,-91.2667 -86.7416,-95.3244 z m -89.7062,45.5325 c 0,-0.4622 2.2504,-4.5847 5.0009,-9.1611 l 5.0009,-8.3207 -3.0558,-4.7620003 c -5.0203,-7.8235 -5.1922,-7.8355 -10.2415,-0.7164 -2.4578,3.4654 -5.8807,9.1180003 -7.6064,12.5614003 l -3.1378,6.2608 5.2698,2.4073 c 5.5039,2.5141 8.7699,3.1587 8.7699,1.7307 z m 185.3146,-1.3231 c 2.852,-1.1899 5.5594,-2.4863 6.0164,-2.881 1.0854,-0.9372 -2.2262,-7.4396 -9.0472,-17.7644003 l -5.4892,-8.309 -4.4584,6.1271 -4.4583,6.1271003 4.4417,7.1818 c 2.443,3.9501 4.7507,8.1944 5.1284,9.4319 0.8478,2.7776 1.4021,2.7837 7.8666,0.087 z m -197.6806,-57.7579 c 9.1889,13.2316 16.4843,23.1212997 26.492,36.9250997 1.7318,-2.0582 3.4636,-4.1163 5.1955,-6.17449999 -10.4226,-9.57700001 -21.8105,-22.89089971 -31.6875,-30.75059971 z m 201.5261,-0.9545 c 1.015,-1.0423 -34.0175,23.7364997 -36.0807,25.5201997 -0.6639,0.5739 4.144,5.35570001 5.3849,5.35570001 11.4171,-10.04919971 19.4811,-19.31169971 30.6958,-30.87589971 z m -150.2727,16.9436 c 4.5137,-2.7128 8.6736,-5.088 9.2442,-5.2782 0.6201,-0.2067 -0.049,-3.0605 -1.6631,-7.092 l -2.7006,-6.746 -7.6087,4.104 c -8.4841,4.5763 -17.1592,10.6447 -17.1592,12.0031 0,0.8644 9.8714,7.9413997 11.077,7.9413997 0.3321,0 4.2968,-2.2195997 8.8104,-4.9322997 z m 115.3835,0.8384 5.7708,-4.0938 -4.2708,-3.2106 c -7.9201,-5.9537 -20.1474,-12.5753 -21.2105,-11.4863 -0.6404,0.656 -5.6018,12.1818 -5.3233,12.3666 0.1446,0.096 3.4129,1.8655 7.2629,3.9322 3.85,2.0666 7.6589,4.3939 8.4643,5.1717 2.1388,2.0655997 2.9444,1.8335997 9.3066,-2.6798 z m -93.7709,-10.4915 c 2.75,-0.86 6.9929,-1.8686 9.4286,-2.2413 4.8719,-0.7454 5.2166,-1.3225 6.5412,-10.954 l 0.6731,-4.8939 -3.3214,0.4074 c -5.0219,0.616 -19.07,4.0478 -22.5368,5.5055 l -3.0636,1.2881 2.4953,6.2368 c 1.3724,3.4302 3.0102,6.2319 3.6394,6.226 0.6293,-0.01 3.3942,-0.7145 6.1442,-1.5746 z m 67.1682,-4.8091 c 2.9219,-6.9389 3.1969,-6.6125 -8.1521,-9.6775 -10.0918,-2.7254 -18.5161,-3.9201 -18.5161,-2.6259 0,0.532 0.5299,3.8432 1.1775,7.3581 1.0374,5.6298 1.4839,6.458 3.75,6.9553 1.4149,0.3105 5.7225,1.3828 9.5725,2.3828 3.85,1 7.6044,1.747 8.343,1.66 0.7387,-0.087 2.46,-2.8108 3.8252,-6.0528 z"
       id="path4466"
       style="fill:#000000" />
    <path
       d="m 181.21296,812.18736 c -0.5262,-2.39578 -3.6137,-27.87828 -6.86104,-56.62776 -3.2474,-28.74949 -6.3096,-54.13177 -6.8051,-56.40509 -0.7083,-3.24984 -2.8706,-4.42655 -10.1158,-5.50517 -5.0683,-0.75451 -10.2123,-2.1921 -11.4313,-3.19464 -1.5598,-1.28292 -5.19,3.69349 -12.257,16.80275 -5.5223,10.24403 -10.4799,18.18624 -11.0168,17.64938 -0.5369,-0.53688 1.2762,-8.36037 4.029,-17.38552 2.7528,-9.02518 5.0051,-17.43462 5.0051,-18.68769 0,-2.88517 -4.8473,-7.80972 -7.6873,-7.80972 -2.1564,0 -4.7403,-1.80482 -11.8854,-8.30207 -3.7051,-3.36915 -4.4585,-2.96114 -28.062903,15.19682 -13.3406,10.26243 -24.6684,18.24605 -25.1731,17.74143 -0.5046,-0.50462 21.7286,-18.23313 49.407103,-39.39672 53.6523,-41.02358 55.932,-43.54641 45.5168,-50.37072 l -4.9888,-3.26878 -46.2065,46.1764 c -25.413603,25.39705 -45.815603,46.80895 -45.337803,47.58201 1.0812,1.74943 -14.4198,14.22464 -15.8713,12.77316 -0.5803,-0.58029 8.9045,-13.97106 21.0774,-29.75725 12.1729,-15.7862 23.6371,-31.03558 25.4761,-33.88751 3.2236,-4.99932 3.1999,-5.26218 -0.6602,-7.32808 -2.2021,-1.17853 -4.0038,-3.41891 -4.0038,-4.97864 0,-1.55973 -0.8712,-2.83588 -1.936,-2.83588 -1.0648,0 -1.936,-1.36902 -1.936,-3.04228 0,-3.57658 -4.5518,-8.57367 -7.8098,-8.57367 -1.253,0 -9.6625,2.25233 -18.6876,5.00518 -9.0252,2.75282 -16.8232,4.59134 -17.329,4.08558 -0.5057,-0.50578 6.7525,-5.19173 16.1295,-10.41324 16.7788,-9.34317 17.0384,-9.59969 16.3853,-16.18553 -0.365,-3.68053 -1.469,-7.67046 -2.4534,-8.86649 -0.9843,-1.19604 -1.2599,-3.55535 -0.6123,-5.24292 1.5389,-4.01047 2.0912,-3.90955 -60.1583999,-10.9929 -28.7495001,-3.27137 -54.1871001,-6.66866 -56.6278001,-6.8736 -35.053,-4.26573 -34.9594,-1.96913 -1.6962,-6.65985 5.797,-0.74248 116.0155,-13.68169 117.4851,-14.58998 0.8669,-0.53581 1.6055,-2.48164 1.6413,-4.32406 0.134,-6.9009 2.6212,-15.93382 4.3873,-15.93382 4.2974,0 -1.5284,-4.23016 -17.7993,-12.92433 -9.5604,-5.10847 -17.3825,-9.86696 -17.3825,-10.57439 0,-0.70745 8.3304,1.2148 18.512,4.27167 15.2046,4.56498 19.1823,5.13932 22.2639,3.21483 2.0635,-1.28869 3.7519,-3.90327 3.7519,-5.81014 0,-1.90688 1.3018,-3.9666 2.8929,-4.57715 1.5911,-0.61056 2.4477,-1.8304 1.9036,-2.71076 -0.5441,-0.88037 0.8631,-2.89816 3.1272,-4.48399 l 4.1165,-2.88333 -5.5361,-7.65588 c -3.0449,-4.21072 -14.4659,-19.39548 -25.3801,-33.74389 -10.9141,-14.34842 -0.6333,-0.22759 -19.8439,-27.38535 40.8665,34.29451 66.689503,56.11709 98.399703,84.54899 -3.6784,-20.49383 -13.5188,-66.00947 -16.7493,-90.62179 18.1195,32.98823 27.1203,49.10658 39.005,71.51125 4.0983,-29.5947 8.9282,-68.32933 13.062,-102.47115 6.82514,-56.65071 6.90914,-59.43105 3.41404,-63.34787 -18.11634,-27.18091 -11.28344,-46.94065 6.7871,-68.65623 16.7706,21.52025 24.5304,41.74906 6.2543,68.93698 -3.1021,3.42777 -3.2244,5.54653 -1.3155,22.77529 4.7055,42.46652 12.0472,100.06058 12.939,101.50362 0.5231,0.84637 2.1883,1.06409 3.7004,0.48384 1.5121,-0.58024 3.8646,-0.36564 5.2279,0.47691 1.3633,0.84254 3.8008,1.67852 5.4167,1.85774 1.6159,0.17927 4.2448,0.87193 5.842,1.53936 2.1506,0.89871 5.3192,-3.30524 12.2147,-16.20613 5.1209,-9.58081 10.0103,-17.41964 10.8653,-17.41964 0.8551,0 -0.9278,8.3498 -3.9618,18.55509 -4.7576,16.00246 -5.1395,18.93214 -2.7757,21.29591 1.5075,1.50746 4.1372,2.74082 5.8439,2.74082 1.7067,0 3.6045,1.3068 4.2174,2.90399 0.6129,1.59719 2.3553,2.90399 3.872,2.90399 1.5166,0 3.259,1.30679 3.8719,2.90398 1.5355,4.00126 4.5109,3.6365 9.6397,-1.18178 2.392,-2.24719 8.2754,-6.82096 13.0743,-10.16396 4.7989,-3.34299 17.1077,-12.48664 27.3531,-20.31921 10.2454,-7.83257 19.0898,-13.7792 19.6542,-13.21474 0.902,0.90201 -27.0431,38.92058 -42.2066,57.42075 -5.6427,6.88442 -7.0849,11.65885 -3.5219,11.65885 1.0983,0 2.5587,1.52459 3.2455,3.38798 0.6868,1.8634 3.4556,6.43717 6.1529,10.16396 2.6973,3.72678 5.0198,7.00159 5.1612,7.27734 0.1413,0.27576 8.8751,-2.06083 19.4084,-5.19243 10.5333,-3.13158 19.4285,-5.41677 19.7671,-5.07818 0.7662,0.76618 -8.4519,6.3656 -24.3258,14.77638 -9.0474,4.79375 -11.8288,7.20354 -10.8822,9.42824 0.6994,1.64369 1.4739,4.29534 1.721,5.89254 0.2472,1.5972 1.0832,4.38686 1.8578,6.19926 0.7746,1.81242 0.8814,4.148 0.2372,5.1902 -0.6441,1.04222 -0.4219,2.35794 0.4937,2.92383 1.4403,0.89017 112.5687,14.27447 118.2587,14.72659 44.72,6.30025 44.8184,2.00344 -2.2488,6.63902 -4.5966,0.429 -33.7835,4.44934 -83.7317,10.04447 -15.9719,1.78917 -30.0389,4.02651 -31.26,4.9719 -1.2211,0.94538 -1.7729,3.42924 -1.2262,5.51968 0.5878,2.24781 0.026,3.8008 -1.3749,3.8008 -1.3924,0 -1.8708,1.2983 -1.1604,3.14938 0.6647,1.73215 0.1474,4.4279 -1.1495,5.99054 -1.9207,2.31432 -1.4781,3.51735 2.3866,6.48755 2.6095,2.00549 5.3338,3.66572 6.054,3.6894 2.8555,0.0939 27.5387,15.46215 24.8264,15.45742 -1.5972,-0.002 -10.6796,-2.44831 -20.183,-5.43452 -15.7615,-4.95259 -17.5602,-5.1617 -20.4789,-2.38069 -1.7599,1.67684 -2.8236,4.13046 -2.364,5.45247 0.4597,1.32201 -0.5613,2.93982 -2.269,3.59512 -1.7077,0.6553 -3.1049,2.29835 -3.1049,3.65124 0,1.35291 -1.3067,3.54436 -2.9039,4.86991 -1.5973,1.32555 -2.904,3.08626 -2.904,3.9127 0,0.82644 8.9298,13.14893 19.8439,27.38333 29.0727,37.91706 30.8271,40.33568 29.2583,40.33568 -0.7867,0 -16.5444,-11.47405 -35.017,-25.49785 -33.2768,-25.26286 -33.6137,-25.45884 -36.5522,-21.26352 -1.6312,2.32887 -3.6862,3.78915 -4.5666,3.24505 -0.8803,-0.5441 -2.1001,0.31253 -2.7107,1.9036 -0.6106,1.59108 -2.5064,2.89287 -4.2131,2.89287 -1.7067,0 -4.4202,1.3171 -6.0299,2.92688 -2.6118,2.61181 -2.3064,5.00825 2.8379,22.26391 3.1706,10.63536 5.1534,19.33703 4.406,19.33703 -0.7473,0 -5.1439,-7.18737 -9.7702,-15.97194 -10.3444,-19.64241 -11.6087,-21.32862 -14.3711,-19.16674 -2.963,2.31895 -13.0406,4.87187 -17.167,4.34884 -1.8634,-0.23617 -3.3946,0.27874 -3.4026,1.14426 -0.01,0.86553 -2.1884,19.86882 -4.8453,42.22953 -2.6569,22.36071 -5.8226,49.15 -7.0347,59.53176 -1.5633,13.38781 -1.4287,12.83419 -1.8788,17.28374 -3.0254,27.79595 -1.6667,28.02573 -6.4695,-2.76381 z m 7.4568,-57.60722 c 9.4116,-75.84469 14.8925,-124.49573 14.3597,-127.46229 -0.5204,-2.89764 -1.7631,-3.14002 -8.8336,-1.72294 l -8.2279,1.64908 0.043,32.31394 c 0.023,17.77266 -0.235,52.10163 -0.5742,76.28658 -0.3392,24.18496 -0.4259,43.78171 -0.1925,43.54836 0.2334,-0.23336 1.7751,-11.30908 3.4259,-24.61273 z m 112.0298,-68.23225 c -21.1203,-27.43818 -38.341,-49.90344 -52.6832,-68.72772 -13.3738,-17.5532 -18.3972,-19.86384 -24.1378,-11.10267 l -3.1904,4.86929 46.9744,47.4025 c 25.836,26.07139 47.2754,47.40251 47.6431,47.40251 0.3677,0 -6.205,-8.92976 -14.6061,-19.84391 z m -70.3749,-10.98343 c -4.1774,-14.29134 -8.0405,-26.42931 -8.5844,-26.97327 -0.544,-0.54396 -1.9561,-0.0219 -3.138,1.15997 -1.5746,1.57464 0.6061,8.89698 8.1598,27.39796 5.6697,13.88695 10.4998,25.05788 10.7334,24.8243 0.2336,-0.2336 -2.9933,-12.11763 -7.1708,-26.40896 z m -80.54564,-2.38253 c 9.6628,-17.81957 10.6397,-20.9979 6.4536,-20.9979 -2.0925,0 -14.3591,26.05045 -21.8788,46.4638 -1.7599,4.77761 5.735,-7.59594 15.4252,-25.4659 z m 14.8929,4.16999 c 0,-4.5173 -0.8604,-5.80797 -3.872,-5.80797 -2.1296,0 -4.5253,-0.0577 -5.3239,-0.12836 -0.7986,-0.0707 -2.6413,1.66278 -4.0949,3.85194 -2.3779,3.5814 -2.1839,4.16403 1.936,5.81361 8.6191,3.451 11.3548,2.55252 11.3548,-3.72922 z m 49.24184,3.9199 c 5.6005,-2.12932 6.0433,-3.64253 2.4885,-8.50408 -3.7279,-5.09824 -13.0104,-1.17116 -13.0104,5.50426 0,5.32458 2.5187,6.04266 10.5219,2.99982 z m -76.34574,-9.56953 c 0,-0.97772 0.489,-3.05171 1.0865,-4.60888 0.7019,-1.82924 -1.4131,-4.37602 -5.9763,-7.19624 -7.0212,-4.33931 -7.0851,-4.3426 -10.8675,-0.56016 -3.7825,3.78244 -3.7616,3.83456 3.5562,8.85751 7.651,5.25158 12.2011,6.55974 12.2011,3.50777 z m 106.08524,-3.75728 8.3175,-5.51835 -4.82,-3.15816 c -4.4759,-2.9327 -5.2415,-2.91824 -10.7252,0.20266 -5.5495,3.15832 -7.8613,9.496 -4.6392,12.71811 2.0027,2.00273 2.9755,1.65483 11.8669,-4.24426 z m -80.56264,-5.22305 c -0.7789,-6.67165 -0.8927,-6.75925 -3.656,-2.8142 -3.1461,4.49167 -2.1346,9.70019 1.8838,9.70019 1.8119,0 2.3375,-2.04266 1.7722,-6.88599 z m 46.87104,5.72923 c 2.6997,-1.03598 2.711,-1.74328 0.1085,-6.77596 -3.7854,-7.32026 -4.7424,-7.08684 -4.7424,1.15675 0,7.27426 0.077,7.36777 4.6339,5.61921 z m -67.12944,-15.17608 c 2.6421,-8.60878 -0.4004,-10.0307 -8.1835,-3.82465 -5.5983,4.4639 -5.6373,4.61843 -1.8827,7.45638 5.804,4.38701 7.8295,3.65626 10.0662,-3.63173 z m 93.15734,3.55745 4.4193,-3.09546 -6.2135,-4.5842 c -8.6902,-6.41144 -11.4623,-4.29806 -7.6195,5.80908 2.2057,5.80147 3.4488,6.0485 9.4137,1.87058 z m -76.02304,-23.38789 c -0.9444,-2.46106 -1.5038,-2.43192 -4.1519,0.21626 -1.6833,1.68328 -4.735,3.95665 -6.7816,5.05194 -5.4685,2.92666 -4.5916,4.96407 3.539,8.2231 l 7.2599,2.91006 0.613,-6.77857 c 0.3372,-3.7282 0.122,-8.05847 -0.4784,-9.62279 z m 57.22784,12.80355 7.8403,-3.9998 -7.4334,-5.5647 -7.4335,-5.56468 -1.2229,5.20851 c -1.618,6.89099 -1.9391,13.92048 -0.6359,13.92048 0.5748,0 4.5732,-1.79991 8.8854,-3.99981 z M 100.87892,628.016 c -2.812603,-4.42585 -5.019503,-5.85992 -8.258503,-5.36655 -2.4311,0.37031 -4.7438,0.98435 -5.1393,1.36454 -0.3956,0.38017 1.6922,4.80616 4.6396,9.83552 l 5.3589,9.14429 3.618803,-4.46898 c 3.5405,-4.37235 3.5358,-4.59955 -0.2195,-10.50882 z m 178.09804,2.51243 3.6705,-7.19467 -5.2152,-1.30894 c -3.103,-0.77879 -5.4929,-0.47614 -5.9007,0.74729 -0.377,1.13091 -2.2569,3.99692 -4.1776,6.36886 -3.1615,3.90438 -3.2155,4.73475 -0.5705,8.77172 3.5407,5.40371 6.6214,3.53811 12.1935,-7.38426 z m -166.93244,-5.73261 c 5.6144,-7.1089 4.223,-9.87926 -3.8054,-7.57675 -7.8971,2.26486 -7.9954,2.42074 -5.2807,8.37887 2.8738,6.30715 3.5162,6.25045 9.0861,-0.80212 z m 154.11534,0.37781 c 2.8234,-5.4601 2.7846,-5.53502 -3.9389,-7.59853 -5.5541,-1.70461 -6.9901,-1.56386 -7.8869,0.773 -0.8708,2.26944 5.9788,12.34001 8.3933,12.34001 0.3194,0 1.864,-2.48152 3.4325,-5.51448 z M 90.136217,620.51182 c 11.712803,-3.30294 21.593603,-6.21951 21.957403,-6.48127 0.3638,-0.26179 -0.072,-1.7821 -0.968,-3.37848 -1.3736,-2.44679 -5.2589,-1.39874 -24.743603,6.67437 -12.7128,5.26729 -23.6027,10.13168 -24.1999,10.80974 -0.5972,0.67809 0.6567,0.59118 2.7863,-0.19302 2.1296,-0.78427 13.4551,-4.12834 25.1678,-7.43126 z M 287.01186,613.961 c -13.1051,-7.00422 -23.4163,-13.14613 -22.9137,-13.6487 0.5026,-0.50259 2.6735,0.0281 4.8243,1.17908 5.6202,3.00783 8.0371,2.58974 8.0371,-1.39039 0,-5.1141 -12.8614,-3.3605 -15.8138,2.15615 -1.191,2.22529 -1.3871,4.35701 -0.4358,4.73714 0.9513,0.38013 11.7484,4.89537 23.9935,10.03388 12.2452,5.13849 23.1352,9.41585 24.1999,9.50524 1.0649,0.0894 -8.7863,-5.56819 -21.8915,-12.5724 z m -86.0043,2.11477 c 22.8871,-9.56284 33.0528,-37.77699 21.6175,-59.9979 -16.0424,-31.17354 -61.20014,-30.54133 -77.33354,1.08268 -4.544,8.90711 -5.1453,26.03669 -1.2409,35.3539 9.1355,21.80026 35.28374,32.61698 56.95694,23.56132 z m 56.5109,-14.47871 c 0.063,-2.29004 -1.6645,-2.78866 -7.675,-2.21547 -4.2658,0.40681 -8.2314,1.50874 -8.8123,2.44874 -0.581,0.94 1.3711,4.7513 4.338,8.46954 l 5.3943,6.76045 3.3369,-6.25406 c 1.8353,-3.43972 3.3735,-7.58385 3.4181,-9.2092 z m -133.01834,6.93052 c 2.9282,-3.66986 5.324,-7.07053 5.324,-7.55706 0,-0.48652 -4.3565,-1.18646 -9.6812,-1.55544 -5.3246,-0.36896 -9.6806,-0.047 -9.6799,0.71547 0,2.31742 6.4499,15.06963 7.6197,15.06957 0.6014,-4e-5 3.4892,-3.00267 6.4174,-6.67254 z m -38.252103,0.51978 c 3.0517,-1.39047 4.5988,-3.34166 3.9631,-4.99833 -0.5736,-1.4946 -1.0428,-3.85415 -1.0428,-5.2434 0,-1.38925 -2.6137,-2.9095 -5.808,-3.37834 -6.2525,-0.91766 -6.602,-0.16882 -4.598,9.85093 1.3913,6.95692 0.9628,6.74114 7.4857,3.76914 z m 203.822143,-5.46314 c 1.953,-7.69454 1.9301,-7.74396 -3.5996,-7.74396 -4.4086,0 -5.8334,1.06849 -6.8556,5.1412 -0.9506,3.78722 -0.353,5.82667 2.2691,7.74396 5.2549,3.84244 6.0292,3.35612 8.1861,-5.1412 z M 98.337617,597.44047 c -7.3834,-1.54293 -7.9747,-1.17801 -6.356,3.92235 1.181,3.72096 1.4616,3.74654 6.9131,0.6299 l 5.682103,-3.24848 z m 38.537403,-4.9882 c -0.5246,-1.86339 -1.5237,-6.21938 -2.2203,-9.67996 l -1.2663,-6.29197 -75.833903,0.29006 c -41.7085,0.15953 -73.5024,0.6468 -70.6528,1.08281 13.55950014,2.07466 140.683603,17.62407 145.472803,17.79378 4.3116,0.15275 5.2546,-0.51664 4.5005,-3.19472 z m 196.22824,-17.82863 47.4319,-0.47438 -52.2718,-6.52769 c -28.7495,-3.59023 -54.4498,-6.49636 -57.1118,-6.45809 -2.662,0.0383 -12.9415,-1.16035 -22.8433,-2.66365 -16.4041,-2.49044 -17.8943,-2.45815 -16.7753,0.36366 0.6755,1.7033 1.6961,5.88204 2.2681,9.28611 1.2057,7.17568 2.7319,7.5019 33.4785,7.15559 10.1156,-0.11403 39.7362,-0.42064 65.8237,-0.68155 z M 89.330417,551.85397 c 1.6351,-4.30063 1.3809,-5.72078 -1.386,-7.74396 -6.5359,-4.77923 -10.2804,-1.30326 -10.3657,9.62242 -0.046,5.87227 9.3776,4.36601 11.7517,-1.87846 z m 201.044943,-0.0575 c -0.075,-2.92819 -0.7639,-6.91786 -1.5313,-8.86595 -1.3439,-3.41155 -1.5635,-3.40577 -5.9637,0.15739 -6.1963,5.01741 -4.3794,14.03257 2.828,14.03257 3.9821,0 4.7799,-0.91007 4.667,-5.32397 z m -185.71914,1.87644 c 0,-1.95603 -11.053803,-6.14933 -12.471803,-4.73126 -3.2508,3.25088 -0.5211,6.2428 5.6958,6.2428 3.726803,0 6.776003,-0.68019 6.776003,-1.51154 z m 172.30334,-2.36044 c 0,-4.50606 -1.5526,-4.77362 -6.3946,-1.10196 -2.6121,1.98071 -2.8557,2.90125 -0.968,3.65757 5.0644,2.02909 7.3626,1.23138 7.3626,-2.55561 z m -152.31444,0.25495 5.4689,-1.22295 -5.4689,-7.18942 c -3.008,-3.95417 -6.0278,-7.22115 -6.7108,-7.25997 -1.0884,-0.0618 -7.4701,13.96973 -7.4701,16.42457 0,1.19489 7.1755,0.81426 14.1809,-0.75223 z m 130.62334,-6.99853 -4.2169,-8.67958 -5.3593,6.25958 c -2.9475,3.44278 -5.3946,6.85512 -5.4379,7.583 -0.077,1.29001 6.1639,2.64135 14.9001,3.2265 l 4.3308,0.29007 z m -147.08234,3.52995 c -0.5208,-2.6738 -22.357303,-13.20346 -46.605703,-22.47352 -6.7051,-2.56329 -3.1999,0.46385 5.808,5.01585 5.0577,2.55589 15.7299,8.22961 23.7158,12.60826 16.301103,8.93776 17.970603,9.41169 17.081903,4.84941 z m 39.7827,-6.08216 c -3.9397,-4.79621 -4.2905,-5.11268 -48.560003,-49.75942 -26.3909,-26.61579 -33.497,-34.32598 -45.8139,-45.48836 25.2616,31.1631 39.4887,51.95452 83.683103,105.81162 3.8163,-5.38821 5.4385,-5.95802 10.6908,-10.56384 z m 116.24844,0.37669 c 4.8541,-1.86269 3.7679,-6.67607 -1.2936,-5.73257 -2.3959,0.4466 -4.9821,0.87674 -5.7473,0.95586 -1.8936,0.19581 0.4352,5.95184 2.408,5.95184 0.8638,0 2.9486,-0.5288 4.6329,-1.17513 z m 49.5261,-97.23769 c 0,-0.37582 -4.1382,2.74235 -9.1959,6.92928 -5.0578,4.18693 -20.086,15.71333 -33.3959,25.61418 -13.31,9.90088 -27.3975,20.71328 -31.3057,24.02754 -3.9082,3.31428 -12.3568,9.94635 -18.7747,14.73793 -12.5802,9.39241 -13.5972,13.00271 -5.6072,19.90347 3.9292,3.39341 4.732,2.70983 51.1356,-43.54077 25.9292,-25.84356 47.1438,-47.2958 47.1438,-47.67163 z m -21.8197,85.66846 c 9.8275,-4.0373 17.6308,-7.57781 17.3408,-7.86782 -0.29,-0.28999 -5.717,1.08784 -12.0601,3.06185 -6.3431,1.97402 -15.2354,4.58598 -19.7609,5.80436 -5.241,1.41109 -8.2279,3.31755 -8.2279,5.25175 0,1.67008 1.089,2.59862 2.42,2.06345 1.331,-0.53519 10.4606,-4.2763 20.2881,-8.31359 z m -176.84894,3.43568 c 0.5319,-0.86056 -1.111,-4.12755 -3.6507,-7.25996 l -4.6178,-5.69527 -3.4598,4.83998 c -4.168903,5.83202 -4.045403,6.42258 1.6795,8.03499 6.4861,1.82676 8.9571,1.84649 10.0488,0.0803 z m 148.04164,-0.55987 c 3.3521,-1.16852 5.5511,-3.00392 4.8869,-4.07867 -0.7988,-1.2925 -1.6174,-1.30118 -2.4177,-0.0257 -0.7319,1.16646 -2.3324,0.72002 -4.0505,-1.12982 -2.5176,-2.71049 -2.4626,-2.91319 0.484,-1.78251 1.8285,0.70166 3.3245,0.5045 3.3245,-0.43813 0,-3.70348 -4.9802,-3.08582 -8.2083,1.018 -6.3356,8.05443 -4.4574,10.0757 5.9811,6.4368 z M 98.848217,527.63474 c 0,-1.1843 1.441803,-3.74647 3.204003,-5.69371 2.9866,-3.30009 2.9666,-3.80279 -0.2938,-7.40558 -4.039803,-4.46389 -7.138803,-2.86873 -11.749803,6.048 -3.6135,6.98784 -3.5557,7.32735 1.5797,9.26818 4.8076,1.81701 7.2599,1.06818 7.2599,-2.21689 z m 182.440143,-1.30717 c -0.2811,-1.25511 -2.7594,-5.84345 -5.5073,-10.19633 l -4.9961,-7.91432 -3.4691,5.28834 c -3.3707,5.13837 -3.3518,5.46613 0.6673,11.55789 3.4548,5.23651 4.9339,6.04519 8.9764,4.90799 2.6619,-0.74886 4.6099,-2.38848 4.3288,-3.64357 z m -102.0478,-0.183 4.6364,0 -0.1694,-76.95568 c -0.093,-42.32563 -0.4997,-75.21329 -0.9033,-73.0837 -1.0189,5.37677 -18.13234,148.15492 -18.13234,151.27956 0,1.92224 1.2019,2.07904 4.9661,0.6479 2.7313,-1.03845 7.0524,-1.88808 9.60254,-1.88808 z m 41.5527,-13.36932 4.8175,-3.7995 -4.8175,-1.80504 c -12.6105,-4.72494 -12.9785,-4.6949 -12.5764,1.0269 0.8855,12.59995 0.794,12.38391 4.3709,10.32618 1.8634,-1.07195 5.5559,-3.65881 8.2055,-5.74854 z m 12.8619,-10.02048 c 3.5863,-2.21644 6.5205,-4.37205 6.5205,-4.79027 0,-0.4182 -2.6292,-2.12 -5.8427,-3.78178 -6.3018,-3.25874 -6.2303,-3.31955 -8.5524,7.27795 -1.3994,6.38653 -0.5824,6.52079 7.8746,1.2941 z m -82.05454,10.66573 c -5.0365,-19.2982 -10.5383,-30.90896 -23.3926,-67.447 4.9072,23.32241 10.9479,48.75487 16.0226,72.04713 2.1922,-2.28044 3.6984,-3.9308 7.37,-4.60013 z m 65.33944,-18.24489 c 3.5124,-6.56297 17.4165,-41.31928 16.783,-41.95277 -0.329,-0.32892 -4.1765,6.23709 -8.5501,14.59117 -4.3736,8.35409 -9.7534,18.14426 -11.9553,21.75596 -2.2019,3.6117 -4.0066,7.22012 -4.0106,8.01872 -0.016,3.06878 5.7644,1.26523 7.733,-2.41308 z m -6.115,-4.93798 c 2.9514,-6.47756 2.9009,-6.68488 -1.6252,-6.68488 -3.0116,0 -3.8721,1.29066 -3.8721,5.80797 0,7.10529 2.4793,7.50075 5.4973,0.87691 z m 37.2685,1.81759 c 2.8311,-3.41131 0.7215,-5.77491 -10.3727,-11.62171 -5.5832,-2.94245 -5.4397,-3.03613 -7.7462,5.05523 -0.9094,3.19028 7.3616,9.64688 12.384,9.6672 1.733,0.008 4.3137,-1.38832 5.7349,-3.10072 z m -31.1498,-12.21611 c 0,-0.97771 0.4876,-3.04822 1.0834,-4.60112 0.715,-1.86295 -0.5411,-3.23125 -3.6921,-4.02208 -2.6265,-0.65923 -6.2418,-1.76125 -8.0339,-2.44893 -2.666,-1.02306 -3.1398,-0.23277 -2.6068,4.34773 0.3583,3.07893 1.5258,6.23812 2.5944,7.02041 2.7791,2.03432 10.655,1.81552 10.655,-0.29601 z"
       id="path4123-1"
       style="fill:#000000" />
    <path
       d="m 1071.0305,563.37054 0.2527,-178.25 171,0 171,0 0.2528,178.25 0.2527,178.25005 -171.5055,0 -171.5055,0 0.2528,-178.25005 z m 339.7527,-0.25 0,-175.5 -168.5,0 -168.5,0 0,175.5 0,175.50005 168.5,0 168.5,0 0,-175.50005 z m -242,163.00005 0,-2.5 72,0 72,0 0,2.5 0,2.5 -72,0 -72,0 0,-2.5 z m 26.2918,-15.0091 c -21.1276,-4.0232 -27.989,-6.5907 -36.4456,-13.6379 -5.8349,-4.8624 -10.3395,-11.8199 -13.4571,-20.7844 -4.1935,-12.0584 -5.3359,-20.6205 -7.8567,-58.8873 -0.8449,-12.8253 -2.0525,-26.4456 -2.6837,-30.2673 -0.6311,-3.8217 -0.8654,-7.2307 -0.5205,-7.5756 1.3281,-1.3281 7.8739,4.5047 13.8898,12.3768 3.4551,4.5213 6.5876,8.2349 6.9611,8.2526 0.3735,0.018 1.1908,-2.4325 1.8161,-5.4449 0.8628,-4.1557 0.806,-14.7108 -0.2351,-43.75003 -0.7547,-21.0501 -1.2037,-38.4912 -0.9978,-38.75798 0.6392,-0.82797 3.9933,4.0765 9.9063,14.48506 6.4153,11.29282 14.0178,22.5 15.2632,22.5 1.1444,0 3.0682,-8.03656 3.0682,-12.81714 0,-2.17457 1.5678,-7.82036 3.5082,-12.63361 6.9684,-17.28503 8.0644,-34.54276 3.9403,-62.04408 -0.4561,-3.04155 -0.3148,-4.50517 0.4351,-4.50517 1.9783,0 8.9291,7.00367 11.7256,11.81485 1.4978,2.57683 3.8556,6.18532 5.2396,8.01887 l 2.5163,3.33372 1.815,-2.33372 c 4.5854,-5.89584 5.1606,-10.52163 5.7553,-46.28785 l 0.5646,-33.95413 3.6958,7.45413 c 5.0556,10.19676 10.8733,19.65134 17.7076,28.77734 13.946,18.62237 20.8499,35.34115 22.5784,54.67679 0.8364,9.35644 2.3829,16.19071 4.7121,20.82417 1.5364,3.05627 2.199,3.59463 3.2998,2.68107 2.9293,-2.4311 4.9543,-16.22233 5.9475,-40.50524 0.2024,-4.95 0.411,-9.19094 0.4634,-9.42431 0.1987,-0.88385 5.4891,4.62354 9.1045,9.47794 7.519,10.09553 14.2215,26.59943 17.7085,43.60428 2.1447,10.45858 2.3951,38.48114 0.4219,47.199 -1.0209,4.51044 -1.0534,6.11974 -0.1412,7.00004 0.8989,0.8675 2.4864,-0.3026 6.5855,-4.85412 8.6436,-9.59761 13.6166,-20.63659 14.8677,-33.00283 0.3338,-3.3 0.8634,-7.71695 1.1767,-9.81544 0.5516,-3.69401 0.631,-3.75997 2.4954,-2.07275 2.898,2.62267 7.6303,13.00446 9.5214,20.88819 1.2046,5.02181 1.6949,11.66288 1.7351,23.5 0.06,17.59355 -1.0386,26.89265 -4.9415,41.83915 -2.5624,9.8131 -3.3244,23.4954 -1.3756,24.6998 1.5884,0.9817 4.3549,-1.9619 10.1878,-10.8398 l 5.2492,-7.9893 0.3013,5.6907 c 0.1657,3.1298 -0.6255,12.145 -1.7582,20.0337 -4.1035,28.5788 -12.7174,46.1869 -28.3106,57.8709 -4.9205,3.687 -14.8418,8.259 -21.8402,10.0645 -9.0161,2.3262 -27.9111,4.7705 -34.3031,4.4376 l -5.8979,-0.3072 9.4044,-8 c 8.7894,-7.477 12.0859,-10.7219 19.8098,-19.5 3.9677,-4.5093 10.5252,-17.8135 12.5687,-25.5 1.8656,-7.0174 3.2405,-24.5147 1.9227,-24.4688 -0.4933,0.017 -2.6969,1.1398 -4.8969,2.4948 -5.6876,3.5032 -6.389,3.2721 -5.3923,-1.776 0.4615,-2.3375 1.1399,-9.6527 1.5076,-16.2559 0.7774,-13.9599 -0.519,-20.1705 -5.8566,-28.0568 -4.9161,-7.2634 -5.7549,-6.9399 -5.7807,2.2293 -0.024,8.4385 -1.9375,14.2696 -5.8159,17.7195 -2.5705,2.2864 -2.599,2.2217 -4.1419,-9.3861 -1.3669,-10.2842 -5.1132,-23.2065 -9.277,-32 -3.1839,-6.72429 -10.0355,-18.38126 -12.0781,-20.54941 -9.0465,-9.60234 -12.126,-12.3897 -12.8684,-11.64735 -0.5017,0.50174 0.223,5.52877 1.6956,11.76088 4.0097,16.96981 5.4993,27.95208 5.5037,40.57578 0.01,14.9214 -2.9787,30.1762 -8.0397,41.1022 -1.059,2.2862 -1.5204,2.5356 -2.7749,1.5 -2.174,-1.7946 -5.7637,-10.3639 -7.0141,-16.7437 -0.5927,-3.0242 -2.0404,-11.762 -3.2172,-19.4174 -1.1768,-7.6555 -2.469,-14.8095 -2.8716,-15.8978 -0.6825,-1.845 -0.8656,-1.783 -2.7103,0.919 -3.6454,5.3394 -8.4102,17.1093 -10.9003,26.9253 -3.1873,12.5647 -3.1815,22.0875 0.025,41.6277 1.3713,8.3555 2.3109,15.3741 2.0882,15.5968 -0.7314,0.7314 -5.8768,-8.8822 -8.2432,-15.4017 -1.2755,-3.5139 -3.9381,-14.3677 -5.9169,-24.1196 -3.2903,-16.215 -7.0816,-28.6999 -9.7307,-32.0439 -1.682,-2.1233 -2.4369,0.2967 -4.1759,13.3857 -0.8716,6.5601 -2.2359,16.8469 -3.0319,22.8596 -0.7959,6.0128 -1.8959,11.381 -2.4443,11.9295 -0.6631,0.663 -1.8484,0.015 -3.5367,-1.9322 -3.5602,-4.107 -4.7747,-2.0031 -4.0815,7.0706 1.7832,23.3396 15.2564,46.3904 36.3298,62.1551 3.9875,2.983 7.25,5.6309 7.25,5.8842 0,0.8377 -4.3559,0.3037 -16.7082,-2.0484 z m 121.844,-49.1549 c 5.9043,-6.3528 8.8282,-17.0585 8.8315,-32.336 0,-9.1587 -1.1439,-14.4016 -2.398,-10.972 -0.296,0.8096 -1.8813,8.2873 -3.5229,16.6171 -2.5531,12.9553 -4.3858,19.2918 -8.5962,29.7212 -0.6452,1.5981 -0.4801,1.7182 1.1482,0.836 1.0459,-0.5666 3.0877,-2.3065 4.5374,-3.8663 z m -75.3827,-172.48008 c 0.4894,-5.85212 -0.1452,-8.6833 -4.519,-20.16087 -1.675,-4.3955 -2.8576,-6.33229 -3.3401,-5.4701 -1.7546,3.13522 -4.1969,20.08013 -4.2915,29.775 -0.089,9.06519 0.2184,11.18324 2.2461,15.5 l 2.3486,5 3.542,-9.5 c 1.9481,-5.225 3.7543,-12.03981 4.0139,-15.14403 z m 101.2469,-72.85597 0,-15 11.3737,0 11.3737,0 -0.6356,3.10778 c -0.6234,3.04815 -0.7505,3.10934 -6.6237,3.18928 -4.4447,0.0605 -6.1457,0.48379 -6.5997,1.64223 -1.1968,3.05392 0.2064,4.06071 5.6596,4.06071 5.8825,0 6.8166,0.69933 5.886,4.40699 -0.564,2.24731 -1.1965,2.52888 -6.2806,2.79599 l -5.6534,0.29702 0.033,5.25 0.033,5.25 -4.2828,0 -4.2828,0 0,-15 z m 38,10 0,-5 -5,0 c -4.6667,0 -5,-0.16667 -5,-2.5 0,-2.33333 0.3333,-2.5 5,-2.5 l 5,0 0,-5 c 0,-4.66667 0.1667,-5 2.5,-5 2.3333,0 2.5,0.33333 2.5,5 l 0,5 5,0 c 4.6667,0 5,0.16667 5,2.5 0,2.33333 -0.3333,2.5 -5,2.5 l -5,0 0,5 c 0,4.66667 -0.1667,5 -2.5,5 -2.3333,0 -2.5,-0.33333 -2.5,-5 z"
       id="path3078"
       style="fill:#000000" />
  </g>
</svg>
