<?xml version="1.0" encoding="UTF-8" standalone="no"?>
<!-- Created with Inkscape (http://www.inkscape.org/) -->

<svg
   xmlns:dc="http://purl.org/dc/elements/1.1/"
   xmlns:cc="http://creativecommons.org/ns#"
   xmlns:rdf="http://www.w3.org/1999/02/22-rdf-syntax-ns#"
   xmlns:svg="http://www.w3.org/2000/svg"
   xmlns="http://www.w3.org/2000/svg"
   version="1.1"
   width="400"
   height="400"
   id="svg4374">
  <metadata
     id="metadata4380">
    <rdf:RDF>
      <cc:Work
         rdf:about="">
        <dc:format>image/svg+xml</dc:format>
        <dc:type
           rdf:resource="http://purl.org/dc/dcmitype/StillImage" />
        <dc:title></dc:title>
      </cc:Work>
    </rdf:RDF>
  </metadata>
  <defs
     id="defs4378" />
  <path
     d="m 178.29967,337.86053 c -1.31026,-5.3896 -2.45137,-9.88424 -2.53576,-9.9881 -0.0843,-0.10384 -3.21727,-0.87772 -6.96191,-1.7197 -3.74463,-0.84197 -9.2512,-2.32161 -12.23681,-3.28804 l -5.42841,-1.75716 -7.10839,7.41958 -7.10838,7.41958 -13.85604,-7.93405 c -7.62081,-4.36375 -14.06749,-8.1133 -14.32596,-8.33235 -0.25847,-0.21908 0.79514,-4.74847 2.34135,-10.06533 l 2.81128,-9.66702 -9.13943,-9.13943 -9.13942,-9.13941 -9.64226,2.8153 c -5.30324,1.54842 -9.7099,2.74736 -9.79257,2.66431 -0.0827,-0.083 -3.83747,-6.52675 -8.344,-14.31933 l -8.193683,-14.16833 7.457763,-7.14493 7.45776,-7.14496 -1.10988,-2.95155 c -0.95577,-2.54175 -4.29471,-15.3098 -5.25153,-20.08179 -0.29606,-1.47654 -0.94473,-1.72855 -10.292843,-3.99904 l -9.97686,-2.42319 0,-16.60261 0,-16.6026 9.97537,-2.39248 c 9.372913,-2.24798 9.994363,-2.48799 10.289783,-3.97427 1.09653,-5.51679 3.76655,-15.86212 4.94491,-19.15969 l 1.39007,-3.89002 -7.43039,-7.16377 -7.430373,-7.16379 7.814673,-13.52211 c 4.29806,-7.43716 8.04131,-13.86976 8.31832,-14.29465 0.38468,-0.59007 2.79237,-0.11557 10.19304,2.00877 l 9.6894,2.78132 9.10606,-9.10606 9.10609,-9.10608 -2.81128,-9.66703 c -1.54621,-5.316861 -2.59982,-9.846251 -2.34135,-10.065308 0.25847,-0.219066 6.70515,-3.96863 14.32596,-8.332367 l 13.85604,-7.934069 7.14614,7.459022 7.14617,7.459025 3.21046,-1.219877 c 2.58451,-0.982039 13.50643,-3.798318 20.13558,-5.192068 1.07712,-0.226465 1.63087,-1.757019 3.70573,-10.242711 l 2.43939,-9.97646 16.56005,0 16.56004,0 2.4232,9.976864 c 2.27116,9.350903 2.52205,9.996494 3.99904,10.289777 5.50177,1.092457 15.85803,3.765733 19.16087,4.946014 l 3.89718,1.392665 7.1338,-7.446127 7.1338,-7.446124 13.54494,7.827824 c 7.44971,4.305295 13.89591,8.056511 14.32489,8.336045 0.59961,0.390711 0.1294,2.745224 -2.03365,10.183243 l -2.8136,9.675012 9.13752,9.08634 9.13754,9.08634 9.66722,-2.77495 c 5.31698,-1.52623 9.84441,-2.56655 10.06094,-2.31181 0.21653,0.25472 3.96603,6.69549 8.33221,14.31282 l 7.93848,13.84968 -7.45274,7.14014 -7.45276,7.14015 1.40076,3.89719 c 1.19298,3.31912 3.90684,13.83686 4.94555,19.16683 0.28981,1.48715 0.90519,1.72497 10.28363,3.97427 l 9.97537,2.39248 0,16.6026 0,16.60261 -9.97686,2.42319 c -9.35652,2.27252 -9.99594,2.52117 -10.28364,3.99904 -0.97995,5.03388 -3.6637,15.41432 -4.89978,18.95178 l -1.4374,4.11359 7.44461,7.13234 7.44461,7.13235 -8.2418,14.33156 c -6.22209,10.81952 -8.48483,14.25809 -9.23352,14.0317 -0.54544,-0.16495 -4.93037,-1.44055 -9.74429,-2.83469 l -8.75258,-2.5348 -9.14314,9.14315 -9.14314,9.14314 2.8102,9.66334 c 2.1605,7.42918 2.62989,9.78085 2.03026,10.17156 -0.42898,0.27953 -6.8649,4.02484 -14.30206,8.3229 l -13.52212,7.81468 -7.13845,-7.40412 -7.13844,-7.4041 -5.42118,1.75484 c -2.98163,0.96514 -8.48495,2.44372 -12.22958,3.28569 -3.74464,0.84198 -6.8775,1.61586 -6.9619,1.7197 -0.0843,0.10386 -1.2255,4.5985 -2.53576,9.9881 l -2.38231,9.79925 -16.56376,0 -16.56376,0 z M 318.1122,197.49622 C 317.6186,130.13438 264.23946,84.385422 195.47796,83.117162 131.37816,83.801279 82.517529,130.96601 82.701915,199.48412 c 0.172373,64.05389 48.134525,116.8828 112.006515,118.36535 69.58475,-0.97606 119.31255,-52.04353 123.40377,-120.35325 z"
     id="path5283"
     style="fill:#000000" />
  <rect
     width="351.79382"
     height="351.79382"
     ry="15.830722"
     x="25.272345"
     y="21.715561"
     id="master-tile-1"
     style="fill:none;stroke:#000000;stroke-width:3.51793814;stroke-linejoin:round;stroke-miterlimit:4;stroke-opacity:1;stroke-dasharray:none" />
  <g
     transform="matrix(2.5455569,0,0,2.5455569,775.16016,129.99772)"
     id="g3824">
    <path
       d="m -76.884507,83.602325 c 0,-0.220084 0.59251,-1.283746 1.31669,-2.363691 1.40796,-2.099632 1.57447,-2.911332 0.87477,-4.264392 -1.35211,-2.614691 -3.88843,-1.842774 -8.33127,2.535594 -1.79449,1.768448 -3.00314,2.737048 -3.41539,2.737048 -0.35093,0 -2.13007,-0.468949 -3.95365,-1.042107 -4.07456,-1.280647 -6.5294,-1.873883 -7.77774,-1.87956 -1.47396,-0.0067 -1.16454,-0.632883 1.06572,-2.156753 2.17662,-1.48722 2.82477,-2.492769 2.49709,-3.874018 -0.3639,-1.533886 -1.21397,-2.166327 -2.9118,-2.166327 -1.72741,0 -2.36152,0.178064 -6.469763,1.816774 l -2.96591,1.183051 -1.27678,-0.886915 c -0.70222,-0.487803 -2.4618,-1.886202 -3.91016,-3.107554 -1.44837,-1.22135 -3.25343,-2.517637 -4.01125,-2.880638 -1.34795,-0.645684 -1.76671,-1.271554 -1.03609,-1.548513 0.20117,-0.07626 1.28744,-0.329797 2.41395,-0.563426 2.48928,-0.516259 3.36489,-1.326305 3.36489,-3.112968 0,-2.400222 -1.95475,-3.188973 -7.90318,-3.188973 -4.20195,0 -3.83251,0.279848 -6.62688,-5.019844 -1.10098,-2.088086 -2.50575,-4.462373 -3.12169,-5.276187 -0.61595,-0.813815 -1.01095,-1.584621 -0.8778,-1.712899 0.13316,-0.128281 1.25893,-0.02882 2.50171,0.220991 2.64421,0.531545 3.77919,0.249795 4.48397,-1.113102 1.26857,-2.453145 0.12567,-3.657971 -6.11103,-6.442124 -1.58325,-0.706788 -2.99722,-1.504082 -3.14217,-1.771769 -0.14494,-0.267685 -0.53434,-2.888027 -0.86533,-5.82298 -0.33099,-2.934956 -0.72747,-5.571098 -0.88107,-5.858096 -0.42829,-0.800282 -0.3361,-1.145482 0.30594,-1.145482 0.32186,0 0.58519,0.11074 0.58519,0.2461 0,0.494635 3.01804,1.879521 4.16132,1.909498 0.96907,0.0254 1.307,-0.13294 2.044,-0.957782 0.74298,-0.831538 0.8595,-1.163266 0.7349,-2.092226 -0.19895,-1.48332 -1.6205,-3.47598 -4.39332,-6.15835 l -2.29989,-2.22487 0.33405,-1.28631 c 0.18373,-0.70748 0.78808,-2.80052 1.34301,-4.6512105 0.55494,-1.85069 1.10614,-4.14404 1.2249,-5.09635 0.11876,-0.9523 0.37607,-1.78472 0.57181,-1.84984 0.19574,-0.0651 0.81701,0.60246 1.3806,1.4835 1.90564,2.97899 3.77368,3.65502 5.4547,1.97401 1.28172,-1.28173 1.10025,-2.82143 -0.94309,-8.00172 -0.62019,-1.57229 -1.12567,-3.08649 -1.1233,-3.36488 0.002,-0.2784 0.98436,-1.6912 2.18218,-3.13956 1.19782,-1.44837 2.93133,-3.7196695 3.85224,-5.0473395 0.92091,-1.32767 1.83768,-2.41394 2.03726,-2.41394 0.19959,0 0.44845,0.42793 0.55304,0.95095 0.67544,3.3779 1.74023,4.9010295 3.42623,4.9010295 2.34283,0 2.86847,-1.1710295 3.20132,-7.1319995 0.14371,-2.57379 0.29194,-4.69959 0.32938,-4.72399 0.19742,-0.12863 5.54218,-3.1088 6.79787,-3.79039 2.253893,-1.22344 3.948983,-2.32554 3.949563,-2.56791 2.9e-4,-0.1207 0.21297,-0.21945 0.47263,-0.21945 0.37387,0 0.43528,0.19788 0.29514,0.95095 -0.53511,2.87532 -0.51571,4.16306 0.0768,5.10252 0.81281,1.28868 2.43662,1.74062 3.67678,1.02333 1.22301,-0.70736 2.57911,-2.81474 3.66143,-5.68985 0.49919,-1.32608 1.02712,-2.69635 1.17318,-3.04504 0.32717,-0.78109 1.89985,-1.13158 6.98398,-1.55648 1.98627,-0.166 4.19678,-0.44922 4.91225,-0.62938 1.51197,-0.38072 1.85825,-0.18865 1.28334,0.71182 -1.22902,1.92498 -2.04312,3.66267 -2.04781,4.37106 -0.003,0.47487 0.3393,1.1857 0.84255,1.74895 0.68663,0.76847 1.06877,0.94891 2.00966,0.94891 1.50041,0 2.95359,-0.99713 6.11627,-4.1968 2.42497,-2.45333 2.42672,-2.45441 3.67539,-2.28318 0.68711,0.0942 2.76348,0.64741 4.61417,1.2293 1.85069,0.58189 4.31949,1.21108 5.48623,1.3982 2.16845,0.34777 2.63284,0.75826 1.463,1.2932 -0.36209,0.16558 -1.34327,0.84312 -2.18042,1.50565 -1.78816,1.41518 -2.19736,2.60487 -1.4158,4.11624 0.99285,1.91997 3.26827,1.88181 8.2242,-0.13793 1.75726,-0.71615 3.46639,-1.30209 3.79808,-1.30209 0.33172,0 2.41927,1.45225 4.639011,3.22721 2.219773,1.77497 4.549769,3.48935 5.177774,3.80974 0.628006,0.32039 1.141839,0.76689 1.141839,0.99223 0,0.39939 -0.366715,0.52132 -2.779691,0.92419 -2.321511,0.38761 -3.657489,1.53001 -3.657489,3.12754 0,2.4036795 1.804254,3.1948095 7.686724,3.3705095 5.024728,0.15009 4.288081,-0.34634 7.054693,4.75421 0.921424,1.69872003 2.194961,3.77519 2.830106,4.61437 1.037351,1.37056 1.455944,2.39171 0.980412,2.39171 -0.09591,0 -0.905214,-0.21245 -1.798431,-0.47212 -2.321657,-0.67492 -4.075379,-0.42092 -5.113169,0.74057 -1.840372,2.05973 -0.581114,3.89651 4.193764,6.1171305 1.671209,0.77722 3.518826,1.6249 4.105838,1.88373 1.016109,0.44805 1.082938,0.56623 1.394351,2.46468 0.179861,1.09674 0.522524,3.57411 0.76146,5.50526 0.238907,1.93116 0.517462,4.00495 0.618994,4.608439 0.148172,0.880837 0.09386,1.097246 -0.275336,1.097246 -0.252952,0 -0.542976,-0.134411 -0.644508,-0.298693 -0.101532,-0.164283 -0.866415,-0.689724 -1.699737,-1.167652 -2.380148,-1.36509 -4.42047,-1.14878 -5.305407,0.562469 -0.846489,1.636942 0.183167,3.602494 3.820847,7.293763 1.512035,1.534311 2.749144,3.029598 2.749144,3.322861 0,0.293263 -0.591753,2.576425 -1.315028,5.073691 -0.723276,2.497265 -1.399063,5.255389 -1.501765,6.129163 -0.108818,0.925781 -0.323176,1.56355 -0.513716,1.528456 -0.179832,-0.03312 -0.681551,-0.653833 -1.114949,-1.379353 -1.591242,-2.663875 -3.429788,-3.776951 -5.08742,-3.079971 -1.308193,0.550057 -1.664491,1.170136 -1.646877,2.866119 0.01639,1.576772 1.022441,4.782233 2.291765,7.302082 1.092243,2.168241 1.144735,2.038219 -2.810689,6.958954 -1.228916,1.52883 -2.676726,3.470957 -3.217332,4.315837 -0.540577,0.844879 -1.078315,1.536145 -1.194916,1.536145 -0.312993,0 -0.567233,-0.806102 -0.567233,-1.798434 0,-0.480024 -0.282328,-1.529047 -0.627361,-2.33116 -0.674383,-1.567585 -1.667435,-2.307586 -3.096781,-2.307586 -2.19066,0 -3.003847,1.970792 -3.009617,7.293951 -0.003,2.023182 -0.0751,3.943053 -0.16201,4.266381 -0.10273,0.382243 -1.60435,1.405693 -4.29301,2.925991 -2.27429,1.285967 -4.70424,2.76605 -5.39992,3.289071 -1.65968,1.247733 -1.95497,1.222666 -1.72361,-0.1463 0.102,-0.603485 0.26225,-1.902215 0.35615,-2.886071 0.15964,-1.67295 0.11654,-1.848313 -0.66549,-2.707267 -1.14526,-1.257919 -2.31378,-1.439596 -3.61418,-0.561916 -1.23536,0.83377 -2.90671,3.618371 -3.78372,6.30395 -0.97848,2.996227 -1.15884,3.182361 -3.44772,3.557985 -1.09292,0.17936 -3.44999,0.449932 -5.23794,0.60127 -1.78795,0.151341 -3.82883,0.476451 -4.53529,0.722465 -1.5843,0.551716 -1.72336,0.556208 -1.72336,0.05566 z m 1.237611,-48.240712 c 1.108533,0 10.096238,-0.390436 10.096238,-9.73564 0,-1.178522 -1.385488,-9.976475 -10.298802,-9.976475 -0.824903,0 -9.922953,1.113922 -9.922953,9.933597 0,0 1.000411,9.778518 10.125517,9.778518 z"
       id="path3035"
       style="fill:#000000" />
    <path
       d="m -66.9375,25.656252 a 9.96875,9.96875 0 1 1 -19.9375,0 9.96875,9.96875 0 1 1 19.9375,0 z"
       transform="translate(1.125,-0.0625)"
       id="path3046"
       style="fill:none;stroke:#000000;stroke-width:1;stroke-linejoin:round;stroke-miterlimit:4;stroke-opacity:1;stroke-dasharray:none" />
  </g>
  <path
     d="m 141.52542,71.398308 a 50.211864,50.211864 0 1 1 -100.423724,0 50.211864,50.211864 0 1 1 100.423724,0 z"
     transform="matrix(2.3077272,0,0,2.3077272,367.46757,-247.43041)"
     id="path4936"
     style="fill:#b3b3b3;fill-opacity:1;stroke:none" />
  <path
     d="m 146.7161,71.18644 a 49.788136,49.788136 0 1 1 -99.576272,0 49.788136,49.788136 0 1 1 99.576272,0 z"
     transform="matrix(2.3077272,0,0,2.3077272,355.60298,-248.01707)"
     id="path4392"
     style="fill:none;stroke:#000000;stroke-width:6;stroke-miterlimit:4;stroke-opacity:1;stroke-dasharray:none" />
  <path
     d="m 197.05483,70.772077 c -70.07086,0 -126.878711,56.807833 -126.878711,126.878693 0,70.07085 56.807851,126.8787 126.878711,126.8787 70.07085,0 126.87869,-56.80785 126.87869,-126.8787 0,-70.07086 -56.80784,-126.878693 -126.87869,-126.878693 z m 0,17.38548 c 60.4603,0 109.45397,49.032903 109.45397,109.493213 0,60.4603 -48.99367,109.45398 -109.45397,109.45398 -27.56747,0 -52.76316,-10.1863 -72.01436,-27.00049 3.18515,-2.38773 6.40664,-4.2756 9.73273,-5.6905 0.82796,1.62154 1.73946,3.08707 2.62941,4.23844 3.67719,4.75747 10.38138,7.35714 17.11077,8.51616 6.72938,1.15899 13.50643,0.96228 17.93491,-2.0015 1.17135,-0.78395 2.11608,-1.82577 2.55092,-3.10034 0.43482,-1.2746 0.30787,-2.67408 -0.11768,-3.84601 -0.85134,-2.34385 -2.73482,-4.16112 -5.14108,-5.84749 -4.81253,-3.37273 -11.98404,-5.95202 -19.26923,-5.92598 -4.52282,0.0163 -8.72878,0.88768 -12.83308,2.11923 -0.10039,-0.39148 -0.32694,-0.74133 -0.39246,-1.1381 -0.41336,-2.50379 -0.18476,-5.04818 1.41283,-7.61352 l 1.64828,1.6483 18.91602,-18.91603 4.7094,4.74862 32.96569,-33.00494 22.44808,22.44808 c 4.29072,4.29063 5.69554,12.92326 8.59464,20.52506 0.92539,3.21238 2.55838,6.29003 4.94485,8.90861 0.23319,0.26275 0.49753,0.49753 0.74565,0.74565 8.77025,8.76995 22.97883,8.76995 31.74912,0 8.77019,-8.77022 8.77024,-22.97867 0,-31.74912 -4.0029,-4.00286 -9.12663,-6.16607 -14.36363,-6.51466 -5.39333,-1.39628 -11.01913,-2.97379 -15.8157,-7.77048 l -17.69944,-17.69944 1.4913,-1.49131 2.35471,2.3547 4.70939,-4.7094 -2.3547,-2.35468 7.33879,-7.33879 8.4769,-2.82563 1.45205,0.47092 0.94187,-0.94187 -3.7675,-3.80675 -7.10332,-7.06408 15.7372,-15.7372 2.3547,2.3547 4.74862,-4.74863 -2.39394,-2.35471 2.39394,-2.35468 -3.80674,-3.80675 8.39838,-8.39842 c 0,0 12.7956,-15.57688 12.32291,-16.52209 -0.94508,-0.47255 -16.56134,12.28365 -16.56134,12.28365 l -8.39841,8.39841 -3.76751,-3.76751 -22.84052,22.84052 -7.10332,-7.10332 -3.76751,-3.76752 -0.94188,0.94188 0.47093,1.41282 -2.82561,8.51614 -13.5395,13.50023 -9.02633,-9.02632 c -4.76399,-4.76424 -5.29015,-7.25529 -6.35766,-12.67609 -0.86738,-4.40482 4.90982,-17.40449 -3.96374,-26.37256 -2.04789,-2.06923 -4.88086,-3.92692 -8.7516,-5.4158 -3.51522,-1.35204 -7.69859,-1.87235 -11.65573,-1.92299 -6.59523,-0.0843 -12.54472,1.12919 -13.73572,1.92299 -1.9056,1.2706 -2.20502,4.15272 -1.56978,4.78787 0.63519,0.63494 10.15671,6.15829 14.28513,7.92748 11.11597,4.76423 -0.009,25.42768 -9.5365,22.25185 -6.75262,-2.25074 -14.62378,-9.53652 -15.89419,-9.53652 -1.27037,0 -2.86126,0.95576 -3.17883,3.17884 -0.31764,2.22333 3.20554,12.70275 11.14555,20.64281 9.52798,9.52775 20.10193,7.08579 23.82165,7.92746 3.71969,0.84218 6.00364,-0.31483 9.49724,3.17885 l 13.77497,13.73571 -1.56981,1.56978 -2.35468,-2.35468 -11.81271,11.81271 2.35469,2.35468 -19.5832,19.58321 4.70939,4.74862 -18.91603,18.8768 2.07997,2.07998 c -2.67946,3.85171 -3.23545,8.10264 -2.62941,11.77346 0.11415,0.69115 0.44754,1.2297 0.62793,1.88375 -4.03263,1.68861 -7.91573,3.95988 -11.69499,6.82862 -20.95246,-19.93644 -34.025301,-48.07 -34.025301,-79.27467 0,-60.46031 49.032911,-109.493213 109.493221,-109.493213 z m 52.47041,144.931343 12.67609,5.25882 5.29806,12.71534 -5.29806,12.67609 -12.67609,5.29805 -12.71534,-5.29805 -5.25882,-12.67609 5.25882,-12.71534 12.71534,-5.25882 z m -99.05408,38.02829 c 6.12442,-0.022 12.71382,2.33865 16.60059,5.0626 1.94338,1.36196 3.12269,2.84693 3.41429,3.64977 0.14581,0.40141 0.12748,0.56279 0.0786,0.70641 -0.0491,0.14361 -0.16953,0.38634 -0.7064,0.74565 -2.4045,1.60922 -8.528,2.32718 -14.52062,1.29508 -5.99259,-1.0321 -11.81172,-3.69089 -14.20665,-6.78936 -0.62099,-0.80344 -1.24708,-1.89139 -1.84451,-2.98262 3.55878,-1.01208 7.22016,-1.67334 11.18481,-1.68753 z"
     id="path7438-70-0-9"
     style="color:#000000;fill:#000000;fill-opacity:1;fill-rule:evenodd;stroke:none;stroke-width:10.41600037;marker:none;visibility:visible;display:inline;overflow:visible;enable-background:accumulate" />
</svg>
