<?xml version="1.0" encoding="UTF-8" standalone="no"?>
<!-- Created with Inkscape (http://www.inkscape.org/) -->

<svg
   xmlns:dc="http://purl.org/dc/elements/1.1/"
   xmlns:cc="http://creativecommons.org/ns#"
   xmlns:rdf="http://www.w3.org/1999/02/22-rdf-syntax-ns#"
   xmlns:svg="http://www.w3.org/2000/svg"
   xmlns="http://www.w3.org/2000/svg"
   xmlns:sodipodi="http://sodipodi.sourceforge.net/DTD/sodipodi-0.dtd"
   xmlns:inkscape="http://www.inkscape.org/namespaces/inkscape"
   id="svg4374"
   version="1.1"
   inkscape:version="0.48.4 r9939"
   width="400"
   height="400"
   sodipodi:docname="netz39-logo.21b.Loetschluesselsaege.sk.svg">
  <metadata
     id="metadata4380">
    <rdf:RDF>
      <cc:Work
         rdf:about="">
        <dc:format>image/svg+xml</dc:format>
        <dc:type
           rdf:resource="http://purl.org/dc/dcmitype/StillImage" />
        <dc:title></dc:title>
      </cc:Work>
    </rdf:RDF>
  </metadata>
  <defs
     id="defs4378" />
  <sodipodi:namedview
     pagecolor="#ffffff"
     bordercolor="#666666"
     borderopacity="1"
     objecttolerance="10"
     gridtolerance="10"
     guidetolerance="10"
     inkscape:pageopacity="0"
     inkscape:pageshadow="2"
     inkscape:window-width="1680"
     inkscape:window-height="867"
     id="namedview4376"
     showgrid="false"
     inkscape:zoom="0.834386"
     inkscape:cx="89.791184"
     inkscape:cy="96.851273"
     inkscape:window-x="0"
     inkscape:window-y="24"
     inkscape:window-maximized="1"
     inkscape:current-layer="svg4374" />
  <g
     id="g4930"
     transform="matrix(3.5179382,0,0,3.5179382,21.754407,18.197622)">
    <rect
       style="fill:none;stroke:#000000;stroke-width:1;stroke-linejoin:round;stroke-miterlimit:4;stroke-opacity:1;stroke-dasharray:none"
       id="master-tile-1"
       y="1"
       x="1"
       ry="4.5"
       height="100"
       width="100" />
    <g
       id="g3824"
       transform="matrix(0.72359342,0,0,0.72359342,105.14403,32.120683)">
      <path
         style="fill:#000000"
         id="path3035"
         d="m -76.884507,83.602325 c 0,-0.220084 0.59251,-1.283746 1.31669,-2.363691 1.40796,-2.099632 1.57447,-2.911332 0.87477,-4.264392 -1.35211,-2.614691 -3.88843,-1.842774 -8.33127,2.535594 -1.79449,1.768448 -3.00314,2.737048 -3.41539,2.737048 -0.35093,0 -2.13007,-0.468949 -3.95365,-1.042107 -4.07456,-1.280647 -6.5294,-1.873883 -7.77774,-1.87956 -1.47396,-0.0067 -1.16454,-0.632883 1.06572,-2.156753 2.17662,-1.48722 2.82477,-2.492769 2.49709,-3.874018 -0.3639,-1.533886 -1.21397,-2.166327 -2.9118,-2.166327 -1.72741,0 -2.36152,0.178064 -6.469763,1.816774 l -2.96591,1.183051 -1.27678,-0.886915 c -0.70222,-0.487803 -2.4618,-1.886202 -3.91016,-3.107554 -1.44837,-1.22135 -3.25343,-2.517637 -4.01125,-2.880638 -1.34795,-0.645684 -1.76671,-1.271554 -1.03609,-1.548513 0.20117,-0.07626 1.28744,-0.329797 2.41395,-0.563426 2.48928,-0.516259 3.36489,-1.326305 3.36489,-3.112968 0,-2.400222 -1.95475,-3.188973 -7.90318,-3.188973 -4.20195,0 -3.83251,0.279848 -6.62688,-5.019844 -1.10098,-2.088086 -2.50575,-4.462373 -3.12169,-5.276187 -0.61595,-0.813815 -1.01095,-1.584621 -0.8778,-1.712899 0.13316,-0.128281 1.25893,-0.02882 2.50171,0.220991 2.64421,0.531545 3.77919,0.249795 4.48397,-1.113102 1.26857,-2.453145 0.12567,-3.657971 -6.11103,-6.442124 -1.58325,-0.706788 -2.99722,-1.504082 -3.14217,-1.771769 -0.14494,-0.267685 -0.53434,-2.888027 -0.86533,-5.82298 -0.33099,-2.934956 -0.72747,-5.571098 -0.88107,-5.858096 -0.42829,-0.800282 -0.3361,-1.145482 0.30594,-1.145482 0.32186,0 0.58519,0.11074 0.58519,0.2461 0,0.494635 3.01804,1.879521 4.16132,1.909498 0.96907,0.0254 1.307,-0.13294 2.044,-0.957782 0.74298,-0.831538 0.8595,-1.163266 0.7349,-2.092226 -0.19895,-1.48332 -1.6205,-3.47598 -4.39332,-6.15835 l -2.29989,-2.22487 0.33405,-1.28631 c 0.18373,-0.70748 0.78808,-2.80052 1.34301,-4.6512105 0.55494,-1.85069 1.10614,-4.14404 1.2249,-5.09635 0.11876,-0.9523 0.37607,-1.78472 0.57181,-1.84984 0.19574,-0.0651 0.81701,0.60246 1.3806,1.4835 1.90564,2.97899 3.77368,3.65502 5.4547,1.97401 1.28172,-1.28173 1.10025,-2.82143 -0.94309,-8.00172 -0.62019,-1.57229 -1.12567,-3.08649 -1.1233,-3.36488 0.002,-0.2784 0.98436,-1.6912 2.18218,-3.13956 1.19782,-1.44837 2.93133,-3.7196695 3.85224,-5.0473395 0.92091,-1.32767 1.83768,-2.41394 2.03726,-2.41394 0.19959,0 0.44845,0.42793 0.55304,0.95095 0.67544,3.3779 1.74023,4.9010295 3.42623,4.9010295 2.34283,0 2.86847,-1.1710295 3.20132,-7.1319995 0.14371,-2.57379 0.29194,-4.69959 0.32938,-4.72399 0.19742,-0.12863 5.54218,-3.1088 6.79787,-3.79039 2.253893,-1.22344 3.948983,-2.32554 3.949563,-2.56791 2.9e-4,-0.1207 0.21297,-0.21945 0.47263,-0.21945 0.37387,0 0.43528,0.19788 0.29514,0.95095 -0.53511,2.87532 -0.51571,4.16306 0.0768,5.10252 0.81281,1.28868 2.43662,1.74062 3.67678,1.02333 1.22301,-0.70736 2.57911,-2.81474 3.66143,-5.68985 0.49919,-1.32608 1.02712,-2.69635 1.17318,-3.04504 0.32717,-0.78109 1.89985,-1.13158 6.98398,-1.55648 1.98627,-0.166 4.19678,-0.44922 4.91225,-0.62938 1.51197,-0.38072 1.85825,-0.18865 1.28334,0.71182 -1.22902,1.92498 -2.04312,3.66267 -2.04781,4.37106 -0.003,0.47487 0.3393,1.1857 0.84255,1.74895 0.68663,0.76847 1.06877,0.94891 2.00966,0.94891 1.50041,0 2.95359,-0.99713 6.11627,-4.1968 2.42497,-2.45333 2.42672,-2.45441 3.67539,-2.28318 0.68711,0.0942 2.76348,0.64741 4.61417,1.2293 1.85069,0.58189 4.31949,1.21108 5.48623,1.3982 2.16845,0.34777 2.63284,0.75826 1.463,1.2932 -0.36209,0.16558 -1.34327,0.84312 -2.18042,1.50565 -1.78816,1.41518 -2.19736,2.60487 -1.4158,4.11624 0.99285,1.91997 3.26827,1.88181 8.2242,-0.13793 1.75726,-0.71615 3.46639,-1.30209 3.79808,-1.30209 0.33172,0 2.41927,1.45225 4.639011,3.22721 2.219773,1.77497 4.549769,3.48935 5.177774,3.80974 0.628006,0.32039 1.141839,0.76689 1.141839,0.99223 0,0.39939 -0.366715,0.52132 -2.779691,0.92419 -2.321511,0.38761 -3.657489,1.53001 -3.657489,3.12754 0,2.4036795 1.804254,3.1948095 7.686724,3.3705095 5.024728,0.15009 4.288081,-0.34634 7.054693,4.75421 0.921424,1.69872003 2.194961,3.77519 2.830106,4.61437 1.037351,1.37056 1.455944,2.39171 0.980412,2.39171 -0.09591,0 -0.905214,-0.21245 -1.798431,-0.47212 -2.321657,-0.67492 -4.075379,-0.42092 -5.113169,0.74057 -1.840372,2.05973 -0.581114,3.89651 4.193764,6.1171305 1.671209,0.77722 3.518826,1.6249 4.105838,1.88373 1.016109,0.44805 1.082938,0.56623 1.394351,2.46468 0.179861,1.09674 0.522524,3.57411 0.76146,5.50526 0.238907,1.93116 0.517462,4.00495 0.618994,4.608439 0.148172,0.880837 0.09386,1.097246 -0.275336,1.097246 -0.252952,0 -0.542976,-0.134411 -0.644508,-0.298693 -0.101532,-0.164283 -0.866415,-0.689724 -1.699737,-1.167652 -2.380148,-1.36509 -4.42047,-1.14878 -5.305407,0.562469 -0.846489,1.636942 0.183167,3.602494 3.820847,7.293763 1.512035,1.534311 2.749144,3.029598 2.749144,3.322861 0,0.293263 -0.591753,2.576425 -1.315028,5.073691 -0.723276,2.497265 -1.399063,5.255389 -1.501765,6.129163 -0.108818,0.925781 -0.323176,1.56355 -0.513716,1.528456 -0.179832,-0.03312 -0.681551,-0.653833 -1.114949,-1.379353 -1.591242,-2.663875 -3.429788,-3.776951 -5.08742,-3.079971 -1.308193,0.550057 -1.664491,1.170136 -1.646877,2.866119 0.01639,1.576772 1.022441,4.782233 2.291765,7.302082 1.092243,2.168241 1.144735,2.038219 -2.810689,6.958954 -1.228916,1.52883 -2.676726,3.470957 -3.217332,4.315837 -0.540577,0.844879 -1.078315,1.536145 -1.194916,1.536145 -0.312993,0 -0.567233,-0.806102 -0.567233,-1.798434 0,-0.480024 -0.282328,-1.529047 -0.627361,-2.33116 -0.674383,-1.567585 -1.667435,-2.307586 -3.096781,-2.307586 -2.19066,0 -3.003847,1.970792 -3.009617,7.293951 -0.003,2.023182 -0.0751,3.943053 -0.16201,4.266381 -0.10273,0.382243 -1.60435,1.405693 -4.29301,2.925991 -2.27429,1.285967 -4.70424,2.76605 -5.39992,3.289071 -1.65968,1.247733 -1.95497,1.222666 -1.72361,-0.1463 0.102,-0.603485 0.26225,-1.902215 0.35615,-2.886071 0.15964,-1.67295 0.11654,-1.848313 -0.66549,-2.707267 -1.14526,-1.257919 -2.31378,-1.439596 -3.61418,-0.561916 -1.23536,0.83377 -2.90671,3.618371 -3.78372,6.30395 -0.97848,2.996227 -1.15884,3.182361 -3.44772,3.557985 -1.09292,0.17936 -3.44999,0.449932 -5.23794,0.60127 -1.78795,0.151341 -3.82883,0.476451 -4.53529,0.722465 -1.5843,0.551716 -1.72336,0.556208 -1.72336,0.05566 z m 1.237611,-48.240712 c 1.108533,0 10.096238,-0.390436 10.096238,-9.73564 0,-1.178522 -1.385488,-9.976475 -10.298802,-9.976475 -0.824903,0 -9.922953,1.113922 -9.922953,9.933597 0,0 1.000411,9.778518 10.125517,9.778518 z"
         inkscape:connector-curvature="0" />
      <path
         style="fill:none;stroke:#000000;stroke-width:1;stroke-linejoin:round;stroke-miterlimit:4;stroke-opacity:1;stroke-dasharray:none"
         id="path3046"
         transform="translate(1.125,-0.0625)"
         d="m -66.9375,25.656252 a 9.96875,9.96875 0 1 1 -19.9375,0 9.96875,9.96875 0 1 1 19.9375,0 z"
         inkscape:connector-curvature="0" />
    </g>
  </g>
  <path
     sodipodi:type="arc"
     style="fill:#ffffff;fill-opacity:1;stroke:none"
     id="path4936"
     sodipodi:cx="91.31356"
     sodipodi:cy="71.398308"
     sodipodi:rx="50.211864"
     sodipodi:ry="50.211864"
     d="m 141.52542,71.398308 a 50.211864,50.211864 0 1 1 -100.423724,0 50.211864,50.211864 0 1 1 100.423724,0 z"
     transform="matrix(2.3077272,0,0,2.3077272,-13.888358,29.688234)" />
  <path
     style="fill:#000000"
     d="M 77.245947,193.02501 C 79.306242,124.64599 133.13172,76.720431 192.93725,75.863872 251.3598,75.959181 314.22893,139.76156 315.86384,199.92862 315.41677,258.07617 270.55245,315.85029 192.2867,315.9185 128.10093,315.03986 79.392099,255.49948 77.245947,193.02501 z M 191.69878,306.74471 C 285.90479,308.31763 305.43573,253.15206 308.2573,199.09978 306.59121,138.41041 280.78902,87.548818 192.39274,85.513587 129.38818,86.095203 87.169505,141.92275 85.796469,191.34312 c -0.977851,48.46419 8.957965,48.68801 23.604911,72.77792 7.1527,11.7641 13.83309,7.44364 18.86067,5.15292 3.82712,-1.74377 5.89712,-5.06329 6.84196,-10.97202 0.88148,-5.51247 4.19801,-11.22769 9.4942,-16.36098 4.94232,-4.79029 7.67914,-9.33951 6.96752,-11.58161 -0.71085,-2.23971 2.00951,-6.77611 6.91414,-11.52986 4.44735,-4.31056 8.08609,-9.01034 8.08609,-10.44399 0,-3.63123 10.38103,-13.03042 12.28677,-11.12468 0.85778,0.85776 1.55959,0.45562 1.55959,-0.89371 0,-5.11531 -16.25575,-16.77775 -23.38574,-16.77775 -11.73757,0 -21.80151,-6.30882 -27.64979,-17.33295 -2.95091,-5.56252 -4.70777,-10.77118 -3.90413,-11.57482 0.80364,-0.80365 5.75587,0.9583 11.00495,3.91545 l 9.54379,5.37663 5.65683,-6.47495 c 7.76282,-8.88551 7.14734,-12.14192 -3.57409,-18.91005 -5.077,-3.20497 -9.23091,-6.85268 -9.23091,-8.106 0,-1.25333 5.65372,-2.27877 12.56382,-2.27877 9.95614,0 13.90771,1.1564 19.03875,5.57164 5.70094,4.90563 6.4161,6.98969 5.98279,17.43437 -0.43961,10.59642 0.34164,12.77253 7.31881,20.38593 l 7.81096,8.52322 6.19547,-5.76495 c 3.4075,-3.17075 7.15552,-8.25273 8.32894,-11.2933 l 2.13349,-5.52835 c 3.49554,3.2839 6.99108,6.56779 10.48661,9.85169 l 10.21137,-10.40464 c 5.61627,-5.72254 11.43525,-9.935 12.9311,-9.36098 1.49582,0.574 4.63461,-1.07535 6.97504,-3.66524 2.34045,-2.5899 7.37078,-6.89282 11.17853,-9.56205 6.47466,-4.53874 6.7064,-4.55998 3.577,-0.32786 -1.84038,2.48891 -5.94747,7.4004 -9.1268,10.91442 -3.17936,3.51402 -5.8275,8.70641 -5.88473,11.53864 -0.0572,2.83223 -1.14258,5.45703 -2.41183,5.83292 -1.26925,0.37588 -5.67735,3.9494 -9.79579,7.94112 l -7.48807,7.25773 c 3.2929,3.50511 6.58579,7.01025 9.87869,10.51539 l -5.62317,2.13792 c -5.88152,2.23615 -13.23872,9.48829 -9.75456,9.61531 1.10734,0.0404 0.19408,1.45429 -2.02921,3.14202 -3.71131,2.81718 -3.11907,3.93244 7.22776,13.61067 6.72432,6.28985 15.0536,11.56079 20.64984,13.06772 15.59798,4.20008 22.92213,18.16426 16.17325,30.83576 -4.06779,7.63751 -9.16936,12.03851 -18.14832,12.11946 -11.5738,0.10431 -16.99641,-6.08376 -22.57718,-21.38953 -3.39635,-9.31485 -8.42032,-16.87307 -16.51546,-24.84647 l -11.63425,-11.45932 -15.07464,14.92349 c -8.29106,8.20792 -16.95239,14.9235 -19.24741,14.9235 -4.51448,0 -23.3508,15.81848 -23.3508,19.60968 0,1.27255 4.93277,2.31758 10.96171,2.32233 10.47539,0.009 25.96193,6.59046 25.96193,11.03454 0,10.63149 -33.79114,8.73911 -37.40238,-2.09463 -0.67216,-2.01647 -2.22906,-1.97364 -6.23761,0.17169 -5.29111,2.83172 -8.17175,7.33292 2.6353,15.01645 25.99377,18.48091 28.5118,19.46642 56.9066,19.94052 z m -23.16699,-29.97068 c 5.27429,-3.34226 -6.28157,-9.49106 -17.83721,-9.49106 -9.98386,0 -10.13169,0.10754 -6.1698,4.48532 3.51605,3.88517 6.90295,5.10146 18.57959,6.67222 1.26925,0.17077 3.71159,-0.5792 5.42742,-1.66648 z m 85.67886,-15.23504 c 17.26293,-8.92701 7.49007,-34.19443 -11.60358,-30.00076 -14.51862,3.18882 -16.0225,22.59291 -2.32829,30.04119 8.024,3.47648 9.28053,2.37294 13.93187,-0.0404 z"
     inkscape:connector-curvature="0"
     sodipodi:nodetypes="cccccscccssssssssssssscssssssscssccsssssssssccsscsssssscssscsssssssscscscc" />
  <path
     sodipodi:type="arc"
     style="fill:none;stroke:#000000;stroke-width:6;stroke-miterlimit:4;stroke-opacity:1;stroke-dasharray:none"
     id="path4392"
     sodipodi:cx="96.927963"
     sodipodi:cy="71.18644"
     sodipodi:rx="49.788136"
     sodipodi:ry="49.788136"
     d="m 146.7161,71.18644 a 49.788136,49.788136 0 1 1 -99.576272,0 49.788136,49.788136 0 1 1 99.576272,0 z"
     transform="matrix(2.3077272,0,0,2.3077272,-26.600415,31.643941)" />
</svg>
