<?xml version="1.0" encoding="UTF-8" standalone="no"?>
<!-- Created with Inkscape (http://www.inkscape.org/) -->

<svg
   xmlns:dc="http://purl.org/dc/elements/1.1/"
   xmlns:cc="http://creativecommons.org/ns#"
   xmlns:rdf="http://www.w3.org/1999/02/22-rdf-syntax-ns#"
   xmlns:svg="http://www.w3.org/2000/svg"
   xmlns="http://www.w3.org/2000/svg"
   xmlns:sodipodi="http://sodipodi.sourceforge.net/DTD/sodipodi-0.dtd"
   xmlns:inkscape="http://www.inkscape.org/namespaces/inkscape"
   version="1.1"
   width="177.16534"
   height="177.16534"
   id="svg5512"
   inkscape:version="0.48.3.1 r9886"
   sodipodi:docname="netz39-logo.since_2013-07-11_50mm.svg">
  <sodipodi:namedview
     pagecolor="#ffffff"
     bordercolor="#666666"
     borderopacity="1"
     objecttolerance="10"
     gridtolerance="10"
     guidetolerance="10"
     inkscape:pageopacity="0"
     inkscape:pageshadow="2"
     inkscape:window-width="967"
     inkscape:window-height="576"
     id="namedview12"
     showgrid="false"
     inkscape:zoom="2.4214671"
     inkscape:cx="88.582675"
     inkscape:cy="88.582657"
     inkscape:window-x="57"
     inkscape:window-y="24"
     inkscape:window-maximized="1"
     inkscape:current-layer="svg5512"
     units="mm" />
  <defs
     id="defs5514" />
  <metadata
     id="metadata5517">
    <rdf:RDF>
      <cc:Work
         rdf:about="">
        <dc:format>image/svg+xml</dc:format>
        <dc:type
           rdf:resource="http://purl.org/dc/dcmitype/StillImage" />
        <dc:title></dc:title>
      </cc:Work>
    </rdf:RDF>
  </metadata>
  <g
     transform="matrix(0.69816811,0,0,0.69816815,-328.95859,-63.409446)"
     id="g4413">
    <path
       d="m 534.12054,161.88159 0,2.60153 0,2.60153 0,2.60153 0,2.60153 11.81317,0 11.81317,0 11.81317,0 11.81317,0 -4.92974,4.92974 -4.92975,4.92975 -4.92975,4.92974 -4.92974,4.92975 -2.22699,2.21686 -2.22699,2.21687 -2.22699,2.21686 -2.22699,2.21687 3.14815,0 3.14816,0 3.14815,0 3.14815,0 14.17251,2.86573 11.57014,7.81303 7.7991,11.58406 2.85941,14.17883 -2.85941,14.17251 -7.7991,11.57014 -11.57014,7.79911 -14.17251,2.85941 -14.17883,-2.85941 -11.58406,-7.79911 -7.81303,-11.57014 -2.86573,-14.17251 -2.60153,0 -2.60153,0 -2.60153,0 -2.60153,0 3.68361,18.2227 10.04334,14.87789 14.89181,10.02942 18.22901,3.67729 18.22269,-3.67729 14.87788,-10.02942 10.02942,-14.87789 3.67729,-18.2227 -2.68691,-15.68176 -7.44412,-13.4345 -11.27644,-10.25426 -14.18388,-6.14105 7.49078,-7.48066 7.49079,-7.48066 7.49078,-7.48066 7.49079,-7.48066 -18.09936,0 -18.09935,0 -18.09936,0 z"
       id="path4996-4-0-4-8-9-7-2-6-0-9-9-2"
       style="color:#000000;fill:none;stroke:#000000;stroke-width:1.43231976;stroke-miterlimit:4;stroke-opacity:1;stroke-dasharray:none;marker:none;visibility:visible;display:inline;overflow:visible;enable-background:accumulate"
       inkscape:connector-curvature="0"
       sodipodi:nodetypes="ccccccccccccccccccccccccccccccccccccccccccccccccccccccccc" />
    <g
       transform="matrix(-1,0,0,-1,1130.6373,475.18252)"
       id="g4409">
      <path
         d="m 565.33889,208.68886 -11.1396,2.25075 -9.09977,6.13682 -6.13682,9.09977 -2.25075,11.1396 1.34787,8.69628 3.76484,7.61589 5.7637,6.12054 7.34442,4.21019 0,-2.93558 0,-2.93557 0,-2.93558 0,-2.93558 -3.2139,-2.8423 -2.46488,-3.51752 -1.57916,-4.06275 -0.55677,-4.47802 1.43287,-7.08941 3.90651,-5.79203 5.79203,-3.90651 7.08941,-1.43287 7.08309,1.43287 5.77811,3.90651 3.8926,5.79203 1.42654,7.08941 -0.55392,4.47354 -1.57105,4.06282 -2.45212,3.51979 -3.19713,2.84444 0,2.93558 0,2.93558 0,2.93557 0,2.93558 7.33341,-4.21019 5.7503,-6.12054 3.75352,-7.61589 1.3431,-8.69628 -2.24442,-11.1396 -6.1229,-9.09977 -9.08586,-6.13682 z"
         id="path4996-4-0-4-2-1-9-8-5-8-9"
         style="color:#000000;fill:none;stroke:#000000;stroke-width:1.43231976;stroke-miterlimit:4;stroke-opacity:1;stroke-dasharray:none;marker:none;visibility:visible;display:inline;overflow:visible;enable-background:accumulate"
         inkscape:connector-curvature="0"
         sodipodi:nodetypes="ccccccccccccccccccccccccccccccccccccccccc" />
      <path
         d="m 565.33889,232.0925 -2.02826,0.4121 -1.66083,1.12211 -1.12211,1.66083 -0.4121,2.02826 0,7.79446 0,7.79447 0,7.79446 0,7.79447 2.60153,0 2.60153,0 2.60153,0 2.60153,0 0,-7.79447 0,-7.79446 0,-7.79447 0,-7.79446 -0.40578,-2.02826 -1.10819,-1.66083 -1.64692,-1.12211 z"
         id="rect5023-1-6-7-7-5-2-9-1-8-8"
         style="color:#000000;fill:none;stroke:#000000;stroke-width:1.43231976;stroke-miterlimit:4;stroke-opacity:1;stroke-dasharray:none;marker:none;visibility:visible;display:inline;overflow:visible;enable-background:accumulate"
         inkscape:connector-curvature="0"
         sodipodi:nodetypes="ccccccccccccccccccccc" />
    </g>
    <path
       d="m 630.85289,149.49143 -4.0512,0.16698 -3.41855,0.36573 -2.55851,0.48403 -1.47111,0.5219 -1.38579,1.31809 -0.78184,1.62083 -0.2244,1.5078 0.28651,0.97904 2.15535,1.55591 4.40872,2.84398 5.15551,3.12409 4.39573,2.39625 4.95084,7.09736 -2.2217,9.36325 -6.62308,7.43937 -8.25328,1.32574 -5.8365,-3.08492 -5.44678,-3.91024 -4.27936,-3.36847 -2.33426,-1.45966 -1.15324,0.15733 -1.14014,0.60101 -0.95511,1.09238 -0.59813,1.63148 0.40339,3.55591 2.01648,6.051 3.75225,7.37177 5.61068,7.51821 8.64932,4.83562 8.76237,0.19534 6.7881,0.008 2.72655,4.27382 0,12.21808 0,12.21807 0,12.21808 0,12.21808 0.25836,2.5359 0.74687,2.43819 1.19823,2.25094 1.61248,1.97421 1.9753,1.61113 2.25176,1.19671 2.43869,0.7452 2.53608,0.25664 2.53607,-0.25664 2.43869,-0.7452 2.25176,-1.19671 1.9753,-1.61113 1.61248,-1.97421 1.19823,-2.25094 0.74687,-2.43819 0.25836,-2.5359 0,-15.60917 0,-15.60918 0,-15.60918 0,-15.60917 0,-3.64417 0,-3.64416 0,-3.64417 0,-3.64416 0.70091,-6.72927 -0.12078,-10.16207 -4.27771,-10.85717 -11.76987,-8.81461 -4.25902,-1.39504 -4.55897,-0.89673 -4.6242,-0.46956 -4.45471,-0.11351 z"
       id="path5018-1-3-2-1-4-7-5-6"
       style="fill:none;stroke:#000000;stroke-width:1.43231976;stroke-miterlimit:4;stroke-opacity:1;stroke-dasharray:none"
       inkscape:connector-curvature="0"
       sodipodi:nodetypes="cccccccccccccccccccccccccccccccccccccccccccccccccccccccccccccccccccccc" />
  </g>
  <path
     d="M 88.582671,2.4746094e-5 70.730637,1.7997749 54.10298,6.9615134 39.055968,15.128972 25.94587,25.945884 15.128955,39.05598 6.9614927,54.102992 1.7997514,70.730653 0,88.582695 l 1.7997513,17.852015 5.1617414,16.62765 8.1674623,15.04701 10.816915,13.1101 13.110098,10.81692 15.047012,8.16746 16.627657,5.16175 17.852034,1.79975 17.852029,-1.79975 16.62765,-5.16175 15.04702,-8.16746 13.1101,-10.81692 10.81692,-13.1101 8.16746,-15.04701 5.16175,-16.62765 1.79975,-17.852015 L 175.3656,70.730653 170.20385,54.102992 162.03639,39.055981 151.21947,25.945884 138.10937,15.128972 123.06235,6.9615134 106.4347,1.7997764 z m 0,12.138000253906 15.402869,1.553403 14.3453,4.45509 12.98071,7.049104 11.30908,9.335441 9.33041,11.314103 7.04472,12.98509 4.45199,14.348401 1.55223,15.404038 -1.55223,15.402855 -4.45199,14.3453 -7.04472,12.98071 -9.33041,11.30907 -11.30908,9.33042 -12.98071,7.04472 -14.3453,4.45198 -15.402869,1.55223 -15.382146,-1.673 -14.290557,-4.898 -12.912395,-7.63608 -11.247663,-9.88727 -9.296357,-11.65156 -7.058479,-12.92894 -4.53403,-13.71943 -1.723008,-14.023005 1.553403,-15.404038 4.455091,-14.348401 7.049105,-12.98509 9.335442,-11.314104 11.314105,-9.33544 12.985093,-7.049104 14.348405,-4.455091 15.404041,-1.553402 -6e-6,0 -7e-6,0 -6e-6,0 -6e-6,0 -6e-6,0 -6e-6,0 z"
     style="color:#000000;fill:none;stroke:#000000;stroke-width:1;stroke-miterlimit:4;stroke-opacity:1;stroke-dasharray:none;marker:none;visibility:visible;display:inline;overflow:visible;enable-background:accumulate"
     inkscape:connector-curvature="0"
     id="path7438-70-0-9-0-2"
     sodipodi:nodetypes="ccccccccccccccccccccccccccccccccccccccccccccccccccccccccccccccccccccccccc" />
</svg>
