  0
SECTION
  2
HEADER
  9
$ACADVER
  1
AC1014
  9
$HANDSEED
  5
FFFF
  9
$MEASUREMENT
 70
     1
  0
ENDSEC
  0
SECTION
  2
TABLES
  0
TABLE
  2
VPORT
  5
8
330
0
100
AcDbSymbolTable
 70
     4
  0
VPORT
  5
2E
330
8
100
AcDbSymbolTableRecord
100
AcDbViewportTableRecord
  2
*ACTIVE
 70
     0
 10
0.0
 20
0.0
 11
1.0
 21
1.0
 12
210.0
 22
148.5
 13
0.0
 23
0.0
 14
10.0
 24
10.0
 15
10.0
 25
10.0
 16
0.0
 26
0.0
 36
1.0
 17
0.0
 27
0.0
 37
0.0
 40
341.0
 41
1.24
 42
50.0
 43
0.0
 44
0.0
 50
0.0
 51
0.0
 71
     0
 72
   100
 73
     1
 74
     3
 75
     0
 76
     0
 77
     0
 78
     0
  0
ENDTAB
  0
TABLE
  2
LTYPE
  5
5
330
0
100
AcDbSymbolTable
 70
     1
  0
LTYPE
  5
14
330
5
100
AcDbSymbolTableRecord
100
AcDbLinetypeTableRecord
  2
BYBLOCK
 70
     0
  3

 72
    65
 73
     0
 40
0.0
  0
LTYPE
  5
15
330
5
100
AcDbSymbolTableRecord
100
AcDbLinetypeTableRecord
  2
BYLAYER
 70
     0
  3

 72
    65
 73
     0
 40
0.0
  0
LTYPE
  5
16
330
5
100
AcDbSymbolTableRecord
100
AcDbLinetypeTableRecord
  2
CONTINUOUS
 70
     0
  3
Solid line
 72
    65
 73
     0
 40
0.0
  0
ENDTAB
  0
TABLE
  2
LAYER
  5
2
100
AcDbSymbolTable
 70
1
  0
LAYER
  5
50
100
AcDbSymbolTableRecord
100
AcDbLayerTableRecord
  2
0
 70
0
  6
CONTINUOUS
  0
ENDTAB
  0
TABLE
  2
STYLE
  5
3
330
0
100
AcDbSymbolTable
 70
     1
  0
STYLE
  5
11
330
3
100
AcDbSymbolTableRecord
100
AcDbTextStyleTableRecord
  2
STANDARD
 70
     0
 40
0.0
 41
1.0
 50
0.0
 71
     0
 42
2.5
  3
txt
  4

  0
ENDTAB
  0
TABLE
  2
VIEW
  5
6
330
0
100
AcDbSymbolTable
 70
     0
  0
ENDTAB
  0
TABLE
  2
UCS
  5
7
330
0
100
AcDbSymbolTable
 70
     0
  0
ENDTAB
  0
TABLE
  2
APPID
  5
9
330
0
100
AcDbSymbolTable
 70
     2
  0
APPID
  5
12
330
9
100
AcDbSymbolTableRecord
100
AcDbRegAppTableRecord
  2
ACAD
 70
     0
  0
ENDTAB
  0
TABLE
  2
DIMSTYLE
  5
A
330
0
100
AcDbSymbolTable
 70
     1
  0
DIMSTYLE
105
27
330
A
100
AcDbSymbolTableRecord
100
AcDbDimStyleTableRecord
  2
ISO-25
 70
     0
  3

  4

  5

  6

  7

 40
1.0
 41
2.5
 42
0.625
 43
3.75
 44
1.25
 45
0.0
 46
0.0
 47
0.0
 48
0.0
140
2.5
141
2.5
142
0.0
143
0.03937007874016
144
1.0
145
0.0
146
1.0
147
0.625
 71
     0
 72
     0
 73
     0
 74
     0
 75
     0
 76
     0
 77
     1
 78
     8
170
     0
171
     3
172
     1
173
     0
174
     0
175
     0
176
     0
177
     0
178
     0
270
     2
271
     2
272
     2
273
     2
274
     3
340
11
275
     0
280
     0
281
     0
282
     0
283
     0
284
     8
285
     0
286
     0
287
     3
288
     0
  0
ENDTAB
  0
TABLE
  2
BLOCK_RECORD
  5
1
330
0
100
AcDbSymbolTable
 70
     1
  0
BLOCK_RECORD
  5
1F
330
1
100
AcDbSymbolTableRecord
100
AcDbBlockTableRecord
  2
*MODEL_SPACE
  0
BLOCK_RECORD
  5
1B
330
1
100
AcDbSymbolTableRecord
100
AcDbBlockTableRecord
  2
*PAPER_SPACE
  0
ENDTAB
  0
ENDSEC
  0
SECTION
  2
BLOCKS
  0
BLOCK
  5
20
330
1F
100
AcDbEntity
  8
0
100
AcDbBlockBegin
  2
*MODEL_SPACE
 70
     0
 10
0.0
 20
0.0
 30
0.0
  3
*MODEL_SPACE
  1

  0
ENDBLK
  5
21
330
1F
100
AcDbEntity
  8
0
100
AcDbBlockEnd
  0
BLOCK
  5
1C
330
1B
100
AcDbEntity
 67
     1
  8
0
100
AcDbBlockBegin
  2
*PAPER_SPACE
  1

  0
ENDBLK
  5
1D
330
1B
100
AcDbEntity
 67
     1
  8
0
100
AcDbBlockEnd
  0
ENDSEC
  0
SECTION
  2
ENTITIES
  0
LWPOLYLINE
  5
100
100
AcDbEntity
  8
0
 62
7
100
AcDbPolyline
 90
57
 70
0
 10
5.527409
 20
41.579271
 30
0.0
 10
5.527409
 20
40.699539
 30
0.0
 10
5.527409
 20
39.819808
 30
0.0
 10
5.527409
 20
38.940077
 30
0.0
 10
5.527409
 20
38.060345
 30
0.0
 10
9.522141
 20
38.060345
 30
0.0
 10
13.516873
 20
38.060345
 30
0.0
 10
17.511605
 20
38.060345
 30
0.0
 10
21.506337
 20
38.060345
 30
0.0
 10
19.839300
 20
36.393308
 30
0.0
 10
18.172260
 20
34.726268
 30
0.0
 10
16.505220
 20
33.059231
 30
0.0
 10
14.838183
 20
31.392190
 30
0.0
 10
14.085105
 20
30.642539
 30
0.0
 10
13.332028
 20
29.892883
 30
0.0
 10
12.578951
 20
29.143232
 30
0.0
 10
11.825874
 20
28.393577
 30
0.0
 10
12.890450
 20
28.393577
 30
0.0
 10
13.955029
 20
28.393577
 30
0.0
 10
15.019605
 20
28.393577
 30
0.0
 10
16.084181
 20
28.393577
 30
0.0
 10
20.876746
 20
27.424504
 30
0.0
 10
24.789295
 20
24.782455
 30
0.0
 10
27.426632
 20
20.865199
 30
0.0
 10
28.393568
 20
16.070496
 30
0.0
 10
27.426632
 20
11.277931
 30
0.0
 10
24.789295
 20
7.365382
 30
0.0
 10
20.876746
 20
4.728041
 30
0.0
 10
16.084181
 20
3.761105
 30
0.0
 10
11.289479
 20
4.728041
 30
0.0
 10
7.372223
 20
7.365382
 30
0.0
 10
4.730175
 20
11.277931
 30
0.0
 10
3.761102
 20
16.070496
 30
0.0
 10
2.881370
 20
16.070496
 30
0.0
 10
2.001639
 20
16.070496
 30
0.0
 10
1.121908
 20
16.070496
 30
0.0
 10
0.242176
 20
16.070496
 30
0.0
 10
1.487823
 20
9.908322
 30
0.0
 10
4.884071
 20
4.877226
 30
0.0
 10
9.919873
 20
1.485685
 30
0.0
 10
16.084181
 20
0.242176
 30
0.0
 10
22.246351
 20
1.485685
 30
0.0
 10
27.277443
 20
4.877226
 30
0.0
 10
30.668984
 20
9.908322
 30
0.0
 10
31.912493
 20
16.070496
 30
0.0
 10
31.003890
 20
21.373428
 30
0.0
 10
28.486592
 20
25.916429
 30
0.0
 10
24.673360
 20
29.384001
 30
0.0
 10
19.876951
 20
31.460654
 30
0.0
 10
22.410027
 20
33.990308
 30
0.0
 10
24.943107
 20
36.519962
 30
0.0
 10
27.476183
 20
39.049617
 30
0.0
 10
30.009262
 20
41.579271
 30
0.0
 10
23.888797
 20
41.579271
 30
0.0
 10
17.768335
 20
41.579271
 30
0.0
 10
11.647870
 20
41.579271
 30
0.0
 10
5.527409
 20
41.579271
 30
0.0
  0
LWPOLYLINE
  5
101
100
AcDbEntity
  8
0
 62
7
100
AcDbPolyline
 90
41
 70
0
 10
16.070492
 20
6.203734
 30
0.0
 10
19.837450
 20
6.964846
 30
0.0
 10
22.914621
 20
9.040068
 30
0.0
 10
24.989844
 20
12.117239
 30
0.0
 10
25.750955
 20
15.884198
 30
0.0
 10
25.295161
 20
18.824925
 30
0.0
 10
24.022045
 20
21.400309
 30
0.0
 10
22.072997
 20
23.470026
 30
0.0
 10
19.589414
 20
24.893740
 30
0.0
 10
19.589414
 20
23.901047
 30
0.0
 10
19.589414
 20
22.908357
 30
0.0
 10
19.589414
 20
21.915663
 30
0.0
 10
19.589414
 20
20.922970
 30
0.0
 10
20.676224
 20
19.961820
 30
0.0
 10
21.509746
 20
18.772338
 30
0.0
 10
22.043753
 20
17.398482
 30
0.0
 10
22.232030
 20
15.884198
 30
0.0
 10
21.747492
 20
13.486848
 30
0.0
 10
20.426470
 20
11.528220
 30
0.0
 10
18.467841
 20
10.207197
 30
0.0
 10
16.070492
 20
9.722659
 30
0.0
 10
13.675280
 20
10.207197
 30
0.0
 10
11.721359
 20
11.528220
 30
0.0
 10
10.405041
 20
13.486848
 30
0.0
 10
9.922643
 20
15.884198
 30
0.0
 10
10.109956
 20
17.396967
 30
0.0
 10
10.641221
 20
18.770847
 30
0.0
 10
11.470428
 20
19.961096
 30
0.0
 10
12.551567
 20
20.922970
 30
0.0
 10
12.551567
 20
21.915663
 30
0.0
 10
12.551567
 20
22.908357
 30
0.0
 10
12.551567
 20
23.901047
 30
0.0
 10
12.551567
 20
24.893740
 30
0.0
 10
10.071707
 20
23.470026
 30
0.0
 10
8.127190
 20
21.400309
 30
0.0
 10
6.857903
 20
18.824925
 30
0.0
 10
6.403721
 20
15.884198
 30
0.0
 10
7.162692
 20
12.117239
 30
0.0
 10
9.233207
 20
9.040068
 30
0.0
 10
12.305675
 20
6.964846
 30
0.0
 10
16.070492
 20
6.203734
 30
0.0
  0
LWPOLYLINE
  5
102
100
AcDbEntity
  8
0
 62
7
100
AcDbPolyline
 90
21
 70
0
 10
16.070492
 20
14.117891
 30
0.0
 10
16.756367
 20
14.257246
 30
0.0
 10
17.317992
 20
14.636698
 30
0.0
 10
17.697444
 20
15.198323
 30
0.0
 10
17.836799
 20
15.884198
 30
0.0
 10
17.836799
 20
18.519966
 30
0.0
 10
17.836799
 20
21.155738
 30
0.0
 10
17.836799
 20
23.791507
 30
0.0
 10
17.836799
 20
26.427279
 30
0.0
 10
16.957068
 20
26.427279
 30
0.0
 10
16.077337
 20
26.427279
 30
0.0
 10
15.197605
 20
26.427279
 30
0.0
 10
14.317874
 20
26.427279
 30
0.0
 10
14.317874
 20
23.791507
 30
0.0
 10
14.317874
 20
21.155738
 30
0.0
 10
14.317874
 20
18.519966
 30
0.0
 10
14.317874
 20
15.884198
 30
0.0
 10
14.455092
 20
15.198323
 30
0.0
 10
14.829837
 20
14.636698
 30
0.0
 10
15.386758
 20
14.257246
 30
0.0
 10
16.070492
 20
14.117891
 30
0.0
  0
LWPOLYLINE
  5
103
100
AcDbEntity
  8
0
 62
7
100
AcDbPolyline
 90
70
 70
0
 10
38.238343
 20
45.769118
 30
0.0
 10
36.868392
 20
45.712652
 30
0.0
 10
35.712378
 20
45.588977
 30
0.0
 10
34.847195
 20
45.425298
 30
0.0
 10
34.349725
 20
45.248813
 30
0.0
 10
33.881107
 20
44.803088
 30
0.0
 10
33.616721
 20
44.254990
 30
0.0
 10
33.540838
 20
43.745113
 30
0.0
 10
33.637724
 20
43.414042
 30
0.0
 10
34.366576
 20
42.887896
 30
0.0
 10
35.857425
 20
41.926178
 30
0.0
 10
37.600808
 20
40.869738
 30
0.0
 10
39.087265
 20
40.059424
 30
0.0
 10
40.761437
 20
37.659387
 30
0.0
 10
40.010148
 20
34.493117
 30
0.0
 10
37.770493
 20
31.977425
 30
0.0
 10
34.979570
 20
31.529114
 30
0.0
 10
33.005904
 20
32.572308
 30
0.0
 10
31.164025
 20
33.894592
 30
0.0
 10
29.716920
 20
35.033671
 30
0.0
 10
28.927569
 20
35.527269
 30
0.0
 10
28.537590
 20
35.474066
 30
0.0
 10
28.152041
 20
35.270829
 30
0.0
 10
27.829062
 20
34.901431
 30
0.0
 10
27.626799
 20
34.349731
 30
0.0
 10
27.763209
 20
33.147267
 30
0.0
 10
28.445100
 20
31.101066
 30
0.0
 10
29.713958
 20
28.608233
 30
0.0
 10
31.611261
 20
26.065881
 30
0.0
 10
34.536108
 20
24.430672
 30
0.0
 10
37.499184
 20
24.364616
 30
0.0
 10
39.794643
 20
24.361911
 30
0.0
 10
40.716651
 20
22.916679
 30
0.0
 10
40.716651
 20
18.785022
 30
0.0
 10
40.716651
 20
14.653369
 30
0.0
 10
40.716651
 20
10.521713
 30
0.0
 10
40.716651
 20
6.390056
 30
0.0
 10
40.804018
 20
5.532518
 30
0.0
 10
41.056579
 20
4.708022
 30
0.0
 10
41.461771
 20
3.946845
 30
0.0
 10
42.007046
 20
3.279248
 30
0.0
 10
42.675012
 20
2.734430
 30
0.0
 10
43.436465
 20
2.329751
 30
0.0
 10
44.261131
 20
2.077755
 30
0.0
 10
45.118730
 20
1.990970
 30
0.0
 10
45.976325
 20
2.077755
 30
0.0
 10
46.800990
 20
2.329751
 30
0.0
 10
47.562444
 20
2.734430
 30
0.0
 10
48.230410
 20
3.279248
 30
0.0
 10
48.775685
 20
3.946845
 30
0.0
 10
49.180877
 20
4.708022
 30
0.0
 10
49.433438
 20
5.532518
 30
0.0
 10
49.520805
 20
6.390056
 30
0.0
 10
49.520805
 20
11.668441
 30
0.0
 10
49.520805
 20
16.946829
 30
0.0
 10
49.520805
 20
22.225218
 30
0.0
 10
49.520805
 20
27.503603
 30
0.0
 10
49.520805
 20
28.735912
 30
0.0
 10
49.520805
 20
29.968219
 30
0.0
 10
49.520805
 20
31.200528
 30
0.0
 10
49.520805
 20
32.432835
 30
0.0
 10
49.757824
 20
34.708399
 30
0.0
 10
49.716981
 20
38.144797
 30
0.0
 10
48.270434
 20
41.816249
 30
0.0
 10
44.290344
 20
44.796991
 30
0.0
 10
42.850118
 20
45.268737
 30
0.0
 10
41.308460
 20
45.571974
 30
0.0
 10
39.744744
 20
45.730760
 30
0.0
 10
38.238343
 20
45.769145
 30
0.0
 10
38.238343
 20
45.769118
 30
0.0
  0
ENDSEC
  0
SECTION
  2
OBJECTS
  0
DICTIONARY
  5
C
330
0
100
AcDbDictionary
  3
ACAD_GROUP
350
D
  3
ACAD_MLINESTYLE
350
17
  0
DICTIONARY
  5
D
330
C
100
AcDbDictionary
  0
DICTIONARY
  5
1A
330
C
100
AcDbDictionary
  0
DICTIONARY
  5
17
330
C
100
AcDbDictionary
  3
STANDARD
350
18
  0
DICTIONARY
  5
19
330
C
100
AcDbDictionary
  0
ENDSEC
  0
EOF
