<?xml version="1.0" encoding="UTF-8" standalone="no"?>
<!-- Created with Inkscape (http://www.inkscape.org/) -->

<svg
   xmlns:dc="http://purl.org/dc/elements/1.1/"
   xmlns:cc="http://creativecommons.org/ns#"
   xmlns:rdf="http://www.w3.org/1999/02/22-rdf-syntax-ns#"
   xmlns:svg="http://www.w3.org/2000/svg"
   xmlns="http://www.w3.org/2000/svg"
   xmlns:sodipodi="http://sodipodi.sourceforge.net/DTD/sodipodi-0.dtd"
   xmlns:inkscape="http://www.inkscape.org/namespaces/inkscape"
   width="120"
   height="120"
   id="svg2"
   version="1.1"
   inkscape:version="0.48.4 r9939"
   sodipodi:docname="7seg_03.svg"
   inkscape:export-filename="C:\Dokumente und Einstellungen\adahl\Eigene Dateien\GitHub\netz39-logo\alex\7seg_03.png"
   inkscape:export-xdpi="90"
   inkscape:export-ydpi="90">
  <defs
     id="defs4">
    <filter
       inkscape:collect="always"
       id="filter4205">
      <feGaussianBlur
         inkscape:collect="always"
         stdDeviation="1.7781248"
         id="feGaussianBlur4207" />
    </filter>
  </defs>
  <sodipodi:namedview
     id="base"
     pagecolor="#ffffff"
     bordercolor="#666666"
     borderopacity="1.0"
     inkscape:pageopacity="0.0"
     inkscape:pageshadow="2"
     inkscape:zoom="2"
     inkscape:cx="60"
     inkscape:cy="60"
     inkscape:document-units="px"
     inkscape:current-layer="layer1"
     showgrid="false"
     gridtolerance="8"
     inkscape:snap-global="true"
     inkscape:snap-to-guides="false"
     inkscape:snap-grids="true"
     inkscape:snap-page="false"
     inkscape:window-width="1016"
     inkscape:window-height="704"
     inkscape:window-x="2012"
     inkscape:window-y="26"
     inkscape:window-maximized="0"
     fit-margin-top="0"
     fit-margin-left="0"
     fit-margin-right="0"
     fit-margin-bottom="0">
    <inkscape:grid
       type="xygrid"
       id="grid2985"
       empspacing="10"
       visible="true"
       enabled="true"
       snapvisiblegridlinesonly="true"
       originx="0px"
       originy="2e-005px" />
  </sodipodi:namedview>
  <metadata
     id="metadata7">
    <rdf:RDF>
      <cc:Work
         rdf:about="">
        <dc:format>image/svg+xml</dc:format>
        <dc:type
           rdf:resource="http://purl.org/dc/dcmitype/StillImage" />
        <dc:title />
        <cc:license
           rdf:resource="http://creativecommons.org/licenses/by-sa/3.0/" />
        <dc:date>2013-02-28</dc:date>
        <dc:creator>
          <cc:Agent>
            <dc:title>Alexander Dahl</dc:title>
          </cc:Agent>
        </dc:creator>
      </cc:Work>
      <cc:License
         rdf:about="http://creativecommons.org/licenses/by-sa/3.0/">
        <cc:permits
           rdf:resource="http://creativecommons.org/ns#Reproduction" />
        <cc:permits
           rdf:resource="http://creativecommons.org/ns#Distribution" />
        <cc:requires
           rdf:resource="http://creativecommons.org/ns#Notice" />
        <cc:requires
           rdf:resource="http://creativecommons.org/ns#Attribution" />
        <cc:permits
           rdf:resource="http://creativecommons.org/ns#DerivativeWorks" />
        <cc:requires
           rdf:resource="http://creativecommons.org/ns#ShareAlike" />
      </cc:License>
    </rdf:RDF>
  </metadata>
  <g
     inkscape:label="Layer 1"
     inkscape:groupmode="layer"
     id="layer1"
     transform="translate(0,-932.3622)">
    <rect
       style="fill:#1a1a1a;fill-opacity:1;fill-rule:nonzero;stroke:none"
       id="rect3813"
       width="110"
       height="110"
       x="5"
       y="4.99998"
       transform="translate(0,932.3622)"
       ry="5" />
    <path
       style="fill:#4e4e4e;fill-opacity:1;fill-rule:nonzero;stroke:none"
       d="m 20,942.36222 c -1.986108,0 -3.822244,0.60305 -5.375,1.59375 l 8.40625,8.40625 13.25,0 4.8125,-4.8125 -5.1875,-5.1875 -15.90625,0 z"
       id="path3888"
       inkscape:connector-curvature="0" />
    <path
       style="fill:#4e4e4e;fill-opacity:1;fill-rule:nonzero;stroke:none"
       d="m 53.34375,942.36222 -5.1875,5.1875 4.8125,4.8125 13.65625,0 4.8125,-4.8125 -5.1875,-5.1875 -12.90625,0 z"
       id="path3884"
       inkscape:connector-curvature="0" />
    <path
       style="fill:#4e4e4e;fill-opacity:1;fill-rule:nonzero;stroke:none"
       d="m 83.6875,942.36222 -5.1875,5.1875 4.8125,4.8125 13.21875,0 8.59375,-8.59375 c -1.49558,-0.88911 -3.25183,-1.40625 -5.125,-1.40625 l -16.3125,0 z"
       id="path3880"
       inkscape:connector-curvature="0" />
    <path
       style="fill:#4e4e4e;fill-opacity:1;fill-rule:nonzero;stroke:none"
       d="m 108.625,947.36222 -8.625,8.625 0,13.03125 5.0625,5.0625 4.9375,-4.9375 0,-16.78125 c 0,-1.82859 -0.52475,-3.52828 -1.375,-5 z"
       id="path3878"
       inkscape:connector-curvature="0" />
    <path
       style="fill:#4e4e4e;fill-opacity:1;fill-rule:nonzero;stroke:none"
       d="m 11.21875,947.61222 c -0.759776,1.41143 -1.2187502,3.02864 -1.2187502,4.75 l 0,17.1875 4.5312502,4.53125 5.46875,-5.46875 0,-12.21875 -8.78125,-8.78125 z"
       id="path3876"
       inkscape:connector-curvature="0" />
    <path
       style="fill:#4e4e4e;fill-opacity:1;fill-rule:nonzero;stroke:none"
       d="m 14.53125,981.14347 -4.5312502,4.53125 0,13.31247 L 15,1003.9872 l 5,-5.00001 0,-12.37497 -5.46875,-5.46875 z"
       id="path3860"
       inkscape:connector-curvature="0" />
    <path
       style="fill:#4e4e4e;fill-opacity:1;fill-rule:nonzero;stroke:none"
       d="m 105.0625,981.14347 -5.0625,5.0625 0,13.15622 4.625,4.62501 5.375,-5.37501 0,-12.53122 -4.9375,-4.9375 z"
       id="path3858"
       inkscape:connector-curvature="0" />
    <path
       style="fill:#4e4e4e;fill-opacity:1;fill-rule:nonzero;stroke:none"
       d="m 15,1011.0497 -5.0000002,5 0,16.3125 c 0,1.8791 0.5431552,3.6263 1.4375002,5.125 l 8.5625,-8.5625 0,-12.875 -5,-5 z"
       id="path3842"
       inkscape:connector-curvature="0" />
    <path
       style="fill:#4e4e4e;fill-opacity:1;fill-rule:nonzero;stroke:none"
       d="m 104.59375,1011.0809 -4.59375,4.5938 0,13.625 8.4375,8.4375 c 0.98524,-1.5499 1.5625,-3.3949 1.5625,-5.375 l 0,-15.875 -5.40625,-5.4063 z"
       id="path3840"
       inkscape:connector-curvature="0" />
    <g
       id="g4151">
      <path
         inkscape:connector-curvature="0"
         id="path3874"
         d="m 44.625,951.08097 -4.625,4.625 0,13.59375 4.84375,4.84375 5.15625,-5.15625 0,-12.53125 -5.375,-5.375 z"
         style="fill:#0f1181;fill-opacity:1;fill-rule:nonzero;stroke:none" />
      <path
         inkscape:connector-curvature="0"
         id="path3872"
         d="M 74.96875,951.08097 70,956.04972 l 0,13.34375 4.75,4.75 5.25,-5.25 0,-12.78125 -5.03125,-5.03125 z"
         style="fill:#0f1181;fill-opacity:1;fill-rule:nonzero;stroke:none" />
      <path
         inkscape:connector-curvature="0"
         id="path3870"
         d="m 23.3125,972.36222 -5.25,5.25 4.75,4.75 13.8125,0 4.6875,-4.6875 -5.3125,-5.3125 -12.6875,0 z"
         style="fill:#810f0f;fill-opacity:1;fill-rule:nonzero;stroke:none" />
      <path
         inkscape:connector-curvature="0"
         id="path3868"
         d="m 53.6875,972.36222 -5.3125,5.3125 4.6875,4.6875 13.46875,0 4.6875,-4.6875 -5.3125,-5.3125 -12.21875,0 z"
         style="fill:#1b761a;fill-opacity:1;fill-rule:nonzero;stroke:none" />
      <path
         inkscape:connector-curvature="0"
         id="path3866"
         d="m 83.625,972.36222 -5.3125,5.3125 4.6875,4.6875 13.78125,0 4.75,-4.75 -5.25,-5.25 -12.65625,0 z"
         style="fill:#0f1181;fill-opacity:1;fill-rule:nonzero;stroke:none" />
      <path
         inkscape:connector-curvature="0"
         id="path3856"
         d="m 44.8125,981.23722 -4.8125,4.8125 0,13.49997 4.6875,4.68751 5.3125,-5.31251 0,-12.49997 -5.1875,-5.1875 z"
         style="fill:#cec815;fill-opacity:1;fill-rule:nonzero;stroke:none" />
      <path
         inkscape:connector-curvature="0"
         id="path3854"
         d="m 74.75,981.23722 -4.75,4.75 0,13.31247 4.90625,4.90621 5.09375,-5.09371 0,-12.62497 -5.25,-5.25 z"
         style="fill:#1b761a;fill-opacity:1;fill-rule:nonzero;stroke:none" />
      <path
         inkscape:connector-curvature="0"
         id="path3852"
         d="m 23.6875,1002.3622 -5.15625,5.1562 4.84375,4.8438 13.1875,0 4.59375,-4.5938 -5.40625,-5.4062 -12.0625,0 z"
         style="fill:#810f0f;fill-opacity:1;fill-rule:nonzero;stroke:none" />
      <path
         inkscape:connector-curvature="0"
         id="path3850"
         d="m 53.625,1002.3622 -5.40625,5.4062 4.59375,4.5938 13.96875,0 4.59375,-4.5938 -5.40625,-5.4062 -12.34375,0 z"
         style="fill:#1b761a;fill-opacity:1;fill-rule:nonzero;stroke:none" />
      <path
         inkscape:connector-curvature="0"
         id="path3848"
         d="m 83.8125,1002.3622 -5.375,5.375 4.625,4.625 13.1875,0 4.8125,-4.8125 -5.1875,-5.1875 -12.0625,0 z"
         style="fill:#0f1181;fill-opacity:1;fill-rule:nonzero;stroke:none" />
      <path
         inkscape:connector-curvature="0"
         id="path3838"
         d="m 44.6875,1011.2997 -4.6875,4.6875 0,13 5.0625,5.0625 4.9375,-4.9375 0,-12.5 -5.3125,-5.3125 z"
         style="fill:#810f0f;fill-opacity:1;fill-rule:nonzero;stroke:none" />
      <path
         inkscape:connector-curvature="0"
         id="path3836"
         d="M 74.90625,1011.2997 70,1016.2059 l 0,13.3438 4.5,4.5 5.5,-5.5 0,-12.1563 -5.09375,-5.0937 z"
         style="fill:#1b761a;fill-opacity:1;fill-rule:nonzero;stroke:none" />
      <path
         inkscape:connector-curvature="0"
         id="path3834"
         d="m 23.625,1032.3622 -8.625,8.625 c 1.471718,0.8502 3.171414,1.375 5,1.375 l 16.75,0 4.78125,-4.7813 -5.21875,-5.2187 -12.6875,0 z"
         style="fill:#810f0f;fill-opacity:1;fill-rule:nonzero;stroke:none" />
      <path
         inkscape:connector-curvature="0"
         id="path3832"
         d="m 53.8125,1032.3622 -5.21875,5.2187 4.78125,4.7813 12.875,0 4.75,-4.75 -5.25,-5.25 -11.9375,0 z"
         style="fill:#1b761a;fill-opacity:1;fill-rule:nonzero;stroke:none" />
    </g>
    <path
       style="fill:#4e4e4e;fill-opacity:1;fill-rule:nonzero;stroke:none"
       d="m 83.3125,1032.3622 -5.25,5.25 4.75,4.75 17.1875,0 c 1.72136,0 3.33857,-0.459 4.75,-1.2188 l -8.78125,-8.7812 -12.65625,0 z"
       id="path3830"
       inkscape:connector-curvature="0" />
    <g
       id="g4167"
       style="filter:url(#filter4205)">
      <path
         style="fill:#0f1181;fill-opacity:1;fill-rule:nonzero;stroke:none"
         d="m 44.625,951.08097 -4.625,4.625 0,13.59375 4.84375,4.84375 5.15625,-5.15625 0,-12.53125 -5.375,-5.375 z"
         id="path4169"
         inkscape:connector-curvature="0" />
      <path
         style="fill:#0f1181;fill-opacity:1;fill-rule:nonzero;stroke:none"
         d="M 74.96875,951.08097 70,956.04972 l 0,13.34375 4.75,4.75 5.25,-5.25 0,-12.78125 -5.03125,-5.03125 z"
         id="path4171"
         inkscape:connector-curvature="0" />
      <path
         style="fill:#810f0f;fill-opacity:1;fill-rule:nonzero;stroke:none"
         d="m 23.3125,972.36222 -5.25,5.25 4.75,4.75 13.8125,0 4.6875,-4.6875 -5.3125,-5.3125 -12.6875,0 z"
         id="path4173"
         inkscape:connector-curvature="0" />
      <path
         style="fill:#1b761a;fill-opacity:1;fill-rule:nonzero;stroke:none"
         d="m 53.6875,972.36222 -5.3125,5.3125 4.6875,4.6875 13.46875,0 4.6875,-4.6875 -5.3125,-5.3125 -12.21875,0 z"
         id="path4175"
         inkscape:connector-curvature="0" />
      <path
         style="fill:#0f1181;fill-opacity:1;fill-rule:nonzero;stroke:none"
         d="m 83.625,972.36222 -5.3125,5.3125 4.6875,4.6875 13.78125,0 4.75,-4.75 -5.25,-5.25 -12.65625,0 z"
         id="path4177"
         inkscape:connector-curvature="0" />
      <path
         style="fill:#cec815;fill-opacity:1;fill-rule:nonzero;stroke:none"
         d="m 44.8125,981.23722 -4.8125,4.8125 0,13.49997 4.6875,4.68751 5.3125,-5.31251 0,-12.49997 -5.1875,-5.1875 z"
         id="path4179"
         inkscape:connector-curvature="0" />
      <path
         style="fill:#1b761a;fill-opacity:1;fill-rule:nonzero;stroke:none"
         d="m 74.75,981.23722 -4.75,4.75 0,13.31247 4.90625,4.90621 5.09375,-5.09371 0,-12.62497 -5.25,-5.25 z"
         id="path4181"
         inkscape:connector-curvature="0" />
      <path
         style="fill:#810f0f;fill-opacity:1;fill-rule:nonzero;stroke:none"
         d="m 23.6875,1002.3622 -5.15625,5.1562 4.84375,4.8438 13.1875,0 4.59375,-4.5938 -5.40625,-5.4062 -12.0625,0 z"
         id="path4183"
         inkscape:connector-curvature="0" />
      <path
         style="fill:#1b761a;fill-opacity:1;fill-rule:nonzero;stroke:none"
         d="m 53.625,1002.3622 -5.40625,5.4062 4.59375,4.5938 13.96875,0 4.59375,-4.5938 -5.40625,-5.4062 -12.34375,0 z"
         id="path4185"
         inkscape:connector-curvature="0" />
      <path
         style="fill:#0f1181;fill-opacity:1;fill-rule:nonzero;stroke:none"
         d="m 83.8125,1002.3622 -5.375,5.375 4.625,4.625 13.1875,0 4.8125,-4.8125 -5.1875,-5.1875 -12.0625,0 z"
         id="path4187"
         inkscape:connector-curvature="0" />
      <path
         style="fill:#810f0f;fill-opacity:1;fill-rule:nonzero;stroke:none"
         d="m 44.6875,1011.2997 -4.6875,4.6875 0,13 5.0625,5.0625 4.9375,-4.9375 0,-12.5 -5.3125,-5.3125 z"
         id="path4189"
         inkscape:connector-curvature="0" />
      <path
         style="fill:#1b761a;fill-opacity:1;fill-rule:nonzero;stroke:none"
         d="M 74.90625,1011.2997 70,1016.2059 l 0,13.3438 4.5,4.5 5.5,-5.5 0,-12.1563 -5.09375,-5.0937 z"
         id="path4191"
         inkscape:connector-curvature="0" />
      <path
         style="fill:#810f0f;fill-opacity:1;fill-rule:nonzero;stroke:none"
         d="m 23.625,1032.3622 -8.625,8.625 c 1.471718,0.8502 3.171414,1.375 5,1.375 l 16.75,0 4.78125,-4.7813 -5.21875,-5.2187 -12.6875,0 z"
         id="path4193"
         inkscape:connector-curvature="0" />
      <path
         style="fill:#1b761a;fill-opacity:1;fill-rule:nonzero;stroke:none"
         d="m 53.8125,1032.3622 -5.21875,5.2187 4.78125,4.7813 12.875,0 4.75,-4.75 -5.25,-5.25 -11.9375,0 z"
         id="path4195"
         inkscape:connector-curvature="0" />
    </g>
  </g>
</svg>
