<?xml version="1.0" encoding="UTF-8" standalone="no"?>
<!-- Created with Inkscape (http://www.inkscape.org/) -->

<svg
   xmlns:dc="http://purl.org/dc/elements/1.1/"
   xmlns:cc="http://creativecommons.org/ns#"
   xmlns:rdf="http://www.w3.org/1999/02/22-rdf-syntax-ns#"
   xmlns:svg="http://www.w3.org/2000/svg"
   xmlns="http://www.w3.org/2000/svg"
   xmlns:sodipodi="http://sodipodi.sourceforge.net/DTD/sodipodi-0.dtd"
   xmlns:inkscape="http://www.inkscape.org/namespaces/inkscape"
   width="744.09448819"
   height="1052.3622047"
   id="svg2"
   version="1.1"
   inkscape:version="0.48.1 "
   sodipodi:docname="logo.svg"
   inkscape:export-filename="D:\Privat\Netz39\bb\logo.png"
   inkscape:export-xdpi="96"
   inkscape:export-ydpi="96">
  <defs
     id="defs4" />
  <sodipodi:namedview
     id="base"
     pagecolor="#ffffff"
     bordercolor="#666666"
     borderopacity="1.0"
     inkscape:pageopacity="0.0"
     inkscape:pageshadow="2"
     inkscape:zoom="1"
     inkscape:cx="269.4198"
     inkscape:cy="728.38819"
     inkscape:document-units="px"
     inkscape:current-layer="layer1"
     showgrid="false"
     inkscape:window-width="1272"
     inkscape:window-height="960"
     inkscape:window-x="212"
     inkscape:window-y="4"
     inkscape:window-maximized="0" />
  <metadata
     id="metadata7">
    <rdf:RDF>
      <cc:Work
         rdf:about="">
        <dc:format>image/svg+xml</dc:format>
        <dc:type
           rdf:resource="http://purl.org/dc/dcmitype/StillImage" />
        <dc:title></dc:title>
      </cc:Work>
    </rdf:RDF>
  </metadata>
  <g
     inkscape:label="Layer 1"
     inkscape:groupmode="layer"
     id="layer1">
    <path
       style="fill:none;stroke:#000000;stroke-width:1.25;stroke-linecap:round;stroke-linejoin:round;stroke-miterlimit:4;stroke-opacity:1;stroke-dasharray:none"
       d="m 171.51887,239.08226 c 0.94424,1.88849 2.34764,3.61056 2.83274,5.66548 2.16943,9.18986 -2.73627,19.29008 0,28.32738 0.49329,1.62922 1.44386,2.76904 2.83273,4.2491"
       id="path2985"
       inkscape:connector-curvature="0"
       sodipodi:nodetypes="caac" />
    <path
       style="fill:none;stroke:#000000;stroke-width:1.25;stroke-linecap:round;stroke-linejoin:round;stroke-miterlimit:4;stroke-opacity:1;stroke-dasharray:none"
       d="m 179.9067,290.36714 c 1.28427,2.50517 2.03169,5.39934 2.49964,8.227 0.87701,5.29944 0.69161,10.73661 0.5323,16.10576 -0.0783,2.63998 -0.8059,5.46849 -0.7308,7.88964"
       id="path2987"
       inkscape:connector-curvature="0"
       sodipodi:nodetypes="caac" />
    <path
       style="fill:none;stroke:#000000;stroke-width:1.25;stroke-linecap:round;stroke-linejoin:round;stroke-miterlimit:4;stroke-opacity:1;stroke-dasharray:none"
       d="m 180.95436,340.40297 c -0.008,4.20808 -1.05483,8.54453 -0.0234,12.62427 0.50941,2.01492 2.16068,3.56747 2.97337,5.48031 0.57508,1.35357 1.05321,2.7623 1.33078,4.20654 0.58055,3.02069 0.64989,6.12715 0.67629,9.20309"
       id="path2989"
       inkscape:connector-curvature="0"
       sodipodi:nodetypes="caaac" />
    <path
       style="fill:none;stroke:#000000;stroke-width:1.25;stroke-linecap:round;stroke-linejoin:round;stroke-miterlimit:4;stroke-opacity:1;stroke-dasharray:none"
       d="m 185.39988,385.55179 c -0.009,7.08227 -0.61359,14.19006 -0.013,21.24682 0.11989,1.40863 0.67112,2.76683 0.71929,4.17974 0.0436,1.27838 -0.33596,2.53942 -0.39172,3.81733 -0.0381,0.87407 0.0236,1.74982 0.0395,2.62441"
       id="path2991"
       inkscape:connector-curvature="0"
       sodipodi:nodetypes="caaac" />
    <path
       style="fill:none;stroke:#000000;stroke-width:10;stroke-linecap:round;stroke-linejoin:round;stroke-miterlimit:4;stroke-opacity:1;stroke-dasharray:none"
       d="m 183.87336,281.97055 c 13.52319,-1.91094 17.91076,0.40503 26.78525,-0.59467 6.02887,-0.67915 16.53126,-3.46943 17.83037,-3.65443"
       id="path2993"
       inkscape:connector-curvature="0"
       sodipodi:nodetypes="cac" />
    <path
       style="fill:none;stroke:#000000;stroke-width:10;stroke-linecap:round;stroke-linejoin:round;stroke-miterlimit:4;stroke-opacity:1;stroke-dasharray:none"
       d="m 188.39166,329.46348 c 5.1047,-1.88435 10.60551,-1.3851 15.93565,-1.7846 6.0593,-0.45415 12.17674,-0.0214 18.21566,-0.69435 2.72247,-0.30338 5.34151,-1.41556 8.07944,-1.50243 1.95956,-0.0622 4.67315,0.872 5.83903,0.70656"
       id="path2995"
       inkscape:connector-curvature="0"
       sodipodi:nodetypes="caaac" />
    <path
       style="fill:none;stroke:#000000;stroke-width:10;stroke-linecap:round;stroke-linejoin:round;stroke-miterlimit:4;stroke-opacity:1;stroke-dasharray:none"
       d="m 194.64638,379.7473 c 2.4573,-0.4161 4.85873,-1.18698 7.33955,-1.42482 5.08414,-0.48742 10.22185,0.2754 15.32235,0.009 2.17818,-0.11376 4.33784,-0.46124 6.50743,-0.68548 1.82505,-0.18863 3.69779,-0.10408 5.47625,-0.55515 1.63132,-0.41375 3.13752,-1.37861 4.65866,-1.94635"
       id="path2997"
       inkscape:connector-curvature="0"
       sodipodi:nodetypes="caaaac" />
    <path
       style="fill:none;stroke:#000000;stroke-width:1.25;stroke-linecap:round;stroke-linejoin:round;stroke-miterlimit:4;stroke-opacity:1;stroke-dasharray:none"
       d="m 168.03068,381.73424 c 0.85049,0.0369 1.24243,-0.9558 1.97353,-1.19362 0.86648,-0.28185 1.81319,-0.19565 2.72362,-0.23216 2.18586,-0.0876 4.38115,0.19393 6.56277,0.032 0.7864,-0.0584 2.33909,-0.54855 2.33803,-0.36067"
       id="path2999"
       inkscape:connector-curvature="0"
       sodipodi:nodetypes="caaac" />
    <path
       style="fill:none;stroke:#000000;stroke-width:1.25;stroke-linecap:round;stroke-linejoin:round;stroke-miterlimit:4;stroke-opacity:1;stroke-dasharray:none"
       d="m 168.68007,333.47606 c 1.38432,-0.49214 2.92976,0.0746 4.31823,-0.3196 1.04681,-0.2972 1.85185,-1.2012 2.89656,-1.50569 1.09483,-0.3191 2.28646,-0.2922 3.40797,-0.30011"
       id="path3001"
       inkscape:connector-curvature="0"
       sodipodi:nodetypes="caac" />
    <path
       style="fill:none;stroke:#000000;stroke-width:1.25;stroke-linecap:round;stroke-linejoin:round;stroke-miterlimit:4;stroke-opacity:1;stroke-dasharray:none"
       d="m 162.00869,286.25978 c 4.31072,0.18045 8.43472,-0.0499 11.68505,-0.35409"
       id="path3003"
       inkscape:connector-curvature="0"
       sodipodi:nodetypes="cc" />
    <path
       style="fill:none;stroke:#000000;stroke-width:1.25;stroke-linecap:round;stroke-linejoin:round;stroke-miterlimit:4;stroke-opacity:1;stroke-dasharray:none"
       d="m 237.31751,236.94028 c -0.60205,1.50671 0.43382,3.05512 0.65966,4.58137 0.45572,3.07978 0.94224,6.15494 1.40317,9.23395 0.6179,4.12761 1.43649,8.23154 1.82637,12.38689 0.27589,2.94051 0.47861,5.8992 0.36063,8.85292"
       id="path3005"
       inkscape:connector-curvature="0"
       sodipodi:nodetypes="caaac" />
    <path
       style="fill:none;stroke:#000000;stroke-width:10;stroke-linecap:round;stroke-linejoin:round;stroke-miterlimit:4;stroke-opacity:1;stroke-dasharray:none"
       d="m 241.51586,285.12302 c -0.15737,1.18317 0.18129,6.65333 1.04563,9.83471 1.09137,4.01703 4.77061,10.04288 5.14497,11.37882 1.46243,4.65449 1.59774,7.42093 0.17477,11.70251"
       id="path3007"
       inkscape:connector-curvature="0"
       sodipodi:nodetypes="cacc" />
    <path
       style="fill:none;stroke:#000000;stroke-width:10;stroke-linecap:round;stroke-linejoin:round;stroke-miterlimit:4;stroke-opacity:1;stroke-dasharray:none"
       d="m 246.34539,334.6043 c -0.63257,2.48329 -0.36586,5.05548 -0.36333,7.58757 0.005,4.57833 0.39644,9.14867 0.68435,13.71794 0.22933,3.63958 2.46611,5.17457 0.83075,10.9088"
       id="path3009"
       inkscape:connector-curvature="0"
       sodipodi:nodetypes="caac" />
    <path
       style="fill:none;stroke:#000000;stroke-width:1.25;stroke-linecap:round;stroke-linejoin:round;stroke-miterlimit:4;stroke-opacity:1;stroke-dasharray:none"
       d="m 245.12663,381.6955 c 0,3.77698 1.23798,5.11987 1.06066,7.70703 -0.11932,1.74093 -1.61153,4.22318 -1.41466,5.04029"
       id="path3011"
       inkscape:connector-curvature="0"
       sodipodi:nodetypes="cac" />
    <path
       style="fill:none;stroke:#000000;stroke-width:1.25;stroke-linecap:round;stroke-linejoin:round;stroke-miterlimit:4;stroke-opacity:1;stroke-dasharray:none"
       d="m 255.53566,371.97596 c 2.51842,-0.0742 4.93492,-0.88465 7.43069,-1.06201 1.53229,-0.10889 3.07973,0.15118 4.60845,3.2e-4 2.2421,-0.22126 4.39337,-1.0385 6.6285,-1.32163 3.21266,-0.40695 6.47389,-0.25722 9.7002,-0.53596 1.76254,-0.15228 3.65189,0.30113 5.27093,-0.62043"
       id="path3013"
       inkscape:connector-curvature="0"
       sodipodi:nodetypes="caaaac" />
    <path
       style="fill:none;stroke:#000000;stroke-width:1.25;stroke-linecap:round;stroke-linejoin:round;stroke-miterlimit:4;stroke-opacity:1;stroke-dasharray:none"
       d="m 255.33925,325.86377 c 7.86664,0.01 15.78752,0.94026 23.59994,0.0182 1.58019,-0.1865 3.0701,-0.86463 4.64146,-1.11488 1.3147,-0.20937 2.64535,-0.3479 3.98099,-0.31965"
       id="path3015"
       inkscape:connector-curvature="0"
       sodipodi:nodetypes="caac" />
    <path
       style="fill:none;stroke:#000000;stroke-width:1.25;stroke-linecap:round;stroke-linejoin:round;stroke-miterlimit:4;stroke-opacity:1;stroke-dasharray:none"
       d="m 245.128,276.65569 c 13.1032,-0.12655 26.26063,0.53594 39.30424,-1.06228"
       id="path3019"
       inkscape:connector-curvature="0"
       sodipodi:nodetypes="cc" />
    <path
       style="fill:none;stroke:#000000;stroke-width:1.25;stroke-linecap:round;stroke-linejoin:round;stroke-miterlimit:4;stroke-opacity:1;stroke-dasharray:none"
       d="m 280.63222,234.23254 c 0.57705,2.06362 2.04021,3.76679 2.77027,5.77224 1.65757,4.5533 2.70757,9.32081 3.60755,14.08213 0.52679,2.78699 0.86547,5.6141 1.04265,8.4449 0.15542,2.48316 -0.56358,5.00822 0.0162,7.46405"
       id="path3021"
       inkscape:connector-curvature="0"
       sodipodi:nodetypes="caaac" />
    <path
       style="fill:none;stroke:#000000;stroke-width:1.25;stroke-linecap:round;stroke-linejoin:round;stroke-miterlimit:4;stroke-opacity:1;stroke-dasharray:none"
       d="m 328.44397,230.52789 c 0.55851,4.46224 1.43888,8.43995 1.9464,12.68882 0.41852,3.50373 0.68561,7.02535 0.90466,10.54718 0.16166,2.59919 -0.47768,5.32206 0.30204,7.80681 0.72724,2.3175 1.91385,5.01178 3.92893,6.13684"
       id="path3023"
       inkscape:connector-curvature="0"
       sodipodi:nodetypes="caaac" />
    <path
       style="fill:none;stroke:#000000;stroke-width:10;stroke-linecap:round;stroke-linejoin:round;stroke-miterlimit:4;stroke-opacity:1;stroke-dasharray:none"
       d="m 296.18709,272.82861 c 10.26524,-1.99796 20.77582,-1.22027 31.16012,-1.41637"
       id="path3025"
       inkscape:connector-curvature="0"
       sodipodi:nodetypes="cc" />
    <path
       style="fill:none;stroke:#000000;stroke-width:10;stroke-linecap:round;stroke-linejoin:round;stroke-miterlimit:4;stroke-opacity:1;stroke-dasharray:none"
       d="m 300.56861,324.18585 c 2.50507,-0.29975 2.91892,-2.03121 4.6032,-2.47864 5.08953,-1.35204 10.52884,-0.26281 15.79309,-0.40073 3.08098,-0.0807 6.1644,-0.0989 9.24275,-0.24978 1.92593,-0.0944 3.86034,-0.12987 5.77019,-0.41"
       id="path3027"
       inkscape:connector-curvature="0"
       sodipodi:nodetypes="caaac" />
    <path
       style="fill:none;stroke:#000000;stroke-width:10;stroke-linecap:round;stroke-linejoin:round;stroke-miterlimit:4;stroke-opacity:1;stroke-dasharray:none"
       d="m 301.49019,369.22206 c 3.52227,-1.5891 7.4213,-1.42447 11.17668,-1.78798 6.79114,-0.65737 13.6764,0.059 20.45657,-0.70327 2.46792,-0.27747 5.37785,0.54152 7.31695,-1.40384"
       id="path3029"
       inkscape:connector-curvature="0"
       sodipodi:nodetypes="caac" />
    <path
       style="fill:none;stroke:#000000;stroke-width:10;stroke-linecap:round;stroke-linejoin:round;stroke-miterlimit:4;stroke-opacity:1;stroke-dasharray:none"
       d="m 290.44141,285.33735 c 0.004,3.89555 -0.42997,7.81512 0.002,11.68665 0.21206,1.90056 1.07564,3.69308 1.26353,5.59618 0.43067,4.36208 -0.38228,8.8397 -0.33184,13.14567"
       id="path3031"
       inkscape:connector-curvature="0"
       sodipodi:nodetypes="caac" />
    <path
       style="fill:none;stroke:#000000;stroke-width:10;stroke-linecap:round;stroke-linejoin:round;stroke-miterlimit:4;stroke-opacity:1;stroke-dasharray:none"
       d="m 337.28016,279.13218 c -0.29977,1.86878 0.63245,3.56468 0.94966,5.34685 0.51776,2.90892 1.00046,5.82435 1.55651,8.7262 1.0329,5.39038 4.30089,13.77212 3.30556,16.13013"
       id="path3033"
       inkscape:connector-curvature="0"
       sodipodi:nodetypes="caac" />
    <path
       style="fill:none;stroke:#000000;stroke-width:1.25;stroke-linecap:round;stroke-linejoin:round;stroke-miterlimit:4;stroke-opacity:1;stroke-dasharray:none"
       d="m 292.02722,332.3951 c 0.69198,3.78007 0.2951,7.62944 0.35412,11.44621 0.0596,3.85614 -0.66898,7.77165 -3e-5,11.56979 0.23962,1.36053 1.4893,2.67491 1.41596,3.89501"
       id="path3035"
       inkscape:connector-curvature="0"
       sodipodi:nodetypes="caac" />
    <path
       style="fill:none;stroke:#000000;stroke-width:10;stroke-linecap:round;stroke-linejoin:round;stroke-miterlimit:4;stroke-opacity:1;stroke-dasharray:none"
       d="m 345.67561,328.42125 c 0.04,2.68792 0.19426,5.39077 0.53881,8.06196 0.67675,5.24658 1.85849,10.41844 2.99449,15.58507 0.42351,1.92616 0.66214,3.91984 1.42378,5.74263"
       id="path3037"
       inkscape:connector-curvature="0"
       sodipodi:nodetypes="caac" />
    <path
       style="fill:none;stroke:#000000;stroke-width:1.25;stroke-linecap:round;stroke-linejoin:round;stroke-miterlimit:4;stroke-opacity:1;stroke-dasharray:none"
       d="m 294.95843,375.13685 c 0.33982,1.97363 1.51152,3.9416 1.80629,6.01382 0.18309,1.28716 0.56036,2.494 -0.0358,3.9002"
       id="path3039"
       inkscape:connector-curvature="0"
       sodipodi:nodetypes="cac" />
    <path
       style="fill:none;stroke:#000000;stroke-width:1.25;stroke-linecap:round;stroke-linejoin:round;stroke-miterlimit:4;stroke-opacity:1;stroke-dasharray:none"
       d="m 351.75397,369.85141 c 0.13203,2.87192 0.25086,5.37135 0.59081,8.03547 0.11097,0.86962 0.46645,1.72722 0.47199,2.5873"
       id="path3041"
       inkscape:connector-curvature="0"
       sodipodi:nodetypes="cac" />
    <path
       style="fill:none;stroke:#000000;stroke-width:1.25;stroke-linecap:round;stroke-linejoin:round;stroke-miterlimit:4;stroke-opacity:1;stroke-dasharray:none"
       d="m 357.70993,362.90031 c 0.67837,0.22221 1.32648,0.59293 2.03518,0.71344 5.61467,0.95477 11.39064,-0.002 17.0858,-0.005"
       id="path3043"
       inkscape:connector-curvature="0"
       sodipodi:nodetypes="cac" />
    <path
       style="fill:none;stroke:#000000;stroke-width:1.25;stroke-linecap:round;stroke-linejoin:round;stroke-miterlimit:4;stroke-opacity:1;stroke-dasharray:none"
       d="m 346.73652,317.79712 c 1.9523,-0.52709 1.63165,-1.91889 2.70296,-2.53277 0.93693,-0.53688 2.06328,-0.63999 3.10634,-0.9195 0.67742,-0.18153 1.37101,-0.30027 2.04571,-0.49164 1.01591,-0.28815 2.02094,-0.61783 3.01021,-0.98722 0.87741,-0.32762 1.80213,-0.57449 2.59031,-1.08854"
       id="path3045"
       inkscape:connector-curvature="0"
       sodipodi:nodetypes="caaaac" />
    <path
       style="fill:none;stroke:#000000;stroke-width:1.25;stroke-linecap:round;stroke-linejoin:round;stroke-miterlimit:4;stroke-opacity:1;stroke-dasharray:none"
       d="m 341.52403,270.01197 c 4.24911,0.008 8.49822,-0.0119 12.74732,0"
       id="path3047"
       inkscape:connector-curvature="0"
       sodipodi:nodetypes="cc" />
  </g>
</svg>
