<?xml version="1.0" encoding="UTF-8" standalone="no"?>
<!-- Created with Inkscape (http://www.inkscape.org/) -->

<svg
   xmlns:dc="http://purl.org/dc/elements/1.1/"
   xmlns:cc="http://creativecommons.org/ns#"
   xmlns:rdf="http://www.w3.org/1999/02/22-rdf-syntax-ns#"
   xmlns:svg="http://www.w3.org/2000/svg"
   xmlns="http://www.w3.org/2000/svg"
   xmlns:sodipodi="http://sodipodi.sourceforge.net/DTD/sodipodi-0.dtd"
   xmlns:inkscape="http://www.inkscape.org/namespaces/inkscape"
   width="201"
   height="181"
   id="svg2"
   version="1.1"
   inkscape:version="0.47 r22583"
   sodipodi:docname="logo_tux.svg">
  <defs
     id="defs4">
    <inkscape:perspective
       sodipodi:type="inkscape:persp3d"
       inkscape:vp_x="0 : 90.5 : 1"
       inkscape:vp_y="0 : 1000 : 0"
       inkscape:vp_z="201 : 90.5 : 1"
       inkscape:persp3d-origin="100.5 : 60.333333 : 1"
       id="perspective8450" />
  </defs>
  <sodipodi:namedview
     id="base"
     pagecolor="#ffffff"
     bordercolor="#666666"
     borderopacity="1.0"
     inkscape:pageopacity="0.0"
     inkscape:pageshadow="2"
     inkscape:zoom="1"
     inkscape:cx="100.5"
     inkscape:cy="90.5"
     inkscape:document-units="px"
     inkscape:current-layer="layer1"
     showgrid="false"
     inkscape:window-width="1024"
     inkscape:window-height="580"
     inkscape:window-x="-4"
     inkscape:window-y="-3"
     inkscape:window-maximized="1"
     fit-margin-top="0"
     fit-margin-left="0"
     fit-margin-right="0"
     fit-margin-bottom="0"
     showborder="false"
     inkscape:showpageshadow="false"
     showguides="true"
     inkscape:guide-bbox="true">
    <inkscape:grid
       type="xygrid"
       id="grid2985"
       empspacing="5"
       visible="true"
       enabled="true"
       snapvisiblegridlinesonly="true"
       originx="-19.75px"
       originy="-862px" />
    <sodipodi:guide
       orientation="0,1"
       position="100,0"
       id="guide8452" />
    <sodipodi:guide
       orientation="0,1"
       position="100,200"
       id="guide8454" />
    <sodipodi:guide
       orientation="1,0"
       position="0,100"
       id="guide8456" />
    <sodipodi:guide
       orientation="1,0"
       position="200,100"
       id="guide8458" />
  </sodipodi:namedview>
  <metadata
     id="metadata7">
    <rdf:RDF>
      <cc:Work
         rdf:about="">
        <dc:format>image/svg+xml</dc:format>
        <dc:type
           rdf:resource="http://purl.org/dc/dcmitype/StillImage" />
        <dc:title />
      </cc:Work>
    </rdf:RDF>
  </metadata>
  <g
     inkscape:label="Layer 1"
     inkscape:groupmode="layer"
     id="layer1"
     transform="translate(-19.75,-9.3621826)">
    <path
       style="fill:#00ff00;fill-opacity:1;stroke:#000000;stroke-width:1px;stroke-linecap:butt;stroke-linejoin:miter;stroke-opacity:1"
       d="m 65.25,14.862183 -40,0 0,169.999997 40,0 0,5 -45,0 0,-179.9999974 45,0 z"
       id="path3895"
       inkscape:connector-curvature="0" />
    <path
       style="fill:#00ff00;fill-opacity:1;stroke:#000000;stroke-width:1px;stroke-linecap:butt;stroke-linejoin:miter;stroke-opacity:1"
       d="m 175.25,184.86218 40,0 0,-169.999997 -40,0 0,-5.0000004 45,0 0,179.9999974 -45,0 z"
       id="path3895-5"
       inkscape:connector-curvature="0" />
    <g
       id="g9234">
      <path
         inkscape:connector-curvature="0"
         id="path2987"
         d="m 40.25,24.862183 -5,5 0,5 5,5 50,0 5,-5 0,-5 -5,-5 z"
         style="fill:#00ff00;fill-opacity:1;stroke:#000000;stroke-width:1px;stroke-linecap:butt;stroke-linejoin:miter;stroke-opacity:1" />
      <path
         inkscape:connector-curvature="0"
         id="path2987-3"
         d="m 107.875,42.237183 -5,-5 -5,0 -5,5 0,50 5,5 5,0 5,-5 z"
         style="fill:#00ff00;fill-opacity:1;stroke:#000000;stroke-width:1px;stroke-linecap:butt;stroke-linejoin:miter;stroke-opacity:1" />
      <path
         inkscape:connector-curvature="0"
         id="path2987-3-7"
         d="m 108,110.36218 -5,-5 -5,0 -5,5 0,50 5,5 5,0 5,-5 z"
         style="fill:#00ff00;fill-opacity:1;stroke:#000000;stroke-width:1px;stroke-linecap:butt;stroke-linejoin:miter;stroke-opacity:1" />
      <path
         inkscape:connector-curvature="0"
         id="path2987-0"
         d="m 40.75,93.862183 -5,5 0,4.999997 5,5 50,0 5,-5 0,-4.999997 -5,-5 z"
         style="fill:#00ff00;fill-opacity:1;stroke:#000000;stroke-width:1px;stroke-linecap:butt;stroke-linejoin:miter;stroke-opacity:1" />
      <path
         inkscape:connector-curvature="0"
         id="path2987-0-6"
         d="m 40.75,161.86218 -5,5 0,5 5,5 50,0 5,-5 0,-5 -5,-5 z"
         style="fill:#00ff00;fill-opacity:1;stroke:#000000;stroke-width:1px;stroke-linecap:butt;stroke-linejoin:miter;stroke-opacity:1" />
      <path
         inkscape:connector-curvature="0"
         id="path2987-7"
         d="m 136.875,24.862184 -5,5 0,5 5,5 50,0 5,-5 0,-5 -5,-5 z"
         style="fill:#00ff00;fill-opacity:1;stroke:#000000;stroke-width:1px;stroke-linecap:butt;stroke-linejoin:miter;stroke-opacity:1" />
      <path
         inkscape:connector-curvature="0"
         id="path2987-3-5"
         d="m 204.5,42.237184 -5,-5 -5,0 -5,5 0,50 5,5 5,0 5,-5 z"
         style="fill:#00ff00;fill-opacity:1;stroke:#000000;stroke-width:1px;stroke-linecap:butt;stroke-linejoin:miter;stroke-opacity:1" />
      <path
         inkscape:connector-curvature="0"
         id="path2987-3-7-5"
         d="m 204.625,110.36218 -5,-5 -5,0 -5,5 0,50 5,5 5,0 5,-5 z"
         style="fill:#00ff00;fill-opacity:1;stroke:#000000;stroke-width:1px;stroke-linecap:butt;stroke-linejoin:miter;stroke-opacity:1" />
      <path
         inkscape:connector-curvature="0"
         id="path2987-0-1"
         d="m 137.375,93.862184 -5,5 0,4.999996 5,5 50,0 5,-5 0,-4.999996 -5,-5 z"
         style="fill:#00ff00;fill-opacity:1;stroke:#000000;stroke-width:1px;stroke-linecap:butt;stroke-linejoin:miter;stroke-opacity:1" />
      <path
         inkscape:connector-curvature="0"
         id="path2987-0-6-9"
         d="m 137.375,161.86218 -5,5 0,5 5,5 50,0 5,-5 0,-5 -5,-5 z"
         style="fill:#00ff00;fill-opacity:1;stroke:#000000;stroke-width:1px;stroke-linecap:butt;stroke-linejoin:miter;stroke-opacity:1" />
      <path
         inkscape:connector-curvature="0"
         id="path2987-3-5-1"
         d="m 135,42.362183 -5,-5.000001 -5,0 -5,5.000001 0,50 5,4.999997 5,0 5,-4.999997 z"
         style="fill:#00ff00;fill-opacity:1;stroke:#000000;stroke-width:1px;stroke-linecap:butt;stroke-linejoin:miter;stroke-opacity:1" />
    </g>
  </g>
</svg>
