<?xml version="1.0" encoding="UTF-8" standalone="no"?>
<!-- Created with Inkscape (http://www.inkscape.org/) -->

<svg
   xmlns:dc="http://purl.org/dc/elements/1.1/"
   xmlns:cc="http://creativecommons.org/ns#"
   xmlns:rdf="http://www.w3.org/1999/02/22-rdf-syntax-ns#"
   xmlns:svg="http://www.w3.org/2000/svg"
   xmlns="http://www.w3.org/2000/svg"
   xmlns:sodipodi="http://sodipodi.sourceforge.net/DTD/sodipodi-0.dtd"
   xmlns:inkscape="http://www.inkscape.org/namespaces/inkscape"
   width="250"
   height="250"
   id="svg3008"
   version="1.1"
   inkscape:version="0.48.4 r9939"
   sodipodi:docname="7seg_05.svg">
  <defs
     id="defs3010" />
  <sodipodi:namedview
     id="base"
     pagecolor="#ffffff"
     bordercolor="#666666"
     borderopacity="1.0"
     inkscape:pageopacity="0.0"
     inkscape:pageshadow="2"
     inkscape:zoom="1"
     inkscape:cx="97.034191"
     inkscape:cy="119.16999"
     inkscape:document-units="px"
     inkscape:current-layer="layer1"
     showgrid="true"
     gridtolerance="7"
     objecttolerance="20"
     inkscape:snap-bbox="true"
     inkscape:bbox-paths="false"
     inkscape:snap-bbox-midpoints="true"
     fit-margin-top="5"
     fit-margin-left="5"
     fit-margin-right="5"
     fit-margin-bottom="5"
     inkscape:window-width="1272"
     inkscape:window-height="960"
     inkscape:window-x="346"
     inkscape:window-y="34"
     inkscape:window-maximized="0">
    <inkscape:grid
       type="xygrid"
       id="grid3016"
       empspacing="10"
       visible="true"
       enabled="false"
       snapvisiblegridlinesonly="true"
       spacingx="1px"
       spacingy="1px"
       originx="-15px"
       originy="-16.999981px" />
  </sodipodi:namedview>
  <metadata
     id="metadata3013">
    <rdf:RDF>
      <cc:Work
         rdf:about="">
        <dc:format>image/svg+xml</dc:format>
        <dc:type
           rdf:resource="http://purl.org/dc/dcmitype/StillImage" />
        <dc:title></dc:title>
      </cc:Work>
    </rdf:RDF>
  </metadata>
  <g
     inkscape:label="Layer 1"
     inkscape:groupmode="layer"
     id="layer1"
     transform="translate(-15,-785.3622)">
    <path
       style="fill:#4e4e4e;fill-opacity:1;fill-rule:nonzero;stroke:none"
       d="m 30.5,941.86221 -10,10 10,10 53,0 10,-10 -10,-10 z"
       id="path3833"
       inkscape:connector-curvature="0"
       sodipodi:nodetypes="ccccccc" />
    <path
       style="fill:#4e4e4e;fill-opacity:1;fill-rule:nonzero;stroke:none"
       d="m 108.5,966.86221 -10,-10 -10,10 0,52.99999 10,10 10,-10 z"
       id="path3864"
       inkscape:connector-curvature="0"
       sodipodi:nodetypes="ccccccc" />
    <path
       sodipodi:nodetypes="ccccccc"
       inkscape:connector-curvature="0"
       id="path3868"
       d="m 113.5,941.86221 -10,10 10,10 53,0 10,-10 -10,-10 z"
       style="fill:#4e4e4e;fill-opacity:1;fill-rule:nonzero;stroke:none" />
    <path
       sodipodi:nodetypes="ccccccc"
       inkscape:connector-curvature="0"
       id="path3872"
       d="m 191.5,966.86221 -10,-10 -10,10 0,52.99999 10,10 10,-10 z"
       style="fill:#4e4e4e;fill-opacity:1;fill-rule:nonzero;stroke:none" />
    <path
       style="fill:#4e4e4e;fill-opacity:1;fill-rule:nonzero;stroke:none"
       d="m 196.5,941.86221 -10,10 10,10 53,0 10,-10 -10,-10 z"
       id="path3878"
       inkscape:connector-curvature="0"
       sodipodi:nodetypes="ccccccc" />
    <path
       sodipodi:nodetypes="ccccccc"
       inkscape:connector-curvature="0"
       id="path3884"
       d="m 30.5,858.86219 -10,10 10,10 53,0 10,-10 -10,-10 z"
       style="fill:#4e4e4e;fill-opacity:1;fill-rule:nonzero;stroke:none" />
    <path
       sodipodi:nodetypes="ccccccc"
       inkscape:connector-curvature="0"
       id="path3888"
       d="m 108.5,883.86219 -10,-10 -10,10 0,53.00002 10,10 10,-10 z"
       style="fill:#4e4e4e;fill-opacity:1;fill-rule:nonzero;stroke:none" />
    <path
       style="fill:#4e4e4e;fill-opacity:1;fill-rule:nonzero;stroke:none"
       d="m 113.5,858.86219 -10,10 10,10 53,0 10,-10 -10,-10 z"
       id="path3892"
       inkscape:connector-curvature="0"
       sodipodi:nodetypes="ccccccc" />
    <path
       style="fill:#4e4e4e;fill-opacity:1;fill-rule:nonzero;stroke:none"
       d="m 191.5,883.86219 -10,-10 -10,10 0,53.00002 10,10 10,-10 z"
       id="path3896"
       inkscape:connector-curvature="0"
       sodipodi:nodetypes="ccccccc" />
    <path
       sodipodi:nodetypes="ccccccc"
       inkscape:connector-curvature="0"
       id="path3898"
       d="m 196.5,858.86219 -10,10 10,10 53,0 10,-10 -10,-10 z"
       style="fill:#4e4e4e;fill-opacity:1;fill-rule:nonzero;stroke:none" />
    <path
       style="fill:#4e4e4e;fill-opacity:1;fill-rule:nonzero;stroke:none"
       d="m 108.5,800.86217 -10,-10 -10,10 0,53.00002 10,10 10,-10 z"
       id="path3932"
       inkscape:connector-curvature="0"
       sodipodi:nodetypes="ccccccc" />
    <path
       sodipodi:nodetypes="ccccccc"
       inkscape:connector-curvature="0"
       id="path3938"
       d="m 191.5,800.86217 -10,-10 -10,10 0,53.00002 10,10 10,-10 z"
       style="fill:#4e4e4e;fill-opacity:1;fill-rule:nonzero;stroke:none" />
  </g>
</svg>
