<?xml version="1.0" encoding="UTF-8" standalone="no"?>
<!-- Created with Inkscape (http://www.inkscape.org/) -->

<svg
   xmlns:dc="http://purl.org/dc/elements/1.1/"
   xmlns:cc="http://creativecommons.org/ns#"
   xmlns:rdf="http://www.w3.org/1999/02/22-rdf-syntax-ns#"
   xmlns:svg="http://www.w3.org/2000/svg"
   xmlns="http://www.w3.org/2000/svg"
   xmlns:sodipodi="http://sodipodi.sourceforge.net/DTD/sodipodi-0.dtd"
   xmlns:inkscape="http://www.inkscape.org/namespaces/inkscape"
   width="220"
   height="220"
   id="svg3972"
   version="1.1"
   inkscape:version="0.48.4 r9939"
   sodipodi:docname="New document 5">
  <defs
     id="defs3974" />
  <sodipodi:namedview
     id="base"
     pagecolor="#ffffff"
     bordercolor="#666666"
     borderopacity="1.0"
     inkscape:pageopacity="0.0"
     inkscape:pageshadow="2"
     inkscape:zoom="2"
     inkscape:cx="116.21413"
     inkscape:cy="93.890615"
     inkscape:document-units="px"
     inkscape:current-layer="layer1"
     showgrid="true"
     gridtolerance="7"
     fit-margin-top="5"
     fit-margin-left="5"
     fit-margin-bottom="5"
     fit-margin-right="5"
     inkscape:window-width="1272"
     inkscape:window-height="960"
     inkscape:window-x="1768"
     inkscape:window-y="26"
     inkscape:window-maximized="0">
    <inkscape:grid
       type="xygrid"
       id="grid3980"
       empspacing="10"
       visible="true"
       enabled="true"
       snapvisiblegridlinesonly="true"
       spacingx="1px"
       spacingy="1px"
       originx="156px"
       originy="39.50002px" />
  </sodipodi:namedview>
  <metadata
     id="metadata3977">
    <rdf:RDF>
      <cc:Work
         rdf:about="">
        <dc:format>image/svg+xml</dc:format>
        <dc:type
           rdf:resource="http://purl.org/dc/dcmitype/StillImage" />
        <dc:title></dc:title>
      </cc:Work>
    </rdf:RDF>
  </metadata>
  <g
     inkscape:label="Layer 1"
     inkscape:groupmode="layer"
     id="layer1"
     transform="translate(156,-871.8622)">
    <path
       style="fill:#4e4e4e;fill-opacity:1;fill-rule:nonzero;stroke:none"
       d="m -82.5,877.36219 -10,10 0,43 10,10 10,-10 0,-43 z"
       id="path3835"
       inkscape:connector-curvature="0"
       sodipodi:nodetypes="ccccccc" />
    <path
       sodipodi:nodetypes="ccccccc"
       inkscape:connector-curvature="0"
       id="path3944"
       d="m -82.5,950.36219 -10,10 0,43.00001 10,10 10,-10 0,-43.00001 z"
       style="fill:#4e4e4e;fill-opacity:1;fill-rule:nonzero;stroke:none" />
    <path
       style="fill:#4e4e4e;fill-opacity:1;fill-rule:nonzero;stroke:none"
       d="m -87.5,945.36219 -10,-10 -43,0 -10,10 10,10 43,0 z"
       id="path3946"
       inkscape:connector-curvature="0"
       sodipodi:nodetypes="ccccccc" />
    <path
       sodipodi:nodetypes="ccccccc"
       inkscape:connector-curvature="0"
       id="path3948"
       d="m -77.5,945.36219 10,10 43,0 10,-10 -10,-10 -43,0 z"
       style="fill:#4e4e4e;fill-opacity:1;fill-rule:nonzero;stroke:none" />
    <path
       sodipodi:nodetypes="ccccccc"
       inkscape:connector-curvature="0"
       id="path3950"
       d="m -9.5,877.36219 -10,10 0,43 10,10 10,-10 0,-43 z"
       style="fill:#4e4e4e;fill-opacity:1;fill-rule:nonzero;stroke:none" />
    <path
       style="fill:#4e4e4e;fill-opacity:1;fill-rule:nonzero;stroke:none"
       d="m -9.5,950.36219 -10,10 0,43.00001 10,10 10,-10 0,-43.00001 z"
       id="path3952"
       inkscape:connector-curvature="0"
       sodipodi:nodetypes="ccccccc" />
    <path
       style="fill:#4e4e4e;fill-opacity:1;fill-rule:nonzero;stroke:none"
       d="m -4.5,945.36219 10,10 43,0 10,-10 -10,-10 -43,0 z"
       id="path3956"
       inkscape:connector-curvature="0"
       sodipodi:nodetypes="ccccccc" />
    <path
       style="fill:#4e4e4e;fill-opacity:1;fill-rule:nonzero;stroke:none"
       d="m -82.5,1023.3622 -10,10 0,43 10,10 10,-10 0,-43 z"
       id="path3960"
       inkscape:connector-curvature="0"
       sodipodi:nodetypes="ccccccc" />
    <path
       sodipodi:nodetypes="ccccccc"
       inkscape:connector-curvature="0"
       id="path3962"
       d="m -87.5,1018.3622 -10,-10 -43,0 -10,10 10,10 43,0 z"
       style="fill:#4e4e4e;fill-opacity:1;fill-rule:nonzero;stroke:none" />
    <path
       style="fill:#4e4e4e;fill-opacity:1;fill-rule:nonzero;stroke:none"
       d="m -77.5,1018.3622 10,10 43,0 10,-10 -10,-10 -43,0 z"
       id="path3964"
       inkscape:connector-curvature="0"
       sodipodi:nodetypes="ccccccc" />
    <path
       sodipodi:nodetypes="ccccccc"
       inkscape:connector-curvature="0"
       id="path3968"
       d="m -9.5,1023.3622 -10,10 0,43 10,10 10,-10 0,-43 z"
       style="fill:#4e4e4e;fill-opacity:1;fill-rule:nonzero;stroke:none" />
    <path
       sodipodi:nodetypes="ccccccc"
       inkscape:connector-curvature="0"
       id="path3970"
       d="m -4.5,1018.3622 10,10 43,0 10,-10 -10,-10 -43,0 z"
       style="fill:#4e4e4e;fill-opacity:1;fill-rule:nonzero;stroke:none" />
  </g>
</svg>
