<?xml version="1.0" encoding="UTF-8" standalone="no"?>
<!-- Created with Inkscape (http://www.inkscape.org/) -->

<svg
   xmlns:dc="http://purl.org/dc/elements/1.1/"
   xmlns:cc="http://creativecommons.org/ns#"
   xmlns:rdf="http://www.w3.org/1999/02/22-rdf-syntax-ns#"
   xmlns:svg="http://www.w3.org/2000/svg"
   xmlns="http://www.w3.org/2000/svg"
   version="1.1"
   width="500"
   height="500"
   id="on-off">
  <defs
     id="defs4" />
  <metadata
     id="metadata7">
    <rdf:RDF>
      <cc:Work
         rdf:about="Netz39">
        <dc:format>image/svg+xml</dc:format>
        <dc:type
           rdf:resource="http://purl.org/dc/dcmitype/StillImage" />
        <dc:title></dc:title>
      </cc:Work>
    </rdf:RDF>
  </metadata>
  <g
     transform="translate(0,-552.36218)"
     id="layer1" />
  <path
     d="m 297.37434,100.75432 -98.12604,0 -94.00626,94.00626 94.00626,0 0,106.74017 c 0,0 97.20809,-83.19023 98.50058,-88.01382 1.29247,-4.82359 -0.37454,-112.73261 -0.37454,-112.73261 z"
     id="path3012"
     style="fill:#6c6c6c;fill-opacity:1;stroke:#000000;stroke-width:1px;stroke-linecap:butt;stroke-linejoin:miter;stroke-opacity:1" />
  <path
     d="m 98.126047,401.1249 -97.0024663,-97.00247 96.2534123,0 z"
     id="path3883"
     style="fill:#000000;fill-opacity:1;stroke:#000000;stroke-width:1px;stroke-linecap:butt;stroke-linejoin:miter;stroke-opacity:1" />
  <path
     d="m 98.875101,401.1249 0,-298.87246 101.122259,-101.122271 0,301.868681 300.37057,0 -99.24963,99.24963 z"
     id="path3010"
     style="fill:#000000;fill-opacity:1;stroke:#000000;stroke-width:1px;stroke-linecap:butt;stroke-linejoin:miter;stroke-opacity:1" />
  <path
     d="m 16.479184,401.87396 c 47.192218,-43.26241 59.227123,3.8e-4 101.732526,0.94605 30.12527,0.67023 12.96312,-35.73143 90.02671,-17.45745 25.66441,6.08576 24.25426,18.29916 65.99761,17.44628 18.15851,-0.37101 -0.0827,-31.75188 71.14034,-16.45605 20.97083,4.50368 32.28031,17.17903 71.84196,16.18717 27.91467,-0.69985 2.1675,-45.3682 74.91001,0.0831"
     id="path3885"
     style="fill:#ffffff;fill-opacity:1;stroke:#000080;stroke-width:5;stroke-linecap:butt;stroke-linejoin:miter;stroke-miterlimit:4;stroke-opacity:1;stroke-dasharray:none" />
  <path
     d="m 17.228242,484.26986 474.900108,0"
     id="path3885-9"
     style="fill:none;stroke:#000080;stroke-width:5;stroke-linecap:butt;stroke-linejoin:miter;stroke-miterlimit:4;stroke-opacity:1;stroke-dasharray:none" />
  <path
     d="m 19.100873,430.18698 c 27.716818,-27.53228 78.7045,0.57347 101.732527,0.94605 15.89941,0.25725 53.339,-19.82542 92.27387,-11.46502 15.47341,3.32257 41.58512,12.47225 63.75045,11.45385 13.69381,-0.62917 42.66216,-16.23966 71.14034,-10.46362 17.27872,3.50453 39.0595,11.84704 71.84196,10.19474 21.17864,-1.06744 33.62776,-22.14753 74.91001,0.0831"
     id="path3885-5"
     style="fill:#ffffff;fill-opacity:1;stroke:#000080;stroke-width:5;stroke-linecap:butt;stroke-linejoin:miter;stroke-miterlimit:4;stroke-opacity:1;stroke-dasharray:none" />
  <path
     d="m 16.85371,460.07936 c 17.230065,-15.54742 85.42065,0.28208 101.73253,0.94605 9.87122,0.40181 63.0767,-10.83677 90.02671,-6.22164 15.59904,2.6713 43.83228,7.22887 65.99761,6.21047 13.69381,-0.62917 43.41121,-9.49818 71.88939,-3.72214 17.27872,3.50453 38.31045,5.10556 71.09291,3.45326 21.17864,-1.06744 49.35789,-13.90794 74.91001,0.0831"
     id="path3885-5-4"
     style="fill:#ffffff;fill-opacity:1;stroke:#000080;stroke-width:5;stroke-linecap:butt;stroke-linejoin:miter;stroke-miterlimit:4;stroke-opacity:1;stroke-dasharray:none" />
</svg>
