<?xml version="1.0" encoding="UTF-8" standalone="no"?>
<!-- Created with Inkscape (http://www.inkscape.org/) -->

<svg
   xmlns:dc="http://purl.org/dc/elements/1.1/"
   xmlns:cc="http://creativecommons.org/ns#"
   xmlns:rdf="http://www.w3.org/1999/02/22-rdf-syntax-ns#"
   xmlns:svg="http://www.w3.org/2000/svg"
   xmlns="http://www.w3.org/2000/svg"
   xmlns:sodipodi="http://sodipodi.sourceforge.net/DTD/sodipodi-0.dtd"
   xmlns:inkscape="http://www.inkscape.org/namespaces/inkscape"
   version="1.1"
   width="1000"
   height="1000"
   id="on-off"
   inkscape:version="0.48.4 r9939"
   sodipodi:docname="netz39-logo.17d.b00t.sk.svg">
  <sodipodi:namedview
     pagecolor="#ffffff"
     bordercolor="#666666"
     borderopacity="1"
     objecttolerance="10"
     gridtolerance="10"
     guidetolerance="10"
     inkscape:pageopacity="0"
     inkscape:pageshadow="2"
     inkscape:window-width="1680"
     inkscape:window-height="867"
     id="namedview8"
     showgrid="false"
     inkscape:zoom="0.59"
     inkscape:cx="420.33898"
     inkscape:cy="604.01156"
     inkscape:window-x="0"
     inkscape:window-y="24"
     inkscape:window-maximized="1"
     inkscape:current-layer="on-off" />
  <defs
     id="defs4" />
  <metadata
     id="metadata7">
    <rdf:RDF>
      <cc:Work
         rdf:about="Netz39">
        <dc:format>image/svg+xml</dc:format>
        <dc:type
           rdf:resource="http://purl.org/dc/dcmitype/StillImage" />
        <dc:title></dc:title>
      </cc:Work>
    </rdf:RDF>
  </metadata>
  <g
     transform="translate(0,-52.36218)"
     id="layer1" />
  <path
     d="m 972.12702,125.429 -98.12604,0 -94.00626,94.00625 94.00626,0 0,106.74017 c 0,0 97.20809,-83.19023 98.50057,-88.01382 1.29247,-4.82359 -0.37453,-112.7326 -0.37453,-112.7326 z"
     id="path3012"
     style="fill:#944576;fill-opacity:1;stroke:#000000;stroke-width:1px;stroke-linecap:butt;stroke-linejoin:miter;stroke-opacity:1"
     inkscape:connector-curvature="0" />
  <path
     d="m 971.90449,325.05053 -98.12604,0 -94.00626,94.00625 94.00626,0 0,106.74017 c 0,0 97.20809,-83.19023 98.50057,-88.01382 1.29247,-4.82359 -0.37453,-112.7326 -0.37453,-112.7326 z"
     id="path3012-6"
     style="fill:#088c1d;fill-opacity:1;stroke:#000000;stroke-width:1px;stroke-linecap:butt;stroke-linejoin:miter;stroke-opacity:1"
     inkscape:connector-curvature="0" />
  <path
     d="m 1070.2096,230.13527 -98.12607,0 -94.00626,94.00625 94.00626,0 0,106.74017 c 0,0 97.20817,-83.19023 98.50057,-88.01382 1.2925,-4.82359 -0.3745,-112.7326 -0.3745,-112.7326 z"
     id="path3012-65"
     style="fill:#f8ff7b;fill-opacity:1;stroke:#000000;stroke-width:1px;stroke-linecap:butt;stroke-linejoin:miter;stroke-opacity:1"
     inkscape:connector-curvature="0" />
  <path
     d="m 870.20957,219.96577 -98.12604,0 -94.00626,94.00625 94.00626,0 0,106.74017 c 0,0 97.20809,-83.19023 98.50057,-88.01382 1.29247,-4.82359 -0.37453,-112.7326 -0.37453,-112.7326 z"
     id="path3012-2"
     style="fill:#ca6f49;fill-opacity:1;stroke:#000000;stroke-width:1px;stroke-linecap:butt;stroke-linejoin:miter;stroke-opacity:1"
     inkscape:connector-curvature="0" />
  <path
     d="m 875.29431,419.96578 -98.12604,0 -94.00626,94.00625 94.00626,0 0,106.74017 c 0,0 97.20809,-83.19023 98.50057,-88.01382 1.29247,-4.82359 -0.37453,-112.7326 -0.37453,-112.7326 z"
     id="path3012-8"
     style="fill:#84df2a;fill-opacity:1;stroke:#000000;stroke-width:1px;stroke-linecap:butt;stroke-linejoin:miter;stroke-opacity:1"
     inkscape:connector-curvature="0" />
  <path
     d="m 1061.735,438.60985 -98.12605,0 -94.00626,94.00625 94.00626,0 0,106.74017 c 0,0 97.20815,-83.19023 98.50065,-88.01382 1.2924,-4.82359 -0.3746,-112.7326 -0.3746,-112.7326 z"
     id="path3012-652"
     style="fill:#6da3af;fill-opacity:1;stroke:#000000;stroke-width:1px;stroke-linecap:butt;stroke-linejoin:miter;stroke-opacity:1"
     inkscape:connector-curvature="0" />
  <path
     d="m 965.12482,530.13527 -98.12604,0 -94.00626,94.00625 94.00626,0 0,106.74017 c 0,0 97.20809,-83.19023 98.50057,-88.01382 1.29247,-4.82359 -0.37453,-112.7326 -0.37453,-112.7326 z"
     id="path3012-9"
     style="fill:#8a00de;fill-opacity:1;stroke:#000000;stroke-width:1px;stroke-linecap:butt;stroke-linejoin:miter;stroke-opacity:1"
     inkscape:connector-curvature="0" />
  <path
     d="m 871.90449,623.35561 -98.12604,0 -94.00626,94.00625 94.00626,0 0,106.74017 c 0,0 97.20809,-83.19023 98.50057,-88.01382 1.29247,-4.82359 -0.37453,-112.7326 -0.37453,-112.7326 z"
     id="path3012-97"
     style="fill:#a8825b;fill-opacity:1;stroke:#000000;stroke-width:1px;stroke-linecap:butt;stroke-linejoin:miter;stroke-opacity:1"
     inkscape:connector-curvature="0" />
  <path
     d="m 780.37906,513.18612 -98.12604,0 -94.00626,94.00625 94.00626,0 0,106.74017 c 0,0 97.20809,-83.19023 98.50057,-88.01382 1.29247,-4.82359 -0.37453,-112.7326 -0.37453,-112.7326 z"
     id="path3012-0"
     style="fill:#20272f;fill-opacity:1;stroke:#000000;stroke-width:1px;stroke-linecap:butt;stroke-linejoin:miter;stroke-opacity:1"
     inkscape:connector-curvature="0" />
  <path
     d="m 775.29431,314.88104 -98.12604,0 -94.00626,94.00625 94.00626,0 0,106.74017 c 0,0 97.20809,-83.19023 98.50057,-88.01382 1.29247,-4.82359 -0.37453,-112.7326 -0.37453,-112.7326 z"
     id="path3012-03"
     style="fill:#2b2526;fill-opacity:1;stroke:#000000;stroke-width:1px;stroke-linecap:butt;stroke-linejoin:miter;stroke-opacity:1"
     inkscape:connector-curvature="0" />
  <path
     d="m 676.98923,409.79629 -98.12604,0 -94.00626,94.00625 94.00626,0 0,106.74017 c 0,0 97.20809,-83.19023 98.50057,-88.01382 1.29247,-4.82359 -0.37453,-112.7326 -0.37453,-112.7326 z"
     id="path3012-1"
     style="fill:#de1e00;fill-opacity:1;stroke:#000000;stroke-width:1px;stroke-linecap:butt;stroke-linejoin:miter;stroke-opacity:1"
     inkscape:connector-curvature="0" />
  <path
     d="m 582.07398,501.32171 -98.12604,0 -94.00626,94.00625 94.00626,0 0,106.74017 c 0,0 97.20809,-83.19023 98.50057,-88.01382 1.29247,-4.82359 -0.37453,-112.7326 -0.37453,-112.7326 z"
     id="path3012-01"
     style="fill:#9d501b;fill-opacity:1;stroke:#000000;stroke-width:1px;stroke-linecap:butt;stroke-linejoin:miter;stroke-opacity:1"
     inkscape:connector-curvature="0" />
  <path
     d="m 683.76889,606.40646 -98.12604,0 -94.00626,94.00625 94.00626,0 0,106.74017 c 0,0 97.20809,-83.19023 98.50057,-88.01382 1.29247,-4.82359 -0.37453,-112.7326 -0.37453,-112.7326 z"
     id="path3012-98"
     style="fill:#dec24c;fill-opacity:1;stroke:#000000;stroke-width:1px;stroke-linecap:butt;stroke-linejoin:miter;stroke-opacity:1"
     inkscape:connector-curvature="0" />
  <path
     d="m 773.5994,718.27086 -98.12604,0 -94.00626,94.00625 94.00626,0 0,106.74017 c 0,0 97.20809,-83.19023 98.50057,-88.01382 1.29247,-4.82359 -0.37453,-112.7326 -0.37453,-112.7326 z"
     id="path3012-974"
     style="fill:#dd416d;fill-opacity:1;stroke:#000000;stroke-width:1px;stroke-linecap:butt;stroke-linejoin:miter;stroke-opacity:1"
     inkscape:connector-curvature="0" />
  <path
     d="m 1061.735,635.22001 -98.12605,0 -94.00626,94.00625 94.00626,0 0,106.74017 c 0,0 97.20815,-83.19023 98.50065,-88.01382 1.2924,-4.82359 -0.3746,-112.7326 -0.3746,-112.7326 z"
     id="path3012-13"
     style="fill:#adb600;fill-opacity:1;stroke:#000000;stroke-width:1px;stroke-linecap:butt;stroke-linejoin:miter;stroke-opacity:1"
     inkscape:connector-curvature="0" />
  <path
     d="m 966.81974,726.74544 -98.12604,0 -94.00626,94.00625 94.00626,0 0,106.74017 c 0,0 97.20809,-83.19023 98.50057,-88.01382 1.29247,-4.82359 -0.37453,-112.7326 -0.37453,-112.7326 z"
     id="path3012-11"
     style="fill:#b2d8dd;fill-opacity:1;stroke:#000000;stroke-width:1px;stroke-linecap:butt;stroke-linejoin:miter;stroke-opacity:1"
     inkscape:connector-curvature="0" />
  <path
     d="m 871.90448,823.35561 -98.12604,0 -94.00626,94.00625 94.00626,0 0,106.74014 c 0,0 97.20809,-83.1902 98.50057,-88.01379 1.29247,-4.82359 -0.37453,-112.7326 -0.37453,-112.7326 z"
     id="path3012-63"
     style="fill:#5daa65;fill-opacity:1;stroke:#000000;stroke-width:1px;stroke-linecap:butt;stroke-linejoin:miter;stroke-opacity:1"
     inkscape:connector-curvature="0" />
  <path
     d="m 1060.0401,835.22001 -98.12606,0 -94.00626,94.00625 94.00626,0 0,106.74014 c 0,0 97.20816,-83.1902 98.50056,-88.01379 1.2925,-4.82359 -0.3745,-112.7326 -0.3745,-112.7326 z"
     id="path3012-83"
     style="fill:#671d00;fill-opacity:1;stroke:#000000;stroke-width:1px;stroke-linecap:butt;stroke-linejoin:miter;stroke-opacity:1"
     inkscape:connector-curvature="0" />
  <path
     d="m 958.34517,931.83018 -98.12604,0 -94.00626,94.00622 94.00626,0 0,106.7401 c 0,0 97.20809,-83.1902 98.50057,-88.0138 1.29247,-4.8235 -0.37453,-112.73252 -0.37453,-112.73252 z"
     id="path3012-86"
     style="fill:#db5a8f;fill-opacity:1;stroke:#000000;stroke-width:1px;stroke-linecap:butt;stroke-linejoin:miter;stroke-opacity:1"
     inkscape:connector-curvature="0" />
  <path
     d="m 776.98923,913.18612 -98.12604,0 -94.00626,94.00618 94.00626,0 0,106.7402 c 0,0 97.20809,-83.1902 98.50057,-88.0138 1.29247,-4.8236 -0.37453,-112.73258 -0.37453,-112.73258 z"
     id="path3012-05"
     style="fill:#0b00de;fill-opacity:1;stroke:#000000;stroke-width:1px;stroke-linecap:butt;stroke-linejoin:miter;stroke-opacity:1"
     inkscape:connector-curvature="0" />
  <path
     d="m 678.68414,814.88103 -98.12604,0 -94.00626,94.00625 94.00626,0 0,106.74022 c 0,0 97.20809,-83.19028 98.50057,-88.01387 1.29247,-4.82359 -0.37453,-112.7326 -0.37453,-112.7326 z"
     id="path3012-88"
     style="fill:#6036a1;fill-opacity:1;stroke:#000000;stroke-width:1px;stroke-linecap:butt;stroke-linejoin:miter;stroke-opacity:1"
     inkscape:connector-curvature="0" />
  <path
     d="m 585.46381,699.6268 -98.12604,0 -94.00626,94.00625 94.00626,0 0,106.74017 c 0,0 97.20809,-83.19023 98.50057,-88.01382 1.29247,-4.82359 -0.37453,-112.7326 -0.37453,-112.7326 z"
     id="path3012-15"
     style="fill:#ce8ead;fill-opacity:1;stroke:#000000;stroke-width:1px;stroke-linecap:butt;stroke-linejoin:miter;stroke-opacity:1"
     inkscape:connector-curvature="0" />
  <path
     d="m 482.07398,596.23697 -98.12604,0 -94.00626,94.00625 94.00626,0 0,106.74017 c 0,0 97.20809,-83.19023 98.50057,-88.01382 1.29247,-4.82359 -0.37453,-112.7326 -0.37453,-112.7326 z"
     id="path3012-21"
     style="fill:#7ccb3b;fill-opacity:1;stroke:#000000;stroke-width:1px;stroke-linecap:butt;stroke-linejoin:miter;stroke-opacity:1"
     inkscape:connector-curvature="0" />
  <path
     d="m 385.46381,691.15222 -98.12604,0 -94.00626,94.00625 94.00626,0 0,106.74017 c 0,0 97.20809,-83.19023 98.50057,-88.01382 1.29247,-4.82359 -0.37453,-112.7326 -0.37453,-112.7326 z"
     id="path3012-61"
     style="fill:#28a973;fill-opacity:1;stroke:#000000;stroke-width:1px;stroke-linecap:butt;stroke-linejoin:miter;stroke-opacity:1"
     inkscape:connector-curvature="0" />
  <path
     d="m 485.46381,794.54205 -98.12604,0 -94.00626,94.00625 94.00626,0 0,106.74014 c 0,0 97.20809,-83.1902 98.50057,-88.01379 1.29247,-4.82359 -0.37453,-112.7326 -0.37453,-112.7326 z"
     id="path3012-3"
     style="fill:#a2b5aa;fill-opacity:1;stroke:#000000;stroke-width:1px;stroke-linecap:butt;stroke-linejoin:miter;stroke-opacity:1"
     inkscape:connector-curvature="0" />
  <path
     d="m 576.98923,911.49121 -98.12604,0 -94.00626,94.00619 94.00626,0 0,106.7402 c 0,0 97.20809,-83.1902 98.50057,-88.0138 1.29247,-4.8236 -0.37453,-112.73259 -0.37453,-112.73259 z"
     id="path3012-7"
     style="fill:#41de00;fill-opacity:1;stroke:#000000;stroke-width:1px;stroke-linecap:butt;stroke-linejoin:miter;stroke-opacity:1"
     inkscape:connector-curvature="0" />
  <path
     d="m 387.15872,882.67764 -98.12604,0 -94.00626,94.0062 94.00626,0 0,106.74016 c 0,0 97.20809,-83.1902 98.50057,-88.01376 1.29247,-4.8236 -0.37453,-112.7326 -0.37453,-112.7326 z"
     id="path3012-5"
     style="fill:#ff9022;fill-opacity:1;stroke:#000000;stroke-width:1px;stroke-linecap:butt;stroke-linejoin:miter;stroke-opacity:1"
     inkscape:connector-curvature="0" />
  <path
     d="m 868.51465,25.05052 -98.12604,0 -94.00626,94.00625 94.00626,0 0,106.74017 c 0,0 97.20809,-83.19024 98.50057,-88.01383 1.29247,-4.82358 -0.37453,-112.73259 -0.37453,-112.73259 z"
     id="path3012-67"
     style="fill:#de0092;fill-opacity:1;stroke:#000000;stroke-width:1px;stroke-linecap:butt;stroke-linejoin:miter;stroke-opacity:1"
     inkscape:connector-curvature="0" />
  <path
     d="m 775.29432,114.88103 -98.12604,0 -94.00626,94.00625 94.00626,0 0,106.74017 c 0,0 97.20809,-83.19023 98.50057,-88.01382 1.29247,-4.82359 -0.37453,-112.7326 -0.37453,-112.7326 z"
     id="path3012-87"
     style="fill:#dedae5;fill-opacity:1;stroke:#000000;stroke-width:1px;stroke-linecap:butt;stroke-linejoin:miter;stroke-opacity:1"
     inkscape:connector-curvature="0" />
  <path
     d="m 680.37906,208.10137 -98.12604,0 -94.00626,94.00625 94.00626,0 0,106.74017 c 0,0 97.20809,-83.19023 98.50057,-88.01382 1.29247,-4.82359 -0.37453,-112.7326 -0.37453,-112.7326 z"
     id="path3012-79"
     style="fill:#de6fe2;fill-opacity:1;stroke:#000000;stroke-width:1px;stroke-linecap:butt;stroke-linejoin:miter;stroke-opacity:1"
     inkscape:connector-curvature="0" />
  <path
     d="m 580.37906,301.32171 -98.12604,0 -94.00626,94.00625 94.00626,0 0,106.74017 c 0,0 97.20809,-83.19023 98.50057,-88.01382 1.29247,-4.82359 -0.37453,-112.7326 -0.37453,-112.7326 z"
     id="path3012-4"
     style="fill:#48cd00;fill-opacity:1;stroke:#000000;stroke-width:1px;stroke-linecap:butt;stroke-linejoin:miter;stroke-opacity:1"
     inkscape:connector-curvature="0" />
  <path
     d="m 480.37906,396.23696 -98.12604,0 -94.00626,94.00625 94.00626,0 0,106.74017 c 0,0 97.20809,-83.19023 98.50057,-88.01382 1.29247,-4.82359 -0.37453,-112.7326 -0.37453,-112.7326 z"
     id="path3012-20"
     style="fill:#459942;fill-opacity:1;stroke:#000000;stroke-width:1px;stroke-linecap:butt;stroke-linejoin:miter;stroke-opacity:1"
     inkscape:connector-curvature="0" />
  <path
     d="m 390.54856,492.84713 -98.12604,0 -94.00626,94.00625 94.00626,0 0,106.74017 c 0,0 97.20809,-83.19023 98.50057,-88.01382 1.29247,-4.82359 -0.37453,-112.7326 -0.37453,-112.7326 z"
     id="path3012-033"
     style="fill:#439999;fill-opacity:1;stroke:#000000;stroke-width:1px;stroke-linecap:butt;stroke-linejoin:miter;stroke-opacity:1"
     inkscape:connector-curvature="0" />
  <path
     d="m 680.37906,8.1013617 -98.12604,0 -94.00626,94.0062483 94.00626,0 0,106.74018 c 0,0 97.20809,-83.19024 98.50057,-88.01383 1.29247,-4.82359 -0.37453,-112.7325983 -0.37453,-112.7325983 z"
     id="path3012-69"
     style="fill:#0cffd4;fill-opacity:1;stroke:#000000;stroke-width:1px;stroke-linecap:butt;stroke-linejoin:miter;stroke-opacity:1"
     inkscape:connector-curvature="0" />
  <path
     d="m 578.68414,103.01662 -98.12604,0 -94.00626,94.00625 94.00626,0 0,106.74018 c 0,0 97.20809,-83.19023 98.50057,-88.01382 1.29247,-4.82359 -0.37453,-112.73261 -0.37453,-112.73261 z"
     id="path3012-40"
     style="fill:#2b2f00;fill-opacity:1;stroke:#000000;stroke-width:1px;stroke-linecap:butt;stroke-linejoin:miter;stroke-opacity:1"
     inkscape:connector-curvature="0" />
  <path
     d="m 483.76889,191.15222 -98.12604,0 -94.00626,94.00625 94.00626,0 0,106.74017 c 0,0 97.20809,-83.19023 98.50057,-88.01382 1.29247,-4.82359 -0.37453,-112.7326 -0.37453,-112.7326 z"
     id="path3012-90"
     style="fill:#bfb690;fill-opacity:1;stroke:#000000;stroke-width:1px;stroke-linecap:butt;stroke-linejoin:miter;stroke-opacity:1"
     inkscape:connector-curvature="0" />
  <path
     d="m 382.07398,289.4573 -98.12604,0 -94.00626,94.00625 94.00626,0 0,106.74017 c 0,0 97.20809,-83.19023 98.50057,-88.01382 1.29247,-4.82359 -0.37453,-112.7326 -0.37453,-112.7326 z"
     id="path3012-24"
     style="fill:#008ade;fill-opacity:1;stroke:#000000;stroke-width:1px;stroke-linecap:butt;stroke-linejoin:miter;stroke-opacity:1"
     inkscape:connector-curvature="0" />
  <path
     d="m 485.4638,-10.542702 -98.12604,0 -94.00626,94.006253 94.00626,0 0,106.740179 c 0,0 97.20809,-83.19024 98.50057,-88.01383 1.29247,-4.823589 -0.37453,-112.732602 -0.37453,-112.732602 z"
     id="path3012-12"
     style="fill:#8ca3a9;fill-opacity:1;stroke:#000000;stroke-width:1px;stroke-linecap:butt;stroke-linejoin:miter;stroke-opacity:1"
     inkscape:connector-curvature="0" />
  <path
     d="m 392.24346,84.372551 -98.12604,0 -94.00626,94.006259 94.00626,0 0,106.74017 c 0,0 97.20809,-83.19023 98.50057,-88.01382 1.29247,-4.82359 -0.37453,-112.732609 -0.37453,-112.732609 z"
     id="path3012-66"
     style="fill:#3f1e69;fill-opacity:1;stroke:#000000;stroke-width:1px;stroke-linecap:butt;stroke-linejoin:miter;stroke-opacity:1"
     inkscape:connector-curvature="0" />
  <path
     d="m 1058.3452,31.83018 -98.12608,0 -94.00626,94.00625 94.00626,0 0,106.74018 c 0,0 97.20818,-83.19025 98.50068,-88.01384 1.2924,-4.82359 -0.3746,-112.73259 -0.3746,-112.73259 z"
     id="path3012-49"
     style="fill:#372c85;fill-opacity:1;stroke:#000000;stroke-width:1px;stroke-linecap:butt;stroke-linejoin:miter;stroke-opacity:1"
     inkscape:connector-curvature="0" />
  <path
     d="m 290.54856,781.83021 -98.12604,0 -94.006255,94.00625 94.006255,0 0,106.74018 c 0,0 97.20809,-83.19024 98.50057,-88.01383 1.29247,-4.82359 -0.37453,-112.7326 -0.37453,-112.7326 z"
     id="path3012-61-3"
     style="fill:#6c3da1;fill-opacity:1;stroke:#000000;stroke-width:1px;stroke-linecap:butt;stroke-linejoin:miter;stroke-opacity:1"
     inkscape:connector-curvature="0" />
  <path
     d="m 295.63331,583.52512 -98.12604,0 -94.00626,94.00625 94.00626,0 0,106.74017 c 0,0 97.20809,-83.19023 98.50057,-88.01382 1.29247,-4.82359 -0.37453,-112.7326 -0.37453,-112.7326 z"
     id="path3012-033-4"
     style="fill:#a6566e;fill-opacity:1;stroke:#000000;stroke-width:1px;stroke-linecap:butt;stroke-linejoin:miter;stroke-opacity:1"
     inkscape:connector-curvature="0" />
  <path
     d="m 287.15873,380.13529 -98.12604,0 -94.00626,94.00625 94.00626,0 0,106.74017 c 0,0 97.20809,-83.19023 98.50057,-88.01382 1.29247,-4.82359 -0.37453,-112.7326 -0.37453,-112.7326 z"
     id="path3012-24-2"
     style="fill:#e6e6e6;fill-opacity:1;stroke:#000000;stroke-width:1px;stroke-linecap:butt;stroke-linejoin:miter;stroke-opacity:1"
     inkscape:connector-curvature="0" />
  <path
     d="m 297.32821,175.05054 -98.12604,0 -94.00626,94.00626 94.00626,0 0,106.74017 c 0,0 97.20809,-83.19023 98.50057,-88.01382 1.29247,-4.82359 -0.37453,-112.73261 -0.37453,-112.73261 z"
     id="path3012-66-4"
     style="fill:#afd79f;fill-opacity:1;stroke:#000000;stroke-width:1px;stroke-linecap:butt;stroke-linejoin:miter;stroke-opacity:1"
     inkscape:connector-curvature="0" />
  <path
     d="m 199.02314,668.27089 -98.12605,0 -94.0062542,94.00625 94.0062542,0 0,106.74017 c 0,0 97.2081,-83.19023 98.50058,-88.01382 1.29247,-4.82359 -0.37453,-112.7326 -0.37453,-112.7326 z"
     id="path3012-61-0"
     style="fill:#d3de00;fill-opacity:1;stroke:#000000;stroke-width:1px;stroke-linecap:butt;stroke-linejoin:miter;stroke-opacity:1"
     inkscape:connector-curvature="0" />
  <path
     d="m 200.71805,859.79631 -98.12605,0 -94.0062543,94.00625 94.0062543,0 0,106.74014 c 0,0 97.2081,-83.19016 98.50058,-88.01376 1.29247,-4.82362 -0.37453,-112.73263 -0.37453,-112.73263 z"
     id="path3012-5-9"
     style="fill:#00debf;fill-opacity:1;stroke:#000000;stroke-width:1px;stroke-linecap:butt;stroke-linejoin:miter;stroke-opacity:1"
     inkscape:connector-curvature="0" />
  <path
     d="m 204.10789,469.9658 -98.12605,0 -94.006254,94.00625 94.006254,0 0,106.74017 c 0,0 97.2081,-83.19023 98.50058,-88.01382 1.29247,-4.82359 -0.37453,-112.7326 -0.37453,-112.7326 z"
     id="path3012-033-3"
     style="fill:#1da244;fill-opacity:1;stroke:#000000;stroke-width:1px;stroke-linecap:butt;stroke-linejoin:miter;stroke-opacity:1"
     inkscape:connector-curvature="0" />
  <path
     d="m 195.63331,266.57597 -98.126044,0 -94.0062602,94.00625 94.0062602,0 0,106.74017 c 0,0 97.208094,-83.19023 98.500574,-88.01382 1.29247,-4.82359 -0.37453,-112.7326 -0.37453,-112.7326 z"
     id="path3012-24-9"
     style="fill:#bf4967;fill-opacity:1;stroke:#000000;stroke-width:1px;stroke-linecap:butt;stroke-linejoin:miter;stroke-opacity:1"
     inkscape:connector-curvature="0" />
  <path
     d="m 205.80279,61.491215 -98.12605,0 -94.006254,94.006255 94.006254,0 0,106.74018 c 0,0 97.2081,-83.19023 98.50058,-88.01382 1.29247,-4.82359 -0.37453,-112.732615 -0.37453,-112.732615 z"
     id="path3012-66-6"
     style="fill:#901400;fill-opacity:1;stroke:#000000;stroke-width:1px;stroke-linecap:butt;stroke-linejoin:miter;stroke-opacity:1"
     inkscape:connector-curvature="0" />
  <path
     d="m 97.328221,754.71156 -98.12604415,0 -94.00625585,94.00625 94.00625585,0 0,106.74017 c 0,0 97.20809415,-83.19023 98.50057415,-88.01382 1.292474,-4.82359 -0.37453,-112.7326 -0.37453,-112.7326 z"
     id="path3012-61-2"
     style="fill:#41d7a1;fill-opacity:1;stroke:#000000;stroke-width:1px;stroke-linecap:butt;stroke-linejoin:miter;stroke-opacity:1"
     inkscape:connector-curvature="0" />
  <path
     d="m 102.41297,556.40647 -98.1260432,0 -94.0062558,94.00625 94.0062558,0 0,106.74017 c 0,0 97.2080932,-83.19023 98.5005732,-88.01382 1.29247,-4.82359 -0.37453,-112.7326 -0.37453,-112.7326 z"
     id="path3012-033-0"
     style="fill:#948ecc;fill-opacity:1;stroke:#000000;stroke-width:1px;stroke-linecap:butt;stroke-linejoin:miter;stroke-opacity:1"
     inkscape:connector-curvature="0" />
  <path
     d="m 93.938391,353.01664 -98.1260442,0 -94.0062558,94.00625 94.0062558,0 0,106.74017 c 0,0 97.2080942,-83.19023 98.5005742,-88.01382 1.29247,-4.82359 -0.37453,-112.7326 -0.37453,-112.7326 z"
     id="path3012-24-5"
     style="fill:#482300;fill-opacity:1;stroke:#000000;stroke-width:1px;stroke-linecap:butt;stroke-linejoin:miter;stroke-opacity:1"
     inkscape:connector-curvature="0" />
  <path
     d="m 104.10787,147.93189 -98.1260432,0 -94.0062558,94.00626 94.0062558,0 0,106.74017 c 0,0 97.2080932,-83.19023 98.5005732,-88.01382 1.29247,-4.82359 -0.37453,-112.73261 -0.37453,-112.73261 z"
     id="path3012-66-3"
     style="fill:#d9e352;fill-opacity:1;stroke:#000000;stroke-width:1px;stroke-linecap:butt;stroke-linejoin:miter;stroke-opacity:1"
     inkscape:connector-curvature="0" />
  <path
     d="m 299.02313,-34.271519 -98.12604,0 -94.00626,94.006255 94.00626,0 0,106.740184 c 0,0 97.20809,-83.190239 98.50057,-88.013829 1.29247,-4.82359 -0.37453,-112.73261 -0.37453,-112.73261 z"
     id="path3012-66-6-3"
     style="fill:#1bd900;fill-opacity:1;stroke:#000000;stroke-width:1px;stroke-linecap:butt;stroke-linejoin:miter;stroke-opacity:1"
     inkscape:connector-curvature="0" />
  <path
     d="m 105.80279,-35.966437 -98.1260382,0 -94.0062608,94.006257 94.0062608,0 0,106.74018 c 0,0 97.2080882,-83.190239 98.5005682,-88.013829 1.29247,-4.82359 -0.37453,-112.732608 -0.37453,-112.732608 z"
     id="path3012-66-6-6"
     style="fill:#de6f00;fill-opacity:1;stroke:#000000;stroke-width:1px;stroke-linecap:butt;stroke-linejoin:miter;stroke-opacity:1"
     inkscape:connector-curvature="0" />
</svg>
