  0
SECTION
  2
HEADER
  9
$ACADVER
  1
AC1014
  9
$HANDSEED
  5
FFFF
  9
$MEASUREMENT
 70
     1
  0
ENDSEC
  0
SECTION
  2
TABLES
  0
TABLE
  2
VPORT
  5
8
330
0
100
AcDbSymbolTable
 70
     4
  0
VPORT
  5
2E
330
8
100
AcDbSymbolTableRecord
100
AcDbViewportTableRecord
  2
*ACTIVE
 70
     0
 10
0.0
 20
0.0
 11
1.0
 21
1.0
 12
210.0
 22
148.5
 13
0.0
 23
0.0
 14
10.0
 24
10.0
 15
10.0
 25
10.0
 16
0.0
 26
0.0
 36
1.0
 17
0.0
 27
0.0
 37
0.0
 40
341.0
 41
1.24
 42
50.0
 43
0.0
 44
0.0
 50
0.0
 51
0.0
 71
     0
 72
   100
 73
     1
 74
     3
 75
     0
 76
     0
 77
     0
 78
     0
  0
ENDTAB
  0
TABLE
  2
LTYPE
  5
5
330
0
100
AcDbSymbolTable
 70
     1
  0
LTYPE
  5
14
330
5
100
AcDbSymbolTableRecord
100
AcDbLinetypeTableRecord
  2
BYBLOCK
 70
     0
  3

 72
    65
 73
     0
 40
0.0
  0
LTYPE
  5
15
330
5
100
AcDbSymbolTableRecord
100
AcDbLinetypeTableRecord
  2
BYLAYER
 70
     0
  3

 72
    65
 73
     0
 40
0.0
  0
LTYPE
  5
16
330
5
100
AcDbSymbolTableRecord
100
AcDbLinetypeTableRecord
  2
CONTINUOUS
 70
     0
  3
Solid line
 72
    65
 73
     0
 40
0.0
  0
ENDTAB
  0
TABLE
  2
LAYER
  5
2
100
AcDbSymbolTable
 70
1
  0
LAYER
  5
50
100
AcDbSymbolTableRecord
100
AcDbLayerTableRecord
  2
0
 70
0
  6
CONTINUOUS
  0
ENDTAB
  0
TABLE
  2
STYLE
  5
3
330
0
100
AcDbSymbolTable
 70
     1
  0
STYLE
  5
11
330
3
100
AcDbSymbolTableRecord
100
AcDbTextStyleTableRecord
  2
STANDARD
 70
     0
 40
0.0
 41
1.0
 50
0.0
 71
     0
 42
2.5
  3
txt
  4

  0
ENDTAB
  0
TABLE
  2
VIEW
  5
6
330
0
100
AcDbSymbolTable
 70
     0
  0
ENDTAB
  0
TABLE
  2
UCS
  5
7
330
0
100
AcDbSymbolTable
 70
     0
  0
ENDTAB
  0
TABLE
  2
APPID
  5
9
330
0
100
AcDbSymbolTable
 70
     2
  0
APPID
  5
12
330
9
100
AcDbSymbolTableRecord
100
AcDbRegAppTableRecord
  2
ACAD
 70
     0
  0
ENDTAB
  0
TABLE
  2
DIMSTYLE
  5
A
330
0
100
AcDbSymbolTable
 70
     1
  0
DIMSTYLE
105
27
330
A
100
AcDbSymbolTableRecord
100
AcDbDimStyleTableRecord
  2
ISO-25
 70
     0
  3

  4

  5

  6

  7

 40
1.0
 41
2.5
 42
0.625
 43
3.75
 44
1.25
 45
0.0
 46
0.0
 47
0.0
 48
0.0
140
2.5
141
2.5
142
0.0
143
0.03937007874016
144
1.0
145
0.0
146
1.0
147
0.625
 71
     0
 72
     0
 73
     0
 74
     0
 75
     0
 76
     0
 77
     1
 78
     8
170
     0
171
     3
172
     1
173
     0
174
     0
175
     0
176
     0
177
     0
178
     0
270
     2
271
     2
272
     2
273
     2
274
     3
340
11
275
     0
280
     0
281
     0
282
     0
283
     0
284
     8
285
     0
286
     0
287
     3
288
     0
  0
ENDTAB
  0
TABLE
  2
BLOCK_RECORD
  5
1
330
0
100
AcDbSymbolTable
 70
     1
  0
BLOCK_RECORD
  5
1F
330
1
100
AcDbSymbolTableRecord
100
AcDbBlockTableRecord
  2
*MODEL_SPACE
  0
BLOCK_RECORD
  5
1B
330
1
100
AcDbSymbolTableRecord
100
AcDbBlockTableRecord
  2
*PAPER_SPACE
  0
ENDTAB
  0
ENDSEC
  0
SECTION
  2
BLOCKS
  0
BLOCK
  5
20
330
1F
100
AcDbEntity
  8
0
100
AcDbBlockBegin
  2
*MODEL_SPACE
 70
     0
 10
0.0
 20
0.0
 30
0.0
  3
*MODEL_SPACE
  1

  0
ENDBLK
  5
21
330
1F
100
AcDbEntity
  8
0
100
AcDbBlockEnd
  0
BLOCK
  5
1C
330
1B
100
AcDbEntity
 67
     1
  8
0
100
AcDbBlockBegin
  2
*PAPER_SPACE
  1

  0
ENDBLK
  5
1D
330
1B
100
AcDbEntity
 67
     1
  8
0
100
AcDbBlockEnd
  0
ENDSEC
  0
SECTION
  2
ENTITIES
  0
LWPOLYLINE
  5
100
100
AcDbEntity
  8
0
 62
7
100
AcDbPolyline
 90
57
 70
0
 10
12.402915
 20
35.998634
 30
0.0
 10
12.402915
 20
35.486032
 30
0.0
 10
12.402915
 20
34.973431
 30
0.0
 10
12.402915
 20
34.460829
 30
0.0
 10
12.402915
 20
33.948227
 30
0.0
 10
14.730565
 20
33.948227
 30
0.0
 10
17.058215
 20
33.948227
 30
0.0
 10
19.385865
 20
33.948227
 30
0.0
 10
21.713515
 20
33.948227
 30
0.0
 10
20.742166
 20
32.976878
 30
0.0
 10
19.770816
 20
32.005527
 30
0.0
 10
18.799465
 20
31.034179
 30
0.0
 10
17.828116
 20
30.062828
 30
0.0
 10
17.389313
 20
29.626021
 30
0.0
 10
16.950510
 20
29.189212
 30
0.0
 10
16.511707
 20
28.752405
 30
0.0
 10
16.072904
 20
28.315596
 30
0.0
 10
16.693211
 20
28.315596
 30
0.0
 10
17.313520
 20
28.315596
 30
0.0
 10
17.933827
 20
28.315596
 30
0.0
 10
18.554134
 20
28.315596
 30
0.0
 10
21.346665
 20
27.750937
 30
0.0
 10
23.626429
 20
26.211469
 30
0.0
 10
25.163152
 20
23.928962
 30
0.0
 10
25.726566
 20
21.135186
 30
0.0
 10
25.163152
 20
18.342655
 30
0.0
 10
23.626429
 20
16.062891
 30
0.0
 10
21.346665
 20
14.526165
 30
0.0
 10
18.554134
 20
13.962751
 30
0.0
 10
15.760358
 20
14.526165
 30
0.0
 10
13.477851
 20
16.062891
 30
0.0
 10
11.938383
 20
18.342655
 30
0.0
 10
11.373724
 20
21.135186
 30
0.0
 10
10.861122
 20
21.135186
 30
0.0
 10
10.348520
 20
21.135186
 30
0.0
 10
9.835919
 20
21.135186
 30
0.0
 10
9.323317
 20
21.135186
 30
0.0
 10
10.049130
 20
17.544611
 30
0.0
 10
12.028055
 20
14.613093
 30
0.0
 10
14.962316
 20
12.636910
 30
0.0
 10
18.554134
 20
11.912342
 30
0.0
 10
22.144706
 20
12.636910
 30
0.0
 10
25.076222
 20
14.613093
 30
0.0
 10
27.052405
 20
17.544611
 30
0.0
 10
27.776973
 20
21.135186
 30
0.0
 10
27.247548
 20
24.225097
 30
0.0
 10
25.780769
 20
26.872212
 30
0.0
 10
23.558876
 20
28.892696
 30
0.0
 10
20.764105
 20
30.102720
 30
0.0
 10
22.240077
 20
31.576699
 30
0.0
 10
23.716052
 20
33.050677
 30
0.0
 10
25.192024
 20
34.524656
 30
0.0
 10
26.667998
 20
35.998634
 30
0.0
 10
23.101727
 20
35.998634
 30
0.0
 10
19.535457
 20
35.998634
 30
0.0
 10
15.969185
 20
35.998634
 30
0.0
 10
12.402915
 20
35.998634
 30
0.0
  0
LWPOLYLINE
  5
101
100
AcDbEntity
  8
0
 62
7
100
AcDbPolyline
 90
41
 70
0
 10
18.546158
 20
15.386022
 30
0.0
 10
20.741089
 20
15.829506
 30
0.0
 10
22.534094
 20
17.038697
 30
0.0
 10
23.743284
 20
18.831702
 30
0.0
 10
24.186769
 20
21.026633
 30
0.0
 10
23.921186
 20
22.740136
 30
0.0
 10
23.179368
 20
24.240760
 30
0.0
 10
22.043697
 20
25.446742
 30
0.0
 10
20.596563
 20
26.276312
 30
0.0
 10
20.596563
 20
25.697889
 30
0.0
 10
20.596563
 20
25.119469
 30
0.0
 10
20.596563
 20
24.541046
 30
0.0
 10
20.596563
 20
23.962624
 30
0.0
 10
21.229825
 20
23.402581
 30
0.0
 10
21.715501
 20
22.709494
 30
0.0
 10
22.026657
 20
21.908976
 30
0.0
 10
22.136362
 20
21.026633
 30
0.0
 10
21.854031
 20
19.629746
 30
0.0
 10
21.084298
 20
18.488493
 30
0.0
 10
19.943045
 20
17.718760
 30
0.0
 10
18.546158
 20
17.436429
 30
0.0
 10
17.150516
 20
17.718760
 30
0.0
 10
16.012006
 20
18.488493
 30
0.0
 10
15.245013
 20
19.629746
 30
0.0
 10
14.963930
 20
21.026633
 30
0.0
 10
15.073074
 20
21.908093
 30
0.0
 10
15.382631
 20
22.708625
 30
0.0
 10
15.865793
 20
23.402160
 30
0.0
 10
16.495751
 20
23.962624
 30
0.0
 10
16.495751
 20
24.541046
 30
0.0
 10
16.495751
 20
25.119469
 30
0.0
 10
16.495751
 20
25.697889
 30
0.0
 10
16.495751
 20
26.276312
 30
0.0
 10
15.050786
 20
25.446742
 30
0.0
 10
13.917756
 20
24.240760
 30
0.0
 10
13.178168
 20
22.740136
 30
0.0
 10
12.913525
 20
21.026633
 30
0.0
 10
13.355762
 20
18.831702
 30
0.0
 10
14.562210
 20
17.038697
 30
0.0
 10
16.352474
 20
15.829506
 30
0.0
 10
18.546158
 20
15.386022
 30
0.0
  0
LWPOLYLINE
  5
102
100
AcDbEntity
  8
0
 62
7
100
AcDbPolyline
 90
21
 70
0
 10
18.546158
 20
19.997442
 30
0.0
 10
18.945803
 20
20.078641
 30
0.0
 10
19.273051
 20
20.299740
 30
0.0
 10
19.494150
 20
20.626988
 30
0.0
 10
19.575349
 20
21.026633
 30
0.0
 10
19.575349
 20
22.562442
 30
0.0
 10
19.575349
 20
24.098254
 30
0.0
 10
19.575349
 20
25.634063
 30
0.0
 10
19.575349
 20
27.169874
 30
0.0
 10
19.062748
 20
27.169874
 30
0.0
 10
18.550146
 20
27.169874
 30
0.0
 10
18.037544
 20
27.169874
 30
0.0
 10
17.524942
 20
27.169874
 30
0.0
 10
17.524942
 20
25.634063
 30
0.0
 10
17.524942
 20
24.098254
 30
0.0
 10
17.524942
 20
22.562442
 30
0.0
 10
17.524942
 20
21.026633
 30
0.0
 10
17.604897
 20
20.626988
 30
0.0
 10
17.823253
 20
20.299740
 30
0.0
 10
18.147760
 20
20.078641
 30
0.0
 10
18.546158
 20
19.997442
 30
0.0
  0
LWPOLYLINE
  5
103
100
AcDbEntity
  8
0
 62
7
100
AcDbPolyline
 90
70
 70
0
 10
31.462918
 20
38.439974
 30
0.0
 10
30.664675
 20
38.407072
 30
0.0
 10
29.991089
 20
38.335009
 30
0.0
 10
29.486964
 20
38.239637
 30
0.0
 10
29.197099
 20
38.136802
 30
0.0
 10
28.924045
 20
37.877088
 30
0.0
 10
28.769992
 20
37.557722
 30
0.0
 10
28.725776
 20
37.260627
 30
0.0
 10
28.782230
 20
37.067718
 30
0.0
 10
29.206917
 20
36.761144
 30
0.0
 10
30.075605
 20
36.200770
 30
0.0
 10
31.091439
 20
35.585204
 30
0.0
 10
31.957567
 20
35.113050
 30
0.0
 10
32.933074
 20
33.714597
 30
0.0
 10
32.495313
 20
31.869675
 30
0.0
 10
31.190311
 20
30.403833
 30
0.0
 10
29.564097
 20
30.142611
 30
0.0
 10
28.414081
 20
30.750459
 30
0.0
 10
27.340856
 20
31.520927
 30
0.0
 10
26.497657
 20
32.184645
 30
0.0
 10
26.037717
 20
32.472255
 30
0.0
 10
25.810485
 20
32.441255
 30
0.0
 10
25.585833
 20
32.322832
 30
0.0
 10
25.397640
 20
32.107591
 30
0.0
 10
25.279785
 20
31.786127
 30
0.0
 10
25.359268
 20
31.085476
 30
0.0
 10
25.756593
 20
29.893195
 30
0.0
 10
26.495931
 20
28.440672
 30
0.0
 10
27.601451
 20
26.959295
 30
0.0
 10
29.305700
 20
26.006491
 30
0.0
 10
31.032225
 20
25.968002
 30
0.0
 10
32.369743
 20
25.966425
 30
0.0
 10
32.906978
 20
25.124318
 30
0.0
 10
32.906978
 20
22.716885
 30
0.0
 10
32.906978
 20
20.309454
 30
0.0
 10
32.906978
 20
17.902021
 30
0.0
 10
32.906978
 20
15.494588
 30
0.0
 10
32.957885
 20
14.994918
 30
0.0
 10
33.105047
 20
14.514501
 30
0.0
 10
33.341145
 20
14.070979
 30
0.0
 10
33.658865
 20
13.681983
 30
0.0
 10
34.048076
 20
13.364528
 30
0.0
 10
34.491759
 20
13.128730
 30
0.0
 10
34.972275
 20
12.981897
 30
0.0
 10
35.471981
 20
12.931329
 30
0.0
 10
35.971684
 20
12.981897
 30
0.0
 10
36.452200
 20
13.128730
 30
0.0
 10
36.895884
 20
13.364528
 30
0.0
 10
37.285094
 20
13.681983
 30
0.0
 10
37.602815
 20
14.070979
 30
0.0
 10
37.838912
 20
14.514501
 30
0.0
 10
37.986074
 20
14.994918
 30
0.0
 10
38.036981
 20
15.494588
 30
0.0
 10
38.036981
 20
18.570197
 30
0.0
 10
38.036981
 20
21.645807
 30
0.0
 10
38.036981
 20
24.721418
 30
0.0
 10
38.036981
 20
27.797026
 30
0.0
 10
38.036981
 20
28.515068
 30
0.0
 10
38.036981
 20
29.233108
 30
0.0
 10
38.036981
 20
29.951150
 30
0.0
 10
38.036981
 20
30.669190
 30
0.0
 10
38.175088
 20
31.995116
 30
0.0
 10
38.151289
 20
33.997436
 30
0.0
 10
37.308415
 20
36.136717
 30
0.0
 10
34.989297
 20
37.873535
 30
0.0
 10
34.150106
 20
38.148412
 30
0.0
 10
33.251813
 20
38.325102
 30
0.0
 10
32.340668
 20
38.417624
 30
0.0
 10
31.462918
 20
38.439989
 30
0.0
 10
31.462918
 20
38.439974
 30
0.0
  0
LWPOLYLINE
  5
104
100
AcDbEntity
  8
0
 62
7
100
AcDbPolyline
 90
33
 70
0
 10
24.999998
 20
49.999989
 30
0.0
 10
19.961758
 20
49.492059
 30
0.0
 10
15.269063
 20
48.035302
 30
0.0
 10
11.022462
 20
45.730264
 30
0.0
 10
7.322501
 20
42.677491
 30
0.0
 10
4.269727
 20
38.977530
 30
0.0
 10
1.964688
 20
34.730929
 30
0.0
 10
0.507930
 20
30.038234
 30
0.0
 10
0.000000
 20
24.999991
 30
0.0
 10
0.507930
 20
19.961756
 30
0.0
 10
1.964688
 20
15.269063
 30
0.0
 10
4.269727
 20
11.022463
 30
0.0
 10
7.322501
 20
7.322501
 30
0.0
 10
11.022462
 20
4.269726
 30
0.0
 10
15.269063
 20
1.964687
 30
0.0
 10
19.961758
 20
0.507927
 30
0.0
 10
24.999998
 20
-0.000003
 30
0.0
 10
30.038238
 20
0.507927
 30
0.0
 10
34.730930
 20
1.964687
 30
0.0
 10
38.977533
 20
4.269726
 30
0.0
 10
42.677495
 20
7.322501
 30
0.0
 10
45.730270
 20
11.022463
 30
0.0
 10
48.035309
 20
15.269063
 30
0.0
 10
49.492069
 20
19.961756
 30
0.0
 10
49.999999
 20
24.999991
 30
0.0
 10
49.492069
 20
30.038234
 30
0.0
 10
48.035309
 20
34.730929
 30
0.0
 10
45.730270
 20
38.977530
 30
0.0
 10
42.677495
 20
42.677491
 30
0.0
 10
38.977533
 20
45.730264
 30
0.0
 10
34.730930
 20
48.035302
 30
0.0
 10
30.038238
 20
49.492059
 30
0.0
 10
24.999998
 20
49.999989
 30
0.0
  0
LWPOLYLINE
  5
105
100
AcDbEntity
  8
0
 62
7
100
AcDbPolyline
 90
40
 70
0
 10
24.999998
 20
46.574376
 30
0.0
 10
29.347030
 20
46.135971
 30
0.0
 10
33.395593
 20
44.878645
 30
0.0
 10
37.059037
 20
42.889232
 30
0.0
 10
40.250711
 20
40.254563
 30
0.0
 10
42.883960
 20
37.061471
 30
0.0
 10
44.872137
 20
33.396790
 30
0.0
 10
46.128587
 20
29.347353
 30
0.0
 10
46.566661
 20
24.999991
 30
0.0
 10
46.128587
 20
20.652963
 30
0.0
 10
44.872137
 20
16.604401
 30
0.0
 10
42.883960
 20
12.940956
 30
0.0
 10
40.250711
 20
9.749285
 30
0.0
 10
37.059037
 20
7.116033
 30
0.0
 10
33.395593
 20
5.127856
 30
0.0
 10
29.347030
 20
3.871409
 30
0.0
 10
24.999998
 20
3.433335
 30
0.0
 10
20.658815
 20
3.905493
 30
0.0
 10
16.625702
 20
5.287817
 30
0.0
 10
12.981537
 20
7.442889
 30
0.0
 10
9.807197
 20
10.233296
 30
0.0
 10
7.183558
 20
13.521625
 30
0.0
 10
5.191499
 20
17.170459
 30
0.0
 10
3.911895
 20
21.042387
 30
0.0
 10
3.425623
 20
24.999991
 30
0.0
 10
3.864028
 20
29.347353
 30
0.0
 10
5.121354
 20
33.396790
 30
0.0
 10
7.110768
 20
37.061471
 30
0.0
 10
9.745437
 20
40.254563
 30
0.0
 10
12.938529
 20
42.889232
 30
0.0
 10
16.603211
 20
44.878645
 30
0.0
 10
20.652650
 20
46.135971
 30
0.0
 10
25.000012
 20
46.574376
 30
0.0
 10
25.000011
 20
46.574376
 30
0.0
 10
25.000009
 20
46.574376
 30
0.0
 10
25.000007
 20
46.574376
 30
0.0
 10
25.000005
 20
46.574376
 30
0.0
 10
25.000004
 20
46.574376
 30
0.0
 10
25.000002
 20
46.574376
 30
0.0
 10
24.999998
 20
46.574376
 30
0.0
  0
ENDSEC
  0
SECTION
  2
OBJECTS
  0
DICTIONARY
  5
C
330
0
100
AcDbDictionary
  3
ACAD_GROUP
350
D
  3
ACAD_MLINESTYLE
350
17
  0
DICTIONARY
  5
D
330
C
100
AcDbDictionary
  0
DICTIONARY
  5
1A
330
C
100
AcDbDictionary
  0
DICTIONARY
  5
17
330
C
100
AcDbDictionary
  3
STANDARD
350
18
  0
DICTIONARY
  5
19
330
C
100
AcDbDictionary
  0
ENDSEC
  0
EOF
