<?xml version="1.0" encoding="UTF-8"?>
<!DOCTYPE svg PUBLIC "-//W3C//DTD SVG 1.1//EN" "http://www.w3.org/Graphics/SVG/1.1/DTD/svg11.dtd">
<svg version="1.1" xmlns="http://www.w3.org/2000/svg" xmlns:xlink="http://www.w3.org/1999/xlink" x="0px" y="0px" width="600" height="300" viewBox="0, 0, 600, 300">
  <g id="Layer 1">
    <path d="M68.69,86.586 L68.69,96.992 L115.943,96.992 C106.415,106.535 96.873,116.065 87.316,125.579 L99.909,125.579 C120.021,125.579 136.31,141.908 136.31,162.02 C136.31,182.133 120.021,198.422 99.909,198.422 C79.797,198.422 63.467,182.133 63.467,162.02 L53.061,162.02 C53.061,187.879 74.05,208.828 99.909,208.828 C125.767,208.828 146.716,187.879 146.716,162.02 C146.716,140.028 131.564,121.54 111.125,116.509 L141.088,86.586 z" fill="#000000"/>
    <g>
      <path d="M99.868,191.198 C115.671,191.198 128.495,178.374 128.495,162.571 C128.495,150.44 120.935,140.084 110.274,135.928 L110.274,147.671 C114.998,150.953 118.089,156.382 118.089,162.571 C118.089,172.627 109.924,180.792 99.868,180.792 C89.812,180.792 81.688,172.627 81.688,162.571 C81.688,156.392 84.763,150.954 89.462,147.671 L89.462,135.928 C78.813,140.084 71.282,150.44 71.282,162.571 C71.282,178.374 84.066,191.198 99.868,191.198 z" fill="#000000"/>
      <path d="M99.868,167.795 C102.741,167.795 105.092,165.445 105.092,162.571 L105.092,131.393 L94.685,131.393 L94.685,162.571 C94.685,165.445 96.995,167.795 99.868,167.795 z" fill="#000000"/>
    </g>
    <path d="M165.423,74.196 C159.7,74.251 155.059,75.049 153.923,75.735 C151.652,77.106 151.116,80.392 151.818,81.16 C152.52,81.928 163.248,88.819 167.933,91.081 C180.548,97.171 166.645,120.477 155.786,116.306 C148.09,113.351 139.359,104.549 137.889,104.483 C136.419,104.418 134.525,105.409 134.042,107.965 C133.559,110.521 137.051,122.862 145.825,132.462 C156.354,143.982 172.751,131.254 172.751,141.775 L172.751,190.647 C172.756,197.833 178.583,203.656 185.769,203.656 C192.955,203.656 198.782,197.833 198.787,190.647 L198.787,128.211 L198.787,113.634 C198.787,108.167 205.49,86.245 183.32,77.071 C177.945,74.847 171.145,74.142 165.423,74.196 z" fill="#000000"/>
    <path d="M132.622,15.527 C62.552,15.527 5.744,72.335 5.744,142.406 C5.744,212.477 62.552,269.285 132.622,269.285 C202.693,269.285 259.501,212.477 259.501,142.406 C259.501,72.335 202.693,15.527 132.622,15.527 z M132.622,32.913 C193.083,32.913 242.076,81.946 242.076,142.406 C242.076,202.866 193.083,251.86 132.622,251.86 C72.15,252.249 23.977,195.927 23.129,142.406 C23.129,81.946 72.162,32.913 132.622,32.913 z" fill="#000000"/>
    <text transform="matrix(1, 0, 0, 1, 432.484, 152.125)">
      <tspan x="-141.523" y="15.445" font-family="PoliticsHead-Bold" font-size="48" fill="#000000">HACKERSPACE</tspan>
    </text>
    <text transform="matrix(1, 0, 0, 1, 434.332, 225)">
      <tspan x="-143.031" y="-10" font-family="PoliticsHead-Bold" font-size="55" fill="#000000">Magdeburg</tspan>
    </text>
    <text transform="matrix(1, 0, 0, 1, 421.083, 97.875)">
      <tspan x="-132.836" y="28.684" font-family="PoliticsHead-Bold" font-size="90" fill="#000000">Netz39</tspan>
    </text>
  </g>
  <defs/>
</svg>
