<?xml version="1.0" encoding="UTF-8" standalone="no"?>
<!-- Created with Inkscape (http://www.inkscape.org/) -->

<svg
   xmlns:dc="http://purl.org/dc/elements/1.1/"
   xmlns:cc="http://creativecommons.org/ns#"
   xmlns:rdf="http://www.w3.org/1999/02/22-rdf-syntax-ns#"
   xmlns:svg="http://www.w3.org/2000/svg"
   xmlns="http://www.w3.org/2000/svg"
   version="1.1"
   width="102"
   height="102"
   id="tile-to-import-stuff-in-it-1">
  <defs
     id="defs68" />
  <metadata
     id="metadata-1">
    <rdf:RDF>
      <cc:Work
         rdf:about="Space Invader In A Tile">
        <dc:format>image/svg+xml</dc:format>
        <dc:type
           rdf:resource="http://purl.org/dc/dcmitype/StillImage" />
        <dc:title></dc:title>
      </cc:Work>
    </rdf:RDF>
  </metadata>
  <rect
     width="100"
     height="100"
     ry="4.5"
     x="1"
     y="1"
     id="master-tile-1"
     style="fill:none;stroke:#000000;stroke-width:1;stroke-linejoin:round;stroke-miterlimit:4;stroke-opacity:1;stroke-dasharray:none" />
  <g
     transform="matrix(1.5612603,0,0,1.5612603,-3.9284737,-9.5452571)"
     id="translate-the-scale-1">
    <g
       transform="translate(-17,-12)"
       id="translate-the-left-upper-corner-first-1">
      <path
         d="m 48.091971,48.633491 a 3.8890872,3.8890872 0 1 1 -4e-4,8.99e-4"
         id="path3797"
         style="fill:none;stroke:#000000;stroke-width:1;stroke-miterlimit:4;stroke-opacity:1;stroke-dasharray:none" />
      <path
         d="m 46.600351,75.68525 c -1.213165,-1.23865 -2.234099,-2.252091 -2.268742,-2.252091 -0.03464,0 -0.06299,0.763705 -0.06299,1.697123 l 0,1.697122 -1.953534,-2.38209 c -1.074442,-1.31015 -2.002567,-2.351785 -2.0625,-2.314746 -0.05993,0.03704 -0.113893,0.415589 -0.119917,0.841219 -0.006,0.42563 -0.04821,1.050548 -0.09375,1.388708 l -0.0828,0.614838 -1.125,-2.391075 c -0.61875,-1.315091 -1.171089,-2.377967 -1.22742,-2.361946 -0.05633,0.01602 -0.344294,0.759077 -0.639916,1.651237 -0.427583,1.290408 -0.560006,1.570988 -0.647579,1.37211 -0.06055,-0.1375 -0.58821,-1.542098 -1.172585,-3.12133 -0.584375,-1.579231 -1.11875,-2.850701 -1.1875,-2.825487 -0.06875,0.02521 -0.330557,0.586061 -0.581794,1.24633 -0.535355,1.406949 -0.421633,1.693927 -0.981952,-2.477983 -0.20709,-1.541908 -0.399513,-2.826456 -0.427607,-2.85455 -0.02809,-0.02809 -0.434044,0.699094 -0.902113,1.61597 l -0.851033,1.66705 -0.268484,-3.224066 c -0.147666,-1.773237 -0.300238,-3.255821 -0.339048,-3.294632 -0.03881,-0.03881 -0.549897,0.427645 -1.135746,1.036567 l -1.06518,1.107131 -0.0048,-0.464578 c -0.0026,-0.255519 0.110544,-1.766767 0.251486,-3.358327 0.140941,-1.591561 0.226185,-2.923818 0.18943,-2.960575 -0.03676,-0.03675 -0.585702,0.276799 -1.219881,0.696787 -0.634179,0.419987 -1.174484,0.742182 -1.200678,0.715988 -0.02619,-0.02619 0.435562,-1.264235 1.026124,-2.751205 0.590561,-1.48697 1.073747,-2.754766 1.073747,-2.817323 0,-0.06256 -0.61875,0.09965 -1.375,0.360465 -0.75625,0.260815 -1.375,0.454632 -1.375,0.430705 0,-0.02393 0.84787,-1.313468 1.884155,-2.865649 1.036285,-1.55218 1.852212,-2.854088 1.813171,-2.893129 -0.03904,-0.03904 -0.92386,-0.0051 -1.966265,0.0754 -1.042405,0.08051 -1.91021,0.131458 -1.928457,0.11321 -0.01825,-0.01825 0.471415,-0.651608 1.088136,-1.407472 3.128412,-3.834229 4.0129,-4.949825 3.963547,-4.999177 -0.02973,-0.02973 -0.697282,0.137093 -1.483453,0.370713 -0.786172,0.23362 -1.444012,0.410155 -1.461866,0.3923 -0.01786,-0.01785 0.976687,-0.955687 2.210092,-2.084075 1.368081,-1.251596 2.184235,-2.0829 2.092997,-2.13185 -0.08226,-0.04413 -0.627682,-0.119043 -1.212057,-0.166473 -2.241101,-0.181895 -2.319031,-0.08469 1.410511,-1.759299 1.833009,-0.82304 3.334261,-1.531018 3.336116,-1.573284 0.0019,-0.04227 -0.615377,-0.237748 -1.371627,-0.434403 -0.75625,-0.196655 -1.375,-0.388686 -1.375,-0.426735 0,-0.03805 1.026563,-0.283372 2.28125,-0.545162 1.254688,-0.26179 2.548438,-0.532026 2.875,-0.600525 0.326563,-0.0685 0.59375,-0.168448 0.59375,-0.222108 0,-0.05366 -0.628894,-0.513062 -1.397542,-1.020892 l -1.397543,-0.923327 1.678793,-0.09482 c 0.923336,-0.05215 2.376768,-0.136527 3.229851,-0.1875 l 1.55106,-0.09268 -1.225219,-1.107943 -1.225219,-1.107943 0.61166,0.07249 c 0.336413,0.03987 1.932164,0.109499 3.546117,0.154738 3.353638,0.094 3.12822,0.228533 1.894508,-1.130648 -0.371581,-0.409371 -0.625735,-0.760668 -0.564785,-0.78066 0.06095,-0.01999 1.348319,0.290102 2.860819,0.689099 1.5125,0.398997 2.764806,0.691812 2.782904,0.6507 0.0181,-0.04111 -0.192628,-0.602418 -0.468275,-1.247347 -0.275648,-0.64493 -0.487329,-1.18625 -0.470403,-1.202934 0.01693,-0.01668 1.209778,0.499155 2.650783,1.146309 1.441005,0.647154 2.664442,1.176644 2.71875,1.176644 0.05431,0 0.09936,-0.435938 0.100117,-0.96875 7.5e-4,-0.532813 0.03567,-1.176184 0.07759,-1.429714 l 0.07622,-0.460963 2.054207,1.773463 c 1.129815,0.975405 2.098063,1.789102 2.151663,1.808215 0.0536,0.01911 0.205227,-0.56558 0.33695,-1.299319 l 0.239496,-1.33407 1.617381,1.831938 c 0.889559,1.007566 1.656011,1.789134 1.703228,1.736819 0.04722,-0.05232 0.238076,-0.559182 0.424133,-1.126369 0.186059,-0.567188 0.354569,-1.03125 0.374467,-1.03125 0.0199,0 0.554468,0.895834 1.187936,1.990743 0.633466,1.094909 1.223141,2.088368 1.310389,2.207686 0.142021,0.194225 0.234613,0.115991 0.884237,-0.747111 0.51073,-0.678566 0.755573,-0.915897 0.826805,-0.801436 0.05566,0.08944 0.593798,1.329805 1.195859,2.756368 0.602062,1.426562 1.130466,2.59375 1.174231,2.59375 0.04377,0 0.292359,-0.507425 0.552428,-1.12761 0.26007,-0.620185 0.484663,-1.112372 0.499098,-1.09375 0.01443,0.01862 0.26915,0.93386 0.566035,2.03386 0.296885,1.1 0.583918,2.051104 0.637849,2.113566 0.05466,0.0633 0.459948,-0.204157 0.91574,-0.60432 l 0.817684,-0.717887 0,2.448071 c 0,1.346438 0.04219,2.446698 0.09375,2.445021 0.05156,-0.0017 0.570444,-0.139045 1.15307,-0.305263 0.582626,-0.166218 1.068835,-0.29141 1.080465,-0.278202 0.01163,0.01321 -0.168779,1.004675 -0.400906,2.20326 -0.232129,1.198586 -0.398775,2.202524 -0.370327,2.230974 0.02845,0.02845 0.593852,-0.07178 1.256448,-0.22272 0.662596,-0.150945 1.220904,-0.254883 1.240682,-0.230973 0.01978,0.02391 -0.210291,1.190715 -0.511265,2.592901 -0.300975,1.402186 -0.524522,2.572133 -0.496773,2.599881 0.02775,0.02775 0.52113,-0.03123 1.096403,-0.131057 0.575274,-0.09983 1.066339,-0.16189 1.091255,-0.137913 0.03706,0.03567 -1.764608,4.408848 -1.940203,4.70944 -0.02885,0.04938 0.513872,0.466839 1.206041,0.927688 0.692167,0.460847 1.214696,0.875531 1.161174,0.921519 -0.07561,0.06496 -3.898857,3.13808 -4.156194,3.340737 -0.111594,0.08788 0.298245,0.265911 1.707719,0.74181 0.777513,0.262521 1.413661,0.508854 1.413661,0.547404 0,0.03855 -0.970313,0.615069 -2.15625,1.281152 -1.185938,0.666083 -2.235783,1.262569 -2.33299,1.325525 -0.12958,0.08392 0.250715,0.3287 1.425252,0.917365 l 1.601993,0.802899 -2.581503,1.03401 c -1.419826,0.568705 -2.581502,1.076098 -2.581502,1.127539 0,0.05144 0.589155,0.4519 1.309232,0.88991 0.756549,0.460195 1.244652,0.829322 1.15625,0.874414 -0.08414,0.04292 -1.249857,0.375135 -2.590482,0.738261 -1.340625,0.363127 -2.483445,0.70162 -2.539599,0.752207 -0.05615,0.05059 0.407908,0.55968 1.03125,1.131317 0.623341,0.571636 1.133349,1.08538 1.133349,1.141651 0,0.05627 -0.295313,0.10712 -0.65625,0.112996 -0.360938,0.0059 -1.776555,0.104315 -3.145816,0.21875 l -2.489567,0.208066 1.14221,1.30569 c 0.628215,0.71813 1.122763,1.325136 1.098995,1.348904 -0.04581,0.04581 -4.560443,-0.296016 -5.355822,-0.405516 -0.295816,-0.04072 -0.46875,-0.01398 -0.46875,0.07248 0,0.07536 0.332635,0.751022 0.739189,1.501477 0.406555,0.750455 0.729941,1.364464 0.718637,1.364464 -0.0113,0 -1.394969,-0.39272 -3.074812,-0.87271 -1.679843,-0.47999 -3.08047,-0.846501 -3.112504,-0.814467 -0.03203,0.03203 0.403514,0.734128 0.967883,1.56021 0.564368,0.826082 1.005937,1.501967 0.981263,1.501967 -0.02467,0 -1.497878,-0.508186 -3.273788,-1.129304 -1.775909,-0.621117 -3.242545,-1.113305 -3.25919,-1.09375 -0.01664,0.01955 0.212497,0.568537 0.509206,1.219962 0.296707,0.651423 0.521685,1.202191 0.499947,1.223927 -0.02174,0.02174 -1.101253,-0.658126 -2.398926,-1.510806 -1.870011,-1.228755 -2.367307,-1.504996 -2.397501,-1.331781 -0.02095,0.120201 0.05027,0.852107 0.158275,1.626458 0.108002,0.774353 0.175767,1.428514 0.150587,1.453694 -0.02518,0.02518 -1.038371,-0.967659 -2.251536,-2.206309 l 0,0 z M 53.24908,54.277997 c 0.958265,-0.353721 1.857701,-1.138651 2.319852,-2.02451 0.354184,-0.678909 0.387189,-0.844064 0.387189,-1.9375 0,-1.033136 -0.04512,-1.291584 -0.332551,-1.904721 -0.444733,-0.948699 -1.228346,-1.772497 -2.08726,-2.194298 -0.612325,-0.300705 -0.853683,-0.346309 -1.832818,-0.346309 -1.018966,0 -1.206935,0.03904 -1.950625,0.40516 -1.050122,0.516974 -1.857812,1.369292 -2.228056,2.351163 -0.228995,0.607285 -0.271102,0.92708 -0.229594,1.743677 0.160768,3.162777 2.972315,5.00791 5.953863,3.907338 l 0,0 z"
         id="path5356"
         style="fill:#000000;fill-opacity:1" />
    </g>
  </g>
</svg>
