<?xml version="1.0" encoding="UTF-8" standalone="no"?>
<!-- Created with Inkscape (http://www.inkscape.org/) -->

<svg
   xmlns:dc="http://purl.org/dc/elements/1.1/"
   xmlns:cc="http://creativecommons.org/ns#"
   xmlns:rdf="http://www.w3.org/1999/02/22-rdf-syntax-ns#"
   xmlns:svg="http://www.w3.org/2000/svg"
   xmlns="http://www.w3.org/2000/svg"
   version="1.1"
   width="100"
   height="100"
   id="svg3123">
  <defs
     id="defs3125" />
  <metadata
     id="metadata3128">
    <rdf:RDF>
      <cc:Work
         rdf:about="">
        <dc:format>image/svg+xml</dc:format>
        <dc:type
           rdf:resource="http://purl.org/dc/dcmitype/StillImage" />
        <dc:title></dc:title>
      </cc:Work>
    </rdf:RDF>
  </metadata>
  <g
     transform="translate(0,36)"
     id="layer1">
    <g
       transform="matrix(0.25023483,0,0,0.45699985,20.90195,39.345389)"
       id="g7335">
      <path
         d="m 14.729719,37.42947 c -0.05786,-4.424719 4.572036,-14.334949 8.21235,-17.92853 l 5.937077,-7.556109 20.268344,-23.291817 6.023137,8.3040574 -19.92609,21.1943046 C 28.499849,24.439417 22.696078,29.948408 21.583995,42.392134 z"
         id="path3112"
         style="fill:none;stroke:#000000;stroke-width:2.43221903px;stroke-linecap:butt;stroke-linejoin:miter;stroke-opacity:1" />
      <path
         d="M 51.366205,-6.9229096 C 43.075345,5.7834831 44.185933,1.1960126 26.264959,20.320081"
         id="path3148"
         style="fill:none;stroke:#000000;stroke-width:1px;stroke-linecap:butt;stroke-linejoin:miter;stroke-opacity:1" />
      <path
         d="M 52.394243,-3.4961183 C 46.226019,2.1009742 30.550274,17.553744 24.123215,26.145626"
         id="path3150"
         style="fill:none;stroke:#000000;stroke-width:1px;stroke-linecap:butt;stroke-linejoin:miter;stroke-opacity:1" />
      <path
         d="M 47.853743,-4.3528161 C 43.292728,0.58460912 22.659786,18.488935 18.726018,31.371483"
         id="path3152"
         style="fill:none;stroke:#000000;stroke-width:1px;stroke-linecap:butt;stroke-linejoin:miter;stroke-opacity:1" />
      <path
         d="M 46.280647,-5.6068222 C 45.733602,-3.9036613 26.587017,16.534268 26.587017,16.534268"
         id="path3154"
         style="fill:none;stroke:#000000;stroke-width:0.89074177px;stroke-linecap:butt;stroke-linejoin:miter;stroke-opacity:1" />
      <path
         d="M 48.624772,-6.9229096 C 47.680358,-5.0573119 41.157814,0.60913112 33.63256,17.749987"
         id="path3156"
         style="fill:none;stroke:#000000;stroke-width:1px;stroke-linecap:butt;stroke-linejoin:miter;stroke-opacity:1" />
      <path
         d="M 42.492615,-19.737903 C 48.614537,-9.4898813 56.312866,-4.5673921 63.225831,3.0082707 87.087628,-19.671632 111.45612,-40.544815 136.40189,-59.359617"
         id="path3114"
         style="fill:none;stroke:#000000;stroke-width:2.22900009;stroke-linecap:butt;stroke-linejoin:miter;stroke-miterlimit:4;stroke-opacity:1;stroke-dasharray:none;stroke-dashoffset:0;marker-start:none;marker-mid:none" />
      <path
         d="M 59.160495,1.0318424 C 84.415988,-17.590242 107.66142,-37.371604 129.08428,-58.204112"
         id="path3116"
         style="fill:none;stroke:#000000;stroke-width:2.22900009;stroke-linecap:butt;stroke-linejoin:miter;stroke-miterlimit:4;stroke-opacity:1;stroke-dasharray:none;stroke-dashoffset:0;marker-start:none;marker-mid:none" />
      <path
         d="m 127.45815,-54.060683 c -1.62614,0.46134 -64.827674,47.5519513 -64.827674,47.5519513"
         id="path3118"
         style="fill:none;stroke:#000000;stroke-width:2.22900009;stroke-linecap:butt;stroke-linejoin:miter;stroke-miterlimit:4;stroke-opacity:1;stroke-dasharray:none;stroke-dashoffset:0;marker-start:none;marker-mid:none" />
      <path
         d="M 56.314759,-10.587868 C 74.88324,-29.068056 103.76035,-46.498446 122.62556,-54.442488"
         id="path3120"
         style="fill:none;stroke:#000000;stroke-width:2.22900009;stroke-linecap:butt;stroke-linejoin:miter;stroke-miterlimit:4;stroke-opacity:1;stroke-dasharray:none;stroke-dashoffset:0;marker-start:none;marker-mid:none" />
      <path
         d="M 112.4164,-48.412509 C 106.56347,-49.287557 52.316217,-4.2323651 53.469024,-3.7971275"
         id="path3122"
         style="fill:none;stroke:#000000;stroke-width:2.22900009;stroke-linecap:butt;stroke-linejoin:miter;stroke-miterlimit:4;stroke-opacity:1;stroke-dasharray:none;stroke-dashoffset:0;marker-start:none;marker-mid:none" />
      <path
         d="M 48.590619,-7.9362445 C 64.281513,-21.094312 89.678718,-40.476621 106.9282,-51.135921"
         id="path3124"
         style="fill:none;stroke:#000000;stroke-width:2.22900009;stroke-linecap:butt;stroke-linejoin:miter;stroke-miterlimit:4;stroke-opacity:1;stroke-dasharray:none;stroke-dashoffset:0;marker-start:none;marker-mid:none" />
      <path
         d="M 45.744884,-11.455357 C 68.156159,-27.326986 74.269496,-40.962732 113.63601,-59.16042"
         id="path3126"
         style="fill:none;stroke:#000000;stroke-width:2.22900009;stroke-linecap:butt;stroke-linejoin:miter;stroke-miterlimit:4;stroke-opacity:1;stroke-dasharray:none;stroke-dashoffset:0;marker-start:none;marker-mid:none" />
      <path
         d="m 39.240346,-19.183434 c 31.032069,-23.501567 52.425482,-45.86912 93.096214,-70.504707"
         id="path3128"
         style="fill:none;stroke:#000000;stroke-width:2.22900009;stroke-linecap:butt;stroke-linejoin:miter;stroke-miterlimit:4;stroke-opacity:1;stroke-dasharray:none;stroke-dashoffset:0;marker-start:none;marker-mid:none" />
      <path
         d="m 137.21496,-59.037973 c -9.11851,-4.276455 -15.33603,-11.721919 -22.76588,-17.843044"
         id="path3130"
         style="fill:none;stroke:#000000;stroke-width:2.22900009;stroke-linecap:butt;stroke-linejoin:miter;stroke-miterlimit:4;stroke-opacity:1;stroke-dasharray:none;stroke-dashoffset:0;marker-start:none;marker-mid:none" />
      <path
         d="m 138.02803,-55.770657 c -4.2164,0.578163 -29.245,-19.573846 -28.45736,-20.094551"
         id="path3132"
         style="fill:none;stroke:#000000;stroke-width:2.22900009;stroke-linecap:butt;stroke-linejoin:miter;stroke-miterlimit:4;stroke-opacity:1;stroke-dasharray:none;stroke-dashoffset:0;marker-start:none;marker-mid:none" />
      <path
         d="m 139.65416,-57.704831 c -9.07108,-8.693117 -19.31069,-14.788111 -30.08349,-21.842467"
         id="path3134"
         style="fill:none;stroke:#000000;stroke-width:2.22900009;stroke-linecap:butt;stroke-linejoin:miter;stroke-miterlimit:4;stroke-opacity:1;stroke-dasharray:none;stroke-dashoffset:0;marker-start:none;marker-mid:none" />
      <path
         d="m 124.61241,-82.618008 c -23.57895,14.595081 -47.157903,30.208311 -70.736853,47.499833"
         id="path3136"
         style="fill:none;stroke:#000000;stroke-width:2.22900009;stroke-linecap:butt;stroke-linejoin:miter;stroke-miterlimit:4;stroke-opacity:1;stroke-dasharray:none;stroke-dashoffset:0;marker-start:none;marker-mid:none" />
      <path
         d="m 60.786629,-43.614578 c 17.3304,-12.756085 34.608189,-25.613991 53.255911,-35.82062"
         id="path3138"
         style="fill:none;stroke:#000000;stroke-width:2.22900009;stroke-linecap:butt;stroke-linejoin:miter;stroke-miterlimit:4;stroke-opacity:1;stroke-dasharray:none;stroke-dashoffset:0;marker-start:none;marker-mid:none" />
      <path
         d="m 125.83201,-72.746212 c -1.62612,1.197757 -71.956453,57.143114 -71.956453,57.143114"
         id="path3140"
         style="fill:none;stroke:#000000;stroke-width:2.22900009;stroke-linecap:butt;stroke-linejoin:miter;stroke-miterlimit:4;stroke-opacity:1;stroke-dasharray:none;stroke-dashoffset:0;marker-start:none;marker-mid:none" />
      <path
         d="m 113.22947,-67.237736 c -1.85299,-2.21881 -55.787102,42.310141 -56.508177,43.739271"
         id="path3142"
         style="fill:none;stroke:#000000;stroke-width:2.22900009;stroke-linecap:butt;stroke-linejoin:miter;stroke-miterlimit:4;stroke-opacity:1;stroke-dasharray:none;stroke-dashoffset:0;marker-start:none;marker-mid:none" />
      <path
         d="m 51.842889,-20.641611 c -0.456446,-2.079213 40.703919,-36.800987 42.279499,-36.296618"
         id="path3144"
         style="fill:none;stroke:#000000;stroke-width:2.22900009;stroke-linecap:butt;stroke-linejoin:miter;stroke-miterlimit:4;stroke-opacity:1;stroke-dasharray:none;stroke-dashoffset:0;marker-start:none;marker-mid:none" />
      <path
         d="M 46.964485,-19.994012 C 51.710016,-28.409487 107.60639,-67.790296 107.538,-67.648197"
         id="path3146"
         style="fill:none;stroke:#000000;stroke-width:2.22900009;stroke-linecap:butt;stroke-linejoin:miter;stroke-miterlimit:4;stroke-opacity:1;stroke-dasharray:none;stroke-dashoffset:0;marker-start:none;marker-mid:none" />
      <path
         d="M 72.169572,-24.383203 C 89.213818,-39.211371 103.49008,-46.673247 118.51441,-56.125928"
         id="path3158"
         style="fill:none;stroke:#000000;stroke-width:2.22900009;stroke-linecap:butt;stroke-linejoin:miter;stroke-miterlimit:4;stroke-opacity:1;stroke-dasharray:none;stroke-dashoffset:0;marker-start:none;marker-mid:none" />
      <path
         d="m 66.071567,-27.347846 c 1.626134,-1.565967 41.059903,-28.862588 41.059903,-28.862588"
         id="path3160"
         style="fill:none;stroke:#000000;stroke-width:2.22900009;stroke-linecap:butt;stroke-linejoin:miter;stroke-miterlimit:4;stroke-opacity:1;stroke-dasharray:none;stroke-dashoffset:0;marker-start:none;marker-mid:none" />
      <path
         d="m 126.94243,-74.642037 c 2.32229,-1.282424 3.53359,-3.660551 6.85236,-5.646414 1.43697,-0.688098 5.29444,-3.804738 6.7301,-4.495553 5.90164,-3.335799 8.90767,-6.912506 15.24862,-9.307559 4.66398,-1.761641 13.54922,-5.855376 17.57818,-8.763657 2.65718,-1.91807 13.08706,-4.21367 15.75361,-4.9878 7.6261,-2.08764 9.92635,-2.21213 17.50687,-4.46125 5.14523,-1.52658 7.59122,1.64313 12.46388,-0.38878 1.74722,-0.72859 5.61207,0.82286 7.32771,0.0227 4.38317,-2.05574 6.22249,0.34577 10.24087,-2.32736 l 14.67435,2.78222 -17.44637,-2.42311 c -5.5838,3.66844 -5.19035,-1.48555 -11.21921,1.42009 -1.6901,0.7714 -8.50637,-0.62499 -9.18957,1.10264 -1.41007,3.56569 -9.60413,-1.38723 -14.70892,-0.0133 -7.59524,2.04416 -10.05523,3.03484 -17.64272,5.10639 -2.6684,0.77778 -9.956,5.38185 -12.6091,6.21032 -4.80182,1.499431 -9.44893,9.201027 -17.66552,9.339427 -5.51514,0.0929 -0.75396,1.80542 -5.6227,4.288637 -1.81943,0.927972 -7.2295,1.939847 -7.57305,5.090568 -7.16307,5.67542 -8.37148,8.286308 -16.22622,11.663553 8.67418,-6.437189 -2.50088,0.526877 5.52683,-4.211742 z"
         id="path7307"
         style="fill:#000000;fill-opacity:1;stroke:#000000;stroke-width:2.22900009;stroke-miterlimit:4;stroke-opacity:1;stroke-dasharray:none;stroke-dashoffset:0" />
      <path
         d="m 129.54477,-64.834436 c 0.53025,-1.394003 -0.45191,-0.425285 0.49113,-1.603649 0.98128,-1.22615 -0.66825,-2.95548 0.48751,-3.99808 5.90982,-4.41206 17.54284,-9.98997 23.72383,-13.02958 7.9861,-3.75596 -5.13731,-3.82854 2.54948,-6.48894 2.73296,-0.94408 19.19048,-4.57857 21.92731,-5.51138 2.90479,-0.99005 9.74229,-5.944525 12.64542,-6.939405 5.29822,-1.81566 12.41902,-1.55185 17.768,-3.11951 3.20942,-0.9406 8.1747,-1.90109 11.40535,-2.76597 8.757,-2.10573 17.74089,0.26338 26.63419,-1.17883 6.23636,-1.01134 11.82394,-3.92741 18.107,-4.55976 5.12036,-0.49211 4.61207,1.44376 9.06331,1.04047 l -5.58362,1.01683 0,0 c -4.24976,0.25376 -1.96041,0.10673 -6.86736,0.45148 -4.58357,0.37532 -11.39592,-1.39997 -16.14839,-0.81747 -11.23039,1.37649 -19.68279,2.2841 -28.5361,7.10589 -3.23797,0.87724 -16.77777,1.16474 -19.99427,2.11769 -5.07704,1.50417 -5.94802,2.13305 -10.99103,3.874245 -2.92955,1.01148 -9.621,2.55882 -12.55079,3.5696 -2.76238,0.95302 0.45906,3.92427 -2.29825,4.89187 -5.17704,1.81381 -19.94946,5.57042 -24.62524,7.60641 -5.65866,2.47466 -2.79732,2.66034 -8.04568,5.41617 -4.328,2.57264 -0.47602,3.49216 -3.71897,7.31606 -0.91,1.09445 -7.07289,2.61158 -7.53039,3.93763 z"
         id="path7333"
         style="fill:#000000;fill-opacity:1;stroke:#000000;stroke-width:2.22900009;stroke-miterlimit:4;stroke-opacity:1;stroke-dasharray:none;stroke-dashoffset:0" />
    </g>
    <path
       d="m 24.07334,58.216949 c -1.731072,-1.83722 -2.715963,-8.042356 -3.699381,-10.459289 -0.874444,-5.738796 -1.392758,-8.393744 0.156927,-11.07653 0.884879,-2.243285 7.611634,-5.646137 11.816524,-11.011078 0.724909,-0.971034 2.463354,-4.133973 3.051329,-5.264618 8.201342,-14.5237036 3.358085,-21.09476354 0.419222,-27.0410815 -1.507584,-3.159128 -0.370627,-0.4612787 -1.710645,-3.7022855 -0.621883,-1.698874 0.552546,-7.418053 0.332032,-9.52603 1.793096,-8.596107 4.171571,-2.02771 0.906877,-11.939003 l 0.399123,-1.947034 0,0 c 0.600457,1.791965 1.281543,3.537501 1.80137,5.375889 1.288004,4.555087 -3.436221,5.479847 -2.670268,10.228662 -0.616241,4.037413 -0.04867,5.957942 0.04176,7.767089 0.09107,1.8216362 1.827789,2.9881941 2.423643,4.8875676 3.230301,9.2046715 0.407445,19.7342584 -0.03009,25.4406414 -0.108103,1.377841 -3.47943,5.313716 -4.19591,6.294741 -4.903167,4.942223 -6.997091,4.692867 -11.161098,10.216743 -3.424783,3.995203 -0.728183,17.568746 4.041415,20.146058 z"
       id="path7364"
       style="opacity:0.32000002;fill:#000000;fill-opacity:1;stroke:#000000;stroke-width:0.04257702;stroke-miterlimit:4;stroke-opacity:1;stroke-dasharray:none;stroke-dashoffset:0" />
  </g>
</svg>
