<?xml version="1.0" encoding="UTF-8" standalone="no"?>
<svg
   xmlns:dc="http://purl.org/dc/elements/1.1/"
   xmlns:cc="http://creativecommons.org/ns#"
   xmlns:rdf="http://www.w3.org/1999/02/22-rdf-syntax-ns#"
   xmlns:svg="http://www.w3.org/2000/svg"
   xmlns="http://www.w3.org/2000/svg"
   xmlns:sodipodi="http://sodipodi.sourceforge.net/DTD/sodipodi-0.dtd"
   xmlns:inkscape="http://www.inkscape.org/namespaces/inkscape"
   version="1.1"
   width="500"
   height="500"
   id="on-off"
   inkscape:version="0.48.4 r9939"
   sodipodi:docname="netz39-logo.17c.b00t.sk.svg">
  <sodipodi:namedview
     pagecolor="#ffffff"
     bordercolor="#666666"
     borderopacity="1"
     objecttolerance="10"
     gridtolerance="10"
     guidetolerance="10"
     inkscape:pageopacity="0"
     inkscape:pageshadow="2"
     inkscape:window-width="1680"
     inkscape:window-height="867"
     id="namedview8"
     showgrid="false"
     inkscape:zoom="0.944"
     inkscape:cx="382.35898"
     inkscape:cy="247.37321"
     inkscape:window-x="0"
     inkscape:window-y="24"
     inkscape:window-maximized="1"
     inkscape:current-layer="on-off"
     showguides="true"
     inkscape:guide-bbox="true">
    <sodipodi:guide
       orientation="0,1"
       position="775.27068,-57.677142"
       id="guide3006" />
  </sodipodi:namedview>
  <defs
     id="defs4" />
  <metadata
     id="metadata7">
    <rdf:RDF>
      <cc:Work
         rdf:about="Netz39">
        <dc:format>image/svg+xml</dc:format>
        <dc:type
           rdf:resource="http://purl.org/dc/dcmitype/StillImage" />
        <dc:title></dc:title>
      </cc:Work>
    </rdf:RDF>
  </metadata>
  <path
     style="fill:none;stroke:#000000;stroke-width:5;stroke-linecap:butt;stroke-linejoin:miter;stroke-miterlimit:4;stroke-opacity:1;stroke-dasharray:none"
     d="M 195.97458,42.372881 462.39408,253.70763 198.09323,273.83475 z"
     id="path3986"
     inkscape:connector-curvature="0"
     sodipodi:nodetypes="cccc" />
  <g
     transform="translate(0,-552.36218)"
     id="layer1" />
  <path
     style="fill:#000000;fill-opacity:1;stroke:#000000;stroke-width:1px;stroke-linecap:butt;stroke-linejoin:miter;stroke-opacity:1"
     d="m 98.875101,401.1249 -97.0388252,-96.10194 98.2990542,-2.37939 67.72712,0.30792 8.34316,-245.190575 23.79175,-56.630746 0,301.868681 300.37057,0 -99.24963,99.24963 z"
     id="path3010"
     inkscape:connector-curvature="0"
     sodipodi:nodetypes="cccccccccc" />
  <path
     style="fill:#ffffff;fill-opacity:1;stroke:#000080;stroke-width:5;stroke-linecap:butt;stroke-linejoin:miter;stroke-miterlimit:4;stroke-opacity:1;stroke-dasharray:none"
     d="m 17.538506,402.93328 c 47.192218,-43.26241 59.227123,3.8e-4 101.732534,0.94605 30.12527,0.67023 12.96312,-35.73143 90.02671,-17.45745 25.66441,6.08576 24.25426,18.29916 65.99761,17.44628 18.15851,-0.37101 -0.0827,-31.75188 71.14034,-16.45605 20.97083,4.50368 32.28031,17.17903 71.84196,16.18717 27.91467,-0.69985 2.1675,-45.3682 74.91001,0.0831"
     id="path3885"
     inkscape:connector-curvature="0"
     sodipodi:nodetypes="csssssc" />
  <path
     style="fill:#ffffff;fill-opacity:1;stroke:#000080;stroke-width:5;stroke-linecap:butt;stroke-linejoin:miter;stroke-miterlimit:4;stroke-opacity:1;stroke-dasharray:none"
     d="m 19.100873,430.18698 c 27.716818,-27.53228 78.7045,0.57347 101.732527,0.94605 15.89941,0.25725 53.339,-19.82542 92.27387,-11.46502 15.47341,3.32257 41.58512,12.47225 63.75045,11.45385 13.69381,-0.62917 42.66216,-16.23966 71.14034,-10.46362 17.27872,3.50453 39.0595,11.84704 71.84196,10.19474 21.17864,-1.06744 33.62776,-22.14753 74.91001,0.0831"
     id="path3885-5"
     inkscape:connector-curvature="0"
     sodipodi:nodetypes="csssssc" />
  <path
     style="fill:#ffffff;fill-opacity:1;stroke:#000080;stroke-width:5;stroke-linecap:butt;stroke-linejoin:miter;stroke-miterlimit:4;stroke-opacity:1;stroke-dasharray:none"
     d="m 16.85371,460.07936 c 17.230065,-15.54742 85.42065,0.28208 101.73253,0.94605 9.87122,0.40181 63.0767,-10.83677 90.02671,-6.22164 15.59904,2.6713 43.83228,7.22887 65.99761,6.21047 13.69381,-0.62917 43.41121,-9.49818 71.88939,-3.72214 17.27872,3.50453 38.31045,5.10556 71.09291,3.45326 21.17864,-1.06744 49.35789,-13.90794 74.91001,0.0831"
     id="path3885-5-4"
     inkscape:connector-curvature="0"
     sodipodi:nodetypes="csssssc" />
  <path
     style="fill:none;stroke:#000000;stroke-width:5;stroke-linecap:butt;stroke-linejoin:miter;stroke-miterlimit:4;stroke-opacity:1;stroke-dasharray:none"
     d="M 176.11228,79.713982 172.40467,296.34534 37.341101,280.45551 z"
     id="path3986-1"
     inkscape:connector-curvature="0"
     sodipodi:nodetypes="cccc" />
</svg>
