<?xml version="1.0" encoding="UTF-8" standalone="no"?>
<!-- Created with Inkscape (http://www.inkscape.org/) -->

<svg
   xmlns:dc="http://purl.org/dc/elements/1.1/"
   xmlns:cc="http://creativecommons.org/ns#"
   xmlns:rdf="http://www.w3.org/1999/02/22-rdf-syntax-ns#"
   xmlns:svg="http://www.w3.org/2000/svg"
   xmlns="http://www.w3.org/2000/svg"
   version="1.1"
   width="600"
   height="500"
   id="svg2">
  <defs
     id="defs4">
    <marker
       refX="0"
       refY="0"
       orient="auto"
       id="SquareS"
       style="overflow:visible">
      <path
         d="M -5,-5 -5,5 5,5 5,-5 -5,-5 z"
         transform="scale(0.2,0.2)"
         id="path3891"
         style="fill-rule:evenodd;stroke:#000000;stroke-width:1pt" />
    </marker>
    <marker
       refX="0"
       refY="0"
       orient="auto"
       id="DotM"
       style="overflow:visible">
      <path
         d="m -2.5,-1 c 0,2.76 -2.24,5 -5,5 -2.76,0 -5,-2.24 -5,-5 0,-2.76 2.24,-5 5,-5 2.76,0 5,2.24 5,5 z"
         transform="matrix(0.4,0,0,0.4,2.96,0.4)"
         id="path3879"
         style="fill-rule:evenodd;stroke:#000000;stroke-width:1pt" />
    </marker>
    <marker
       refX="0"
       refY="0"
       orient="auto"
       id="Tail"
       style="overflow:visible">
      <g
         transform="scale(-1.2,-1.2)"
         id="g3851">
        <path
           d="M -3.8048674,-3.9585227 0.54352094,0"
           id="path3853"
           style="fill:none;stroke:#000000;stroke-width:0.80000001;stroke-linecap:round" />
        <path
           d="M -1.2866832,-3.9585227 3.0617053,0"
           id="path3855"
           style="fill:none;stroke:#000000;stroke-width:0.80000001;stroke-linecap:round" />
        <path
           d="M 1.3053582,-3.9585227 5.6537466,0"
           id="path3857"
           style="fill:none;stroke:#000000;stroke-width:0.80000001;stroke-linecap:round" />
        <path
           d="M -3.8048674,4.1775838 0.54352094,0.21974226"
           id="path3859"
           style="fill:none;stroke:#000000;stroke-width:0.80000001;stroke-linecap:round" />
        <path
           d="M -1.2866832,4.1775838 3.0617053,0.21974226"
           id="path3861"
           style="fill:none;stroke:#000000;stroke-width:0.80000001;stroke-linecap:round" />
        <path
           d="M 1.3053582,4.1775838 5.6537466,0.21974226"
           id="path3863"
           style="fill:none;stroke:#000000;stroke-width:0.80000001;stroke-linecap:round" />
      </g>
    </marker>
    <marker
       refX="0"
       refY="0"
       orient="auto"
       id="Arrow1Mend"
       style="overflow:visible">
      <path
         d="M 0,0 5,-5 -12.5,0 5,5 0,0 z"
         transform="matrix(-0.4,0,0,-0.4,-4,0)"
         id="path3824"
         style="fill-rule:evenodd;stroke:#000000;stroke-width:1pt" />
    </marker>
    <marker
       refX="0"
       refY="0"
       orient="auto"
       id="Arrow1Lstart"
       style="overflow:visible">
      <path
         d="M 0,0 5,-5 -12.5,0 5,5 0,0 z"
         transform="matrix(0.8,0,0,0.8,10,0)"
         id="path3815"
         style="fill-rule:evenodd;stroke:#000000;stroke-width:1pt" />
    </marker>
  </defs>
  <metadata
     id="metadata7">
    <rdf:RDF>
      <cc:Work
         rdf:about="">
        <dc:format>image/svg+xml</dc:format>
        <dc:type
           rdf:resource="http://purl.org/dc/dcmitype/StillImage" />
        <dc:title></dc:title>
      </cc:Work>
    </rdf:RDF>
  </metadata>
  <g
     transform="translate(0,-552.36218)"
     id="layer1">
    <path
       d="m 461.90518,403.77481 a 215.16249,215.16249 0 1 1 0.34895,-188.67197"
       transform="translate(-12.121831,492.76318)"
       id="path2987"
       style="fill:none;stroke:#000000;stroke-width:65;stroke-linecap:round;stroke-linejoin:round;stroke-miterlimit:4;stroke-opacity:1;stroke-dasharray:none;marker-start:none;marker-mid:none" />
    <path
       d="m 283.33293,800.7624 234.09797,0"
       id="path5452"
       style="fill:#ffffff;stroke:#000000;stroke-width:80;stroke-linecap:round;stroke-linejoin:miter;stroke-miterlimit:4;stroke-opacity:1;stroke-dasharray:none" />
    <text
       x="260.31171"
       y="907.72162"
       transform="scale(1.1012876,0.90802803)"
       id="text5454"
       xml:space="preserve"
       style="font-size:71.58369446px;font-style:normal;font-variant:normal;font-weight:normal;font-stretch:normal;line-height:125%;letter-spacing:0px;word-spacing:0px;fill:#ffffff;fill-opacity:1;stroke:none;font-family:Comfortaa;-inkscape-font-specification:Comfortaa"><tspan
         x="260.31171"
         y="907.72162"
         id="tspan5477"
         style="font-style:normal;font-variant:normal;font-weight:normal;font-stretch:normal;font-family:Comfortaa;-inkscape-font-specification:Comfortaa">Netz39</tspan></text>
  </g>
</svg>
