<?xml version="1.0" encoding="UTF-8" standalone="no"?>
<svg
   xmlns:dc="http://purl.org/dc/elements/1.1/"
   xmlns:cc="http://creativecommons.org/ns#"
   xmlns:rdf="http://www.w3.org/1999/02/22-rdf-syntax-ns#"
   xmlns:svg="http://www.w3.org/2000/svg"
   xmlns="http://www.w3.org/2000/svg"
   xmlns:sodipodi="http://sodipodi.sourceforge.net/DTD/sodipodi-0.dtd"
   xmlns:inkscape="http://www.inkscape.org/namespaces/inkscape"
   version="1.1"
   x="0px"
   y="0px"
   width="193.16536"
   height="78.321434"
   viewBox="0 0 193.16536 78.321437"
   id="svg2"
   inkscape:version="0.48.3.1 r9886"
   sodipodi:docname="netz39_stempel_offiziell.svg">
  <metadata
     id="metadata33">
    <rdf:RDF>
      <cc:Work
         rdf:about="">
        <dc:format>image/svg+xml</dc:format>
        <dc:type
           rdf:resource="http://purl.org/dc/dcmitype/StillImage" />
        <dc:title />
      </cc:Work>
    </rdf:RDF>
  </metadata>
  <sodipodi:namedview
     pagecolor="#ffffff"
     bordercolor="#666666"
     borderopacity="1"
     objecttolerance="10"
     gridtolerance="10"
     guidetolerance="10"
     inkscape:pageopacity="0"
     inkscape:pageshadow="2"
     inkscape:window-width="1680"
     inkscape:window-height="995"
     id="namedview31"
     showgrid="false"
     inkscape:zoom="4.8383459"
     inkscape:cx="106"
     inkscape:cy="34.098894"
     inkscape:window-x="1678"
     inkscape:window-y="-3"
     inkscape:window-maximized="1"
     inkscape:current-layer="svg2"
     inkscape:document-units="mm"
     units="mm"
     fit-margin-top="1"
     fit-margin-right="1"
     fit-margin-bottom="1"
     fit-margin-left="1" />
  <text
     id="text17"
     x="413.53683"
     y="-49.9842"
     style="font-size:12px">
    <tspan
       style="font-size:48px;font-style:normal;font-variant:normal;font-weight:bold;font-stretch:normal;fill:#000000;font-family:Politics Head;-inkscape-font-specification:Politics Head Bold"
       id="tspan19"
       font-size="48"
       y="-34.539192"
       x="272.01382" />
  </text>
  <text
     id="text21"
     x="415.38483"
     y="22.890802"
     style="font-size:12px">
    <tspan
       style="font-size:55px;font-style:normal;font-variant:normal;font-weight:bold;font-stretch:normal;fill:#000000;font-family:Politics Head;-inkscape-font-specification:Politics Head Bold"
       id="tspan23"
       font-size="55"
       y="12.890801"
       x="272.35382" />
  </text>
  <g
     id="g3068"
     transform="translate(2.1815537e-6,-2.1673764)">
    <g
       transform="matrix(0.28071883,0,0,0.28071883,1.9308535,1.3520459)"
       id="g3064">
      <path
         style="fill:#000000"
         inkscape:connector-curvature="0"
         id="path5"
         d="m 68.69,86.58601 0,10.406 47.253,0 c -9.528,9.543 -19.07,19.073 -28.627,28.587 l 12.593,0 c 20.112,0 36.401,16.329 36.401,36.441 0,20.113 -16.289,36.402 -36.401,36.402 -20.112,0 -36.442,-16.289 -36.442,-36.402 l -10.406,0 c 0,25.859 20.989,46.808 46.848,46.808 25.858,0 46.807,-20.949 46.807,-46.808 0,-21.992 -15.152,-40.48 -35.591,-45.511 l 29.963,-29.923 z" />
      <g
         id="g7"
         transform="translate(0,9.756511e-6)">
        <path
           style="fill:#000000"
           inkscape:connector-curvature="0"
           id="path9"
           d="m 99.868,191.198 c 15.803,0 28.627,-12.824 28.627,-28.627 0,-12.131 -7.56,-22.487 -18.221,-26.643 l 0,11.743 c 4.724,3.282 7.815,8.711 7.815,14.9 0,10.056 -8.165,18.221 -18.221,18.221 -10.056,0 -18.18,-8.165 -18.18,-18.221 0,-6.179 3.075,-11.617 7.774,-14.9 l 0,-11.743 c -10.649,4.156 -18.18,14.512 -18.18,26.643 0,15.803 12.784,28.627 28.586,28.627 z" />
        <path
           style="fill:#000000"
           inkscape:connector-curvature="0"
           id="path11"
           d="m 99.868,167.795 c 2.873,0 5.224,-2.35 5.224,-5.224 l 0,-31.178 -10.407,0 0,31.178 c 0,2.874 2.31,5.224 5.183,5.224 z" />
      </g>
      <path
         style="fill:#000000"
         inkscape:connector-curvature="0"
         id="path13"
         d="m 165.423,74.19601 c -5.723,0.055 -10.364,0.853 -11.5,1.539 -2.271,1.371 -2.807,4.657 -2.105,5.425 0.702,0.768 11.43,7.659 16.115,9.921 12.615,6.09 -1.288,29.396 -12.147,25.225 -7.696,-2.955 -16.427,-11.757 -17.897,-11.823 -1.47,-0.065 -3.364,0.926 -3.847,3.482 -0.483,2.556 3.009,14.897 11.783,24.497 10.529,11.52 26.926,-1.208 26.926,9.313 l 0,48.872 c 0.005,7.186 5.832,13.009 13.018,13.009 7.186,0 13.013,-5.823 13.018,-13.009 l 0,-62.436 0,-14.577 c 0,-5.467 6.703,-27.389 -15.467,-36.563 -5.375,-2.224 -12.175,-2.929 -17.897,-2.875 z" />
      <path
         style="fill:#000000"
         inkscape:connector-curvature="0"
         id="path15"
         d="m 132.622,15.52701 c -70.07,0 -126.878,56.808 -126.878,126.879 0,70.071 56.808,126.879 126.878,126.879 70.071,0 126.879,-56.808 126.879,-126.879 0,-70.071 -56.808,-126.879 -126.879,-126.879 z m 0,17.386 c 60.461,0 109.454,49.033 109.454,109.493 0,60.46 -48.993,109.454 -109.454,109.454 -60.472,0.389 -108.645,-55.933 -109.493,-109.454 0,-60.46 49.033,-109.493 109.493,-109.493 z" />
    </g>
    <text
       sodipodi:linespacing="125%"
       style="font-size:10.32841873px;font-style:normal;font-variant:normal;font-weight:bold;font-stretch:normal;text-align:end;line-height:125%;writing-mode:lr-tb;text-anchor:end;font-family:Politics Head;-inkscape-font-specification:Politics Head Bold"
       y="12.292025"
       x="189.98012"
       id="text25">
      <tspan
         id="tspan3054"
         sodipodi:role="line"
         x="189.98012"
         y="12.292025">Netz39 e.V.</tspan>
      <tspan
         id="tspan3056"
         sodipodi:role="line"
         x="189.98012"
         y="25.202549">Leibnizstraße 32</tspan>
      <tspan
         id="tspan3058"
         sodipodi:role="line"
         x="189.98012"
         y="38.113071">39104 Magdeburg</tspan>
      <tspan
         id="tspan3060"
         sodipodi:role="line"
         x="189.98012"
         y="51.023594">kontakt@netz39.de</tspan>
      <tspan
         id="tspan3062"
         sodipodi:role="line"
         x="189.98012"
         y="63.93412">Amtsgericht Stendal</tspan>
      <tspan
         id="tspan3064"
         sodipodi:role="line"
         x="189.98012"
         y="76.844643">Registernummer: VR3169</tspan>
      <tspan
         id="tspan3066"
         sodipodi:role="line"
         x="189.98012"
         y="89.755165"></tspan>
    </text>
  </g>
  <defs
     id="defs29" />
</svg>
