<?xml version="1.0" encoding="UTF-8" standalone="no"?>
<!-- Created with Inkscape (http://www.inkscape.org/) -->

<svg
   xmlns:dc="http://purl.org/dc/elements/1.1/"
   xmlns:cc="http://creativecommons.org/ns#"
   xmlns:rdf="http://www.w3.org/1999/02/22-rdf-syntax-ns#"
   xmlns:svg="http://www.w3.org/2000/svg"
   xmlns="http://www.w3.org/2000/svg"
   version="1.1"
   width="600"
   height="300"
   viewBox="0 0 600 300"
   id="svg2">
  <metadata
     id="metadata33">
    <rdf:RDF>
      <cc:Work
         rdf:about="">
        <dc:format>image/svg+xml</dc:format>
        <dc:type
           rdf:resource="http://purl.org/dc/dcmitype/StillImage" />
        <dc:title></dc:title>
      </cc:Work>
    </rdf:RDF>
  </metadata>
  <g
     id="Layer 1">
    <path
       d="m 68.69,86.586 0,10.406 47.253,0 c -9.528,9.543 -19.07,19.073 -28.627,28.587 l 12.593,0 c 20.112,0 36.401,16.329 36.401,36.441 0,20.113 -16.289,36.402 -36.401,36.402 -20.112,0 -36.442,-16.289 -36.442,-36.402 l -10.406,0 c 0,25.859 20.989,46.808 46.848,46.808 25.858,0 46.807,-20.949 46.807,-46.808 0,-21.992 -15.152,-40.48 -35.591,-45.511 l 29.963,-29.923 z"
       id="path5"
       style="fill:#000000" />
    <g
       id="g7">
      <path
         d="m 99.868,191.198 c 15.803,0 28.627,-12.824 28.627,-28.627 0,-12.131 -7.56,-22.487 -18.221,-26.643 l 0,11.743 c 4.724,3.282 7.815,8.711 7.815,14.9 0,10.056 -8.165,18.221 -18.221,18.221 -10.056,0 -18.18,-8.165 -18.18,-18.221 0,-6.179 3.075,-11.617 7.774,-14.9 l 0,-11.743 c -10.649,4.156 -18.18,14.512 -18.18,26.643 0,15.803 12.784,28.627 28.586,28.627 z"
         id="path9"
         style="fill:#000000" />
      <path
         d="m 99.868,167.795 c 2.873,0 5.224,-2.35 5.224,-5.224 l 0,-31.178 -10.407,0 0,31.178 c 0,2.874 2.31,5.224 5.183,5.224 z"
         id="path11"
         style="fill:#000000" />
    </g>
    <path
       d="m 165.423,74.196 c -5.723,0.055 -10.364,0.853 -11.5,1.539 -2.271,1.371 -2.807,4.657 -2.105,5.425 0.702,0.768 11.43,7.659 16.115,9.921 12.615,6.09 -1.288,29.396 -12.147,25.225 -7.696,-2.955 -16.427,-11.757 -17.897,-11.823 -1.47,-0.065 -3.364,0.926 -3.847,3.482 -0.483,2.556 3.009,14.897 11.783,24.497 10.529,11.52 26.926,-1.208 26.926,9.313 l 0,48.872 c 0.005,7.186 5.832,13.009 13.018,13.009 7.186,0 13.013,-5.823 13.018,-13.009 l 0,-62.436 0,-14.577 c 0,-5.467 6.703,-27.389 -15.467,-36.563 -5.375,-2.224 -12.175,-2.929 -17.897,-2.875 z"
       id="path13"
       style="fill:#000000" />
    <path
       d="m 132.622,15.527 c -70.07,0 -126.878,56.808 -126.878,126.879 0,70.071 56.808,126.879 126.878,126.879 70.071,0 126.879,-56.808 126.879,-126.879 0,-70.071 -56.808,-126.879 -126.879,-126.879 z m 0,17.386 c 60.461,0 109.454,49.033 109.454,109.493 0,60.46 -48.993,109.454 -109.454,109.454 C 72.15,252.249 23.977,195.927 23.129,142.406 23.129,81.946 72.162,32.913 132.622,32.913 z"
       id="path15"
       style="fill:#000000" />
    <g
       id="text17"
       style="font-size:11.96584129px">
      <path
         d="m 296.07263,169.48294 c -0.52974,0 -0.79461,-0.26487 -0.79461,-0.79461 l 0,-28.67595 c 0,-0.52971 0.26487,-0.79457 0.79461,-0.7946 l 4.9546,0 c 0.52973,3e-5 0.7946,0.26489 0.79461,0.7946 l 0,10.21303 c -1e-5,0.52976 0.26486,0.79463 0.79461,0.79461 l 8.53033,0 c 0.52972,2e-5 0.79459,-0.26485 0.79461,-0.79461 l 0,-10.21303 c -2e-5,-0.52971 0.26485,-0.79457 0.79461,-0.7946 l 4.9546,0 c 0.52971,3e-5 0.79458,0.26489 0.79461,0.7946 l 0,28.67595 c -3e-5,0.52974 -0.2649,0.79461 -0.79461,0.79461 l -4.9546,0 c -0.52976,0 -0.79463,-0.26487 -0.79461,-0.79461 l 0,-10.91415 c -2e-5,-0.52973 -0.26489,-0.7946 -0.79461,-0.79461 l -8.53033,0 c -0.52975,1e-5 -0.79462,0.26488 -0.79461,0.79461 l 0,10.91415 c -1e-5,0.52974 -0.26488,0.79461 -0.79461,0.79461 l -4.9546,0"
         id="path3086"
         style="font-size:47.86336517px;fill:#000000;font-family:PoliticsHead;-inkscape-font-specification:PoliticsHead" />
      <path
         d="m 333.27892,158.75575 5.49213,0 c 0.40508,1e-5 0.56867,-0.16358 0.49079,-0.49079 l -2.68764,-10.09617 -0.11686,-0.95821 -0.81798,0 -0.11685,0.95821 -2.71101,10.09617 c -0.0779,0.32721 0.0779,0.4908 0.46742,0.49079 m 7.26831,5.95955 -8.99775,0 c -0.29604,10e-6 -0.47522,0.0935 -0.53753,0.28045 l -1.09843,4.13663 c -0.0623,0.23371 -0.21813,0.35056 -0.46741,0.35056 l -5.77259,0 c -0.35835,0 -0.53753,-0.11685 -0.53752,-0.35056 -1e-5,-0.14023 0.0312,-0.28824 0.0935,-0.44405 l 8.55371,-28.97977 c 0.0935,-0.32716 0.34276,-0.49075 0.74786,-0.49078 l 7.08135,0 c 0.40507,3e-5 0.65436,0.16362 0.74786,0.49078 l 8.57708,29.16674 c 0.0311,0.0935 0.0467,0.17918 0.0467,0.25708 -2e-5,0.23371 -0.17141,0.35056 -0.51415,0.35056 l -5.79596,0 c -0.24931,0 -0.4129,-0.11685 -0.49079,-0.35056 l -1.09842,-4.13663 c -0.0623,-0.18696 -0.24152,-0.28044 -0.53753,-0.28045"
         id="path3088"
         style="font-size:47.86336517px;fill:#000000;font-family:PoliticsHead;-inkscape-font-specification:PoliticsHead" />
      <path
         d="m 362.81959,169.95036 c -3.22518,0 -5.63237,-0.7245 -7.22157,-2.17349 -1.57364,-1.46456 -2.36046,-3.55235 -2.36045,-6.26337 l 0,-14.09258 c -1e-5,-2.60192 0.81797,-4.65855 2.45393,-6.16989 1.65153,-1.51128 4.02755,-2.26693 7.12809,-2.26696 l 3.36539,0 c 2.33706,3e-5 4.32357,0.54535 5.95955,1.63595 1.63593,1.09067 2.72657,2.59419 3.27191,4.51056 0.0935,0.32722 0.1402,0.56093 0.14022,0.70113 -2e-5,0.23373 -0.13246,0.39732 -0.3973,0.49078 l -4.25348,1.54248 c -0.12467,0.0468 -0.24152,0.0701 -0.35056,0.0701 -0.35838,2e-5 -0.59987,-0.17916 -0.7245,-0.53753 -0.49859,-1.63593 -1.71387,-2.45391 -3.64584,-2.45393 l -3.36539,0 c -0.90368,2e-5 -1.63597,0.31163 -2.19686,0.93483 -0.56091,0.60766 -0.84135,1.35553 -0.84134,2.24359 l 0,12.69034 c -10e-6,0.93484 0.27264,1.69828 0.81797,2.29034 0.56089,0.59206 1.30096,0.88809 2.22023,0.88809 l 3.36539,0 c 1.88523,0 3.1005,-0.81797 3.64584,-2.45394 0.12463,-0.35834 0.36612,-0.53752 0.7245,-0.53752 0.10904,0 0.22589,0.0234 0.35056,0.0701 l 4.25348,1.54247 c 0.26484,0.0935 0.39728,0.25709 0.3973,0.49079 -2e-5,0.29603 -0.0468,0.60764 -0.14022,0.93483 -0.52976,1.88524 -1.61261,3.34202 -3.24854,4.37033 -1.62039,1.02832 -3.62249,1.54248 -6.00629,1.54248 l -3.34202,0"
         id="path3090"
         style="font-size:47.86336517px;fill:#000000;font-family:PoliticsHead;-inkscape-font-specification:PoliticsHead" />
      <path
         d="m 382.26408,169.48294 c -0.52974,0 -0.79461,-0.26487 -0.79461,-0.79461 l 0,-28.67595 c 0,-0.52971 0.26487,-0.79457 0.79461,-0.7946 l 4.95461,0 c 0.52972,3e-5 0.79459,0.26489 0.7946,0.7946 l 0,8.22652 c -10e-6,1.2932 -0.12465,2.37605 -0.37393,3.24854 l 9.41843,-11.96584 c 0.15578,-0.20252 0.36612,-0.30379 0.63101,-0.30382 l 5.37528,0 c 0.52971,3e-5 0.79458,0.26489 0.7946,0.7946 -2e-5,0.24932 -0.0623,0.43629 -0.18696,0.5609 l -9.11461,11.17124 c -0.0935,0.10908 -0.14024,0.19477 -0.14022,0.25707 -2e-5,0.0312 0.0467,0.11688 0.14022,0.25708 l 10.86742,15.93888 c 0.0935,0.14022 0.14019,0.29603 0.14022,0.46741 -3e-5,0.54532 -0.26489,0.81798 -0.7946,0.81798 l -5.79596,0 c -0.35837,0 -0.63882,-0.16359 -0.84135,-0.49079 l -7.36179,-11.61528 c -0.10908,-0.18695 -0.24931,-0.28043 -0.42068,-0.28044 -0.12466,1e-5 -0.2493,0.0779 -0.37393,0.2337 l -1.96315,2.45394 0,8.90426 c -10e-6,0.52974 -0.26488,0.79461 -0.7946,0.79461 l -4.95461,0"
         id="path3092"
         style="font-size:47.86336517px;fill:#000000;font-family:PoliticsHead;-inkscape-font-specification:PoliticsHead" />
      <path
         d="m 429.33283,169.48294 -18.27595,0 c -0.52974,0 -0.79461,-0.26487 -0.79461,-0.79461 l 0,-28.44224 c 0,-0.52971 0.26487,-0.79458 0.79461,-0.79461 l 18.27595,0 c 0.52972,3e-5 0.79459,0.2649 0.79461,0.79461 l 0,4.37034 c -2e-5,0.52976 -0.26489,0.79463 -0.79461,0.7946 l -11.73213,0 c -0.52975,3e-5 -0.79462,0.2649 -0.79461,0.79461 l 0,4.37034 c -10e-6,0.52975 0.26486,0.79462 0.79461,0.7946 l 9.62876,0 c 0.52972,2e-5 0.79459,0.26489 0.79461,0.79461 l 0,4.37034 c -2e-5,0.52975 -0.26489,0.79462 -0.79461,0.7946 l -9.62876,0 c -0.52975,2e-5 -0.79462,0.26488 -0.79461,0.79461 l 0,4.60404 c -10e-6,0.52975 0.26486,0.79462 0.79461,0.79461 l 11.73213,0 c 0.52972,1e-5 0.79459,0.26488 0.79461,0.79461 l 0,4.37033 c -2e-5,0.52974 -0.26489,0.79461 -0.79461,0.79461"
         id="path3094"
         style="font-size:47.86336517px;fill:#000000;font-family:PoliticsHead;-inkscape-font-specification:PoliticsHead" />
      <path
         d="m 449.64205,152.04834 c 0.90366,1e-5 1.67489,-0.28044 2.31371,-0.84135 0.63878,-0.56088 0.95818,-1.25421 0.9582,-2.08 l 0,-0.81798 c -2e-5,-0.82575 -0.31942,-1.51129 -0.9582,-2.05663 -0.62324,-0.56087 -1.39447,-0.84132 -2.31371,-0.84135 l -5.58562,0 c -0.52974,3e-5 -0.79461,0.2649 -0.7946,0.79461 l 0,5.04809 c -10e-6,0.52975 0.26486,0.79462 0.7946,0.79461 l 5.58562,0 m -12.12943,17.4346 c -0.52975,0 -0.79461,-0.26487 -0.79461,-0.79461 l 0,-28.44224 c 0,-0.52971 0.26486,-0.79458 0.79461,-0.79461 l 12.05932,0 c 2.97586,3e-5 5.31294,0.83359 7.01124,2.50068 1.69825,1.65156 2.54738,3.89515 2.54741,6.73078 -3e-5,3.27193 -1.31658,5.71028 -3.94966,7.31506 -0.23373,0.14024 -0.35059,0.29604 -0.35056,0.46741 -3e-5,0.14024 0.0389,0.31163 0.11685,0.51416 l 4.58067,11.14787 c 0.20252,0.46741 0.3038,0.7946 0.30382,0.98157 -2e-5,0.24929 -0.18699,0.37393 -0.56089,0.37393 l -5.65573,0 c -0.20257,0 -0.35838,-0.12464 -0.46742,-0.37393 l -4.5573,-10.98427 c -0.0935,-0.21812 -0.2571,-0.32718 -0.49079,-0.32719 l -4.04315,0 c -0.52974,1e-5 -0.79461,0.26488 -0.7946,0.79461 l 0,10.09617 c -10e-6,0.52974 -0.26488,0.79461 -0.79461,0.79461 l -4.9546,0"
         id="path3096"
         style="font-size:47.86336517px;fill:#000000;font-family:PoliticsHead;-inkscape-font-specification:PoliticsHead" />
      <path
         d="m 474.15799,169.95036 c -2.71102,0 -5.01693,-0.55311 -6.91775,-1.65933 -1.90083,-1.12179 -3.14727,-2.66426 -3.73932,-4.62741 -0.0935,-0.32719 -0.14023,-0.5609 -0.14023,-0.70113 0,-0.2337 0.13243,-0.39729 0.3973,-0.49078 l 4.48719,-1.70607 c 0.10906,-0.0467 0.22591,-0.0701 0.35057,-0.0701 0.3116,0 0.5531,0.17918 0.72449,0.53752 0.81018,1.74503 2.43055,2.61754 4.86112,2.61753 1.16853,10e-6 2.0722,-0.26486 2.71101,-0.7946 0.63879,-0.52974 0.95819,-1.22307 0.95821,-2.08 -2e-5,-0.7946 -0.36616,-1.50352 -1.09843,-2.12675 -0.7323,-0.63879 -2.03327,-1.25422 -3.90292,-1.84629 -3.16286,-0.99714 -5.47656,-2.28253 -6.94112,-3.85618 -1.449,-1.57361 -2.17349,-3.52897 -2.17349,-5.86606 0,-2.21241 0.9582,-4.1444 2.87461,-5.79596 1.93198,-1.66708 4.41707,-2.50064 7.45528,-2.50067 2.47729,3e-5 4.58066,0.52977 6.31011,1.58921 1.745,1.0595 2.96028,2.54744 3.64584,4.46382 0.0935,0.32722 0.14021,0.56092 0.14023,0.70112 -2e-5,0.23374 -0.13246,0.39733 -0.39731,0.49079 l -4.25348,1.54247 c -0.10908,0.0468 -0.22593,0.0701 -0.35056,0.0701 -0.31163,3e-5 -0.55313,-0.17915 -0.72449,-0.53752 -0.35837,-0.76343 -0.91148,-1.36328 -1.65933,-1.79955 -0.7323,-0.43623 -1.59702,-0.65436 -2.59416,-0.65439 -1.10623,3e-5 -1.97873,0.2649 -2.61752,0.79461 -0.62323,0.52976 -0.93484,1.19193 -0.93484,1.98652 0,0.76346 0.36614,1.42564 1.09843,1.98651 0.73227,0.54534 2.04883,1.14519 3.94966,1.79955 6.04523,2.04107 9.06784,5.14938 9.06787,9.32495 -3e-5,2.83566 -0.93486,5.07925 -2.8045,6.73078 -1.86968,1.65154 -4.46383,2.47731 -7.78247,2.47731"
         id="path3098"
         style="font-size:47.86336517px;fill:#000000;font-family:PoliticsHead;-inkscape-font-specification:PoliticsHead" />
      <path
         d="m 496.12654,169.48294 -4.95461,0 c -0.52974,0 -0.79461,-0.26487 -0.7946,-0.79461 l 0,-28.44224 c -10e-6,-0.52971 0.26486,-0.79458 0.7946,-0.79461 l 11.05438,0 c 3.14725,3e-5 5.53107,0.81022 7.15146,2.43057 1.62035,1.60481 2.43054,3.84841 2.43056,6.73078 l 0,0.7245 c -2e-5,1.19971 -0.20257,2.34488 -0.60764,3.4355 -0.40511,1.09065 -0.99717,2.06443 -1.77618,2.92135 -0.76346,0.85694 -1.76841,1.54248 -3.01483,2.05663 -1.24646,0.51417 -2.6487,0.77124 -4.20674,0.77123 l -4.48719,0 c -0.52975,1e-5 -0.79461,0.26488 -0.7946,0.79461 l 0,9.37168 c -1e-5,0.52974 -0.26488,0.79461 -0.79461,0.79461 m 1.58921,-16.89708 4.62742,0 c 0.95039,2e-5 1.72942,-0.28822 2.33708,-0.86471 0.6232,-0.59205 0.93481,-1.37886 0.93483,-2.36045 l 0,-0.67776 c -2e-5,-0.98155 -0.31163,-1.76836 -0.93483,-2.36045 -0.62324,-0.60761 -1.40227,-0.91143 -2.33708,-0.91146 l -4.62742,0 c -0.52975,3e-5 -0.79461,0.2649 -0.7946,0.79461 l 0,5.58562 c -1e-5,0.52975 0.26485,0.79462 0.7946,0.7946"
         id="path3100"
         style="font-size:47.86336517px;fill:#000000;font-family:PoliticsHead;-inkscape-font-specification:PoliticsHead" />
      <path
         d="m 522.20834,158.75575 5.49213,0 c 0.40508,1e-5 0.56867,-0.16358 0.49079,-0.49079 l -2.68764,-10.09617 -0.11686,-0.95821 -0.81797,0 -0.11686,0.95821 -2.71101,10.09617 c -0.0779,0.32721 0.0779,0.4908 0.46742,0.49079 m 7.26831,5.95955 -8.99775,0 c -0.29604,10e-6 -0.47522,0.0935 -0.53753,0.28045 l -1.09843,4.13663 c -0.0623,0.23371 -0.21813,0.35056 -0.46741,0.35056 l -5.77259,0 c -0.35835,0 -0.53752,-0.11685 -0.53752,-0.35056 0,-0.14023 0.0312,-0.28824 0.0935,-0.44405 l 8.55371,-28.97977 c 0.0935,-0.32716 0.34276,-0.49075 0.74786,-0.49078 l 7.08135,0 c 0.40507,3e-5 0.65436,0.16362 0.74786,0.49078 l 8.57708,29.16674 c 0.0311,0.0935 0.0467,0.17918 0.0467,0.25708 -2e-5,0.23371 -0.17141,0.35056 -0.51415,0.35056 l -5.79596,0 c -0.24931,0 -0.4129,-0.11685 -0.49079,-0.35056 l -1.09842,-4.13663 c -0.0623,-0.18696 -0.24152,-0.28044 -0.53753,-0.28045"
         id="path3102"
         style="font-size:47.86336517px;fill:#000000;font-family:PoliticsHead;-inkscape-font-specification:PoliticsHead" />
      <path
         d="m 551.74901,169.95036 c -3.22518,0 -5.63236,-0.7245 -7.22157,-2.17349 -1.57364,-1.46456 -2.36045,-3.55235 -2.36045,-6.26337 l 0,-14.09258 c 0,-2.60192 0.81797,-4.65855 2.45393,-6.16989 1.65153,-1.51128 4.02756,-2.26693 7.12809,-2.26696 l 3.36539,0 c 2.33706,3e-5 4.32358,0.54535 5.95955,1.63595 1.63594,1.09067 2.72657,2.59419 3.27191,4.51056 0.0935,0.32722 0.1402,0.56093 0.14023,0.70113 -3e-5,0.23373 -0.13246,0.39732 -0.3973,0.49078 l -4.25349,1.54248 c -0.12466,0.0468 -0.24152,0.0701 -0.35056,0.0701 -0.35837,2e-5 -0.59987,-0.17916 -0.72449,-0.53753 -0.4986,-1.63593 -1.71388,-2.45391 -3.64585,-2.45393 l -3.36539,0 c -0.90368,2e-5 -1.63596,0.31163 -2.19685,0.93483 -0.56091,0.60766 -0.84136,1.35553 -0.84135,2.24359 l 0,12.69034 c -1e-5,0.93484 0.27265,1.69828 0.81798,2.29034 0.56088,0.59206 1.30096,0.88809 2.22022,0.88809 l 3.36539,0 c 1.88523,0 3.10051,-0.81797 3.64585,-2.45394 0.12462,-0.35834 0.36612,-0.53752 0.72449,-0.53752 0.10904,0 0.2259,0.0234 0.35056,0.0701 l 4.25349,1.54247 c 0.26484,0.0935 0.39727,0.25709 0.3973,0.49079 -3e-5,0.29603 -0.0468,0.60764 -0.14023,0.93483 -0.52976,1.88524 -1.6126,3.34202 -3.24853,4.37033 -1.6204,1.02832 -3.62249,1.54248 -6.0063,1.54248 l -3.34202,0"
         id="path3104"
         style="font-size:47.86336517px;fill:#000000;font-family:PoliticsHead;-inkscape-font-specification:PoliticsHead" />
      <path
         d="m 589.46946,169.48294 -18.27595,0 c -0.52974,0 -0.79461,-0.26487 -0.79461,-0.79461 l 0,-28.44224 c 0,-0.52971 0.26487,-0.79458 0.79461,-0.79461 l 18.27595,0 c 0.52972,3e-5 0.79458,0.2649 0.79461,0.79461 l 0,4.37034 c -3e-5,0.52976 -0.26489,0.79463 -0.79461,0.7946 l -11.73213,0 c -0.52975,3e-5 -0.79462,0.2649 -0.79461,0.79461 l 0,4.37034 c -10e-6,0.52975 0.26486,0.79462 0.79461,0.7946 l 9.62876,0 c 0.52972,2e-5 0.79459,0.26489 0.79461,0.79461 l 0,4.37034 c -2e-5,0.52975 -0.26489,0.79462 -0.79461,0.7946 l -9.62876,0 c -0.52975,2e-5 -0.79462,0.26488 -0.79461,0.79461 l 0,4.60404 c -10e-6,0.52975 0.26486,0.79462 0.79461,0.79461 l 11.73213,0 c 0.52972,1e-5 0.79458,0.26488 0.79461,0.79461 l 0,4.37033 c -3e-5,0.52974 -0.26489,0.79461 -0.79461,0.79461"
         id="path3106"
         style="font-size:47.86336517px;fill:#000000;font-family:PoliticsHead;-inkscape-font-specification:PoliticsHead" />
    </g>
    <g
       id="text21"
       style="font-size:12.04123974px">
      <path
         d="m 296.19424,215.12044 c -0.61083,0 -0.91623,-0.30541 -0.91623,-0.91623 l 0,-33.0649 c 0,-0.61078 0.3054,-0.91619 0.91623,-0.91622 l 6.11714,0 c 0.41318,3e-5 0.69164,0.16172 0.83538,0.48506 l 7.57232,17.35435 c 0.43114,1.05997 0.64672,1.76959 0.64674,2.12888 l 0.26948,0 c -2e-5,-0.28743 0.21556,-0.99705 0.64675,-2.12888 l 7.38369,-17.35435 c 0.12572,-0.32334 0.40418,-0.48503 0.83538,-0.48506 l 6.09019,0 c 0.61078,3e-5 0.91619,0.30544 0.91622,0.91622 l 0,33.0649 c -3e-5,0.61082 -0.30544,0.91623 -0.91622,0.91623 l -5.57819,0 c -0.61084,0 -0.91625,-0.30541 -0.91622,-0.91623 l 0,-9.18918 c -3e-5,-0.91622 0.0179,-1.9043 0.0539,-2.96426 0.0539,-1.07789 0.11675,-2.05699 0.18864,-2.9373 0.0718,-0.88028 0.14369,-1.68871 0.21558,-2.4253 0.0718,-0.73655 0.12573,-1.33839 0.16169,-1.8055 0.0539,-0.46707 0.0808,-0.71859 0.0808,-0.75454 l -0.21558,0 c -3e-5,0.0539 -0.10782,0.44017 -0.32337,1.15876 -0.19765,0.71862 -0.45814,1.57197 -0.78149,2.56003 -0.30544,0.97014 -0.57491,1.75162 -0.80843,2.34446 l -4.2847,9.99762 c -0.12578,0.32338 -0.40424,0.48506 -0.83538,0.48506 l -4.25774,0 c -0.50305,0 -0.81744,-0.17067 -0.94317,-0.51201 l -4.12301,-10.10541 c -0.23356,-0.55691 -0.51202,-1.33839 -0.83538,-2.34446 -0.32339,-1.02399 -0.60185,-1.90429 -0.83538,-2.64088 -0.23356,-0.75451 -0.35932,-1.14975 -0.37727,-1.1857 l -0.13474,0 c -1e-5,0.0359 0.0269,0.28747 0.0808,0.75454 0.0539,0.46711 0.11677,1.07793 0.18864,1.83245 0.0719,0.73659 0.14371,1.554 0.21558,2.45224 0.0719,0.89828 0.13473,1.89534 0.18863,2.9912 0.0539,1.07793 0.0808,2.09296 0.0808,3.0451 l 0,9.24308 c -2e-5,0.61082 -0.30542,0.91623 -0.91623,0.91623 l -5.68597,0"
         id="path3109"
         style="font-size:55.18901443px;fill:#000000;font-family:PoliticsHead;-inkscape-font-specification:PoliticsHead" />
      <path
         d="m 344.59241,202.75142 6.33273,0 c 0.46707,1e-5 0.65571,-0.18863 0.5659,-0.56591 l -3.09899,-11.64143 -0.13474,-1.10486 -0.94317,0 -0.13474,1.10486 -3.12594,11.64143 c -0.0898,0.37728 0.0898,0.56592 0.53895,0.56591 m 8.38076,6.87167 -10.37489,0 c -0.34135,1e-5 -0.54795,0.1078 -0.6198,0.32338 l -1.26654,4.76975 c -0.0719,0.26948 -0.25152,0.40422 -0.53896,0.40422 l -6.6561,0 c -0.4132,0 -0.61979,-0.13474 -0.61979,-0.40422 0,-0.16168 0.0359,-0.33235 0.10779,-0.51201 l 9.86288,-33.41522 c 0.10778,-0.37723 0.39522,-0.56587 0.86233,-0.5659 l 8.16517,0 c 0.46707,3e-5 0.75451,0.18867 0.86233,0.5659 l 9.88982,33.63081 c 0.0359,0.10779 0.0539,0.2066 0.0539,0.29642 -3e-5,0.26948 -0.19765,0.40422 -0.59285,0.40422 l -6.68305,0 c -0.28746,0 -0.4761,-0.13474 -0.5659,-0.40422 l -1.26654,-4.76975 c -0.0719,-0.21558 -0.27849,-0.32337 -0.6198,-0.32338"
         id="path3111"
         style="font-size:55.18901443px;fill:#000000;font-family:PoliticsHead;-inkscape-font-specification:PoliticsHead" />
      <path
         d="m 378.38491,215.65939 c -3.70084,0 -6.46748,-0.84436 -8.29991,-2.53309 -1.83246,-1.68872 -2.74868,-4.08707 -2.74868,-7.19505 l 0,-16.2495 c 0,-3.00015 0.94317,-5.37155 2.82952,-7.11421 1.9043,-1.74259 4.64398,-2.6139 8.21907,-2.61393 l 3.98826,0 c 2.69476,3e-5 4.98532,0.61983 6.87168,1.8594 1.90428,1.22166 3.16185,2.92835 3.77269,5.12007 0.10776,0.3773 0.16166,0.64677 0.16169,0.80843 -3e-5,0.26951 -0.15274,0.45814 -0.45812,0.56591 l -4.90449,1.77855 -0.40421,0.0808 c -0.41323,3e-5 -0.69169,-0.20657 -0.83539,-0.6198 -0.53897,-1.81445 -1.94025,-2.72169 -4.20385,-2.72172 l -3.98826,0 c -1.042,3e-5 -1.88636,0.35933 -2.53309,1.07791 -0.64676,0.70067 -0.97013,1.56299 -0.97012,2.58698 l 0,14.63264 c -1e-5,1.07792 0.31438,1.95821 0.94317,2.64088 0.64673,0.68268 1.50008,1.02402 2.56004,1.02401 l 4.123,0 c 1.05993,1e-5 1.90429,-0.35031 2.53309,-1.05096 0.64673,-0.70063 0.9701,-1.57194 0.97012,-2.61393 l 0,-2.29056 c -2e-5,-0.6108 -0.30543,-0.91621 -0.91622,-0.91623 l -3.47626,0 c -0.61084,2e-5 -0.91624,-0.30539 -0.91623,-0.91622 l 0,-4.1769 c -10e-6,-0.6108 0.30539,-0.91621 0.91623,-0.91623 l 10.75215,0 c 0.61079,2e-5 0.9162,0.30543 0.91623,0.91623 l 0,9.10834 c -3e-5,3.00019 -0.95219,5.37159 -2.85647,7.11421 -1.88636,1.74262 -4.61707,2.61393 -8.19211,2.61393 l -3.85353,0"
         id="path3113"
         style="font-size:55.18901443px;fill:#000000;font-family:PoliticsHead;-inkscape-font-specification:PoliticsHead" />
      <path
         d="m 401.50608,215.12044 c -0.61082,0 -0.91623,-0.30541 -0.91622,-0.91623 l 0,-32.79542 c -10e-6,-0.61078 0.3054,-0.91619 0.91622,-0.91623 l 14.28231,0 c 3.64691,4e-5 6.45846,0.94321 8.43465,2.82952 1.97614,1.86841 2.96422,4.44641 2.96426,7.73401 l 0,13.50083 c -4e-5,3.28763 -0.9971,5.87461 -2.99121,7.76095 -1.97619,1.86838 -4.77876,2.80257 -8.4077,2.80257 l -14.28231,0 m 7.54537,-6.87168 6.81779,0 c 1.09585,1e-5 1.99411,-0.33235 2.69477,-0.99707 0.71859,-0.68267 1.07789,-1.58092 1.07791,-2.69477 l 0,-13.41999 c -2e-5,-1.13178 -0.35932,-2.03902 -1.07791,-2.72172 -0.71863,-0.70062 -1.61688,-1.05094 -2.69477,-1.05097 l -6.81779,0 c -0.61083,3e-5 -0.91623,0.30544 -0.91622,0.91623 l 0,19.05206 c -10e-6,0.61083 0.30539,0.91624 0.91622,0.91623"
         id="path3115"
         style="font-size:55.18901443px;fill:#000000;font-family:PoliticsHead;-inkscape-font-specification:PoliticsHead" />
      <path
         d="m 456.53341,215.12044 -21.07315,0 c -0.61082,0 -0.91623,-0.30541 -0.91623,-0.91623 l 0,-32.79542 c 0,-0.61078 0.30541,-0.91619 0.91623,-0.91623 l 21.07315,0 c 0.61079,4e-5 0.91619,0.30545 0.91622,0.91623 l 0,5.03923 c -3e-5,0.61084 -0.30543,0.91625 -0.91622,0.91622 l -13.52778,0 c -0.61083,3e-5 -0.91624,0.30544 -0.91622,0.91623 l 0,5.03923 c -2e-5,0.61084 0.30539,0.91624 0.91622,0.91622 l 11.10248,0 c 0.61079,2e-5 0.9162,0.30543 0.91622,0.91623 l 0,5.03923 c -2e-5,0.61083 -0.30543,0.91624 -0.91622,0.91622 l -11.10248,0 c -0.61083,2e-5 -0.91624,0.30542 -0.91622,0.91623 l 0,5.3087 c -2e-5,0.61083 0.30539,0.91624 0.91622,0.91623 l 13.52778,0 c 0.61079,1e-5 0.91619,0.30541 0.91622,0.91622 l 0,5.03923 c -3e-5,0.61082 -0.30543,0.91623 -0.91622,0.91623"
         id="path3117"
         style="font-size:55.18901443px;fill:#000000;font-family:PoliticsHead;-inkscape-font-specification:PoliticsHead" />
      <path
         d="m 481.48703,215.12044 -15.52191,0 c -0.61082,0 -0.91622,-0.30541 -0.91622,-0.91623 l 0,-32.79542 c 0,-0.61078 0.3054,-0.91619 0.91622,-0.91623 l 13.932,0 c 3.35946,4e-5 5.99136,0.80847 7.89569,2.4253 1.92225,1.6169 2.88338,3.91644 2.88341,6.89863 -3e-5,1.5091 -0.35035,2.9014 -1.05096,4.1769 -0.68271,1.25759 -1.61689,2.18279 -2.80257,2.77562 -0.21561,0.12578 -0.3234,0.2695 -0.32337,0.43117 -3e-5,0.17967 0.10776,0.32339 0.32337,0.43116 2.94626,1.43723 4.41042,3.94337 4.39249,7.51843 -0.018,3.2517 -0.89829,5.73089 -2.64088,7.43758 -1.72469,1.68873 -4.0871,2.53309 -7.08727,2.53309 m -7.97653,-20.88452 6.35967,0 c 1.16772,2e-5 2.05699,-0.30538 2.66783,-0.91622 0.61079,-0.61079 0.9162,-1.50007 0.91622,-2.66783 -2e-5,-1.16771 -0.30543,-2.048 -0.91622,-2.64088 -0.61084,-0.61079 -1.50011,-0.9162 -2.66783,-0.91622 l -6.35967,0 c -0.61083,2e-5 -0.91624,0.30543 -0.91623,0.91622 l 0,5.30871 c -10e-6,0.61084 0.3054,0.91624 0.91623,0.91622 m 0,14.28232 6.92557,0 c 1.00603,0 1.84141,-0.34134 2.50614,-1.02402 0.68266,-0.70063 1.024,-1.6438 1.02402,-2.82951 -2e-5,-1.1318 -0.34136,-2.04802 -1.02402,-2.74868 -0.66473,-0.71859 -1.50011,-1.07789 -2.50614,-1.07791 l -6.92557,0 c -0.61083,2e-5 -0.91624,0.30543 -0.91623,0.91623 l 0,5.84766 c -10e-6,0.61083 0.3054,0.91623 0.91623,0.91623"
         id="path3119"
         style="font-size:55.18901443px;fill:#000000;font-family:PoliticsHead;-inkscape-font-specification:PoliticsHead" />
      <path
         d="m 509.02765,215.65939 c -3.7188,0 -6.49442,-0.84436 -8.32686,-2.53309 -1.81448,-1.68872 -2.72172,-4.08707 -2.72172,-7.19505 l 0,-24.79194 c 0,-0.61078 0.3054,-0.91619 0.91622,-0.91622 l 5.71293,0 c 0.6108,3e-5 0.91621,0.30544 0.91622,0.91622 l 0,23.98351 c -1e-5,1.07792 0.31438,1.95821 0.94317,2.64088 0.64674,0.68268 1.50008,1.02402 2.56004,1.02401 l 3.85353,0 c 1.04196,1e-5 1.87734,-0.35031 2.50614,-1.05096 0.64673,-0.70063 0.97908,-1.57194 0.99707,-2.61393 l 0,-23.98351 c -2e-5,-0.61078 0.30538,-0.91619 0.91622,-0.91622 l 5.71293,0 c 0.61079,3e-5 0.91619,0.30544 0.91622,0.91622 l 0,24.79194 c -3e-5,3.00019 -0.95218,5.37159 -2.85646,7.11421 -1.88637,1.74262 -4.61707,2.61393 -8.19212,2.61393 l -3.85353,0"
         id="path3121"
         style="font-size:55.18901443px;fill:#000000;font-family:PoliticsHead;-inkscape-font-specification:PoliticsHead" />
      <path
         d="m 547.21262,195.01741 c 1.04196,2e-5 1.93124,-0.32335 2.66783,-0.97012 0.73655,-0.64673 1.10484,-1.44618 1.10486,-2.39835 l 0,-0.94317 c -2e-5,-0.95213 -0.36831,-1.7426 -1.10486,-2.37141 -0.71863,-0.64672 -1.6079,-0.97009 -2.66783,-0.97012 l -6.44051,0 c -0.61083,3e-5 -0.91624,0.30544 -0.91622,0.91623 l 0,5.82071 c -2e-5,0.61084 0.30539,0.91625 0.91622,0.91623 l 6.44051,0 m -13.98588,20.10303 c -0.61082,0 -0.91623,-0.30541 -0.91623,-0.91623 l 0,-32.79542 c 0,-0.61078 0.30541,-0.91619 0.91623,-0.91623 l 13.90504,0 c 3.43133,4e-5 6.1261,0.96118 8.08433,2.88342 1.95817,1.90433 2.93728,4.49132 2.93731,7.76095 -3e-5,3.77271 -1.51809,6.58425 -4.55418,8.43465 -0.2695,0.1617 -0.40424,0.34135 -0.40421,0.53895 -3e-5,0.16171 0.0449,0.35932 0.13474,0.59286 l 5.28176,12.85408 c 0.23351,0.53895 0.35029,0.91622 0.35032,1.1318 -3e-5,0.28745 -0.21561,0.43117 -0.64675,0.43117 l -6.52136,0 c -0.23357,0 -0.41322,-0.14372 -0.53895,-0.43117 l -5.25481,-12.66544 c -0.10781,-0.2515 -0.29645,-0.37726 -0.56591,-0.37727 l -4.66196,0 c -0.61083,1e-5 -0.91624,0.30542 -0.91622,0.91622 l 0,11.64143 c -2e-5,0.61082 -0.30542,0.91623 -0.91623,0.91623 l -5.71292,0"
         id="path3123"
         style="font-size:55.18901443px;fill:#000000;font-family:PoliticsHead;-inkscape-font-specification:PoliticsHead" />
      <path
         d="m 575.42694,215.65939 c -3.70083,0 -6.46747,-0.84436 -8.29991,-2.53309 -1.83245,-1.68872 -2.74867,-4.08707 -2.74867,-7.19505 l 0,-16.2495 c 0,-3.00015 0.94317,-5.37155 2.82952,-7.11421 1.9043,-1.74259 4.64398,-2.6139 8.21906,-2.61393 l 3.98827,0 c 2.69476,3e-5 4.98531,0.61983 6.87168,1.8594 1.90428,1.22166 3.16184,2.92835 3.77269,5.12007 0.10776,0.3773 0.16165,0.64677 0.16168,0.80843 -3e-5,0.26951 -0.15273,0.45814 -0.45811,0.56591 l -4.90449,1.77855 -0.40422,0.0808 c -0.41322,3e-5 -0.69168,-0.20657 -0.83538,-0.6198 -0.53897,-1.81445 -1.94026,-2.72169 -4.20385,-2.72172 l -3.98827,0 c -1.04199,3e-5 -1.88635,0.35933 -2.53309,1.07791 -0.64675,0.70067 -0.97013,1.56299 -0.97012,2.58698 l 0,14.63264 c -10e-6,1.07792 0.31438,1.95821 0.94318,2.64088 0.64673,0.68268 1.50007,1.02402 2.56003,1.02401 l 4.12301,0 c 1.05993,1e-5 1.90429,-0.35031 2.53309,-1.05096 0.64672,-0.70063 0.9701,-1.57194 0.97012,-2.61393 l 0,-2.29056 c -2e-5,-0.6108 -0.30543,-0.91621 -0.91622,-0.91623 l -3.47627,0 c -0.61083,2e-5 -0.91624,-0.30539 -0.91622,-0.91622 l 0,-4.1769 c -2e-5,-0.6108 0.30539,-0.91621 0.91622,-0.91623 l 10.75216,0 c 0.61079,2e-5 0.9162,0.30543 0.91623,0.91623 l 0,9.10834 c -3e-5,3.00019 -0.95219,5.37159 -2.85647,7.11421 -1.88637,1.74262 -4.61707,2.61393 -8.19212,2.61393 l -3.85353,0"
         id="path3125"
         style="font-size:55.18901443px;fill:#000000;font-family:PoliticsHead;-inkscape-font-specification:PoliticsHead" />
    </g>
    <g
       id="text25"
       style="font-size:12.25180435px">
      <path
         d="m 296.80374,127.76238 c -1.017,0 -1.5255,-0.50849 -1.52549,-1.52549 l 0,-55.052355 c -1e-5,-1.016938 0.50849,-1.525435 1.52549,-1.525493 l 8.79402,0 c 0.59821,5.8e-5 1.03193,0.209439 1.30116,0.628144 l 17.90211,31.048274 c 1.31607,2.18357 2.13864,3.81375 2.46771,4.89055 l 0.35894,0 c -0.50854,-2.15361 -0.9273,-4.81575 -1.25629,-7.986406 -0.32907,-3.200512 -0.49358,-6.072025 -0.49354,-8.61455 l 0,-18.440519 c -4e-5,-1.016938 0.50845,-1.525435 1.52549,-1.525493 l 9.5119,0 c 1.01694,5.8e-5 1.52544,0.508555 1.52549,1.525493 l 0,55.052355 c -5e-5,1.017 -0.50855,1.52549 -1.52549,1.52549 l -8.70429,0 c -0.56836,0 -1.01703,-0.23929 -1.34602,-0.71788 L 308.73848,97.162785 c -1.25631,-2.243339 -1.88445,-3.55945 -1.88443,-3.948335 l -0.35894,0 c 0.35892,1.316145 0.67299,3.380045 0.94222,6.191707 0.26918,2.781803 0.40378,5.608453 0.4038,8.479943 l 0,18.35079 c -2e-5,1.017 -0.50851,1.52549 -1.52549,1.52549 l -9.5119,0"
         id="path3073"
         style="font-size:91.88852692px;fill:#000000;font-family:PoliticsHead;-inkscape-font-specification:PoliticsHead" />
      <path
         d="m 389.49988,127.76238 -35.08634,0 c -1.017,0 -1.5255,-0.50849 -1.52549,-1.52549 l 0,-54.603681 c -1e-5,-1.016938 0.50849,-1.525435 1.52549,-1.525493 l 35.08634,0 c 1.01695,5.8e-5 1.52545,0.508555 1.52549,1.525493 l 0,8.390212 c -4e-5,1.017042 -0.50854,1.52554 -1.52549,1.525493 l -22.52346,0 c -1.01701,4.7e-5 -1.52551,0.508544 -1.52549,1.525494 l 0,8.390212 c -2e-5,1.01703 0.50848,1.525528 1.52549,1.525493 l 18.48539,0 c 1.01696,3.5e-5 1.52545,0.508532 1.52549,1.525493 l 0,8.390214 c -4e-5,1.01702 -0.50853,1.52551 -1.52549,1.52549 l -18.48539,0 c -1.01701,2e-5 -1.52551,0.50852 -1.52549,1.52549 l 0,8.83889 c -2e-5,1.01701 0.50848,1.52551 1.52549,1.52549 l 22.52346,0 c 1.01695,2e-5 1.52545,0.50851 1.52549,1.5255 l 0,8.39021 c -4e-5,1.017 -0.50854,1.52549 -1.52549,1.52549"
         id="path3075"
         style="font-size:91.88852692px;fill:#000000;font-family:PoliticsHead;-inkscape-font-specification:PoliticsHead" />
      <path
         d="m 415.16406,127.76238 c -1.01701,0 -1.52551,-0.50849 -1.52549,-1.52549 l 0,-43.162482 c -2e-5,-1.01695 -0.50851,-1.525447 -1.52549,-1.525494 l -10.05031,0 c -1.017,4.7e-5 -1.5255,-0.508451 -1.52549,-1.525493 l 0,-8.390212 c -1e-5,-1.016938 0.50849,-1.525435 1.52549,-1.525493 l 35.71449,0 c 1.01695,5.8e-5 1.52545,0.508555 1.52549,1.525493 l 0,8.390212 c -4e-5,1.017042 -0.50854,1.52554 -1.52549,1.525493 l -10.05031,0 c -1.01703,4.7e-5 -1.52552,0.508544 -1.5255,1.525494 l 0,43.162482 c -2e-5,1.017 -0.50852,1.52549 -1.52549,1.52549 l -9.5119,0"
         id="path3077"
         style="font-size:91.88852692px;fill:#000000;font-family:PoliticsHead;-inkscape-font-specification:PoliticsHead" />
      <path
         d="m 447.42376,127.76238 c -0.26921,0 -0.49355,-0.0748 -0.67301,-0.22433 -0.17948,-0.14956 -0.26921,-0.31408 -0.26921,-0.49355 0,-0.23929 0.0449,-0.44867 0.1346,-0.62814 l 21.94018,-43.38682 c 0.2991,-0.568276 0.44865,-0.942171 0.44868,-1.121686 -3e-5,-0.628098 -0.40383,-0.94217 -1.21142,-0.942216 l -18.26105,0 c -1.017,4.6e-5 -1.5255,-0.508451 -1.5255,-1.525494 l 0,-8.255609 c 0,-1.016938 0.5085,-1.525435 1.5255,-1.525493 l 38.18219,0 c 0.68793,5.8e-5 1.03191,0.284218 1.03195,0.852481 -4e-5,0.179527 -0.11969,0.508554 -0.35894,0.987084 l -21.53637,42.489473 c -0.47861,0.86745 -0.7179,1.37594 -0.71788,1.52549 -2e-5,0.53842 0.40379,0.80763 1.21142,0.80761 l 19.38274,0 c 1.01695,2e-5 1.52545,0.50851 1.52549,1.5255 l 0,8.39021 c -4e-5,1.017 -0.50854,1.52549 -1.52549,1.52549 l -39.30388,0"
         id="path3079"
         style="font-size:91.88852692px;fill:#000000;font-family:PoliticsHead;-inkscape-font-specification:PoliticsHead" />
      <path
         d="m 517.77591,128.65973 -0.94222,0 c -4.48676,0 -8.61456,-1.21142 -12.38341,-3.63426 -3.76888,-2.45275 -6.19172,-5.57851 -7.26853,-9.3773 -0.17947,-0.62813 -0.26921,-1.0768 -0.2692,-1.34602 -1e-5,-0.44866 0.25424,-0.76273 0.76274,-0.94222 l 8.16588,-2.96125 c 0.20936,-0.0897 0.4337,-0.13458 0.67301,-0.1346 0.68795,2e-5 1.15158,0.344 1.39089,1.03195 0.50848,1.58533 1.60025,2.97622 3.27532,4.17267 1.67503,1.16657 3.57442,1.74984 5.69817,1.74983 l 0.98708,0 c 2.48264,1e-5 4.48672,-0.65804 6.01224,-1.97416 1.52546,-1.34601 2.28821,-2.99115 2.28824,-4.93542 -3e-5,-2.03397 -0.79269,-3.67911 -2.37797,-4.93542 -1.55544,-1.28618 -3.55952,-1.97415 -6.01224,-2.0639 l -5.7879,-0.22434 c -1.01702,-0.0598 -1.52551,-0.5683 -1.5255,-1.5255 l 0,-6.59551 c -1e-5,-0.957138 0.50848,-1.465635 1.5255,-1.525493 l 5.7879,-0.224337 c 2.48263,-0.0897 4.39698,-0.658021 5.74303,-1.704963 1.34599,-1.076781 2.019,-2.572361 2.01904,-4.486744 -4e-5,-1.764744 -0.77774,-3.260324 -2.33311,-4.486745 -1.52552,-1.256242 -3.60438,-1.884385 -6.23658,-1.884433 l -1.03195,0 c -1.85454,4.8e-5 -3.52959,0.568368 -5.02515,1.704963 -1.46569,1.106775 -2.46773,2.51262 -3.00612,4.21754 -0.23931,0.688008 -0.70294,1.031992 -1.39089,1.031951 -0.26922,4.1e-5 -0.49356,-0.04483 -0.67301,-0.134602 l -8.16588,-2.961251 c -0.5085,-0.179427 -0.76275,-0.493498 -0.76274,-0.942217 -1e-5,-0.26916 0.0897,-0.717834 0.2692,-1.346023 1.10672,-3.858551 3.39496,-6.984313 6.86472,-9.377296 3.49964,-2.422785 7.46293,-3.634204 11.88987,-3.634263 l 1.03195,0 c 6.22159,5.9e-5 11.17196,1.555462 14.85113,4.666214 3.67908,3.110861 5.51865,7.02928 5.51869,11.755271 -4e-5,2.811732 -0.58332,5.249528 -1.74983,7.313393 -1.13668,2.063936 -2.75191,3.514648 -4.84568,4.352142 -0.35898,0.149589 -0.53845,0.35897 -0.53841,0.628145 -4e-5,0.239322 0.17943,0.448704 0.53841,0.628144 2.30315,1.017024 4.09785,2.617294 5.38409,4.800814 1.31607,2.18357 1.97412,4.78588 1.97417,7.80694 -5e-5,5.17472 -1.8097,9.39226 -5.42896,12.65262 -3.58943,3.23045 -8.55476,4.84568 -14.89599,4.84568"
         id="path3081"
         style="font-size:91.88852692px;fill:#000000;font-family:PoliticsHead;-inkscape-font-specification:PoliticsHead" />
      <path
         d="m 569.23887,80.651565 -1.03196,0 c -2.39295,4.8e-5 -4.41198,0.747838 -6.0571,2.243373 -1.61525,1.495625 -2.42286,3.3651 -2.42284,5.60843 -2e-5,2.24341 0.79264,4.053061 2.37797,5.428961 1.5853,1.346056 3.61929,2.019067 6.10197,2.019035 l 1.03196,0 c 2.48263,3.2e-5 4.51662,-0.613156 6.10197,-1.839565 1.58528,-1.256254 2.37794,-3.125729 2.37797,-5.608431 -3e-5,-2.392888 -0.83756,-4.292275 -2.51257,-5.698165 -1.67509,-1.435712 -3.66421,-2.15359 -5.96737,-2.153638 m -1.03196,-11.441198 1.03196,0 c 6.43096,5.9e-5 11.54585,1.764843 15.34466,5.294359 3.79873,3.49971 5.69812,8.420168 5.69817,14.761389 l 0,18.530255 c -5e-5,6.64039 -1.88448,11.78519 -5.6533,15.4344 -3.73899,3.61931 -8.86883,5.42896 -15.38953,5.42896 l -1.03196,0 c -3.82871,0 -7.40314,-0.9123 -10.72332,-2.73691 -3.3202,-1.85452 -5.86268,-4.41196 -7.62746,-7.67234 -0.14956,-0.23928 -0.22434,-0.40379 -0.22434,-0.49354 0,-0.26919 0.23929,-0.50848 0.71788,-0.71788 l 8.12101,-3.54452 c 0.65804,-0.32902 1.0768,-0.49353 1.25629,-0.49355 0.23927,2e-5 0.50848,0.22435 0.80761,0.67301 0.71786,1.13666 1.77972,2.01905 3.18559,2.64718 1.40582,0.59825 2.9014,0.89736 4.48674,0.89735 l 1.03196,0 c 2.42281,1e-5 4.44184,-0.74778 6.0571,-2.24337 1.6152,-1.52548 2.42281,-3.66416 2.42284,-6.41604 l 0,-4.48675 c -3e-5,-0.44865 -0.13463,-0.76272 -0.4038,-0.94221 -0.26924,-0.17945 -0.58331,-0.13458 -0.94222,0.1346 -0.98712,0.83755 -2.36305,1.55543 -4.12781,2.15364 -1.76481,0.59825 -3.38004,0.89737 -4.84568,0.89734 l -0.98708,0 c -5.71314,3e-5 -10.34944,-1.57033 -13.90891,-4.71108 -3.55949,-3.14069 -5.33923,-7.507783 -5.33923,-13.101292 0,-5.922457 1.86947,-10.618578 5.60843,-14.088377 3.76886,-3.469693 8.91365,-5.204565 15.4344,-5.204624"
         id="path3083"
         style="font-size:91.88852692px;fill:#000000;font-family:PoliticsHead;-inkscape-font-specification:PoliticsHead" />
    </g>
  </g>
  <defs
     id="defs29" />
</svg>
